%TF.GenerationSoftware,KiCad,Pcbnew,(6.0.2)*%
%TF.CreationDate,2022-04-05T12:16:13-06:00*%
%TF.ProjectId,Centronics50_F4Lite_THTV1,43656e74-726f-46e6-9963-7335305f4634,rev?*%
%TF.SameCoordinates,Original*%
%TF.FileFunction,Soldermask,Bot*%
%TF.FilePolarity,Negative*%
%FSLAX46Y46*%
G04 Gerber Fmt 4.6, Leading zero omitted, Abs format (unit mm)*
G04 Created by KiCad (PCBNEW (6.0.2)) date 2022-04-05 12:16:13*
%MOMM*%
%LPD*%
G01*
G04 APERTURE LIST*
G04 Aperture macros list*
%AMRoundRect*
0 Rectangle with rounded corners*
0 $1 Rounding radius*
0 $2 $3 $4 $5 $6 $7 $8 $9 X,Y pos of 4 corners*
0 Add a 4 corners polygon primitive as box body*
4,1,4,$2,$3,$4,$5,$6,$7,$8,$9,$2,$3,0*
0 Add four circle primitives for the rounded corners*
1,1,$1+$1,$2,$3*
1,1,$1+$1,$4,$5*
1,1,$1+$1,$6,$7*
1,1,$1+$1,$8,$9*
0 Add four rect primitives between the rounded corners*
20,1,$1+$1,$2,$3,$4,$5,0*
20,1,$1+$1,$4,$5,$6,$7,0*
20,1,$1+$1,$6,$7,$8,$9,0*
20,1,$1+$1,$8,$9,$2,$3,0*%
G04 Aperture macros list end*
%ADD10C,0.100000*%
%ADD11O,1.800000X1.800000*%
%ADD12R,1.800000X1.800000*%
%ADD13O,1.600000X1.600000*%
%ADD14C,1.600000*%
%ADD15O,1.700000X1.700000*%
%ADD16R,1.700000X1.700000*%
%ADD17C,3.600000*%
%ADD18RoundRect,0.250001X1.074999X-0.462499X1.074999X0.462499X-1.074999X0.462499X-1.074999X-0.462499X0*%
%ADD19C,1.270000*%
%ADD20C,1.650000*%
%ADD21RoundRect,0.412500X0.412500X-0.412500X0.412500X0.412500X-0.412500X0.412500X-0.412500X-0.412500X0*%
%ADD22RoundRect,0.250001X0.462499X1.074999X-0.462499X1.074999X-0.462499X-1.074999X0.462499X-1.074999X0*%
%ADD23O,2.000000X1.905000*%
%ADD24R,2.000000X1.905000*%
%ADD25O,3.500000X3.500000*%
%ADD26R,1.600000X1.600000*%
%ADD27O,1.400000X1.400000*%
%ADD28C,1.400000*%
%ADD29RoundRect,0.250001X-1.074999X0.462499X-1.074999X-0.462499X1.074999X-0.462499X1.074999X0.462499X0*%
%ADD30RoundRect,0.250001X-0.462499X-1.074999X0.462499X-1.074999X0.462499X1.074999X-0.462499X1.074999X0*%
%ADD31R,1.000000X0.500000*%
%ADD32R,0.780000X0.720000*%
%ADD33R,1.080000X1.050000*%
%ADD34R,1.200000X1.050000*%
%ADD35R,2.390000X1.050000*%
%ADD36R,0.550000X2.910000*%
%ADD37C,3.200000*%
G04 APERTURE END LIST*
D10*
X116497099Y-70335139D02*
X122847100Y-70335140D01*
X122847100Y-70335140D02*
X122847100Y-60619640D01*
X122847100Y-60619640D02*
X116497100Y-60619640D01*
X116497100Y-60619640D02*
X116497099Y-70335139D01*
G36*
X122847100Y-70335140D02*
G01*
X116497099Y-70335139D01*
X116497100Y-60619640D01*
X122847100Y-60619640D01*
X122847100Y-70335140D01*
G37*
X122847100Y-70335140D02*
X116497099Y-70335139D01*
X116497100Y-60619640D01*
X122847100Y-60619640D01*
X122847100Y-70335140D01*
D11*
%TO.C,D2*%
X111704120Y-79413100D03*
D12*
X121864120Y-79413100D03*
%TD*%
D13*
%TO.C,R_LED*%
X168935400Y-64165480D03*
D14*
X168935400Y-56545480D03*
%TD*%
D15*
%TO.C,J3*%
X168854120Y-67767200D03*
D16*
X168854120Y-70307200D03*
%TD*%
D17*
%TO.C,U3*%
X98782500Y-39998460D03*
X173632500Y-39998460D03*
D14*
X110287500Y-37998460D03*
X112447500Y-37998460D03*
X114607500Y-37998460D03*
X116767500Y-37998460D03*
X118927500Y-37998460D03*
X121087500Y-37998460D03*
X123247500Y-37998460D03*
X125407500Y-37998460D03*
X127567500Y-37998460D03*
X129727500Y-37998460D03*
X131887500Y-37998460D03*
X134047500Y-37998460D03*
X136207500Y-37998460D03*
X138367500Y-37998460D03*
X140527500Y-37998460D03*
X142687500Y-37998460D03*
X144847500Y-37998460D03*
X147007500Y-37998460D03*
X149167500Y-37998460D03*
X151327500Y-37998460D03*
X153487500Y-37998460D03*
X155647500Y-37998460D03*
X157807500Y-37998460D03*
X159967500Y-37998460D03*
X162127500Y-37998460D03*
X110287500Y-42288460D03*
X112447500Y-42288460D03*
X114607500Y-42288460D03*
X116767500Y-42288460D03*
X118927500Y-42288460D03*
X121087500Y-42288460D03*
X123247500Y-42288460D03*
X125407500Y-42288460D03*
X127567500Y-42288460D03*
X129727500Y-42288460D03*
X131887500Y-42288460D03*
X134047500Y-42288460D03*
X136207500Y-42288460D03*
X138367500Y-42288460D03*
X140527500Y-42288460D03*
X142687500Y-42288460D03*
X144847500Y-42288460D03*
X147007500Y-42288460D03*
X149167500Y-42288460D03*
X151327500Y-42288460D03*
X153487500Y-42288460D03*
X155647500Y-42288460D03*
X157807500Y-42288460D03*
X159967500Y-42288460D03*
X162127500Y-42288460D03*
%TD*%
D18*
%TO.C,C5*%
X116931440Y-78569160D03*
X116931440Y-81544160D03*
%TD*%
D19*
%TO.C,F1*%
X130131820Y-80327500D03*
X125051820Y-79184500D03*
%TD*%
D20*
%TO.C,U2*%
X109216095Y-56513742D03*
X111756095Y-56513742D03*
X114296095Y-56513742D03*
X116836095Y-56513742D03*
X119376095Y-56513742D03*
X121916095Y-56513742D03*
X124456095Y-56513742D03*
X126996095Y-56513742D03*
X129536095Y-56513742D03*
X132076095Y-56513742D03*
X134616095Y-56513742D03*
X137156095Y-56513742D03*
X139696095Y-56513742D03*
X142236095Y-56513742D03*
X144776095Y-56513742D03*
X147316095Y-56513742D03*
X149856095Y-56513742D03*
X152396095Y-56513742D03*
X154936095Y-56513742D03*
X157476095Y-56513742D03*
X160016095Y-56513742D03*
X162556095Y-56513742D03*
X162556095Y-74293742D03*
X160016095Y-74293742D03*
X157476095Y-74293742D03*
X154936095Y-74293742D03*
X152396095Y-74293742D03*
X149856095Y-74293742D03*
X147316095Y-74293742D03*
X144776095Y-74293742D03*
X142236095Y-74293742D03*
X139696095Y-74293742D03*
X137156095Y-74293742D03*
X134616095Y-74293742D03*
X132076095Y-74293742D03*
X129536095Y-74293742D03*
X126996095Y-74293742D03*
X124456095Y-74293742D03*
X121916095Y-74293742D03*
X119376095Y-74293742D03*
X116836095Y-74293742D03*
X114296095Y-74293742D03*
X111756095Y-74293742D03*
D21*
X109216095Y-74293742D03*
%TD*%
D22*
%TO.C,C4*%
X109389520Y-52971700D03*
X112364520Y-52971700D03*
%TD*%
D23*
%TO.C,U1*%
X136028334Y-67778644D03*
X136028334Y-65238644D03*
D24*
X136028334Y-62698644D03*
D25*
X119368334Y-65238644D03*
%TD*%
D13*
%TO.C,RN2*%
X160921700Y-48204120D03*
X158381700Y-48204120D03*
X155841700Y-48204120D03*
X153301700Y-48204120D03*
X150761700Y-48204120D03*
X148221700Y-48204120D03*
X145681700Y-48204120D03*
X143141700Y-48204120D03*
X140601700Y-48204120D03*
D26*
X138061700Y-48204120D03*
%TD*%
D13*
%TO.C,RN1*%
X111391700Y-48204120D03*
X113931700Y-48204120D03*
X116471700Y-48204120D03*
X119011700Y-48204120D03*
X121551700Y-48204120D03*
X124091700Y-48204120D03*
X126631700Y-48204120D03*
X129171700Y-48204120D03*
X131711700Y-48204120D03*
D26*
X134251700Y-48204120D03*
%TD*%
D27*
%TO.C,R2*%
X143965834Y-66191144D03*
D28*
X138885834Y-66191144D03*
%TD*%
D13*
%TO.C,R1*%
X148918834Y-62317642D03*
D14*
X138758834Y-62317642D03*
%TD*%
D29*
%TO.C,C1*%
X146696334Y-68096142D03*
X146696334Y-65121142D03*
%TD*%
D30*
%TO.C,C3*%
X137708640Y-44937680D03*
X134733640Y-44937680D03*
%TD*%
%TO.C,C2*%
X142305335Y-69302643D03*
X139330335Y-69302643D03*
%TD*%
D31*
%TO.C,J5*%
X107708573Y-61893602D03*
X107708573Y-62993602D03*
X107708573Y-64093602D03*
X107708573Y-65193602D03*
X107708573Y-66293602D03*
X107708573Y-67393602D03*
X107708573Y-68493602D03*
X107708573Y-69593602D03*
D32*
X110388573Y-60133602D03*
D33*
X111658573Y-60133602D03*
D34*
X114268573Y-60123602D03*
X113698573Y-70768602D03*
D35*
X110513573Y-70768602D03*
D36*
X114943573Y-67588602D03*
X114943573Y-63398602D03*
%TD*%
D37*
%TO.C,REF\u002A\u002A*%
X157802580Y-62514480D03*
%TD*%
%TO.C,REF\u002A\u002A*%
X151221440Y-79131160D03*
%TD*%
M02*
