%TF.GenerationSoftware,KiCad,Pcbnew,(6.0.2)*%
%TF.CreationDate,2022-04-05T12:16:13-06:00*%
%TF.ProjectId,Centronics50_F4Lite_THTV1,43656e74-726f-46e6-9963-7335305f4634,rev?*%
%TF.SameCoordinates,Original*%
%TF.FileFunction,Legend,Bot*%
%TF.FilePolarity,Positive*%
%FSLAX46Y46*%
G04 Gerber Fmt 4.6, Leading zero omitted, Abs format (unit mm)*
G04 Created by KiCad (PCBNEW (6.0.2)) date 2022-04-05 12:16:13*
%MOMM*%
%LPD*%
G01*
G04 APERTURE LIST*
%ADD10C,0.150000*%
%ADD11C,0.120000*%
G04 APERTURE END LIST*
D10*
X143350476Y-34628333D02*
X143398095Y-34580714D01*
X143493333Y-34437857D01*
X143540952Y-34342619D01*
X143588571Y-34199761D01*
X143636190Y-33961666D01*
X143636190Y-33771190D01*
X143588571Y-33533095D01*
X143540952Y-33390238D01*
X143493333Y-33295000D01*
X143398095Y-33152142D01*
X143350476Y-33104523D01*
X142398095Y-34152142D02*
X142445714Y-34199761D01*
X142588571Y-34247380D01*
X142683809Y-34247380D01*
X142826666Y-34199761D01*
X142921904Y-34104523D01*
X142969523Y-34009285D01*
X143017142Y-33818809D01*
X143017142Y-33675952D01*
X142969523Y-33485476D01*
X142921904Y-33390238D01*
X142826666Y-33295000D01*
X142683809Y-33247380D01*
X142588571Y-33247380D01*
X142445714Y-33295000D01*
X142398095Y-33342619D01*
X141398095Y-34152142D02*
X141445714Y-34199761D01*
X141588571Y-34247380D01*
X141683809Y-34247380D01*
X141826666Y-34199761D01*
X141921904Y-34104523D01*
X141969523Y-34009285D01*
X142017142Y-33818809D01*
X142017142Y-33675952D01*
X141969523Y-33485476D01*
X141921904Y-33390238D01*
X141826666Y-33295000D01*
X141683809Y-33247380D01*
X141588571Y-33247380D01*
X141445714Y-33295000D01*
X141398095Y-33342619D01*
X139874285Y-33723571D02*
X139731428Y-33771190D01*
X139683809Y-33818809D01*
X139636190Y-33914047D01*
X139636190Y-34056904D01*
X139683809Y-34152142D01*
X139731428Y-34199761D01*
X139826666Y-34247380D01*
X140207619Y-34247380D01*
X140207619Y-33247380D01*
X139874285Y-33247380D01*
X139779047Y-33295000D01*
X139731428Y-33342619D01*
X139683809Y-33437857D01*
X139683809Y-33533095D01*
X139731428Y-33628333D01*
X139779047Y-33675952D01*
X139874285Y-33723571D01*
X140207619Y-33723571D01*
X139017142Y-33771190D02*
X139017142Y-34247380D01*
X139350476Y-33247380D02*
X139017142Y-33771190D01*
X138683809Y-33247380D01*
X138350476Y-33866428D02*
X137588571Y-33866428D01*
X137112380Y-34247380D02*
X137112380Y-33247380D01*
X136540952Y-34247380D01*
X136540952Y-33247380D01*
X135493333Y-34152142D02*
X135540952Y-34199761D01*
X135683809Y-34247380D01*
X135779047Y-34247380D01*
X135921904Y-34199761D01*
X136017142Y-34104523D01*
X136064761Y-34009285D01*
X136112380Y-33818809D01*
X136112380Y-33675952D01*
X136064761Y-33485476D01*
X136017142Y-33390238D01*
X135921904Y-33295000D01*
X135779047Y-33247380D01*
X135683809Y-33247380D01*
X135540952Y-33295000D01*
X135493333Y-33342619D01*
X135064761Y-33866428D02*
X134302857Y-33866428D01*
X133874285Y-34199761D02*
X133731428Y-34247380D01*
X133493333Y-34247380D01*
X133398095Y-34199761D01*
X133350476Y-34152142D01*
X133302857Y-34056904D01*
X133302857Y-33961666D01*
X133350476Y-33866428D01*
X133398095Y-33818809D01*
X133493333Y-33771190D01*
X133683809Y-33723571D01*
X133779047Y-33675952D01*
X133826666Y-33628333D01*
X133874285Y-33533095D01*
X133874285Y-33437857D01*
X133826666Y-33342619D01*
X133779047Y-33295000D01*
X133683809Y-33247380D01*
X133445714Y-33247380D01*
X133302857Y-33295000D01*
X132921904Y-33961666D02*
X132445714Y-33961666D01*
X133017142Y-34247380D02*
X132683809Y-33247380D01*
X132350476Y-34247380D01*
X130826666Y-33580714D02*
X130826666Y-34247380D01*
X131064761Y-33199761D02*
X131302857Y-33914047D01*
X130683809Y-33914047D01*
X130302857Y-34152142D02*
X130255238Y-34199761D01*
X130302857Y-34247380D01*
X130350476Y-34199761D01*
X130302857Y-34152142D01*
X130302857Y-34247380D01*
X129636190Y-33247380D02*
X129540952Y-33247380D01*
X129445714Y-33295000D01*
X129398095Y-33342619D01*
X129350476Y-33437857D01*
X129302857Y-33628333D01*
X129302857Y-33866428D01*
X129350476Y-34056904D01*
X129398095Y-34152142D01*
X129445714Y-34199761D01*
X129540952Y-34247380D01*
X129636190Y-34247380D01*
X129731428Y-34199761D01*
X129779047Y-34152142D01*
X129826666Y-34056904D01*
X129874285Y-33866428D01*
X129874285Y-33628333D01*
X129826666Y-33437857D01*
X129779047Y-33342619D01*
X129731428Y-33295000D01*
X129636190Y-33247380D01*
X128969523Y-34628333D02*
X128921904Y-34580714D01*
X128826666Y-34437857D01*
X128779047Y-34342619D01*
X128731428Y-34199761D01*
X128683809Y-33961666D01*
X128683809Y-33771190D01*
X128731428Y-33533095D01*
X128779047Y-33390238D01*
X128826666Y-33295000D01*
X128921904Y-33152142D01*
X128969523Y-33104523D01*
X143898095Y-35809761D02*
X143755238Y-35857380D01*
X143517142Y-35857380D01*
X143421904Y-35809761D01*
X143374285Y-35762142D01*
X143326666Y-35666904D01*
X143326666Y-35571666D01*
X143374285Y-35476428D01*
X143421904Y-35428809D01*
X143517142Y-35381190D01*
X143707619Y-35333571D01*
X143802857Y-35285952D01*
X143850476Y-35238333D01*
X143898095Y-35143095D01*
X143898095Y-35047857D01*
X143850476Y-34952619D01*
X143802857Y-34905000D01*
X143707619Y-34857380D01*
X143469523Y-34857380D01*
X143326666Y-34905000D01*
X142945714Y-35571666D02*
X142469523Y-35571666D01*
X143040952Y-35857380D02*
X142707619Y-34857380D01*
X142374285Y-35857380D01*
X141564761Y-35857380D02*
X142040952Y-35857380D01*
X142040952Y-34857380D01*
X141231428Y-35333571D02*
X140898095Y-35333571D01*
X140755238Y-35857380D02*
X141231428Y-35857380D01*
X141231428Y-34857380D01*
X140755238Y-34857380D01*
X139564761Y-35857380D02*
X139564761Y-34857380D01*
X138993333Y-35857380D01*
X138993333Y-34857380D01*
X138326666Y-34857380D02*
X138136190Y-34857380D01*
X138040952Y-34905000D01*
X137945714Y-35000238D01*
X137898095Y-35190714D01*
X137898095Y-35524047D01*
X137945714Y-35714523D01*
X138040952Y-35809761D01*
X138136190Y-35857380D01*
X138326666Y-35857380D01*
X138421904Y-35809761D01*
X138517142Y-35714523D01*
X138564761Y-35524047D01*
X138564761Y-35190714D01*
X138517142Y-35000238D01*
X138421904Y-34905000D01*
X138326666Y-34857380D01*
X137612380Y-34857380D02*
X137040952Y-34857380D01*
X137326666Y-35857380D02*
X137326666Y-34857380D01*
X135945714Y-35857380D02*
X135945714Y-34857380D01*
X135564761Y-34857380D01*
X135469523Y-34905000D01*
X135421904Y-34952619D01*
X135374285Y-35047857D01*
X135374285Y-35190714D01*
X135421904Y-35285952D01*
X135469523Y-35333571D01*
X135564761Y-35381190D01*
X135945714Y-35381190D01*
X134945714Y-35333571D02*
X134612380Y-35333571D01*
X134469523Y-35857380D02*
X134945714Y-35857380D01*
X134945714Y-34857380D01*
X134469523Y-34857380D01*
X133469523Y-35857380D02*
X133802857Y-35381190D01*
X134040952Y-35857380D02*
X134040952Y-34857380D01*
X133660000Y-34857380D01*
X133564761Y-34905000D01*
X133517142Y-34952619D01*
X133469523Y-35047857D01*
X133469523Y-35190714D01*
X133517142Y-35285952D01*
X133564761Y-35333571D01*
X133660000Y-35381190D01*
X134040952Y-35381190D01*
X133040952Y-35857380D02*
X133040952Y-34857380D01*
X132707619Y-35571666D01*
X132374285Y-34857380D01*
X132374285Y-35857380D01*
X131898095Y-35857380D02*
X131898095Y-34857380D01*
X131564761Y-34857380D02*
X130993333Y-34857380D01*
X131279047Y-35857380D02*
X131279047Y-34857380D01*
X130802857Y-34857380D02*
X130231428Y-34857380D01*
X130517142Y-35857380D02*
X130517142Y-34857380D01*
X129898095Y-35333571D02*
X129564761Y-35333571D01*
X129421904Y-35857380D02*
X129898095Y-35857380D01*
X129898095Y-34857380D01*
X129421904Y-34857380D01*
X128993333Y-35857380D02*
X128993333Y-34857380D01*
X128755238Y-34857380D01*
X128612380Y-34905000D01*
X128517142Y-35000238D01*
X128469523Y-35095476D01*
X128421904Y-35285952D01*
X128421904Y-35428809D01*
X128469523Y-35619285D01*
X128517142Y-35714523D01*
X128612380Y-35809761D01*
X128755238Y-35857380D01*
X128993333Y-35857380D01*
X148276697Y-52676134D02*
X148276697Y-53485658D01*
X148324316Y-53580896D01*
X148371935Y-53628515D01*
X148467173Y-53676134D01*
X148610030Y-53676134D01*
X148705268Y-53628515D01*
X148276697Y-53295181D02*
X148371935Y-53342800D01*
X148562411Y-53342800D01*
X148657649Y-53295181D01*
X148705268Y-53247562D01*
X148752887Y-53152324D01*
X148752887Y-52866610D01*
X148705268Y-52771372D01*
X148657649Y-52723753D01*
X148562411Y-52676134D01*
X148371935Y-52676134D01*
X148276697Y-52723753D01*
X147800506Y-53342800D02*
X147800506Y-52676134D01*
X147800506Y-52342800D02*
X147848125Y-52390420D01*
X147800506Y-52438039D01*
X147752887Y-52390420D01*
X147800506Y-52342800D01*
X147800506Y-52438039D01*
X147467173Y-52676134D02*
X147086220Y-52676134D01*
X147324316Y-52342800D02*
X147324316Y-53199943D01*
X147276697Y-53295181D01*
X147181459Y-53342800D01*
X147086220Y-53342800D01*
X146752887Y-53342800D02*
X146752887Y-52342800D01*
X146324316Y-53342800D02*
X146324316Y-52818991D01*
X146371935Y-52723753D01*
X146467173Y-52676134D01*
X146610030Y-52676134D01*
X146705268Y-52723753D01*
X146752887Y-52771372D01*
X145419554Y-52676134D02*
X145419554Y-53342800D01*
X145848125Y-52676134D02*
X145848125Y-53199943D01*
X145800506Y-53295181D01*
X145705268Y-53342800D01*
X145562411Y-53342800D01*
X145467173Y-53295181D01*
X145419554Y-53247562D01*
X144943363Y-53342800D02*
X144943363Y-52342800D01*
X144943363Y-52723753D02*
X144848125Y-52676134D01*
X144657649Y-52676134D01*
X144562411Y-52723753D01*
X144514792Y-52771372D01*
X144467173Y-52866610D01*
X144467173Y-53152324D01*
X144514792Y-53247562D01*
X144562411Y-53295181D01*
X144657649Y-53342800D01*
X144848125Y-53342800D01*
X144943363Y-53295181D01*
X144038601Y-53247562D02*
X143990982Y-53295181D01*
X144038601Y-53342800D01*
X144086220Y-53295181D01*
X144038601Y-53247562D01*
X144038601Y-53342800D01*
X143133840Y-53295181D02*
X143229078Y-53342800D01*
X143419554Y-53342800D01*
X143514792Y-53295181D01*
X143562411Y-53247562D01*
X143610030Y-53152324D01*
X143610030Y-52866610D01*
X143562411Y-52771372D01*
X143514792Y-52723753D01*
X143419554Y-52676134D01*
X143229078Y-52676134D01*
X143133840Y-52723753D01*
X142562411Y-53342800D02*
X142657649Y-53295181D01*
X142705268Y-53247562D01*
X142752887Y-53152324D01*
X142752887Y-52866610D01*
X142705268Y-52771372D01*
X142657649Y-52723753D01*
X142562411Y-52676134D01*
X142419554Y-52676134D01*
X142324316Y-52723753D01*
X142276697Y-52771372D01*
X142229078Y-52866610D01*
X142229078Y-53152324D01*
X142276697Y-53247562D01*
X142324316Y-53295181D01*
X142419554Y-53342800D01*
X142562411Y-53342800D01*
X141800506Y-53342800D02*
X141800506Y-52676134D01*
X141800506Y-52771372D02*
X141752887Y-52723753D01*
X141657649Y-52676134D01*
X141514792Y-52676134D01*
X141419554Y-52723753D01*
X141371935Y-52818991D01*
X141371935Y-53342800D01*
X141371935Y-52818991D02*
X141324316Y-52723753D01*
X141229078Y-52676134D01*
X141086220Y-52676134D01*
X140990982Y-52723753D01*
X140943363Y-52818991D01*
X140943363Y-53342800D01*
X139752887Y-52295181D02*
X140610030Y-53580896D01*
X138990982Y-53342800D02*
X138990982Y-52818991D01*
X139038601Y-52723753D01*
X139133840Y-52676134D01*
X139324316Y-52676134D01*
X139419554Y-52723753D01*
X138990982Y-53295181D02*
X139086220Y-53342800D01*
X139324316Y-53342800D01*
X139419554Y-53295181D01*
X139467173Y-53199943D01*
X139467173Y-53104705D01*
X139419554Y-53009467D01*
X139324316Y-52961848D01*
X139086220Y-52961848D01*
X138990982Y-52914229D01*
X138514792Y-52676134D02*
X138514792Y-53342800D01*
X138514792Y-52771372D02*
X138467173Y-52723753D01*
X138371935Y-52676134D01*
X138229078Y-52676134D01*
X138133840Y-52723753D01*
X138086220Y-52818991D01*
X138086220Y-53342800D01*
X137181459Y-53342800D02*
X137181459Y-52342800D01*
X137181459Y-53295181D02*
X137276697Y-53342800D01*
X137467173Y-53342800D01*
X137562411Y-53295181D01*
X137610030Y-53247562D01*
X137657649Y-53152324D01*
X137657649Y-52866610D01*
X137610030Y-52771372D01*
X137562411Y-52723753D01*
X137467173Y-52676134D01*
X137276697Y-52676134D01*
X137181459Y-52723753D01*
X136705268Y-53342800D02*
X136705268Y-52676134D01*
X136705268Y-52866610D02*
X136657649Y-52771372D01*
X136610030Y-52723753D01*
X136514792Y-52676134D01*
X136419554Y-52676134D01*
X135943363Y-53342800D02*
X136038601Y-53295181D01*
X136086220Y-53247562D01*
X136133840Y-53152324D01*
X136133840Y-52866610D01*
X136086220Y-52771372D01*
X136038601Y-52723753D01*
X135943363Y-52676134D01*
X135800506Y-52676134D01*
X135705268Y-52723753D01*
X135657649Y-52771372D01*
X135610030Y-52866610D01*
X135610030Y-53152324D01*
X135657649Y-53247562D01*
X135705268Y-53295181D01*
X135800506Y-53342800D01*
X135943363Y-53342800D01*
X134752887Y-53342800D02*
X134752887Y-52342800D01*
X134752887Y-53295181D02*
X134848125Y-53342800D01*
X135038601Y-53342800D01*
X135133840Y-53295181D01*
X135181459Y-53247562D01*
X135229078Y-53152324D01*
X135229078Y-52866610D01*
X135181459Y-52771372D01*
X135133840Y-52723753D01*
X135038601Y-52676134D01*
X134848125Y-52676134D01*
X134752887Y-52723753D01*
X133848125Y-53342800D02*
X133848125Y-52818991D01*
X133895744Y-52723753D01*
X133990982Y-52676134D01*
X134181459Y-52676134D01*
X134276697Y-52723753D01*
X133848125Y-53295181D02*
X133943363Y-53342800D01*
X134181459Y-53342800D01*
X134276697Y-53295181D01*
X134324316Y-53199943D01*
X134324316Y-53104705D01*
X134276697Y-53009467D01*
X134181459Y-52961848D01*
X133943363Y-52961848D01*
X133848125Y-52914229D01*
X132657649Y-52295181D02*
X133514792Y-53580896D01*
X131990982Y-52818991D02*
X132324316Y-52818991D01*
X132324316Y-53342800D02*
X132324316Y-52342800D01*
X131848125Y-52342800D01*
X131038601Y-52676134D02*
X131038601Y-53342800D01*
X131276697Y-52295181D02*
X131514792Y-53009467D01*
X130895744Y-53009467D01*
X130752887Y-53438039D02*
X129990982Y-53438039D01*
X129419554Y-52818991D02*
X129276697Y-52866610D01*
X129229078Y-52914229D01*
X129181459Y-53009467D01*
X129181459Y-53152324D01*
X129229078Y-53247562D01*
X129276697Y-53295181D01*
X129371935Y-53342800D01*
X129752887Y-53342800D01*
X129752887Y-52342800D01*
X129419554Y-52342800D01*
X129324316Y-52390420D01*
X129276697Y-52438039D01*
X129229078Y-52533277D01*
X129229078Y-52628515D01*
X129276697Y-52723753D01*
X129324316Y-52771372D01*
X129419554Y-52818991D01*
X129752887Y-52818991D01*
X128610030Y-53342800D02*
X128705268Y-53295181D01*
X128752887Y-53199943D01*
X128752887Y-52342800D01*
X127800506Y-52676134D02*
X127800506Y-53342800D01*
X128229078Y-52676134D02*
X128229078Y-53199943D01*
X128181459Y-53295181D01*
X128086220Y-53342800D01*
X127943363Y-53342800D01*
X127848125Y-53295181D01*
X127800506Y-53247562D01*
X126943363Y-53295181D02*
X127038601Y-53342800D01*
X127229078Y-53342800D01*
X127324316Y-53295181D01*
X127371935Y-53199943D01*
X127371935Y-52818991D01*
X127324316Y-52723753D01*
X127229078Y-52676134D01*
X127038601Y-52676134D01*
X126943363Y-52723753D01*
X126895744Y-52818991D01*
X126895744Y-52914229D01*
X127371935Y-53009467D01*
X126514792Y-53295181D02*
X126371935Y-53342800D01*
X126133840Y-53342800D01*
X126038601Y-53295181D01*
X125990982Y-53247562D01*
X125943363Y-53152324D01*
X125943363Y-53057086D01*
X125990982Y-52961848D01*
X126038601Y-52914229D01*
X126133840Y-52866610D01*
X126324316Y-52818991D01*
X126419554Y-52771372D01*
X126467173Y-52723753D01*
X126514792Y-52628515D01*
X126514792Y-52533277D01*
X126467173Y-52438039D01*
X126419554Y-52390420D01*
X126324316Y-52342800D01*
X126086220Y-52342800D01*
X125943363Y-52390420D01*
X124943363Y-53247562D02*
X124990982Y-53295181D01*
X125133840Y-53342800D01*
X125229078Y-53342800D01*
X125371935Y-53295181D01*
X125467173Y-53199943D01*
X125514792Y-53104705D01*
X125562411Y-52914229D01*
X125562411Y-52771372D01*
X125514792Y-52580896D01*
X125467173Y-52485658D01*
X125371935Y-52390420D01*
X125229078Y-52342800D01*
X125133840Y-52342800D01*
X124990982Y-52390420D01*
X124943363Y-52438039D01*
X124562411Y-53295181D02*
X124419554Y-53342800D01*
X124181459Y-53342800D01*
X124086220Y-53295181D01*
X124038601Y-53247562D01*
X123990982Y-53152324D01*
X123990982Y-53057086D01*
X124038601Y-52961848D01*
X124086220Y-52914229D01*
X124181459Y-52866610D01*
X124371935Y-52818991D01*
X124467173Y-52771372D01*
X124514792Y-52723753D01*
X124562411Y-52628515D01*
X124562411Y-52533277D01*
X124514792Y-52438039D01*
X124467173Y-52390420D01*
X124371935Y-52342800D01*
X124133840Y-52342800D01*
X123990982Y-52390420D01*
X123562411Y-53342800D02*
X123562411Y-52342800D01*
X144729078Y-51404733D02*
X144776697Y-51404733D01*
X144871935Y-51357114D01*
X144919554Y-51261876D01*
X144919554Y-50785685D01*
X144967173Y-50690447D01*
X145062411Y-50642828D01*
X144967173Y-50595209D01*
X144919554Y-50499971D01*
X144919554Y-50023780D01*
X144871935Y-49928542D01*
X144776697Y-49880923D01*
X144729078Y-49880923D01*
X144014792Y-50499971D02*
X144348125Y-50499971D01*
X144348125Y-51023780D02*
X144348125Y-50023780D01*
X143871935Y-50023780D01*
X143062411Y-50357114D02*
X143062411Y-51023780D01*
X143300506Y-49976161D02*
X143538601Y-50690447D01*
X142919554Y-50690447D01*
X142062411Y-51023780D02*
X142538601Y-51023780D01*
X142538601Y-50023780D01*
X141729078Y-51023780D02*
X141729078Y-50357114D01*
X141729078Y-50023780D02*
X141776697Y-50071400D01*
X141729078Y-50119019D01*
X141681459Y-50071400D01*
X141729078Y-50023780D01*
X141729078Y-50119019D01*
X141395744Y-50357114D02*
X141014792Y-50357114D01*
X141252887Y-50023780D02*
X141252887Y-50880923D01*
X141205268Y-50976161D01*
X141110030Y-51023780D01*
X141014792Y-51023780D01*
X140300506Y-50976161D02*
X140395744Y-51023780D01*
X140586220Y-51023780D01*
X140681459Y-50976161D01*
X140729078Y-50880923D01*
X140729078Y-50499971D01*
X140681459Y-50404733D01*
X140586220Y-50357114D01*
X140395744Y-50357114D01*
X140300506Y-50404733D01*
X140252887Y-50499971D01*
X140252887Y-50595209D01*
X140729078Y-50690447D01*
X139824316Y-50928542D02*
X139776697Y-50976161D01*
X139824316Y-51023780D01*
X139871935Y-50976161D01*
X139824316Y-50928542D01*
X139824316Y-51023780D01*
X139490982Y-50023780D02*
X138919554Y-50023780D01*
X139205268Y-51023780D02*
X139205268Y-50023780D01*
X138586220Y-51023780D02*
X138586220Y-50023780D01*
X138586220Y-50404733D02*
X138490982Y-50357114D01*
X138300506Y-50357114D01*
X138205268Y-50404733D01*
X138157649Y-50452352D01*
X138110030Y-50547590D01*
X138110030Y-50833304D01*
X138157649Y-50928542D01*
X138205268Y-50976161D01*
X138300506Y-51023780D01*
X138490982Y-51023780D01*
X138586220Y-50976161D01*
X137729078Y-50738066D02*
X137252887Y-50738066D01*
X137824316Y-51023780D02*
X137490982Y-50023780D01*
X137157649Y-51023780D01*
X136824316Y-50928542D02*
X136776697Y-50976161D01*
X136824316Y-51023780D01*
X136871935Y-50976161D01*
X136824316Y-50928542D01*
X136824316Y-51023780D01*
X135776697Y-50928542D02*
X135824316Y-50976161D01*
X135967173Y-51023780D01*
X136062411Y-51023780D01*
X136205268Y-50976161D01*
X136300506Y-50880923D01*
X136348125Y-50785685D01*
X136395744Y-50595209D01*
X136395744Y-50452352D01*
X136348125Y-50261876D01*
X136300506Y-50166638D01*
X136205268Y-50071400D01*
X136062411Y-50023780D01*
X135967173Y-50023780D01*
X135824316Y-50071400D01*
X135776697Y-50119019D01*
X134871935Y-50023780D02*
X135348125Y-50023780D01*
X135395744Y-50499971D01*
X135348125Y-50452352D01*
X135252887Y-50404733D01*
X135014792Y-50404733D01*
X134919554Y-50452352D01*
X134871935Y-50499971D01*
X134824316Y-50595209D01*
X134824316Y-50833304D01*
X134871935Y-50928542D01*
X134919554Y-50976161D01*
X135014792Y-51023780D01*
X135252887Y-51023780D01*
X135348125Y-50976161D01*
X135395744Y-50928542D01*
X134205268Y-50023780D02*
X134110030Y-50023780D01*
X134014792Y-50071400D01*
X133967173Y-50119019D01*
X133919554Y-50214257D01*
X133871935Y-50404733D01*
X133871935Y-50642828D01*
X133919554Y-50833304D01*
X133967173Y-50928542D01*
X134014792Y-50976161D01*
X134110030Y-51023780D01*
X134205268Y-51023780D01*
X134300506Y-50976161D01*
X134348125Y-50928542D01*
X134395744Y-50833304D01*
X134443363Y-50642828D01*
X134443363Y-50404733D01*
X134395744Y-50214257D01*
X134348125Y-50119019D01*
X134300506Y-50071400D01*
X134205268Y-50023780D01*
X133443363Y-51023780D02*
X133443363Y-50023780D01*
X133110030Y-50738066D01*
X132776697Y-50023780D01*
X132776697Y-51023780D01*
X132300506Y-50928542D02*
X132252887Y-50976161D01*
X132300506Y-51023780D01*
X132348125Y-50976161D01*
X132300506Y-50928542D01*
X132300506Y-51023780D01*
X131967173Y-50023780D02*
X131395744Y-50023780D01*
X131681459Y-51023780D02*
X131681459Y-50023780D01*
X131062411Y-51023780D02*
X131062411Y-50023780D01*
X131062411Y-50499971D02*
X130490982Y-50499971D01*
X130490982Y-51023780D02*
X130490982Y-50023780D01*
X130157649Y-50023780D02*
X129586220Y-50023780D01*
X129871935Y-51023780D02*
X129871935Y-50023780D01*
X129395744Y-50023780D02*
X129062411Y-51023780D01*
X128729078Y-50023780D01*
X127871935Y-51023780D02*
X128443363Y-51023780D01*
X128157649Y-51023780D02*
X128157649Y-50023780D01*
X128252887Y-50166638D01*
X128348125Y-50261876D01*
X128443363Y-50309495D01*
X127538601Y-51404733D02*
X127490982Y-51404733D01*
X127395744Y-51357114D01*
X127348125Y-51261876D01*
X127348125Y-50785685D01*
X127300506Y-50690447D01*
X127205268Y-50642828D01*
X127300506Y-50595209D01*
X127348125Y-50499971D01*
X127348125Y-50023780D01*
X127395744Y-49928542D01*
X127490982Y-49880923D01*
X127538601Y-49880923D01*
X149110000Y-31830476D02*
X149205238Y-31782857D01*
X149395714Y-31782857D01*
X149490952Y-31830476D01*
X149586190Y-31925714D01*
X149633809Y-32020952D01*
X149633809Y-32211428D01*
X149586190Y-32306666D01*
X149490952Y-32401904D01*
X149395714Y-32449523D01*
X149205238Y-32449523D01*
X149110000Y-32401904D01*
X149300476Y-31449523D02*
X149538571Y-31497142D01*
X149776666Y-31640000D01*
X149919523Y-31878095D01*
X149967142Y-32116190D01*
X149919523Y-32354285D01*
X149776666Y-32592380D01*
X149538571Y-32735238D01*
X149300476Y-32782857D01*
X149062380Y-32735238D01*
X148824285Y-32592380D01*
X148681428Y-32354285D01*
X148633809Y-32116190D01*
X148681428Y-31878095D01*
X148824285Y-31640000D01*
X149062380Y-31497142D01*
X149300476Y-31449523D01*
X147586190Y-31592380D02*
X147014761Y-31592380D01*
X147300476Y-32592380D02*
X147300476Y-31592380D01*
X146300476Y-32544761D02*
X146395714Y-32592380D01*
X146586190Y-32592380D01*
X146681428Y-32544761D01*
X146729047Y-32449523D01*
X146729047Y-32068571D01*
X146681428Y-31973333D01*
X146586190Y-31925714D01*
X146395714Y-31925714D01*
X146300476Y-31973333D01*
X146252857Y-32068571D01*
X146252857Y-32163809D01*
X146729047Y-32259047D01*
X145395714Y-32544761D02*
X145490952Y-32592380D01*
X145681428Y-32592380D01*
X145776666Y-32544761D01*
X145824285Y-32497142D01*
X145871904Y-32401904D01*
X145871904Y-32116190D01*
X145824285Y-32020952D01*
X145776666Y-31973333D01*
X145681428Y-31925714D01*
X145490952Y-31925714D01*
X145395714Y-31973333D01*
X144967142Y-32592380D02*
X144967142Y-31592380D01*
X144538571Y-32592380D02*
X144538571Y-32068571D01*
X144586190Y-31973333D01*
X144681428Y-31925714D01*
X144824285Y-31925714D01*
X144919523Y-31973333D01*
X144967142Y-32020952D01*
X143300476Y-32592380D02*
X143300476Y-31592380D01*
X143300476Y-31973333D02*
X143205238Y-31925714D01*
X143014761Y-31925714D01*
X142919523Y-31973333D01*
X142871904Y-32020952D01*
X142824285Y-32116190D01*
X142824285Y-32401904D01*
X142871904Y-32497142D01*
X142919523Y-32544761D01*
X143014761Y-32592380D01*
X143205238Y-32592380D01*
X143300476Y-32544761D01*
X142490952Y-31925714D02*
X142252857Y-32592380D01*
X142014761Y-31925714D02*
X142252857Y-32592380D01*
X142348095Y-32830476D01*
X142395714Y-32878095D01*
X142490952Y-32925714D01*
X140919523Y-32306666D02*
X140443333Y-32306666D01*
X141014761Y-32592380D02*
X140681428Y-31592380D01*
X140348095Y-32592380D01*
X140014761Y-31925714D02*
X140014761Y-32592380D01*
X140014761Y-32020952D02*
X139967142Y-31973333D01*
X139871904Y-31925714D01*
X139729047Y-31925714D01*
X139633809Y-31973333D01*
X139586190Y-32068571D01*
X139586190Y-32592380D01*
X138681428Y-32592380D02*
X138681428Y-31592380D01*
X138681428Y-32544761D02*
X138776666Y-32592380D01*
X138967142Y-32592380D01*
X139062380Y-32544761D01*
X139110000Y-32497142D01*
X139157619Y-32401904D01*
X139157619Y-32116190D01*
X139110000Y-32020952D01*
X139062380Y-31973333D01*
X138967142Y-31925714D01*
X138776666Y-31925714D01*
X138681428Y-31973333D01*
X138205238Y-32592380D02*
X138205238Y-31925714D01*
X138205238Y-32116190D02*
X138157619Y-32020952D01*
X138110000Y-31973333D01*
X138014761Y-31925714D01*
X137919523Y-31925714D01*
X137443333Y-32592380D02*
X137538571Y-32544761D01*
X137586190Y-32497142D01*
X137633809Y-32401904D01*
X137633809Y-32116190D01*
X137586190Y-32020952D01*
X137538571Y-31973333D01*
X137443333Y-31925714D01*
X137300476Y-31925714D01*
X137205238Y-31973333D01*
X137157619Y-32020952D01*
X137110000Y-32116190D01*
X137110000Y-32401904D01*
X137157619Y-32497142D01*
X137205238Y-32544761D01*
X137300476Y-32592380D01*
X137443333Y-32592380D01*
X136252857Y-32592380D02*
X136252857Y-31592380D01*
X136252857Y-32544761D02*
X136348095Y-32592380D01*
X136538571Y-32592380D01*
X136633809Y-32544761D01*
X136681428Y-32497142D01*
X136729047Y-32401904D01*
X136729047Y-32116190D01*
X136681428Y-32020952D01*
X136633809Y-31973333D01*
X136538571Y-31925714D01*
X136348095Y-31925714D01*
X136252857Y-31973333D01*
X135348095Y-32592380D02*
X135348095Y-32068571D01*
X135395714Y-31973333D01*
X135490952Y-31925714D01*
X135681428Y-31925714D01*
X135776666Y-31973333D01*
X135348095Y-32544761D02*
X135443333Y-32592380D01*
X135681428Y-32592380D01*
X135776666Y-32544761D01*
X135824285Y-32449523D01*
X135824285Y-32354285D01*
X135776666Y-32259047D01*
X135681428Y-32211428D01*
X135443333Y-32211428D01*
X135348095Y-32163809D01*
X134824285Y-32544761D02*
X134824285Y-32592380D01*
X134871904Y-32687619D01*
X134919523Y-32735238D01*
X133157619Y-32592380D02*
X133633809Y-32592380D01*
X133633809Y-31592380D01*
X132348095Y-32592380D02*
X132824285Y-32592380D01*
X132824285Y-31592380D01*
X131443333Y-32497142D02*
X131490952Y-32544761D01*
X131633809Y-32592380D01*
X131729047Y-32592380D01*
X131871904Y-32544761D01*
X131967142Y-32449523D01*
X132014761Y-32354285D01*
X132062380Y-32163809D01*
X132062380Y-32020952D01*
X132014761Y-31830476D01*
X131967142Y-31735238D01*
X131871904Y-31640000D01*
X131729047Y-31592380D01*
X131633809Y-31592380D01*
X131490952Y-31640000D01*
X131443333Y-31687619D01*
X130967142Y-32544761D02*
X130967142Y-32592380D01*
X131014761Y-32687619D01*
X131062380Y-32735238D01*
X129824285Y-32306666D02*
X129348095Y-32306666D01*
X129919523Y-32592380D02*
X129586190Y-31592380D01*
X129252857Y-32592380D01*
X128919523Y-31925714D02*
X128919523Y-32925714D01*
X128919523Y-31973333D02*
X128824285Y-31925714D01*
X128633809Y-31925714D01*
X128538571Y-31973333D01*
X128490952Y-32020952D01*
X128443333Y-32116190D01*
X128443333Y-32401904D01*
X128490952Y-32497142D01*
X128538571Y-32544761D01*
X128633809Y-32592380D01*
X128824285Y-32592380D01*
X128919523Y-32544761D01*
X128014761Y-32592380D02*
X128014761Y-31925714D01*
X128014761Y-32116190D02*
X127967142Y-32020952D01*
X127919523Y-31973333D01*
X127824285Y-31925714D01*
X127729047Y-31925714D01*
X127395714Y-32592380D02*
X127395714Y-31925714D01*
X127395714Y-31592380D02*
X127443333Y-31640000D01*
X127395714Y-31687619D01*
X127348095Y-31640000D01*
X127395714Y-31592380D01*
X127395714Y-31687619D01*
X126776666Y-32592380D02*
X126871904Y-32544761D01*
X126919523Y-32449523D01*
X126919523Y-31592380D01*
X125681428Y-31687619D02*
X125633809Y-31640000D01*
X125538571Y-31592380D01*
X125300476Y-31592380D01*
X125205238Y-31640000D01*
X125157619Y-31687619D01*
X125110000Y-31782857D01*
X125110000Y-31878095D01*
X125157619Y-32020952D01*
X125729047Y-32592380D01*
X125110000Y-32592380D01*
X124490952Y-31592380D02*
X124395714Y-31592380D01*
X124300476Y-31640000D01*
X124252857Y-31687619D01*
X124205238Y-31782857D01*
X124157619Y-31973333D01*
X124157619Y-32211428D01*
X124205238Y-32401904D01*
X124252857Y-32497142D01*
X124300476Y-32544761D01*
X124395714Y-32592380D01*
X124490952Y-32592380D01*
X124586190Y-32544761D01*
X124633809Y-32497142D01*
X124681428Y-32401904D01*
X124729047Y-32211428D01*
X124729047Y-31973333D01*
X124681428Y-31782857D01*
X124633809Y-31687619D01*
X124586190Y-31640000D01*
X124490952Y-31592380D01*
X123776666Y-31687619D02*
X123729047Y-31640000D01*
X123633809Y-31592380D01*
X123395714Y-31592380D01*
X123300476Y-31640000D01*
X123252857Y-31687619D01*
X123205238Y-31782857D01*
X123205238Y-31878095D01*
X123252857Y-32020952D01*
X123824285Y-32592380D01*
X123205238Y-32592380D01*
X122824285Y-31687619D02*
X122776666Y-31640000D01*
X122681428Y-31592380D01*
X122443333Y-31592380D01*
X122348095Y-31640000D01*
X122300476Y-31687619D01*
X122252857Y-31782857D01*
X122252857Y-31878095D01*
X122300476Y-32020952D01*
X122871904Y-32592380D01*
X122252857Y-32592380D01*
%TO.C,C5*%
X115050842Y-79884913D02*
X115098461Y-79837294D01*
X115146080Y-79694437D01*
X115146080Y-79599199D01*
X115098461Y-79456341D01*
X115003223Y-79361103D01*
X114907985Y-79313484D01*
X114717509Y-79265865D01*
X114574652Y-79265865D01*
X114384176Y-79313484D01*
X114288938Y-79361103D01*
X114193700Y-79456341D01*
X114146080Y-79599199D01*
X114146080Y-79694437D01*
X114193700Y-79837294D01*
X114241319Y-79884913D01*
X114146080Y-80789675D02*
X114146080Y-80313484D01*
X114622271Y-80265865D01*
X114574652Y-80313484D01*
X114527033Y-80408722D01*
X114527033Y-80646818D01*
X114574652Y-80742056D01*
X114622271Y-80789675D01*
X114717509Y-80837294D01*
X114955604Y-80837294D01*
X115050842Y-80789675D01*
X115098461Y-80742056D01*
X115146080Y-80646818D01*
X115146080Y-80408722D01*
X115098461Y-80313484D01*
X115050842Y-80265865D01*
%TO.C,C4*%
X111049706Y-51182542D02*
X111097325Y-51230161D01*
X111240182Y-51277780D01*
X111335420Y-51277780D01*
X111478278Y-51230161D01*
X111573516Y-51134923D01*
X111621135Y-51039685D01*
X111668754Y-50849209D01*
X111668754Y-50706352D01*
X111621135Y-50515876D01*
X111573516Y-50420638D01*
X111478278Y-50325400D01*
X111335420Y-50277780D01*
X111240182Y-50277780D01*
X111097325Y-50325400D01*
X111049706Y-50373019D01*
X110192563Y-50611114D02*
X110192563Y-51277780D01*
X110430659Y-50230161D02*
X110668754Y-50944447D01*
X110049706Y-50944447D01*
%TO.C,R2*%
X141656000Y-66008524D02*
X141989334Y-65532334D01*
X142227429Y-66008524D02*
X142227429Y-65008524D01*
X141846476Y-65008524D01*
X141751238Y-65056144D01*
X141703619Y-65103763D01*
X141656000Y-65199001D01*
X141656000Y-65341858D01*
X141703619Y-65437096D01*
X141751238Y-65484715D01*
X141846476Y-65532334D01*
X142227429Y-65532334D01*
X141275048Y-65103763D02*
X141227429Y-65056144D01*
X141132191Y-65008524D01*
X140894095Y-65008524D01*
X140798857Y-65056144D01*
X140751238Y-65103763D01*
X140703619Y-65199001D01*
X140703619Y-65294239D01*
X140751238Y-65437096D01*
X141322667Y-66008524D01*
X140703619Y-66008524D01*
%TO.C,R1*%
X144005500Y-62770022D02*
X144338834Y-62293832D01*
X144576929Y-62770022D02*
X144576929Y-61770022D01*
X144195976Y-61770022D01*
X144100738Y-61817642D01*
X144053119Y-61865261D01*
X144005500Y-61960499D01*
X144005500Y-62103356D01*
X144053119Y-62198594D01*
X144100738Y-62246213D01*
X144195976Y-62293832D01*
X144576929Y-62293832D01*
X143053119Y-62770022D02*
X143624548Y-62770022D01*
X143338834Y-62770022D02*
X143338834Y-61770022D01*
X143434072Y-61912880D01*
X143529310Y-62008118D01*
X143624548Y-62055737D01*
%TO.C,C1*%
X146875700Y-70929784D02*
X146923319Y-70977403D01*
X147066176Y-71025022D01*
X147161414Y-71025022D01*
X147304272Y-70977403D01*
X147399510Y-70882165D01*
X147447129Y-70786927D01*
X147494748Y-70596451D01*
X147494748Y-70453594D01*
X147447129Y-70263118D01*
X147399510Y-70167880D01*
X147304272Y-70072642D01*
X147161414Y-70025022D01*
X147066176Y-70025022D01*
X146923319Y-70072642D01*
X146875700Y-70120261D01*
X145923319Y-71025022D02*
X146494748Y-71025022D01*
X146209034Y-71025022D02*
X146209034Y-70025022D01*
X146304272Y-70167880D01*
X146399510Y-70263118D01*
X146494748Y-70310737D01*
%TO.C,C3*%
X140478806Y-45404042D02*
X140526425Y-45451661D01*
X140669282Y-45499280D01*
X140764520Y-45499280D01*
X140907378Y-45451661D01*
X141002616Y-45356423D01*
X141050235Y-45261185D01*
X141097854Y-45070709D01*
X141097854Y-44927852D01*
X141050235Y-44737376D01*
X141002616Y-44642138D01*
X140907378Y-44546900D01*
X140764520Y-44499280D01*
X140669282Y-44499280D01*
X140526425Y-44546900D01*
X140478806Y-44594519D01*
X140145473Y-44499280D02*
X139526425Y-44499280D01*
X139859759Y-44880233D01*
X139716901Y-44880233D01*
X139621663Y-44927852D01*
X139574044Y-44975471D01*
X139526425Y-45070709D01*
X139526425Y-45308804D01*
X139574044Y-45404042D01*
X139621663Y-45451661D01*
X139716901Y-45499280D01*
X140002616Y-45499280D01*
X140097854Y-45451661D01*
X140145473Y-45404042D01*
%TO.C,C2*%
X142631361Y-71939785D02*
X142678980Y-71987404D01*
X142821837Y-72035023D01*
X142917075Y-72035023D01*
X143059933Y-71987404D01*
X143155171Y-71892166D01*
X143202790Y-71796928D01*
X143250409Y-71606452D01*
X143250409Y-71463595D01*
X143202790Y-71273119D01*
X143155171Y-71177881D01*
X143059933Y-71082643D01*
X142917075Y-71035023D01*
X142821837Y-71035023D01*
X142678980Y-71082643D01*
X142631361Y-71130262D01*
X142250409Y-71130262D02*
X142202790Y-71082643D01*
X142107552Y-71035023D01*
X141869456Y-71035023D01*
X141774218Y-71082643D01*
X141726599Y-71130262D01*
X141678980Y-71225500D01*
X141678980Y-71320738D01*
X141726599Y-71463595D01*
X142298028Y-72035023D01*
X141678980Y-72035023D01*
D11*
%TO.C,C5*%
X115571440Y-80658724D02*
X115571440Y-79454596D01*
X118291440Y-80658724D02*
X118291440Y-79454596D01*
%TO.C,C4*%
X111479084Y-51611700D02*
X110274956Y-51611700D01*
X111479084Y-54331700D02*
X110274956Y-54331700D01*
%TO.C,U1*%
X132338334Y-60118644D02*
X132338334Y-70358644D01*
X116448334Y-60118644D02*
X116448334Y-70358644D01*
X116448334Y-60118644D02*
X132338334Y-60118644D01*
X116448334Y-70358644D02*
X132338334Y-70358644D01*
X132338334Y-62698644D02*
X134878334Y-62698644D01*
X132338334Y-65238644D02*
X134878334Y-65238644D01*
X132338334Y-67778644D02*
X134878334Y-67778644D01*
%TO.C,R2*%
X139805834Y-66191144D02*
G75*
G03*
X139805834Y-66191144I-920000J0D01*
G01*
X139805834Y-66191144D02*
X142965834Y-66191144D01*
%TO.C,R1*%
X140568834Y-63687642D02*
X140568834Y-60947642D01*
X140568834Y-60947642D02*
X147108834Y-60947642D01*
X147108834Y-60947642D02*
X147108834Y-63687642D01*
X147108834Y-63687642D02*
X140568834Y-63687642D01*
X139798834Y-62317642D02*
X140568834Y-62317642D01*
X147878834Y-62317642D02*
X147108834Y-62317642D01*
%TO.C,C1*%
X145336334Y-66006578D02*
X145336334Y-67210706D01*
X148056334Y-66006578D02*
X148056334Y-67210706D01*
%TO.C,C3*%
X135619076Y-43577680D02*
X136823204Y-43577680D01*
X135619076Y-46297680D02*
X136823204Y-46297680D01*
%TO.C,C2*%
X140215771Y-67942643D02*
X141419899Y-67942643D01*
X140215771Y-70662643D02*
X141419899Y-70662643D01*
%TD*%
M02*
