M48
; DRILL file {KiCad (6.0.2)} date Tue Apr  5 12:30:51 2022
; FORMAT={-:-/ absolute / inch / decimal}
; #@! TF.CreationDate,2022-04-05T12:30:51-06:00
; #@! TF.GenerationSoftware,Kicad,Pcbnew,(6.0.2)
; #@! TF.FileFunction,Plated,1,2,PTH
FMAT,2
INCH
; #@! TA.AperFunction,Plated,PTH,ViaDrill
T1C0.0157
; #@! TA.AperFunction,Plated,PTH,ComponentDrill
T2C0.0276
; #@! TA.AperFunction,Plated,PTH,ComponentDrill
T3C0.0280
; #@! TA.AperFunction,Plated,PTH,ComponentDrill
T4C0.0315
; #@! TA.AperFunction,Plated,PTH,ComponentDrill
T5C0.0354
; #@! TA.AperFunction,Plated,PTH,ComponentDrill
T6C0.0433
%
G90
G05
T1
X2.6133Y-4.1991
X2.8307Y-3.2128
X2.8585Y-3.1695
X2.8672Y-3.0909
X2.8731Y-3.8737
X2.8914Y-3.7727
X2.8997Y-3.2168
X2.9405Y-3.8741
X2.957Y-3.4805
X2.9915Y-2.7755
X2.9923Y-3.4121
X3.0024Y-3.6204
X3.0171Y-3.334
X3.0175Y-3.2321
X3.0381Y-3.7645
X3.0561Y-2.8243
X3.1347Y-2.823
X3.1794Y-3.4409
X3.1803Y-3.3413
X3.1832Y-3.5397
X3.1836Y-3.1413
X3.1836Y-3.2421
X3.1841Y-3.5943
X3.1843Y-3.8665
X3.1941Y-3.7691
X3.2208Y-3.6949
X3.2314Y-3.0363
X3.2539Y-3.7692
X3.2631Y-3.6757
X3.2984Y-2.7292
X3.3118Y-3.8665
X3.3464Y-2.7292
X3.4337Y-3.9803
X3.4569Y-3.2956
X3.4591Y-3.1957
X3.4793Y-3.7775
X3.4897Y-3.4956
X3.5035Y-3.6154
X3.5074Y-2.8437
X3.5324Y-2.9963
X3.5376Y-3.7506
X3.5716Y-3.1346
X3.6305Y-3.2224
X3.6627Y-3.1172
X3.7039Y-3.3289
X3.7695Y-2.9962
X3.7717Y-3.1165
X3.8136Y-3.2027
X3.8213Y-3.6154
X3.8313Y-2.5589
X3.8674Y-3.7069
X3.9082Y-2.4885
X3.9748Y-2.4165
X3.9991Y-3.331
X4.0099Y-3.4198
X4.0837Y-3.4345
X4.1255Y-3.5072
X4.1276Y-2.4188
X4.1758Y-3.2027
X4.2255Y-3.5406
X4.2627Y-3.2027
X4.2667Y-2.9917
X4.2676Y-3.7035
X4.3027Y-3.4162
X4.3567Y-3.4162
X4.3635Y-3.1103
X4.3669Y-3.7069
X4.3911Y-3.5421
X4.4002Y-3.2123
X4.4002Y-3.3149
X4.4675Y-3.0002
X4.5337Y-3.9418
X4.6207Y-3.6126
X4.6313Y-3.1267
X4.6673Y-3.5628
X4.717Y-3.5088
X4.7338Y-3.1275
X4.8229Y-2.7257
X4.8319Y-3.1267
X4.8652Y-2.878
X4.8664Y-2.5785
X5.008Y-4.0143
X5.0081Y-3.9289
X5.0157Y-2.8775
X5.0163Y-2.5795
X5.1908Y-3.6878
X5.1933Y-3.9874
X5.2154Y-3.8312
X5.2672Y-3.9594
X5.2798Y-4.0211
X5.2978Y-3.6892
X5.3161Y-3.8308
X5.3649Y-4.0515
X5.3981Y-3.6907
X5.4088Y-3.9887
X5.4102Y-4.0732
X5.4164Y-3.8303
X5.8096Y-4.1996
T2
X4.0473Y-2.4219
X4.0473Y-2.7219
X4.1441Y-2.5219
X4.1441Y-2.7219
T3
X3.5186Y-2.5018
X3.7186Y-2.5468
T4
X2.6863Y-2.4761
X2.6863Y-2.5548
X2.6863Y-2.6336
X2.6863Y-2.7123
X2.6863Y-2.7911
X2.6863Y-2.8698
X2.6863Y-2.9485
X2.6863Y-3.0273
X2.6863Y-3.106
X2.6863Y-3.1848
X2.6863Y-3.2635
X2.6863Y-3.3422
X2.6863Y-3.421
X2.6863Y-3.4997
X2.6863Y-3.5785
X2.6863Y-3.6572
X2.6863Y-3.7359
X2.6863Y-3.8147
X2.6863Y-3.8934
X2.6863Y-3.9722
X2.765Y-2.4761
X2.765Y-2.5548
X2.765Y-2.6336
X2.765Y-2.7123
X2.765Y-2.7911
X2.765Y-2.8698
X2.765Y-2.9485
X2.765Y-3.0273
X2.765Y-3.106
X2.765Y-3.1848
X2.765Y-3.2635
X2.765Y-3.3422
X2.765Y-3.421
X2.765Y-3.4997
X2.765Y-3.5785
X2.765Y-3.6572
X2.765Y-3.7359
X2.765Y-3.8147
X2.765Y-3.8934
X2.765Y-3.9722
X3.098Y-2.9686
X3.098Y-3.0686
X3.098Y-3.1686
X3.098Y-3.2686
X3.098Y-3.3686
X3.098Y-3.4686
X3.098Y-3.5686
X3.098Y-3.6686
X3.098Y-3.7686
X3.098Y-3.8686
X3.398Y-2.9686
X3.398Y-3.0686
X3.398Y-3.1686
X3.398Y-3.2686
X3.398Y-3.3686
X3.398Y-3.4686
X3.398Y-3.5686
X3.398Y-3.6686
X3.398Y-3.7686
X3.398Y-3.8686
T5
X2.6849Y-4.1105
X2.9139Y-2.6055
X2.9157Y-2.4693
X3.0849Y-4.1105
X3.3139Y-2.6055
X3.3157Y-2.4693
X3.617Y-3.0606
X3.617Y-3.7606
X3.717Y-3.0606
X3.717Y-3.7606
X3.817Y-3.0606
X3.817Y-3.7606
X3.917Y-3.0606
X3.917Y-3.7606
X4.017Y-3.0606
X4.017Y-3.7606
X4.117Y-3.0606
X4.117Y-3.7606
X4.217Y-3.0606
X4.217Y-3.7606
X4.317Y-3.0606
X4.317Y-3.7606
X4.417Y-3.0606
X4.417Y-3.7606
X4.517Y-3.0606
X4.517Y-3.7606
X4.617Y-3.0606
X4.617Y-3.7606
X4.717Y-3.0606
X4.717Y-3.7606
X4.817Y-3.0606
X4.817Y-3.7606
X4.917Y-3.0606
X4.917Y-3.7606
X5.017Y-3.0606
X5.017Y-3.7606
X5.117Y-3.0606
X5.117Y-3.7606
X5.217Y-3.0606
X5.217Y-3.7606
X5.317Y-3.0606
X5.317Y-3.7606
X5.417Y-3.0606
X5.417Y-3.7606
X5.517Y-3.0606
X5.517Y-3.7606
X5.617Y-3.0606
X5.617Y-3.7606
X5.717Y-3.0606
X5.717Y-3.7606
T6
X4.2966Y-2.6224
X4.2966Y-2.7224
X4.2966Y-2.8224
T0
M30
