%TF.GenerationSoftware,KiCad,Pcbnew,(6.0.2)*%
%TF.CreationDate,2022-04-05T19:05:53-06:00*%
%TF.ProjectId,F4_SMD_V1_1,46345f53-4d44-45f5-9631-5f312e6b6963,rev?*%
%TF.SameCoordinates,Original*%
%TF.FileFunction,Soldermask,Bot*%
%TF.FilePolarity,Negative*%
%FSLAX46Y46*%
G04 Gerber Fmt 4.6, Leading zero omitted, Abs format (unit mm)*
G04 Created by KiCad (PCBNEW (6.0.2)) date 2022-04-05 19:05:53*
%MOMM*%
%LPD*%
G01*
G04 APERTURE LIST*
G04 Aperture macros list*
%AMRoundRect*
0 Rectangle with rounded corners*
0 $1 Rounding radius*
0 $2 $3 $4 $5 $6 $7 $8 $9 X,Y pos of 4 corners*
0 Add a 4 corners polygon primitive as box body*
4,1,4,$2,$3,$4,$5,$6,$7,$8,$9,$2,$3,0*
0 Add four circle primitives for the rounded corners*
1,1,$1+$1,$2,$3*
1,1,$1+$1,$4,$5*
1,1,$1+$1,$6,$7*
1,1,$1+$1,$8,$9*
0 Add four rect primitives between the rounded corners*
20,1,$1+$1,$2,$3,$4,$5,0*
20,1,$1+$1,$4,$5,$6,$7,0*
20,1,$1+$1,$6,$7,$8,$9,0*
20,1,$1+$1,$8,$9,$2,$3,0*%
G04 Aperture macros list end*
%ADD10R,1.700000X1.700000*%
%ADD11O,1.700000X1.700000*%
%ADD12C,1.524000*%
%ADD13C,3.200000*%
%ADD14RoundRect,0.412500X0.412500X0.412500X-0.412500X0.412500X-0.412500X-0.412500X0.412500X-0.412500X0*%
%ADD15C,1.650000*%
%ADD16C,1.600000*%
%ADD17O,1.600000X1.600000*%
G04 APERTURE END LIST*
D10*
%TO.C,J4*%
X110200000Y-131400000D03*
D11*
X107660000Y-131400000D03*
X110200000Y-128860000D03*
X107660000Y-128860000D03*
X110200000Y-126320000D03*
X107660000Y-126320000D03*
X110200000Y-123780000D03*
X107660000Y-123780000D03*
X110200000Y-121240000D03*
X107660000Y-121240000D03*
X110200000Y-118700000D03*
X107660000Y-118700000D03*
X110200000Y-116160000D03*
X107660000Y-116160000D03*
X110200000Y-113620000D03*
X107660000Y-113620000D03*
X110200000Y-111080000D03*
X107660000Y-111080000D03*
X110200000Y-108540000D03*
X107660000Y-108540000D03*
X110200000Y-106000000D03*
X107660000Y-106000000D03*
X110200000Y-103460000D03*
X107660000Y-103460000D03*
X110200000Y-100920000D03*
X107660000Y-100920000D03*
X110200000Y-98380000D03*
X107660000Y-98380000D03*
X110200000Y-95840000D03*
X107660000Y-95840000D03*
X110200000Y-93300000D03*
X107660000Y-93300000D03*
X110200000Y-90760000D03*
X107660000Y-90760000D03*
X110200000Y-88220000D03*
X107660000Y-88220000D03*
X110200000Y-85680000D03*
X107660000Y-85680000D03*
X110200000Y-83140000D03*
X107660000Y-83140000D03*
X110200000Y-80600000D03*
X107660000Y-80600000D03*
X110200000Y-78060000D03*
X107660000Y-78060000D03*
X110200000Y-75520000D03*
X107660000Y-75520000D03*
X110200000Y-72980000D03*
X107660000Y-72980000D03*
X110200000Y-70440000D03*
X107660000Y-70440000D03*
%TD*%
D12*
%TO.C,J2*%
X116666000Y-149794600D03*
X116666000Y-147294600D03*
X116666000Y-144794600D03*
X116666000Y-142294600D03*
%TD*%
D13*
%TO.C,REF\u002A\u002A*%
X123952000Y-146177000D03*
%TD*%
%TO.C,REF\u002A\u002A*%
X122682000Y-71247000D03*
%TD*%
%TO.C,REF\u002A\u002A*%
X145288000Y-112268000D03*
%TD*%
D10*
%TO.C,J6*%
X146939000Y-106807000D03*
D11*
X149479000Y-106807000D03*
X152019000Y-106807000D03*
%TD*%
D10*
%TO.C,USBPWR*%
X143573500Y-79883000D03*
D11*
X146113500Y-79883000D03*
X148653500Y-79883000D03*
%TD*%
D10*
%TO.C,J1*%
X117221000Y-72326500D03*
D11*
X117221000Y-69786500D03*
%TD*%
D14*
%TO.C,BP1*%
X135826500Y-128016000D03*
D15*
X135826500Y-125476000D03*
X135826500Y-122936000D03*
X135826500Y-120396000D03*
X135826500Y-117856000D03*
X135826500Y-115316000D03*
X135826500Y-112776000D03*
X135826500Y-110236000D03*
X135826500Y-107696000D03*
X135826500Y-105156000D03*
X135826500Y-102616000D03*
X135826500Y-100076000D03*
X135826500Y-97536000D03*
X135826500Y-94996000D03*
X135826500Y-92456000D03*
X135826500Y-89916000D03*
X135826500Y-87376000D03*
X135826500Y-84836000D03*
X135826500Y-82296000D03*
X135826500Y-79756000D03*
X120586500Y-79756000D03*
X120586500Y-82296000D03*
X120586500Y-84836000D03*
X120586500Y-87376000D03*
X120586500Y-89916000D03*
X120586500Y-92456000D03*
X120586500Y-94996000D03*
X120586500Y-97536000D03*
X120586500Y-100076000D03*
X120586500Y-102616000D03*
X120586500Y-105156000D03*
X120586500Y-107696000D03*
X120586500Y-110236000D03*
X120586500Y-112776000D03*
X120586500Y-115316000D03*
X120586500Y-117856000D03*
X120586500Y-120396000D03*
X120586500Y-122936000D03*
X120586500Y-125476000D03*
X120586500Y-128016000D03*
%TD*%
D10*
%TO.C,J3*%
X151180800Y-112560100D03*
D11*
X151180800Y-115100100D03*
%TD*%
D16*
%TO.C,R19*%
X151036020Y-131025900D03*
D17*
X143416020Y-131025900D03*
%TD*%
M02*
