M48
; DRILL file {KiCad (6.0.2)} date Tue Apr  5 19:05:55 2022
; FORMAT={-:-/ absolute / inch / decimal}
; #@! TF.CreationDate,2022-04-05T19:05:55-06:00
; #@! TF.GenerationSoftware,Kicad,Pcbnew,(6.0.2)
; #@! TF.FileFunction,Plated,1,2,PTH
FMAT,2
INCH
; #@! TA.AperFunction,Plated,PTH,ViaDrill
T1C0.0118
; #@! TA.AperFunction,Plated,PTH,ViaDrill
T2C0.0157
; #@! TA.AperFunction,Plated,PTH,ComponentDrill
T3C0.0300
; #@! TA.AperFunction,Plated,PTH,ComponentDrill
T4C0.0315
; #@! TA.AperFunction,Plated,PTH,ComponentDrill
T5C0.0354
; #@! TA.AperFunction,Plated,PTH,ComponentDrill
T6C0.0394
%
G90
G05
T1
X4.4769Y-4.6794
X4.4779Y-4.7297
X4.5314Y-2.8833
X4.533Y-4.7888
X4.5758Y-5.0685
X4.6145Y-5.1682
X4.6585Y-3.9106
X4.6725Y-3.7788
X4.6795Y-3.1998
X4.6813Y-4.4416
X4.6814Y-4.5428
X4.6818Y-4.8595
X4.6841Y-3.2959
X4.6841Y-4.7875
X4.6854Y-3.4971
X4.6871Y-3.4029
X4.6888Y-3.1279
X4.8157Y-4.5276
X4.8175Y-4.69
X4.8871Y-3.8382
X4.9212Y-5.327
X5.0632Y-4.8783
X5.209Y-4.6993
X5.2191Y-5.7171
X5.2281Y-3.4282
X5.2327Y-5.6293
X5.2342Y-4.5974
X5.415Y-3.5947
X5.6319Y-4.8995
X5.6557Y-4.0127
X5.7127Y-4.2555
T2
X4.1725Y-5.275
X4.175Y-5.9225
X4.4375Y-4.64
X4.48Y-4.78
X4.4875Y-5.195
X4.4925Y-4.1475
X4.5125Y-4.95
X4.6025Y-5.025
X4.6475Y-5.1275
X4.6787Y-2.9937
X4.6838Y-2.7138
X4.705Y-3.02
X4.7138Y-2.6837
X4.8056Y-3.9791
X4.814Y-3.1572
X4.8156Y-4.8821
X4.8175Y-5.27
X4.8201Y-3.3669
X4.8204Y-3.2626
X4.8207Y-3.5634
X4.8221Y-3.4659
X4.8275Y-4.7875
X4.8412Y-5.0337
X4.8425Y-3.7175
X4.8574Y-3.9346
X4.9119Y-3.12
X4.9275Y-2.6325
X4.9425Y-5.2825
X4.9625Y-5.535
X4.99Y-4.8325
X4.9925Y-4.77
X5.0375Y-4.365
X5.045Y-5.435
X5.0725Y-5.3
X5.075Y-4.6625
X5.1087Y-3.9838
X5.1131Y-4.4956
X5.1357Y-3.1255
X5.1525Y-5.1275
X5.1875Y-2.63
X5.2415Y-4.7437
X5.26Y-5.68
X5.2624Y-4.99
X5.2675Y-5.5925
X5.2728Y-4.4161
X5.2775Y-5.455
X5.3349Y-5.6374
X5.4119Y-4.4956
X5.4139Y-4.0928
X5.4143Y-3.988
X5.4151Y-3.89
X5.4157Y-3.7931
X5.4166Y-3.6906
X5.4193Y-4.5869
X5.4275Y-5.27
X5.4421Y-2.7219
X5.4425Y-2.895
X5.45Y-3.05
X5.49Y-3.05
X5.525Y-4.265
X5.5784Y-3.3116
X5.6025Y-4.6925
X5.6525Y-2.615
X5.655Y-2.895
X5.656Y-2.7214
X5.7826Y-4.6126
X5.785Y-3.585
X5.7855Y-5.1232
X5.8472Y-3.5803
X5.8575Y-4.9275
X5.89Y-3.6475
X5.935Y-3.4325
X5.9775Y-2.9975
X5.9825Y-3.4325
X5.985Y-4.615
X6.015Y-5.095
X6.0775Y-2.615
T3
X4.5931Y-5.6021
X4.5931Y-5.7006
X4.5931Y-5.799
X4.5931Y-5.8974
T4
X5.6463Y-5.1585
X5.9463Y-5.1585
T5
X4.7475Y-3.14
X4.7475Y-3.24
X4.7475Y-3.34
X4.7475Y-3.44
X4.7475Y-3.54
X4.7475Y-3.64
X4.7475Y-3.74
X4.7475Y-3.84
X4.7475Y-3.94
X4.7475Y-4.04
X4.7475Y-4.14
X4.7475Y-4.24
X4.7475Y-4.34
X4.7475Y-4.44
X4.7475Y-4.54
X4.7475Y-4.64
X4.7475Y-4.74
X4.7475Y-4.84
X4.7475Y-4.94
X4.7475Y-5.04
X5.3475Y-3.14
X5.3475Y-3.24
X5.3475Y-3.34
X5.3475Y-3.44
X5.3475Y-3.54
X5.3475Y-3.64
X5.3475Y-3.74
X5.3475Y-3.84
X5.3475Y-3.94
X5.3475Y-4.04
X5.3475Y-4.14
X5.3475Y-4.24
X5.3475Y-4.34
X5.3475Y-4.44
X5.3475Y-4.54
X5.3475Y-4.64
X5.3475Y-4.74
X5.3475Y-4.84
X5.3475Y-4.94
X5.3475Y-5.04
T6
X4.2386Y-2.7732
X4.2386Y-2.8732
X4.2386Y-2.9732
X4.2386Y-3.0732
X4.2386Y-3.1732
X4.2386Y-3.2732
X4.2386Y-3.3732
X4.2386Y-3.4732
X4.2386Y-3.5732
X4.2386Y-3.6732
X4.2386Y-3.7732
X4.2386Y-3.8732
X4.2386Y-3.9732
X4.2386Y-4.0732
X4.2386Y-4.1732
X4.2386Y-4.2732
X4.2386Y-4.3732
X4.2386Y-4.4732
X4.2386Y-4.5732
X4.2386Y-4.6732
X4.2386Y-4.7732
X4.2386Y-4.8732
X4.2386Y-4.9732
X4.2386Y-5.0732
X4.2386Y-5.1732
X4.3386Y-2.7732
X4.3386Y-2.8732
X4.3386Y-2.9732
X4.3386Y-3.0732
X4.3386Y-3.1732
X4.3386Y-3.2732
X4.3386Y-3.3732
X4.3386Y-3.4732
X4.3386Y-3.5732
X4.3386Y-3.6732
X4.3386Y-3.7732
X4.3386Y-3.8732
X4.3386Y-3.9732
X4.3386Y-4.0732
X4.3386Y-4.1732
X4.3386Y-4.2732
X4.3386Y-4.3732
X4.3386Y-4.4732
X4.3386Y-4.5732
X4.3386Y-4.6732
X4.3386Y-4.7732
X4.3386Y-4.8732
X4.3386Y-4.9732
X4.3386Y-5.0732
X4.3386Y-5.1732
X4.615Y-2.7475
X4.615Y-2.8475
X5.6525Y-3.145
X5.7525Y-3.145
X5.785Y-4.205
X5.8525Y-3.145
X5.885Y-4.205
X5.952Y-4.4315
X5.952Y-4.5315
X5.985Y-4.205
T0
M30
