%TF.GenerationSoftware,KiCad,Pcbnew,(6.0.2)*%
%TF.CreationDate,2022-04-05T19:05:53-06:00*%
%TF.ProjectId,F4_SMD_V1_1,46345f53-4d44-45f5-9631-5f312e6b6963,rev?*%
%TF.SameCoordinates,Original*%
%TF.FileFunction,Legend,Top*%
%TF.FilePolarity,Positive*%
%FSLAX46Y46*%
G04 Gerber Fmt 4.6, Leading zero omitted, Abs format (unit mm)*
G04 Created by KiCad (PCBNEW (6.0.2)) date 2022-04-05 19:05:53*
%MOMM*%
%LPD*%
G01*
G04 APERTURE LIST*
%ADD10C,0.150000*%
%ADD11C,0.120000*%
G04 APERTURE END LIST*
D10*
X141922499Y-81915000D02*
X146304000Y-81915000D01*
X149987000Y-104775000D02*
X145605500Y-104775000D01*
X149161500Y-108945680D02*
X153352500Y-108945680D01*
X145224499Y-77787500D02*
X150114000Y-77787500D01*
X115533191Y-112558885D02*
X116180810Y-112558885D01*
X116257000Y-112596980D01*
X116295096Y-112635076D01*
X116333191Y-112711266D01*
X116333191Y-112825552D01*
X116295096Y-112901742D01*
X116028429Y-112558885D02*
X116066524Y-112635076D01*
X116066524Y-112787457D01*
X116028429Y-112863647D01*
X115990334Y-112901742D01*
X115914143Y-112939838D01*
X115685572Y-112939838D01*
X115609381Y-112901742D01*
X115571286Y-112863647D01*
X115533191Y-112787457D01*
X115533191Y-112635076D01*
X115571286Y-112558885D01*
X116066524Y-112177933D02*
X115533191Y-112177933D01*
X115266524Y-112177933D02*
X115304620Y-112216028D01*
X115342715Y-112177933D01*
X115304620Y-112139838D01*
X115266524Y-112177933D01*
X115342715Y-112177933D01*
X115533191Y-111911266D02*
X115533191Y-111606504D01*
X115266524Y-111796980D02*
X115952239Y-111796980D01*
X116028429Y-111758885D01*
X116066524Y-111682695D01*
X116066524Y-111606504D01*
X116066524Y-111339838D02*
X115266524Y-111339838D01*
X116066524Y-110996980D02*
X115647477Y-110996980D01*
X115571286Y-111035076D01*
X115533191Y-111111266D01*
X115533191Y-111225552D01*
X115571286Y-111301742D01*
X115609381Y-111339838D01*
X115533191Y-110273171D02*
X116066524Y-110273171D01*
X115533191Y-110616028D02*
X115952239Y-110616028D01*
X116028429Y-110577933D01*
X116066524Y-110501742D01*
X116066524Y-110387457D01*
X116028429Y-110311266D01*
X115990334Y-110273171D01*
X116066524Y-109892219D02*
X115266524Y-109892219D01*
X115571286Y-109892219D02*
X115533191Y-109816028D01*
X115533191Y-109663647D01*
X115571286Y-109587457D01*
X115609381Y-109549361D01*
X115685572Y-109511266D01*
X115914143Y-109511266D01*
X115990334Y-109549361D01*
X116028429Y-109587457D01*
X116066524Y-109663647D01*
X116066524Y-109816028D01*
X116028429Y-109892219D01*
X115990334Y-109168409D02*
X116028429Y-109130314D01*
X116066524Y-109168409D01*
X116028429Y-109206504D01*
X115990334Y-109168409D01*
X116066524Y-109168409D01*
X116028429Y-108444600D02*
X116066524Y-108520790D01*
X116066524Y-108673171D01*
X116028429Y-108749361D01*
X115990334Y-108787457D01*
X115914143Y-108825552D01*
X115685572Y-108825552D01*
X115609381Y-108787457D01*
X115571286Y-108749361D01*
X115533191Y-108673171D01*
X115533191Y-108520790D01*
X115571286Y-108444600D01*
X116066524Y-107987457D02*
X116028429Y-108063647D01*
X115990334Y-108101742D01*
X115914143Y-108139838D01*
X115685572Y-108139838D01*
X115609381Y-108101742D01*
X115571286Y-108063647D01*
X115533191Y-107987457D01*
X115533191Y-107873171D01*
X115571286Y-107796980D01*
X115609381Y-107758885D01*
X115685572Y-107720790D01*
X115914143Y-107720790D01*
X115990334Y-107758885D01*
X116028429Y-107796980D01*
X116066524Y-107873171D01*
X116066524Y-107987457D01*
X116066524Y-107377933D02*
X115533191Y-107377933D01*
X115609381Y-107377933D02*
X115571286Y-107339838D01*
X115533191Y-107263647D01*
X115533191Y-107149361D01*
X115571286Y-107073171D01*
X115647477Y-107035076D01*
X116066524Y-107035076D01*
X115647477Y-107035076D02*
X115571286Y-106996980D01*
X115533191Y-106920790D01*
X115533191Y-106806504D01*
X115571286Y-106730314D01*
X115647477Y-106692219D01*
X116066524Y-106692219D01*
X115228429Y-105739838D02*
X116257000Y-106425552D01*
X116066524Y-105130314D02*
X115647477Y-105130314D01*
X115571286Y-105168409D01*
X115533191Y-105244600D01*
X115533191Y-105396980D01*
X115571286Y-105473171D01*
X116028429Y-105130314D02*
X116066524Y-105206504D01*
X116066524Y-105396980D01*
X116028429Y-105473171D01*
X115952239Y-105511266D01*
X115876048Y-105511266D01*
X115799858Y-105473171D01*
X115761762Y-105396980D01*
X115761762Y-105206504D01*
X115723667Y-105130314D01*
X115533191Y-104749361D02*
X116066524Y-104749361D01*
X115609381Y-104749361D02*
X115571286Y-104711266D01*
X115533191Y-104635076D01*
X115533191Y-104520790D01*
X115571286Y-104444600D01*
X115647477Y-104406504D01*
X116066524Y-104406504D01*
X116066524Y-103682695D02*
X115266524Y-103682695D01*
X116028429Y-103682695D02*
X116066524Y-103758885D01*
X116066524Y-103911266D01*
X116028429Y-103987457D01*
X115990334Y-104025552D01*
X115914143Y-104063647D01*
X115685572Y-104063647D01*
X115609381Y-104025552D01*
X115571286Y-103987457D01*
X115533191Y-103911266D01*
X115533191Y-103758885D01*
X115571286Y-103682695D01*
X116066524Y-103301742D02*
X115533191Y-103301742D01*
X115685572Y-103301742D02*
X115609381Y-103263647D01*
X115571286Y-103225552D01*
X115533191Y-103149361D01*
X115533191Y-103073171D01*
X116066524Y-102692219D02*
X116028429Y-102768409D01*
X115990334Y-102806504D01*
X115914143Y-102844600D01*
X115685572Y-102844600D01*
X115609381Y-102806504D01*
X115571286Y-102768409D01*
X115533191Y-102692219D01*
X115533191Y-102577933D01*
X115571286Y-102501742D01*
X115609381Y-102463647D01*
X115685572Y-102425552D01*
X115914143Y-102425552D01*
X115990334Y-102463647D01*
X116028429Y-102501742D01*
X116066524Y-102577933D01*
X116066524Y-102692219D01*
X116066524Y-101739838D02*
X115266524Y-101739838D01*
X116028429Y-101739838D02*
X116066524Y-101816028D01*
X116066524Y-101968409D01*
X116028429Y-102044600D01*
X115990334Y-102082695D01*
X115914143Y-102120790D01*
X115685572Y-102120790D01*
X115609381Y-102082695D01*
X115571286Y-102044600D01*
X115533191Y-101968409D01*
X115533191Y-101816028D01*
X115571286Y-101739838D01*
X116066524Y-101016028D02*
X115647477Y-101016028D01*
X115571286Y-101054123D01*
X115533191Y-101130314D01*
X115533191Y-101282695D01*
X115571286Y-101358885D01*
X116028429Y-101016028D02*
X116066524Y-101092219D01*
X116066524Y-101282695D01*
X116028429Y-101358885D01*
X115952239Y-101396980D01*
X115876048Y-101396980D01*
X115799858Y-101358885D01*
X115761762Y-101282695D01*
X115761762Y-101092219D01*
X115723667Y-101016028D01*
X115228429Y-100063647D02*
X116257000Y-100749361D01*
X115647477Y-99530314D02*
X115647477Y-99796980D01*
X116066524Y-99796980D02*
X115266524Y-99796980D01*
X115266524Y-99416028D01*
X115533191Y-98768409D02*
X116066524Y-98768409D01*
X115228429Y-98958885D02*
X115799858Y-99149361D01*
X115799858Y-98654123D01*
X116142715Y-98539838D02*
X116142715Y-97930314D01*
X115647477Y-97473171D02*
X115685572Y-97358885D01*
X115723667Y-97320790D01*
X115799858Y-97282695D01*
X115914143Y-97282695D01*
X115990334Y-97320790D01*
X116028429Y-97358885D01*
X116066524Y-97435076D01*
X116066524Y-97739838D01*
X115266524Y-97739838D01*
X115266524Y-97473171D01*
X115304620Y-97396980D01*
X115342715Y-97358885D01*
X115418905Y-97320790D01*
X115495096Y-97320790D01*
X115571286Y-97358885D01*
X115609381Y-97396980D01*
X115647477Y-97473171D01*
X115647477Y-97739838D01*
X116066524Y-96825552D02*
X116028429Y-96901742D01*
X115952239Y-96939838D01*
X115266524Y-96939838D01*
X115533191Y-96177933D02*
X116066524Y-96177933D01*
X115533191Y-96520790D02*
X115952239Y-96520790D01*
X116028429Y-96482695D01*
X116066524Y-96406504D01*
X116066524Y-96292219D01*
X116028429Y-96216028D01*
X115990334Y-96177933D01*
X116028429Y-95492219D02*
X116066524Y-95568409D01*
X116066524Y-95720790D01*
X116028429Y-95796980D01*
X115952239Y-95835076D01*
X115647477Y-95835076D01*
X115571286Y-95796980D01*
X115533191Y-95720790D01*
X115533191Y-95568409D01*
X115571286Y-95492219D01*
X115647477Y-95454123D01*
X115723667Y-95454123D01*
X115799858Y-95835076D01*
X116028429Y-95149361D02*
X116066524Y-95035076D01*
X116066524Y-94844600D01*
X116028429Y-94768409D01*
X115990334Y-94730314D01*
X115914143Y-94692219D01*
X115837953Y-94692219D01*
X115761762Y-94730314D01*
X115723667Y-94768409D01*
X115685572Y-94844600D01*
X115647477Y-94996980D01*
X115609381Y-95073171D01*
X115571286Y-95111266D01*
X115495096Y-95149361D01*
X115418905Y-95149361D01*
X115342715Y-95111266D01*
X115304620Y-95073171D01*
X115266524Y-94996980D01*
X115266524Y-94806504D01*
X115304620Y-94692219D01*
X115990334Y-93892219D02*
X116028429Y-93930314D01*
X116066524Y-94044600D01*
X116066524Y-94120790D01*
X116028429Y-94235076D01*
X115952239Y-94311266D01*
X115876048Y-94349361D01*
X115723667Y-94387457D01*
X115609381Y-94387457D01*
X115457000Y-94349361D01*
X115380810Y-94311266D01*
X115304620Y-94235076D01*
X115266524Y-94120790D01*
X115266524Y-94044600D01*
X115304620Y-93930314D01*
X115342715Y-93892219D01*
X116028429Y-93587457D02*
X116066524Y-93473171D01*
X116066524Y-93282695D01*
X116028429Y-93206504D01*
X115990334Y-93168409D01*
X115914143Y-93130314D01*
X115837953Y-93130314D01*
X115761762Y-93168409D01*
X115723667Y-93206504D01*
X115685572Y-93282695D01*
X115647477Y-93435076D01*
X115609381Y-93511266D01*
X115571286Y-93549361D01*
X115495096Y-93587457D01*
X115418905Y-93587457D01*
X115342715Y-93549361D01*
X115304620Y-93511266D01*
X115266524Y-93435076D01*
X115266524Y-93244600D01*
X115304620Y-93130314D01*
X116066524Y-92787457D02*
X115266524Y-92787457D01*
X107112261Y-145294404D02*
X107112261Y-145865833D01*
X107074166Y-145980119D01*
X106997976Y-146056309D01*
X106883690Y-146094404D01*
X106807500Y-146094404D01*
X107874166Y-146094404D02*
X107493214Y-146094404D01*
X107493214Y-145294404D01*
X108597976Y-146018214D02*
X108559880Y-146056309D01*
X108445595Y-146094404D01*
X108369404Y-146094404D01*
X108255119Y-146056309D01*
X108178928Y-145980119D01*
X108140833Y-145903928D01*
X108102738Y-145751547D01*
X108102738Y-145637261D01*
X108140833Y-145484880D01*
X108178928Y-145408690D01*
X108255119Y-145332500D01*
X108369404Y-145294404D01*
X108445595Y-145294404D01*
X108559880Y-145332500D01*
X108597976Y-145370595D01*
X109169404Y-145294404D02*
X109169404Y-145865833D01*
X109131309Y-145980119D01*
X109055119Y-146056309D01*
X108940833Y-146094404D01*
X108864642Y-146094404D01*
X109931309Y-146094404D02*
X109550357Y-146094404D01*
X109550357Y-145294404D01*
X110655119Y-146018214D02*
X110617023Y-146056309D01*
X110502738Y-146094404D01*
X110426547Y-146094404D01*
X110312261Y-146056309D01*
X110236071Y-145980119D01*
X110197976Y-145903928D01*
X110159880Y-145751547D01*
X110159880Y-145637261D01*
X110197976Y-145484880D01*
X110236071Y-145408690D01*
X110312261Y-145332500D01*
X110426547Y-145294404D01*
X110502738Y-145294404D01*
X110617023Y-145332500D01*
X110655119Y-145370595D01*
X111226547Y-145294404D02*
X111226547Y-145865833D01*
X111188452Y-145980119D01*
X111112261Y-146056309D01*
X110997976Y-146094404D01*
X110921785Y-146094404D01*
X111988452Y-146094404D02*
X111607500Y-146094404D01*
X111607500Y-145294404D01*
X112712261Y-146018214D02*
X112674166Y-146056309D01*
X112559880Y-146094404D01*
X112483690Y-146094404D01*
X112369404Y-146056309D01*
X112293214Y-145980119D01*
X112255119Y-145903928D01*
X112217023Y-145751547D01*
X112217023Y-145637261D01*
X112255119Y-145484880D01*
X112293214Y-145408690D01*
X112369404Y-145332500D01*
X112483690Y-145294404D01*
X112559880Y-145294404D01*
X112674166Y-145332500D01*
X112712261Y-145370595D01*
X113283690Y-145294404D02*
X113283690Y-145865833D01*
X113245595Y-145980119D01*
X113169404Y-146056309D01*
X113055119Y-146094404D01*
X112978928Y-146094404D01*
X114045595Y-146094404D02*
X113664642Y-146094404D01*
X113664642Y-145294404D01*
X114769404Y-146018214D02*
X114731309Y-146056309D01*
X114617023Y-146094404D01*
X114540833Y-146094404D01*
X114426547Y-146056309D01*
X114350357Y-145980119D01*
X114312261Y-145903928D01*
X114274166Y-145751547D01*
X114274166Y-145637261D01*
X114312261Y-145484880D01*
X114350357Y-145408690D01*
X114426547Y-145332500D01*
X114540833Y-145294404D01*
X114617023Y-145294404D01*
X114731309Y-145332500D01*
X114769404Y-145370595D01*
X149042785Y-109287060D02*
X149614214Y-109287060D01*
X149328500Y-110287060D02*
X149328500Y-109287060D01*
X150518976Y-110287060D02*
X150185642Y-109810870D01*
X149947547Y-110287060D02*
X149947547Y-109287060D01*
X150328500Y-109287060D01*
X150423738Y-109334680D01*
X150471357Y-109382299D01*
X150518976Y-109477537D01*
X150518976Y-109620394D01*
X150471357Y-109715632D01*
X150423738Y-109763251D01*
X150328500Y-109810870D01*
X149947547Y-109810870D01*
X150947547Y-110287060D02*
X150947547Y-109287060D01*
X151280880Y-110001346D01*
X151614214Y-109287060D01*
X151614214Y-110287060D01*
X151852309Y-110382299D02*
X152614214Y-110382299D01*
X153042785Y-109287060D02*
X153233261Y-109287060D01*
X153328500Y-109334680D01*
X153423738Y-109429918D01*
X153471357Y-109620394D01*
X153471357Y-109953727D01*
X153423738Y-110144203D01*
X153328500Y-110239441D01*
X153233261Y-110287060D01*
X153042785Y-110287060D01*
X152947547Y-110239441D01*
X152852309Y-110144203D01*
X152804690Y-109953727D01*
X152804690Y-109620394D01*
X152852309Y-109429918D01*
X152947547Y-109334680D01*
X153042785Y-109287060D01*
X153899928Y-110287060D02*
X153899928Y-109287060D01*
X154471357Y-110287060D01*
X154471357Y-109287060D01*
X143819952Y-103465380D02*
X144391380Y-103465380D01*
X144105666Y-104465380D02*
X144105666Y-103465380D01*
X145296142Y-104465380D02*
X144962809Y-103989190D01*
X144724714Y-104465380D02*
X144724714Y-103465380D01*
X145105666Y-103465380D01*
X145200904Y-103513000D01*
X145248523Y-103560619D01*
X145296142Y-103655857D01*
X145296142Y-103798714D01*
X145248523Y-103893952D01*
X145200904Y-103941571D01*
X145105666Y-103989190D01*
X144724714Y-103989190D01*
X145724714Y-104465380D02*
X145724714Y-103465380D01*
X146058047Y-104179666D01*
X146391380Y-103465380D01*
X146391380Y-104465380D01*
X146629476Y-104560619D02*
X147391380Y-104560619D01*
X147819952Y-103465380D02*
X148010428Y-103465380D01*
X148105666Y-103513000D01*
X148200904Y-103608238D01*
X148248523Y-103798714D01*
X148248523Y-104132047D01*
X148200904Y-104322523D01*
X148105666Y-104417761D01*
X148010428Y-104465380D01*
X147819952Y-104465380D01*
X147724714Y-104417761D01*
X147629476Y-104322523D01*
X147581857Y-104132047D01*
X147581857Y-103798714D01*
X147629476Y-103608238D01*
X147724714Y-103513000D01*
X147819952Y-103465380D01*
X149010428Y-103941571D02*
X148677095Y-103941571D01*
X148677095Y-104465380D02*
X148677095Y-103465380D01*
X149153285Y-103465380D01*
X149867571Y-103941571D02*
X149534238Y-103941571D01*
X149534238Y-104465380D02*
X149534238Y-103465380D01*
X150010428Y-103465380D01*
X114916119Y-74749571D02*
X115106595Y-75282904D01*
X115297071Y-74749571D01*
X115487547Y-74482904D02*
X115944690Y-74482904D01*
X115716119Y-75282904D02*
X115716119Y-74482904D01*
X116668500Y-75282904D02*
X116401833Y-74901952D01*
X116211357Y-75282904D02*
X116211357Y-74482904D01*
X116516119Y-74482904D01*
X116592309Y-74521000D01*
X116630404Y-74559095D01*
X116668500Y-74635285D01*
X116668500Y-74749571D01*
X116630404Y-74825761D01*
X116592309Y-74863857D01*
X116516119Y-74901952D01*
X116211357Y-74901952D01*
X117011357Y-75282904D02*
X117011357Y-74482904D01*
X117278023Y-75054333D01*
X117544690Y-74482904D01*
X117544690Y-75282904D01*
X114458976Y-76151857D02*
X114725642Y-76151857D01*
X114839928Y-76570904D02*
X114458976Y-76570904D01*
X114458976Y-75770904D01*
X114839928Y-75770904D01*
X115182785Y-76037571D02*
X115182785Y-76570904D01*
X115182785Y-76113761D02*
X115220880Y-76075666D01*
X115297071Y-76037571D01*
X115411357Y-76037571D01*
X115487547Y-76075666D01*
X115525642Y-76151857D01*
X115525642Y-76570904D01*
X116249452Y-76570904D02*
X116249452Y-76151857D01*
X116211357Y-76075666D01*
X116135166Y-76037571D01*
X115982785Y-76037571D01*
X115906595Y-76075666D01*
X116249452Y-76532809D02*
X116173261Y-76570904D01*
X115982785Y-76570904D01*
X115906595Y-76532809D01*
X115868500Y-76456619D01*
X115868500Y-76380428D01*
X115906595Y-76304238D01*
X115982785Y-76266142D01*
X116173261Y-76266142D01*
X116249452Y-76228047D01*
X116630404Y-76570904D02*
X116630404Y-75770904D01*
X116630404Y-76075666D02*
X116706595Y-76037571D01*
X116858976Y-76037571D01*
X116935166Y-76075666D01*
X116973261Y-76113761D01*
X117011357Y-76189952D01*
X117011357Y-76418523D01*
X116973261Y-76494714D01*
X116935166Y-76532809D01*
X116858976Y-76570904D01*
X116706595Y-76570904D01*
X116630404Y-76532809D01*
X117468500Y-76570904D02*
X117392309Y-76532809D01*
X117354214Y-76456619D01*
X117354214Y-75770904D01*
X118078023Y-76532809D02*
X118001833Y-76570904D01*
X117849452Y-76570904D01*
X117773261Y-76532809D01*
X117735166Y-76456619D01*
X117735166Y-76151857D01*
X117773261Y-76075666D01*
X117849452Y-76037571D01*
X118001833Y-76037571D01*
X118078023Y-76075666D01*
X118116119Y-76151857D01*
X118116119Y-76228047D01*
X117735166Y-76304238D01*
X114049054Y-135827686D02*
X114010959Y-135827686D01*
X113934768Y-135789591D01*
X113896673Y-135713400D01*
X113896673Y-135332448D01*
X113858578Y-135256258D01*
X113782387Y-135218162D01*
X113858578Y-135180067D01*
X113896673Y-135103877D01*
X113896673Y-134722924D01*
X113934768Y-134646734D01*
X114010959Y-134608639D01*
X114049054Y-134608639D01*
X114620482Y-135103877D02*
X114353816Y-135103877D01*
X114353816Y-135522924D02*
X114353816Y-134722924D01*
X114734768Y-134722924D01*
X115382387Y-134989591D02*
X115382387Y-135522924D01*
X115191911Y-134684829D02*
X115001435Y-135256258D01*
X115496673Y-135256258D01*
X115801435Y-135446734D02*
X115839530Y-135484829D01*
X115801435Y-135522924D01*
X115763340Y-135484829D01*
X115801435Y-135446734D01*
X115801435Y-135522924D01*
X116068101Y-134722924D02*
X116525244Y-134722924D01*
X116296673Y-135522924D02*
X116296673Y-134722924D01*
X116791911Y-135522924D02*
X116791911Y-134722924D01*
X116791911Y-135027686D02*
X116868101Y-134989591D01*
X117020482Y-134989591D01*
X117096673Y-135027686D01*
X117134768Y-135065781D01*
X117172863Y-135141972D01*
X117172863Y-135370543D01*
X117134768Y-135446734D01*
X117096673Y-135484829D01*
X117020482Y-135522924D01*
X116868101Y-135522924D01*
X116791911Y-135484829D01*
X117477625Y-135294353D02*
X117858578Y-135294353D01*
X117401435Y-135522924D02*
X117668101Y-134722924D01*
X117934768Y-135522924D01*
X118201435Y-135446734D02*
X118239530Y-135484829D01*
X118201435Y-135522924D01*
X118163340Y-135484829D01*
X118201435Y-135446734D01*
X118201435Y-135522924D01*
X118582387Y-135522924D02*
X118582387Y-134722924D01*
X118772863Y-134722924D01*
X118887149Y-134761020D01*
X118963340Y-134837210D01*
X119001435Y-134913400D01*
X119039530Y-135065781D01*
X119039530Y-135180067D01*
X119001435Y-135332448D01*
X118963340Y-135408639D01*
X118887149Y-135484829D01*
X118772863Y-135522924D01*
X118582387Y-135522924D01*
X119382387Y-135446734D02*
X119420482Y-135484829D01*
X119382387Y-135522924D01*
X119344292Y-135484829D01*
X119382387Y-135446734D01*
X119382387Y-135522924D01*
X119649054Y-134722924D02*
X119915720Y-135522924D01*
X120182387Y-134722924D01*
X120868101Y-135522924D02*
X120410959Y-135522924D01*
X120639530Y-135522924D02*
X120639530Y-134722924D01*
X120563340Y-134837210D01*
X120487149Y-134913400D01*
X120410959Y-134951496D01*
X121210959Y-135446734D02*
X121249054Y-135484829D01*
X121210959Y-135522924D01*
X121172863Y-135484829D01*
X121210959Y-135446734D01*
X121210959Y-135522924D01*
X122010959Y-135522924D02*
X121553816Y-135522924D01*
X121782387Y-135522924D02*
X121782387Y-134722924D01*
X121706197Y-134837210D01*
X121630006Y-134913400D01*
X121553816Y-134951496D01*
X122277625Y-135827686D02*
X122315720Y-135827686D01*
X122391911Y-135789591D01*
X122430006Y-135713400D01*
X122430006Y-135332448D01*
X122468101Y-135256258D01*
X122544292Y-135218162D01*
X122468101Y-135180067D01*
X122430006Y-135103877D01*
X122430006Y-134722924D01*
X122391911Y-134646734D01*
X122315720Y-134608639D01*
X122277625Y-134608639D01*
X140010071Y-82192880D02*
X140581500Y-82192880D01*
X140295785Y-83192880D02*
X140295785Y-82192880D01*
X140914833Y-83192880D02*
X140914833Y-82192880D01*
X141295785Y-82192880D01*
X141391023Y-82240500D01*
X141438642Y-82288119D01*
X141486261Y-82383357D01*
X141486261Y-82526214D01*
X141438642Y-82621452D01*
X141391023Y-82669071D01*
X141295785Y-82716690D01*
X140914833Y-82716690D01*
X141819595Y-82192880D02*
X142057690Y-83192880D01*
X142248166Y-82478595D01*
X142438642Y-83192880D01*
X142676738Y-82192880D01*
X143629119Y-83192880D02*
X143295785Y-82716690D01*
X143057690Y-83192880D02*
X143057690Y-82192880D01*
X143438642Y-82192880D01*
X143533880Y-82240500D01*
X143581500Y-82288119D01*
X143629119Y-82383357D01*
X143629119Y-82526214D01*
X143581500Y-82621452D01*
X143533880Y-82669071D01*
X143438642Y-82716690D01*
X143057690Y-82716690D01*
X144771976Y-82145261D02*
X143914833Y-83430976D01*
X145438642Y-82669071D02*
X145581500Y-82716690D01*
X145629119Y-82764309D01*
X145676738Y-82859547D01*
X145676738Y-83002404D01*
X145629119Y-83097642D01*
X145581500Y-83145261D01*
X145486261Y-83192880D01*
X145105309Y-83192880D01*
X145105309Y-82192880D01*
X145438642Y-82192880D01*
X145533880Y-82240500D01*
X145581500Y-82288119D01*
X145629119Y-82383357D01*
X145629119Y-82478595D01*
X145581500Y-82573833D01*
X145533880Y-82621452D01*
X145438642Y-82669071D01*
X145105309Y-82669071D01*
X146486261Y-83145261D02*
X146391023Y-83192880D01*
X146200547Y-83192880D01*
X146105309Y-83145261D01*
X146057690Y-83050023D01*
X146057690Y-82669071D01*
X146105309Y-82573833D01*
X146200547Y-82526214D01*
X146391023Y-82526214D01*
X146486261Y-82573833D01*
X146533880Y-82669071D01*
X146533880Y-82764309D01*
X146057690Y-82859547D01*
X146962452Y-83192880D02*
X146962452Y-82526214D01*
X146962452Y-82716690D02*
X147010071Y-82621452D01*
X147057690Y-82573833D01*
X147152928Y-82526214D01*
X147248166Y-82526214D01*
X148010071Y-82526214D02*
X148010071Y-83335738D01*
X147962452Y-83430976D01*
X147914833Y-83478595D01*
X147819595Y-83526214D01*
X147676738Y-83526214D01*
X147581500Y-83478595D01*
X148010071Y-83145261D02*
X147914833Y-83192880D01*
X147724357Y-83192880D01*
X147629119Y-83145261D01*
X147581500Y-83097642D01*
X147533880Y-83002404D01*
X147533880Y-82716690D01*
X147581500Y-82621452D01*
X147629119Y-82573833D01*
X147724357Y-82526214D01*
X147914833Y-82526214D01*
X148010071Y-82573833D01*
X153771908Y-116243122D02*
X153771908Y-115481218D01*
X154152860Y-115862170D02*
X153390956Y-115862170D01*
X154152860Y-114528837D02*
X154152860Y-115005027D01*
X153152860Y-115005027D01*
X153629051Y-114195503D02*
X153629051Y-113862170D01*
X154152860Y-113719313D02*
X154152860Y-114195503D01*
X153152860Y-114195503D01*
X153152860Y-113719313D01*
X154152860Y-113290741D02*
X153152860Y-113290741D01*
X153152860Y-113052646D01*
X153200480Y-112909789D01*
X153295718Y-112814551D01*
X153390956Y-112766932D01*
X153581432Y-112719313D01*
X153724289Y-112719313D01*
X153914765Y-112766932D01*
X154010003Y-112814551D01*
X154105241Y-112909789D01*
X154152860Y-113052646D01*
X154152860Y-113290741D01*
X153771908Y-112290741D02*
X153771908Y-111528837D01*
X120459598Y-130782596D02*
X120364360Y-130734977D01*
X120173883Y-130734977D01*
X120078645Y-130782596D01*
X119983407Y-130877834D01*
X119935788Y-130973072D01*
X119935788Y-131163548D01*
X119983407Y-131258786D01*
X120078645Y-131354024D01*
X120173883Y-131401643D01*
X120364360Y-131401643D01*
X120459598Y-131354024D01*
X120269121Y-130401643D02*
X120031026Y-130449262D01*
X119792931Y-130592120D01*
X119650074Y-130830215D01*
X119602455Y-131068310D01*
X119650074Y-131306405D01*
X119792931Y-131544500D01*
X120031026Y-131687358D01*
X120269121Y-131734977D01*
X120507217Y-131687358D01*
X120745312Y-131544500D01*
X120888169Y-131306405D01*
X120935788Y-131068310D01*
X120888169Y-130830215D01*
X120745312Y-130592120D01*
X120507217Y-130449262D01*
X120269121Y-130401643D01*
X121983407Y-130544500D02*
X122554836Y-130544500D01*
X122269121Y-131544500D02*
X122269121Y-130544500D01*
X123269121Y-131496881D02*
X123173883Y-131544500D01*
X122983407Y-131544500D01*
X122888169Y-131496881D01*
X122840550Y-131401643D01*
X122840550Y-131020691D01*
X122888169Y-130925453D01*
X122983407Y-130877834D01*
X123173883Y-130877834D01*
X123269121Y-130925453D01*
X123316740Y-131020691D01*
X123316740Y-131115929D01*
X122840550Y-131211167D01*
X124173883Y-131496881D02*
X124078645Y-131544500D01*
X123888169Y-131544500D01*
X123792931Y-131496881D01*
X123745312Y-131449262D01*
X123697693Y-131354024D01*
X123697693Y-131068310D01*
X123745312Y-130973072D01*
X123792931Y-130925453D01*
X123888169Y-130877834D01*
X124078645Y-130877834D01*
X124173883Y-130925453D01*
X124602455Y-131544500D02*
X124602455Y-130544500D01*
X125031026Y-131544500D02*
X125031026Y-131020691D01*
X124983407Y-130925453D01*
X124888169Y-130877834D01*
X124745312Y-130877834D01*
X124650074Y-130925453D01*
X124602455Y-130973072D01*
X126269121Y-131544500D02*
X126269121Y-130544500D01*
X126269121Y-130925453D02*
X126364360Y-130877834D01*
X126554836Y-130877834D01*
X126650074Y-130925453D01*
X126697693Y-130973072D01*
X126745312Y-131068310D01*
X126745312Y-131354024D01*
X126697693Y-131449262D01*
X126650074Y-131496881D01*
X126554836Y-131544500D01*
X126364360Y-131544500D01*
X126269121Y-131496881D01*
X127078645Y-130877834D02*
X127316740Y-131544500D01*
X127554836Y-130877834D02*
X127316740Y-131544500D01*
X127221502Y-131782596D01*
X127173883Y-131830215D01*
X127078645Y-131877834D01*
X128650074Y-131258786D02*
X129126264Y-131258786D01*
X128554836Y-131544500D02*
X128888169Y-130544500D01*
X129221502Y-131544500D01*
X129554836Y-130877834D02*
X129554836Y-131544500D01*
X129554836Y-130973072D02*
X129602455Y-130925453D01*
X129697693Y-130877834D01*
X129840550Y-130877834D01*
X129935788Y-130925453D01*
X129983407Y-131020691D01*
X129983407Y-131544500D01*
X130888169Y-131544500D02*
X130888169Y-130544500D01*
X130888169Y-131496881D02*
X130792931Y-131544500D01*
X130602455Y-131544500D01*
X130507217Y-131496881D01*
X130459598Y-131449262D01*
X130411979Y-131354024D01*
X130411979Y-131068310D01*
X130459598Y-130973072D01*
X130507217Y-130925453D01*
X130602455Y-130877834D01*
X130792931Y-130877834D01*
X130888169Y-130925453D01*
X131364360Y-131544500D02*
X131364360Y-130877834D01*
X131364360Y-131068310D02*
X131411979Y-130973072D01*
X131459598Y-130925453D01*
X131554836Y-130877834D01*
X131650074Y-130877834D01*
X132126264Y-131544500D02*
X132031026Y-131496881D01*
X131983407Y-131449262D01*
X131935788Y-131354024D01*
X131935788Y-131068310D01*
X131983407Y-130973072D01*
X132031026Y-130925453D01*
X132126264Y-130877834D01*
X132269121Y-130877834D01*
X132364360Y-130925453D01*
X132411979Y-130973072D01*
X132459598Y-131068310D01*
X132459598Y-131354024D01*
X132411979Y-131449262D01*
X132364360Y-131496881D01*
X132269121Y-131544500D01*
X132126264Y-131544500D01*
X133316740Y-131544500D02*
X133316740Y-130544500D01*
X133316740Y-131496881D02*
X133221502Y-131544500D01*
X133031026Y-131544500D01*
X132935788Y-131496881D01*
X132888169Y-131449262D01*
X132840550Y-131354024D01*
X132840550Y-131068310D01*
X132888169Y-130973072D01*
X132935788Y-130925453D01*
X133031026Y-130877834D01*
X133221502Y-130877834D01*
X133316740Y-130925453D01*
X134221502Y-131544500D02*
X134221502Y-131020691D01*
X134173883Y-130925453D01*
X134078645Y-130877834D01*
X133888169Y-130877834D01*
X133792931Y-130925453D01*
X134221502Y-131496881D02*
X134126264Y-131544500D01*
X133888169Y-131544500D01*
X133792931Y-131496881D01*
X133745312Y-131401643D01*
X133745312Y-131306405D01*
X133792931Y-131211167D01*
X133888169Y-131163548D01*
X134126264Y-131163548D01*
X134221502Y-131115929D01*
X134745312Y-131496881D02*
X134745312Y-131544500D01*
X134697693Y-131639739D01*
X134650074Y-131687358D01*
X136411979Y-131544500D02*
X135935788Y-131544500D01*
X135935788Y-130544500D01*
X137221502Y-131544500D02*
X136745312Y-131544500D01*
X136745312Y-130544500D01*
X138126264Y-131449262D02*
X138078645Y-131496881D01*
X137935788Y-131544500D01*
X137840550Y-131544500D01*
X137697693Y-131496881D01*
X137602455Y-131401643D01*
X137554836Y-131306405D01*
X137507217Y-131115929D01*
X137507217Y-130973072D01*
X137554836Y-130782596D01*
X137602455Y-130687358D01*
X137697693Y-130592120D01*
X137840550Y-130544500D01*
X137935788Y-130544500D01*
X138078645Y-130592120D01*
X138126264Y-130639739D01*
X125078645Y-132868786D02*
X125554836Y-132868786D01*
X124983407Y-133154500D02*
X125316740Y-132154500D01*
X125650074Y-133154500D01*
X125983407Y-132487834D02*
X125983407Y-133487834D01*
X125983407Y-132535453D02*
X126078645Y-132487834D01*
X126269121Y-132487834D01*
X126364360Y-132535453D01*
X126411979Y-132583072D01*
X126459598Y-132678310D01*
X126459598Y-132964024D01*
X126411979Y-133059262D01*
X126364360Y-133106881D01*
X126269121Y-133154500D01*
X126078645Y-133154500D01*
X125983407Y-133106881D01*
X126888169Y-133154500D02*
X126888169Y-132487834D01*
X126888169Y-132678310D02*
X126935788Y-132583072D01*
X126983407Y-132535453D01*
X127078645Y-132487834D01*
X127173883Y-132487834D01*
X127507217Y-133154500D02*
X127507217Y-132487834D01*
X127507217Y-132154500D02*
X127459598Y-132202120D01*
X127507217Y-132249739D01*
X127554836Y-132202120D01*
X127507217Y-132154500D01*
X127507217Y-132249739D01*
X128126264Y-133154500D02*
X128031026Y-133106881D01*
X127983407Y-133011643D01*
X127983407Y-132154500D01*
X129221502Y-132249739D02*
X129269121Y-132202120D01*
X129364360Y-132154500D01*
X129602455Y-132154500D01*
X129697693Y-132202120D01*
X129745312Y-132249739D01*
X129792931Y-132344977D01*
X129792931Y-132440215D01*
X129745312Y-132583072D01*
X129173883Y-133154500D01*
X129792931Y-133154500D01*
X130411979Y-132154500D02*
X130507217Y-132154500D01*
X130602455Y-132202120D01*
X130650074Y-132249739D01*
X130697693Y-132344977D01*
X130745312Y-132535453D01*
X130745312Y-132773548D01*
X130697693Y-132964024D01*
X130650074Y-133059262D01*
X130602455Y-133106881D01*
X130507217Y-133154500D01*
X130411979Y-133154500D01*
X130316740Y-133106881D01*
X130269121Y-133059262D01*
X130221502Y-132964024D01*
X130173883Y-132773548D01*
X130173883Y-132535453D01*
X130221502Y-132344977D01*
X130269121Y-132249739D01*
X130316740Y-132202120D01*
X130411979Y-132154500D01*
X131126264Y-132249739D02*
X131173883Y-132202120D01*
X131269121Y-132154500D01*
X131507217Y-132154500D01*
X131602455Y-132202120D01*
X131650074Y-132249739D01*
X131697693Y-132344977D01*
X131697693Y-132440215D01*
X131650074Y-132583072D01*
X131078645Y-133154500D01*
X131697693Y-133154500D01*
X132078645Y-132249739D02*
X132126264Y-132202120D01*
X132221502Y-132154500D01*
X132459598Y-132154500D01*
X132554836Y-132202120D01*
X132602455Y-132249739D01*
X132650074Y-132344977D01*
X132650074Y-132440215D01*
X132602455Y-132583072D01*
X132031026Y-133154500D01*
X132650074Y-133154500D01*
X106954583Y-138686933D02*
X106906964Y-138639314D01*
X106811726Y-138496457D01*
X106764107Y-138401219D01*
X106716488Y-138258361D01*
X106668869Y-138020266D01*
X106668869Y-137829790D01*
X106716488Y-137591695D01*
X106764107Y-137448838D01*
X106811726Y-137353600D01*
X106906964Y-137210742D01*
X106954583Y-137163123D01*
X107906964Y-138210742D02*
X107859345Y-138258361D01*
X107716488Y-138305980D01*
X107621250Y-138305980D01*
X107478393Y-138258361D01*
X107383155Y-138163123D01*
X107335536Y-138067885D01*
X107287917Y-137877409D01*
X107287917Y-137734552D01*
X107335536Y-137544076D01*
X107383155Y-137448838D01*
X107478393Y-137353600D01*
X107621250Y-137305980D01*
X107716488Y-137305980D01*
X107859345Y-137353600D01*
X107906964Y-137401219D01*
X108906964Y-138210742D02*
X108859345Y-138258361D01*
X108716488Y-138305980D01*
X108621250Y-138305980D01*
X108478393Y-138258361D01*
X108383155Y-138163123D01*
X108335536Y-138067885D01*
X108287917Y-137877409D01*
X108287917Y-137734552D01*
X108335536Y-137544076D01*
X108383155Y-137448838D01*
X108478393Y-137353600D01*
X108621250Y-137305980D01*
X108716488Y-137305980D01*
X108859345Y-137353600D01*
X108906964Y-137401219D01*
X110430774Y-137782171D02*
X110573631Y-137829790D01*
X110621250Y-137877409D01*
X110668869Y-137972647D01*
X110668869Y-138115504D01*
X110621250Y-138210742D01*
X110573631Y-138258361D01*
X110478393Y-138305980D01*
X110097440Y-138305980D01*
X110097440Y-137305980D01*
X110430774Y-137305980D01*
X110526012Y-137353600D01*
X110573631Y-137401219D01*
X110621250Y-137496457D01*
X110621250Y-137591695D01*
X110573631Y-137686933D01*
X110526012Y-137734552D01*
X110430774Y-137782171D01*
X110097440Y-137782171D01*
X111287917Y-137829790D02*
X111287917Y-138305980D01*
X110954583Y-137305980D02*
X111287917Y-137829790D01*
X111621250Y-137305980D01*
X111954583Y-137925028D02*
X112716488Y-137925028D01*
X113192679Y-138305980D02*
X113192679Y-137305980D01*
X113764107Y-138305980D01*
X113764107Y-137305980D01*
X114811726Y-138210742D02*
X114764107Y-138258361D01*
X114621250Y-138305980D01*
X114526012Y-138305980D01*
X114383155Y-138258361D01*
X114287917Y-138163123D01*
X114240298Y-138067885D01*
X114192679Y-137877409D01*
X114192679Y-137734552D01*
X114240298Y-137544076D01*
X114287917Y-137448838D01*
X114383155Y-137353600D01*
X114526012Y-137305980D01*
X114621250Y-137305980D01*
X114764107Y-137353600D01*
X114811726Y-137401219D01*
X115240298Y-137925028D02*
X116002202Y-137925028D01*
X116430774Y-138258361D02*
X116573631Y-138305980D01*
X116811726Y-138305980D01*
X116906964Y-138258361D01*
X116954583Y-138210742D01*
X117002202Y-138115504D01*
X117002202Y-138020266D01*
X116954583Y-137925028D01*
X116906964Y-137877409D01*
X116811726Y-137829790D01*
X116621250Y-137782171D01*
X116526012Y-137734552D01*
X116478393Y-137686933D01*
X116430774Y-137591695D01*
X116430774Y-137496457D01*
X116478393Y-137401219D01*
X116526012Y-137353600D01*
X116621250Y-137305980D01*
X116859345Y-137305980D01*
X117002202Y-137353600D01*
X117383155Y-138020266D02*
X117859345Y-138020266D01*
X117287917Y-138305980D02*
X117621250Y-137305980D01*
X117954583Y-138305980D01*
X119478393Y-137639314D02*
X119478393Y-138305980D01*
X119240298Y-137258361D02*
X119002202Y-137972647D01*
X119621250Y-137972647D01*
X120002202Y-138210742D02*
X120049821Y-138258361D01*
X120002202Y-138305980D01*
X119954583Y-138258361D01*
X120002202Y-138210742D01*
X120002202Y-138305980D01*
X120668869Y-137305980D02*
X120764107Y-137305980D01*
X120859345Y-137353600D01*
X120906964Y-137401219D01*
X120954583Y-137496457D01*
X121002202Y-137686933D01*
X121002202Y-137925028D01*
X120954583Y-138115504D01*
X120906964Y-138210742D01*
X120859345Y-138258361D01*
X120764107Y-138305980D01*
X120668869Y-138305980D01*
X120573631Y-138258361D01*
X120526012Y-138210742D01*
X120478393Y-138115504D01*
X120430774Y-137925028D01*
X120430774Y-137686933D01*
X120478393Y-137496457D01*
X120526012Y-137401219D01*
X120573631Y-137353600D01*
X120668869Y-137305980D01*
X121335536Y-138686933D02*
X121383155Y-138639314D01*
X121478393Y-138496457D01*
X121526012Y-138401219D01*
X121573631Y-138258361D01*
X121621250Y-138020266D01*
X121621250Y-137829790D01*
X121573631Y-137591695D01*
X121526012Y-137448838D01*
X121478393Y-137353600D01*
X121383155Y-137210742D01*
X121335536Y-137163123D01*
X106406964Y-139868361D02*
X106549821Y-139915980D01*
X106787917Y-139915980D01*
X106883155Y-139868361D01*
X106930774Y-139820742D01*
X106978393Y-139725504D01*
X106978393Y-139630266D01*
X106930774Y-139535028D01*
X106883155Y-139487409D01*
X106787917Y-139439790D01*
X106597440Y-139392171D01*
X106502202Y-139344552D01*
X106454583Y-139296933D01*
X106406964Y-139201695D01*
X106406964Y-139106457D01*
X106454583Y-139011219D01*
X106502202Y-138963600D01*
X106597440Y-138915980D01*
X106835536Y-138915980D01*
X106978393Y-138963600D01*
X107359345Y-139630266D02*
X107835536Y-139630266D01*
X107264107Y-139915980D02*
X107597440Y-138915980D01*
X107930774Y-139915980D01*
X108740298Y-139915980D02*
X108264107Y-139915980D01*
X108264107Y-138915980D01*
X109073631Y-139392171D02*
X109406964Y-139392171D01*
X109549821Y-139915980D02*
X109073631Y-139915980D01*
X109073631Y-138915980D01*
X109549821Y-138915980D01*
X110740298Y-139915980D02*
X110740298Y-138915980D01*
X111311726Y-139915980D01*
X111311726Y-138915980D01*
X111978393Y-138915980D02*
X112168869Y-138915980D01*
X112264107Y-138963600D01*
X112359345Y-139058838D01*
X112406964Y-139249314D01*
X112406964Y-139582647D01*
X112359345Y-139773123D01*
X112264107Y-139868361D01*
X112168869Y-139915980D01*
X111978393Y-139915980D01*
X111883155Y-139868361D01*
X111787917Y-139773123D01*
X111740298Y-139582647D01*
X111740298Y-139249314D01*
X111787917Y-139058838D01*
X111883155Y-138963600D01*
X111978393Y-138915980D01*
X112692679Y-138915980D02*
X113264107Y-138915980D01*
X112978393Y-139915980D02*
X112978393Y-138915980D01*
X114359345Y-139915980D02*
X114359345Y-138915980D01*
X114740298Y-138915980D01*
X114835536Y-138963600D01*
X114883155Y-139011219D01*
X114930774Y-139106457D01*
X114930774Y-139249314D01*
X114883155Y-139344552D01*
X114835536Y-139392171D01*
X114740298Y-139439790D01*
X114359345Y-139439790D01*
X115359345Y-139392171D02*
X115692679Y-139392171D01*
X115835536Y-139915980D02*
X115359345Y-139915980D01*
X115359345Y-138915980D01*
X115835536Y-138915980D01*
X116835536Y-139915980D02*
X116502202Y-139439790D01*
X116264107Y-139915980D02*
X116264107Y-138915980D01*
X116645060Y-138915980D01*
X116740298Y-138963600D01*
X116787917Y-139011219D01*
X116835536Y-139106457D01*
X116835536Y-139249314D01*
X116787917Y-139344552D01*
X116740298Y-139392171D01*
X116645060Y-139439790D01*
X116264107Y-139439790D01*
X117264107Y-139915980D02*
X117264107Y-138915980D01*
X117597440Y-139630266D01*
X117930774Y-138915980D01*
X117930774Y-139915980D01*
X118406964Y-139915980D02*
X118406964Y-138915980D01*
X118740298Y-138915980D02*
X119311726Y-138915980D01*
X119026012Y-139915980D02*
X119026012Y-138915980D01*
X119502202Y-138915980D02*
X120073631Y-138915980D01*
X119787917Y-139915980D02*
X119787917Y-138915980D01*
X120406964Y-139392171D02*
X120740298Y-139392171D01*
X120883155Y-139915980D02*
X120406964Y-139915980D01*
X120406964Y-138915980D01*
X120883155Y-138915980D01*
X121311726Y-139915980D02*
X121311726Y-138915980D01*
X121549821Y-138915980D01*
X121692679Y-138963600D01*
X121787917Y-139058838D01*
X121835536Y-139154076D01*
X121883155Y-139344552D01*
X121883155Y-139487409D01*
X121835536Y-139677885D01*
X121787917Y-139773123D01*
X121692679Y-139868361D01*
X121549821Y-139915980D01*
X121311726Y-139915980D01*
X131751666Y-106554761D02*
X131751666Y-106078571D01*
X132037380Y-106650000D02*
X131037380Y-106316666D01*
X132037380Y-105983333D01*
X132037380Y-105507142D02*
X131989761Y-105602380D01*
X131894523Y-105650000D01*
X131037380Y-105650000D01*
X132037380Y-104983333D02*
X131989761Y-105078571D01*
X131894523Y-105126190D01*
X131037380Y-105126190D01*
X132037380Y-103269047D02*
X131561190Y-103602380D01*
X132037380Y-103840476D02*
X131037380Y-103840476D01*
X131037380Y-103459523D01*
X131085000Y-103364285D01*
X131132619Y-103316666D01*
X131227857Y-103269047D01*
X131370714Y-103269047D01*
X131465952Y-103316666D01*
X131513571Y-103364285D01*
X131561190Y-103459523D01*
X131561190Y-103840476D01*
X131989761Y-102459523D02*
X132037380Y-102554761D01*
X132037380Y-102745238D01*
X131989761Y-102840476D01*
X131894523Y-102888095D01*
X131513571Y-102888095D01*
X131418333Y-102840476D01*
X131370714Y-102745238D01*
X131370714Y-102554761D01*
X131418333Y-102459523D01*
X131513571Y-102411904D01*
X131608809Y-102411904D01*
X131704047Y-102888095D01*
X131989761Y-102030952D02*
X132037380Y-101935714D01*
X132037380Y-101745238D01*
X131989761Y-101650000D01*
X131894523Y-101602380D01*
X131846904Y-101602380D01*
X131751666Y-101650000D01*
X131704047Y-101745238D01*
X131704047Y-101888095D01*
X131656428Y-101983333D01*
X131561190Y-102030952D01*
X131513571Y-102030952D01*
X131418333Y-101983333D01*
X131370714Y-101888095D01*
X131370714Y-101745238D01*
X131418333Y-101650000D01*
X132037380Y-101173809D02*
X131370714Y-101173809D01*
X131037380Y-101173809D02*
X131085000Y-101221428D01*
X131132619Y-101173809D01*
X131085000Y-101126190D01*
X131037380Y-101173809D01*
X131132619Y-101173809D01*
X131989761Y-100745238D02*
X132037380Y-100650000D01*
X132037380Y-100459523D01*
X131989761Y-100364285D01*
X131894523Y-100316666D01*
X131846904Y-100316666D01*
X131751666Y-100364285D01*
X131704047Y-100459523D01*
X131704047Y-100602380D01*
X131656428Y-100697619D01*
X131561190Y-100745238D01*
X131513571Y-100745238D01*
X131418333Y-100697619D01*
X131370714Y-100602380D01*
X131370714Y-100459523D01*
X131418333Y-100364285D01*
X131370714Y-100030952D02*
X131370714Y-99650000D01*
X131037380Y-99888095D02*
X131894523Y-99888095D01*
X131989761Y-99840476D01*
X132037380Y-99745238D01*
X132037380Y-99650000D01*
X132037380Y-99173809D02*
X131989761Y-99269047D01*
X131942142Y-99316666D01*
X131846904Y-99364285D01*
X131561190Y-99364285D01*
X131465952Y-99316666D01*
X131418333Y-99269047D01*
X131370714Y-99173809D01*
X131370714Y-99030952D01*
X131418333Y-98935714D01*
X131465952Y-98888095D01*
X131561190Y-98840476D01*
X131846904Y-98840476D01*
X131942142Y-98888095D01*
X131989761Y-98935714D01*
X132037380Y-99030952D01*
X132037380Y-99173809D01*
X132037380Y-98411904D02*
X131370714Y-98411904D01*
X131561190Y-98411904D02*
X131465952Y-98364285D01*
X131418333Y-98316666D01*
X131370714Y-98221428D01*
X131370714Y-98126190D01*
X131989761Y-97840476D02*
X132037380Y-97745238D01*
X132037380Y-97554761D01*
X131989761Y-97459523D01*
X131894523Y-97411904D01*
X131846904Y-97411904D01*
X131751666Y-97459523D01*
X131704047Y-97554761D01*
X131704047Y-97697619D01*
X131656428Y-97792857D01*
X131561190Y-97840476D01*
X131513571Y-97840476D01*
X131418333Y-97792857D01*
X131370714Y-97697619D01*
X131370714Y-97554761D01*
X131418333Y-97459523D01*
X132037380Y-95697619D02*
X132037380Y-96269047D01*
X132037380Y-95983333D02*
X131037380Y-95983333D01*
X131180238Y-96078571D01*
X131275476Y-96173809D01*
X131323095Y-96269047D01*
X132037380Y-94745238D02*
X132037380Y-95316666D01*
X132037380Y-95030952D02*
X131037380Y-95030952D01*
X131180238Y-95126190D01*
X131275476Y-95221428D01*
X131323095Y-95316666D01*
X131037380Y-94126190D02*
X131037380Y-94030952D01*
X131085000Y-93935714D01*
X131132619Y-93888095D01*
X131227857Y-93840476D01*
X131418333Y-93792857D01*
X131656428Y-93792857D01*
X131846904Y-93840476D01*
X131942142Y-93888095D01*
X131989761Y-93935714D01*
X132037380Y-94030952D01*
X132037380Y-94126190D01*
X131989761Y-94221428D01*
X131942142Y-94269047D01*
X131846904Y-94316666D01*
X131656428Y-94364285D01*
X131418333Y-94364285D01*
X131227857Y-94316666D01*
X131132619Y-94269047D01*
X131085000Y-94221428D01*
X131037380Y-94126190D01*
X131037380Y-92411904D02*
X131037380Y-92221428D01*
X131085000Y-92126190D01*
X131180238Y-92030952D01*
X131370714Y-91983333D01*
X131704047Y-91983333D01*
X131894523Y-92030952D01*
X131989761Y-92126190D01*
X132037380Y-92221428D01*
X132037380Y-92411904D01*
X131989761Y-92507142D01*
X131894523Y-92602380D01*
X131704047Y-92650000D01*
X131370714Y-92650000D01*
X131180238Y-92602380D01*
X131085000Y-92507142D01*
X131037380Y-92411904D01*
X132037380Y-91554761D02*
X131037380Y-91554761D01*
X132037380Y-91126190D02*
X131513571Y-91126190D01*
X131418333Y-91173809D01*
X131370714Y-91269047D01*
X131370714Y-91411904D01*
X131418333Y-91507142D01*
X131465952Y-91554761D01*
X132037380Y-90650000D02*
X131370714Y-90650000D01*
X131465952Y-90650000D02*
X131418333Y-90602380D01*
X131370714Y-90507142D01*
X131370714Y-90364285D01*
X131418333Y-90269047D01*
X131513571Y-90221428D01*
X132037380Y-90221428D01*
X131513571Y-90221428D02*
X131418333Y-90173809D01*
X131370714Y-90078571D01*
X131370714Y-89935714D01*
X131418333Y-89840476D01*
X131513571Y-89792857D01*
X132037380Y-89792857D01*
X134028333Y-108102380D02*
X133980714Y-108150000D01*
X133837857Y-108245238D01*
X133742619Y-108292857D01*
X133599761Y-108340476D01*
X133361666Y-108388095D01*
X133171190Y-108388095D01*
X132933095Y-108340476D01*
X132790238Y-108292857D01*
X132695000Y-108245238D01*
X132552142Y-108150000D01*
X132504523Y-108102380D01*
X133599761Y-107340476D02*
X133647380Y-107435714D01*
X133647380Y-107626190D01*
X133599761Y-107721428D01*
X133504523Y-107769047D01*
X133123571Y-107769047D01*
X133028333Y-107721428D01*
X132980714Y-107626190D01*
X132980714Y-107435714D01*
X133028333Y-107340476D01*
X133123571Y-107292857D01*
X133218809Y-107292857D01*
X133314047Y-107769047D01*
X133647380Y-106959523D02*
X132980714Y-106435714D01*
X132980714Y-106959523D02*
X133647380Y-106435714D01*
X133599761Y-105626190D02*
X133647380Y-105721428D01*
X133647380Y-105911904D01*
X133599761Y-106007142D01*
X133552142Y-106054761D01*
X133456904Y-106102380D01*
X133171190Y-106102380D01*
X133075952Y-106054761D01*
X133028333Y-106007142D01*
X132980714Y-105911904D01*
X132980714Y-105721428D01*
X133028333Y-105626190D01*
X133599761Y-104816666D02*
X133647380Y-104911904D01*
X133647380Y-105102380D01*
X133599761Y-105197619D01*
X133504523Y-105245238D01*
X133123571Y-105245238D01*
X133028333Y-105197619D01*
X132980714Y-105102380D01*
X132980714Y-104911904D01*
X133028333Y-104816666D01*
X133123571Y-104769047D01*
X133218809Y-104769047D01*
X133314047Y-105245238D01*
X132980714Y-104340476D02*
X133980714Y-104340476D01*
X133028333Y-104340476D02*
X132980714Y-104245238D01*
X132980714Y-104054761D01*
X133028333Y-103959523D01*
X133075952Y-103911904D01*
X133171190Y-103864285D01*
X133456904Y-103864285D01*
X133552142Y-103911904D01*
X133599761Y-103959523D01*
X133647380Y-104054761D01*
X133647380Y-104245238D01*
X133599761Y-104340476D01*
X132980714Y-103578571D02*
X132980714Y-103197619D01*
X132647380Y-103435714D02*
X133504523Y-103435714D01*
X133599761Y-103388095D01*
X133647380Y-103292857D01*
X133647380Y-103197619D01*
X133647380Y-101530952D02*
X133171190Y-101864285D01*
X133647380Y-102102380D02*
X132647380Y-102102380D01*
X132647380Y-101721428D01*
X132695000Y-101626190D01*
X132742619Y-101578571D01*
X132837857Y-101530952D01*
X132980714Y-101530952D01*
X133075952Y-101578571D01*
X133123571Y-101626190D01*
X133171190Y-101721428D01*
X133171190Y-102102380D01*
X133647380Y-100578571D02*
X133647380Y-101150000D01*
X133647380Y-100864285D02*
X132647380Y-100864285D01*
X132790238Y-100959523D01*
X132885476Y-101054761D01*
X132933095Y-101150000D01*
X133647380Y-100102380D02*
X133647380Y-99911904D01*
X133599761Y-99816666D01*
X133552142Y-99769047D01*
X133409285Y-99673809D01*
X133218809Y-99626190D01*
X132837857Y-99626190D01*
X132742619Y-99673809D01*
X132695000Y-99721428D01*
X132647380Y-99816666D01*
X132647380Y-100007142D01*
X132695000Y-100102380D01*
X132742619Y-100150000D01*
X132837857Y-100197619D01*
X133075952Y-100197619D01*
X133171190Y-100150000D01*
X133218809Y-100102380D01*
X133266428Y-100007142D01*
X133266428Y-99816666D01*
X133218809Y-99721428D01*
X133171190Y-99673809D01*
X133075952Y-99626190D01*
X133599761Y-99150000D02*
X133647380Y-99150000D01*
X133742619Y-99197619D01*
X133790238Y-99245238D01*
X132980714Y-98054761D02*
X133647380Y-97864285D01*
X133171190Y-97673809D01*
X133647380Y-97483333D01*
X132980714Y-97292857D01*
X133647380Y-96911904D02*
X132647380Y-96911904D01*
X133647380Y-96483333D02*
X133123571Y-96483333D01*
X133028333Y-96530952D01*
X132980714Y-96626190D01*
X132980714Y-96769047D01*
X133028333Y-96864285D01*
X133075952Y-96911904D01*
X133647380Y-96007142D02*
X132980714Y-96007142D01*
X132647380Y-96007142D02*
X132695000Y-96054761D01*
X132742619Y-96007142D01*
X132695000Y-95959523D01*
X132647380Y-96007142D01*
X132742619Y-96007142D01*
X133599761Y-95102380D02*
X133647380Y-95197619D01*
X133647380Y-95388095D01*
X133599761Y-95483333D01*
X133552142Y-95530952D01*
X133456904Y-95578571D01*
X133171190Y-95578571D01*
X133075952Y-95530952D01*
X133028333Y-95483333D01*
X132980714Y-95388095D01*
X132980714Y-95197619D01*
X133028333Y-95102380D01*
X133647380Y-94673809D02*
X132647380Y-94673809D01*
X133647380Y-94245238D02*
X133123571Y-94245238D01*
X133028333Y-94292857D01*
X132980714Y-94388095D01*
X132980714Y-94530952D01*
X133028333Y-94626190D01*
X133075952Y-94673809D01*
X133647380Y-93007142D02*
X132980714Y-93007142D01*
X132647380Y-93007142D02*
X132695000Y-93054761D01*
X132742619Y-93007142D01*
X132695000Y-92959523D01*
X132647380Y-93007142D01*
X132742619Y-93007142D01*
X133599761Y-92578571D02*
X133647380Y-92483333D01*
X133647380Y-92292857D01*
X133599761Y-92197619D01*
X133504523Y-92150000D01*
X133456904Y-92150000D01*
X133361666Y-92197619D01*
X133314047Y-92292857D01*
X133314047Y-92435714D01*
X133266428Y-92530952D01*
X133171190Y-92578571D01*
X133123571Y-92578571D01*
X133028333Y-92530952D01*
X132980714Y-92435714D01*
X132980714Y-92292857D01*
X133028333Y-92197619D01*
X132980714Y-90530952D02*
X133647380Y-90530952D01*
X132599761Y-90769047D02*
X133314047Y-91007142D01*
X133314047Y-90388095D01*
X132647380Y-90102380D02*
X132647380Y-89435714D01*
X133647380Y-89864285D01*
X132647380Y-88864285D02*
X132647380Y-88769047D01*
X132695000Y-88673809D01*
X132742619Y-88626190D01*
X132837857Y-88578571D01*
X133028333Y-88530952D01*
X133266428Y-88530952D01*
X133456904Y-88578571D01*
X133552142Y-88626190D01*
X133599761Y-88673809D01*
X133647380Y-88769047D01*
X133647380Y-88864285D01*
X133599761Y-88959523D01*
X133552142Y-89007142D01*
X133456904Y-89054761D01*
X133266428Y-89102380D01*
X133028333Y-89102380D01*
X132837857Y-89054761D01*
X132742619Y-89007142D01*
X132695000Y-88959523D01*
X132647380Y-88864285D01*
X134028333Y-88197619D02*
X133980714Y-88150000D01*
X133837857Y-88054761D01*
X133742619Y-88007142D01*
X133599761Y-87959523D01*
X133361666Y-87911904D01*
X133171190Y-87911904D01*
X132933095Y-87959523D01*
X132790238Y-88007142D01*
X132695000Y-88054761D01*
X132552142Y-88150000D01*
X132504523Y-88197619D01*
X126918238Y-150158404D02*
X126918238Y-149358404D01*
X127261095Y-150158404D02*
X127261095Y-149739357D01*
X127223000Y-149663166D01*
X127146809Y-149625071D01*
X127032523Y-149625071D01*
X126956333Y-149663166D01*
X126918238Y-149701261D01*
X127527761Y-149625071D02*
X127832523Y-149625071D01*
X127642047Y-149358404D02*
X127642047Y-150044119D01*
X127680142Y-150120309D01*
X127756333Y-150158404D01*
X127832523Y-150158404D01*
X127984904Y-149625071D02*
X128289666Y-149625071D01*
X128099190Y-149358404D02*
X128099190Y-150044119D01*
X128137285Y-150120309D01*
X128213476Y-150158404D01*
X128289666Y-150158404D01*
X128556333Y-149625071D02*
X128556333Y-150425071D01*
X128556333Y-149663166D02*
X128632523Y-149625071D01*
X128784904Y-149625071D01*
X128861095Y-149663166D01*
X128899190Y-149701261D01*
X128937285Y-149777452D01*
X128937285Y-150006023D01*
X128899190Y-150082214D01*
X128861095Y-150120309D01*
X128784904Y-150158404D01*
X128632523Y-150158404D01*
X128556333Y-150120309D01*
X129242047Y-150120309D02*
X129318238Y-150158404D01*
X129470619Y-150158404D01*
X129546809Y-150120309D01*
X129584904Y-150044119D01*
X129584904Y-150006023D01*
X129546809Y-149929833D01*
X129470619Y-149891738D01*
X129356333Y-149891738D01*
X129280142Y-149853642D01*
X129242047Y-149777452D01*
X129242047Y-149739357D01*
X129280142Y-149663166D01*
X129356333Y-149625071D01*
X129470619Y-149625071D01*
X129546809Y-149663166D01*
X129927761Y-150082214D02*
X129965857Y-150120309D01*
X129927761Y-150158404D01*
X129889666Y-150120309D01*
X129927761Y-150082214D01*
X129927761Y-150158404D01*
X129927761Y-149663166D02*
X129965857Y-149701261D01*
X129927761Y-149739357D01*
X129889666Y-149701261D01*
X129927761Y-149663166D01*
X129927761Y-149739357D01*
X130880142Y-149320309D02*
X130194428Y-150348880D01*
X131718238Y-149320309D02*
X131032523Y-150348880D01*
X132327761Y-150158404D02*
X132327761Y-149739357D01*
X132289666Y-149663166D01*
X132213476Y-149625071D01*
X132061095Y-149625071D01*
X131984904Y-149663166D01*
X132327761Y-150120309D02*
X132251571Y-150158404D01*
X132061095Y-150158404D01*
X131984904Y-150120309D01*
X131946809Y-150044119D01*
X131946809Y-149967928D01*
X131984904Y-149891738D01*
X132061095Y-149853642D01*
X132251571Y-149853642D01*
X132327761Y-149815547D01*
X132708714Y-149625071D02*
X132708714Y-150158404D01*
X132708714Y-149701261D02*
X132746809Y-149663166D01*
X132823000Y-149625071D01*
X132937285Y-149625071D01*
X133013476Y-149663166D01*
X133051571Y-149739357D01*
X133051571Y-150158404D01*
X133775380Y-150158404D02*
X133775380Y-149358404D01*
X133775380Y-150120309D02*
X133699190Y-150158404D01*
X133546809Y-150158404D01*
X133470619Y-150120309D01*
X133432523Y-150082214D01*
X133394428Y-150006023D01*
X133394428Y-149777452D01*
X133432523Y-149701261D01*
X133470619Y-149663166D01*
X133546809Y-149625071D01*
X133699190Y-149625071D01*
X133775380Y-149663166D01*
X134156333Y-150158404D02*
X134156333Y-149625071D01*
X134156333Y-149777452D02*
X134194428Y-149701261D01*
X134232523Y-149663166D01*
X134308714Y-149625071D01*
X134384904Y-149625071D01*
X134765857Y-150158404D02*
X134689666Y-150120309D01*
X134651571Y-150082214D01*
X134613476Y-150006023D01*
X134613476Y-149777452D01*
X134651571Y-149701261D01*
X134689666Y-149663166D01*
X134765857Y-149625071D01*
X134880142Y-149625071D01*
X134956333Y-149663166D01*
X134994428Y-149701261D01*
X135032523Y-149777452D01*
X135032523Y-150006023D01*
X134994428Y-150082214D01*
X134956333Y-150120309D01*
X134880142Y-150158404D01*
X134765857Y-150158404D01*
X135718238Y-150158404D02*
X135718238Y-149358404D01*
X135718238Y-150120309D02*
X135642047Y-150158404D01*
X135489666Y-150158404D01*
X135413476Y-150120309D01*
X135375380Y-150082214D01*
X135337285Y-150006023D01*
X135337285Y-149777452D01*
X135375380Y-149701261D01*
X135413476Y-149663166D01*
X135489666Y-149625071D01*
X135642047Y-149625071D01*
X135718238Y-149663166D01*
X136442047Y-150158404D02*
X136442047Y-149739357D01*
X136403952Y-149663166D01*
X136327761Y-149625071D01*
X136175380Y-149625071D01*
X136099190Y-149663166D01*
X136442047Y-150120309D02*
X136365857Y-150158404D01*
X136175380Y-150158404D01*
X136099190Y-150120309D01*
X136061095Y-150044119D01*
X136061095Y-149967928D01*
X136099190Y-149891738D01*
X136175380Y-149853642D01*
X136365857Y-149853642D01*
X136442047Y-149815547D01*
X136823000Y-150082214D02*
X136861095Y-150120309D01*
X136823000Y-150158404D01*
X136784904Y-150120309D01*
X136823000Y-150082214D01*
X136823000Y-150158404D01*
X137127761Y-149625071D02*
X137280142Y-150158404D01*
X137432523Y-149777452D01*
X137584904Y-150158404D01*
X137737285Y-149625071D01*
X138156333Y-150158404D02*
X138080142Y-150120309D01*
X138042047Y-150082214D01*
X138003952Y-150006023D01*
X138003952Y-149777452D01*
X138042047Y-149701261D01*
X138080142Y-149663166D01*
X138156333Y-149625071D01*
X138270619Y-149625071D01*
X138346809Y-149663166D01*
X138384904Y-149701261D01*
X138423000Y-149777452D01*
X138423000Y-150006023D01*
X138384904Y-150082214D01*
X138346809Y-150120309D01*
X138270619Y-150158404D01*
X138156333Y-150158404D01*
X138765857Y-150158404D02*
X138765857Y-149625071D01*
X138765857Y-149777452D02*
X138803952Y-149701261D01*
X138842047Y-149663166D01*
X138918238Y-149625071D01*
X138994428Y-149625071D01*
X139261095Y-150158404D02*
X139261095Y-149358404D01*
X139337285Y-149853642D02*
X139565857Y-150158404D01*
X139565857Y-149625071D02*
X139261095Y-149929833D01*
%TO.C,J4*%
X108596666Y-133182380D02*
X108596666Y-133896666D01*
X108549047Y-134039523D01*
X108453809Y-134134761D01*
X108310952Y-134182380D01*
X108215714Y-134182380D01*
X109501428Y-133515714D02*
X109501428Y-134182380D01*
X109263333Y-133134761D02*
X109025238Y-133849047D01*
X109644285Y-133849047D01*
X112593380Y-102869761D02*
X111593380Y-102869761D01*
X112593380Y-102298333D01*
X111593380Y-102298333D01*
X112593380Y-101679285D02*
X112545761Y-101774523D01*
X112498142Y-101822142D01*
X112402904Y-101869761D01*
X112117190Y-101869761D01*
X112021952Y-101822142D01*
X111974333Y-101774523D01*
X111926714Y-101679285D01*
X111926714Y-101536428D01*
X111974333Y-101441190D01*
X112021952Y-101393571D01*
X112117190Y-101345952D01*
X112402904Y-101345952D01*
X112498142Y-101393571D01*
X112545761Y-101441190D01*
X112593380Y-101536428D01*
X112593380Y-101679285D01*
X111926714Y-101060238D02*
X111926714Y-100679285D01*
X111593380Y-100917380D02*
X112450523Y-100917380D01*
X112545761Y-100869761D01*
X112593380Y-100774523D01*
X112593380Y-100679285D01*
X112545761Y-99917380D02*
X112593380Y-100012619D01*
X112593380Y-100203095D01*
X112545761Y-100298333D01*
X112498142Y-100345952D01*
X112402904Y-100393571D01*
X112117190Y-100393571D01*
X112021952Y-100345952D01*
X111974333Y-100298333D01*
X111926714Y-100203095D01*
X111926714Y-100012619D01*
X111974333Y-99917380D01*
X112593380Y-99488809D02*
X111593380Y-99488809D01*
X112593380Y-99060238D02*
X112069571Y-99060238D01*
X111974333Y-99107857D01*
X111926714Y-99203095D01*
X111926714Y-99345952D01*
X111974333Y-99441190D01*
X112021952Y-99488809D01*
%TO.C,R1*%
X142390833Y-123388380D02*
X142057500Y-122912190D01*
X141819404Y-123388380D02*
X141819404Y-122388380D01*
X142200357Y-122388380D01*
X142295595Y-122436000D01*
X142343214Y-122483619D01*
X142390833Y-122578857D01*
X142390833Y-122721714D01*
X142343214Y-122816952D01*
X142295595Y-122864571D01*
X142200357Y-122912190D01*
X141819404Y-122912190D01*
X143343214Y-123388380D02*
X142771785Y-123388380D01*
X143057500Y-123388380D02*
X143057500Y-122388380D01*
X142962261Y-122531238D01*
X142867023Y-122626476D01*
X142771785Y-122674095D01*
%TO.C,R2*%
X142327333Y-120848380D02*
X141994000Y-120372190D01*
X141755904Y-120848380D02*
X141755904Y-119848380D01*
X142136857Y-119848380D01*
X142232095Y-119896000D01*
X142279714Y-119943619D01*
X142327333Y-120038857D01*
X142327333Y-120181714D01*
X142279714Y-120276952D01*
X142232095Y-120324571D01*
X142136857Y-120372190D01*
X141755904Y-120372190D01*
X142708285Y-119943619D02*
X142755904Y-119896000D01*
X142851142Y-119848380D01*
X143089238Y-119848380D01*
X143184476Y-119896000D01*
X143232095Y-119943619D01*
X143279714Y-120038857D01*
X143279714Y-120134095D01*
X143232095Y-120276952D01*
X142660666Y-120848380D01*
X143279714Y-120848380D01*
%TO.C,R3*%
X127277833Y-120911880D02*
X126944500Y-120435690D01*
X126706404Y-120911880D02*
X126706404Y-119911880D01*
X127087357Y-119911880D01*
X127182595Y-119959500D01*
X127230214Y-120007119D01*
X127277833Y-120102357D01*
X127277833Y-120245214D01*
X127230214Y-120340452D01*
X127182595Y-120388071D01*
X127087357Y-120435690D01*
X126706404Y-120435690D01*
X127611166Y-119911880D02*
X128230214Y-119911880D01*
X127896880Y-120292833D01*
X128039738Y-120292833D01*
X128134976Y-120340452D01*
X128182595Y-120388071D01*
X128230214Y-120483309D01*
X128230214Y-120721404D01*
X128182595Y-120816642D01*
X128134976Y-120864261D01*
X128039738Y-120911880D01*
X127754023Y-120911880D01*
X127658785Y-120864261D01*
X127611166Y-120816642D01*
%TO.C,R4*%
X139773333Y-86367880D02*
X139440000Y-85891690D01*
X139201904Y-86367880D02*
X139201904Y-85367880D01*
X139582857Y-85367880D01*
X139678095Y-85415500D01*
X139725714Y-85463119D01*
X139773333Y-85558357D01*
X139773333Y-85701214D01*
X139725714Y-85796452D01*
X139678095Y-85844071D01*
X139582857Y-85891690D01*
X139201904Y-85891690D01*
X140630476Y-85701214D02*
X140630476Y-86367880D01*
X140392380Y-85320261D02*
X140154285Y-86034547D01*
X140773333Y-86034547D01*
%TO.C,R5*%
X127214333Y-118371880D02*
X126881000Y-117895690D01*
X126642904Y-118371880D02*
X126642904Y-117371880D01*
X127023857Y-117371880D01*
X127119095Y-117419500D01*
X127166714Y-117467119D01*
X127214333Y-117562357D01*
X127214333Y-117705214D01*
X127166714Y-117800452D01*
X127119095Y-117848071D01*
X127023857Y-117895690D01*
X126642904Y-117895690D01*
X128119095Y-117371880D02*
X127642904Y-117371880D01*
X127595285Y-117848071D01*
X127642904Y-117800452D01*
X127738142Y-117752833D01*
X127976238Y-117752833D01*
X128071476Y-117800452D01*
X128119095Y-117848071D01*
X128166714Y-117943309D01*
X128166714Y-118181404D01*
X128119095Y-118276642D01*
X128071476Y-118324261D01*
X127976238Y-118371880D01*
X127738142Y-118371880D01*
X127642904Y-118324261D01*
X127595285Y-118276642D01*
%TO.C,R6*%
X142390833Y-125991880D02*
X142057500Y-125515690D01*
X141819404Y-125991880D02*
X141819404Y-124991880D01*
X142200357Y-124991880D01*
X142295595Y-125039500D01*
X142343214Y-125087119D01*
X142390833Y-125182357D01*
X142390833Y-125325214D01*
X142343214Y-125420452D01*
X142295595Y-125468071D01*
X142200357Y-125515690D01*
X141819404Y-125515690D01*
X143247976Y-124991880D02*
X143057500Y-124991880D01*
X142962261Y-125039500D01*
X142914642Y-125087119D01*
X142819404Y-125229976D01*
X142771785Y-125420452D01*
X142771785Y-125801404D01*
X142819404Y-125896642D01*
X142867023Y-125944261D01*
X142962261Y-125991880D01*
X143152738Y-125991880D01*
X143247976Y-125944261D01*
X143295595Y-125896642D01*
X143343214Y-125801404D01*
X143343214Y-125563309D01*
X143295595Y-125468071D01*
X143247976Y-125420452D01*
X143152738Y-125372833D01*
X142962261Y-125372833D01*
X142867023Y-125420452D01*
X142819404Y-125468071D01*
X142771785Y-125563309D01*
%TO.C,R7*%
X127214333Y-113291880D02*
X126881000Y-112815690D01*
X126642904Y-113291880D02*
X126642904Y-112291880D01*
X127023857Y-112291880D01*
X127119095Y-112339500D01*
X127166714Y-112387119D01*
X127214333Y-112482357D01*
X127214333Y-112625214D01*
X127166714Y-112720452D01*
X127119095Y-112768071D01*
X127023857Y-112815690D01*
X126642904Y-112815690D01*
X127547666Y-112291880D02*
X128214333Y-112291880D01*
X127785761Y-113291880D01*
%TO.C,R8*%
X139773333Y-89098380D02*
X139440000Y-88622190D01*
X139201904Y-89098380D02*
X139201904Y-88098380D01*
X139582857Y-88098380D01*
X139678095Y-88146000D01*
X139725714Y-88193619D01*
X139773333Y-88288857D01*
X139773333Y-88431714D01*
X139725714Y-88526952D01*
X139678095Y-88574571D01*
X139582857Y-88622190D01*
X139201904Y-88622190D01*
X140344761Y-88526952D02*
X140249523Y-88479333D01*
X140201904Y-88431714D01*
X140154285Y-88336476D01*
X140154285Y-88288857D01*
X140201904Y-88193619D01*
X140249523Y-88146000D01*
X140344761Y-88098380D01*
X140535238Y-88098380D01*
X140630476Y-88146000D01*
X140678095Y-88193619D01*
X140725714Y-88288857D01*
X140725714Y-88336476D01*
X140678095Y-88431714D01*
X140630476Y-88479333D01*
X140535238Y-88526952D01*
X140344761Y-88526952D01*
X140249523Y-88574571D01*
X140201904Y-88622190D01*
X140154285Y-88717428D01*
X140154285Y-88907904D01*
X140201904Y-89003142D01*
X140249523Y-89050761D01*
X140344761Y-89098380D01*
X140535238Y-89098380D01*
X140630476Y-89050761D01*
X140678095Y-89003142D01*
X140725714Y-88907904D01*
X140725714Y-88717428D01*
X140678095Y-88622190D01*
X140630476Y-88574571D01*
X140535238Y-88526952D01*
%TO.C,R9*%
X142390833Y-128531880D02*
X142057500Y-128055690D01*
X141819404Y-128531880D02*
X141819404Y-127531880D01*
X142200357Y-127531880D01*
X142295595Y-127579500D01*
X142343214Y-127627119D01*
X142390833Y-127722357D01*
X142390833Y-127865214D01*
X142343214Y-127960452D01*
X142295595Y-128008071D01*
X142200357Y-128055690D01*
X141819404Y-128055690D01*
X142867023Y-128531880D02*
X143057500Y-128531880D01*
X143152738Y-128484261D01*
X143200357Y-128436642D01*
X143295595Y-128293785D01*
X143343214Y-128103309D01*
X143343214Y-127722357D01*
X143295595Y-127627119D01*
X143247976Y-127579500D01*
X143152738Y-127531880D01*
X142962261Y-127531880D01*
X142867023Y-127579500D01*
X142819404Y-127627119D01*
X142771785Y-127722357D01*
X142771785Y-127960452D01*
X142819404Y-128055690D01*
X142867023Y-128103309D01*
X142962261Y-128150928D01*
X143152738Y-128150928D01*
X143247976Y-128103309D01*
X143295595Y-128055690D01*
X143343214Y-127960452D01*
%TO.C,J2*%
X119340380Y-150177476D02*
X119340380Y-150653666D01*
X119816571Y-150701285D01*
X119768952Y-150653666D01*
X119721333Y-150558428D01*
X119721333Y-150320333D01*
X119768952Y-150225095D01*
X119816571Y-150177476D01*
X119911809Y-150129857D01*
X120149904Y-150129857D01*
X120245142Y-150177476D01*
X120292761Y-150225095D01*
X120340380Y-150320333D01*
X120340380Y-150558428D01*
X120292761Y-150653666D01*
X120245142Y-150701285D01*
X119340380Y-149844142D02*
X120340380Y-149510809D01*
X119340380Y-149177476D01*
X121864380Y-149550476D02*
X121388190Y-149883809D01*
X121864380Y-150121904D02*
X120864380Y-150121904D01*
X120864380Y-149740952D01*
X120912000Y-149645714D01*
X120959619Y-149598095D01*
X121054857Y-149550476D01*
X121197714Y-149550476D01*
X121292952Y-149598095D01*
X121340571Y-149645714D01*
X121388190Y-149740952D01*
X121388190Y-150121904D01*
X120340380Y-142859047D02*
X120340380Y-143430476D01*
X120340380Y-143144761D02*
X119340380Y-143144761D01*
X119483238Y-143240000D01*
X119578476Y-143335238D01*
X119626095Y-143430476D01*
X119435619Y-142478095D02*
X119388000Y-142430476D01*
X119340380Y-142335238D01*
X119340380Y-142097142D01*
X119388000Y-142001904D01*
X119435619Y-141954285D01*
X119530857Y-141906666D01*
X119626095Y-141906666D01*
X119768952Y-141954285D01*
X120340380Y-142525714D01*
X120340380Y-141906666D01*
X119340380Y-141620952D02*
X120340380Y-141287619D01*
X119340380Y-140954285D01*
X121261190Y-142240000D02*
X121737380Y-142240000D01*
X120737380Y-142573333D02*
X121261190Y-142240000D01*
X120737380Y-141906666D01*
X119388000Y-146811904D02*
X119340380Y-146907142D01*
X119340380Y-147050000D01*
X119388000Y-147192857D01*
X119483238Y-147288095D01*
X119578476Y-147335714D01*
X119768952Y-147383333D01*
X119911809Y-147383333D01*
X120102285Y-147335714D01*
X120197523Y-147288095D01*
X120292761Y-147192857D01*
X120340380Y-147050000D01*
X120340380Y-146954761D01*
X120292761Y-146811904D01*
X120245142Y-146764285D01*
X119911809Y-146764285D01*
X119911809Y-146954761D01*
X120340380Y-146335714D02*
X119340380Y-146335714D01*
X120340380Y-145764285D01*
X119340380Y-145764285D01*
X120340380Y-145288095D02*
X119340380Y-145288095D01*
X119340380Y-145050000D01*
X119388000Y-144907142D01*
X119483238Y-144811904D01*
X119578476Y-144764285D01*
X119768952Y-144716666D01*
X119911809Y-144716666D01*
X120102285Y-144764285D01*
X120197523Y-144811904D01*
X120292761Y-144907142D01*
X120340380Y-145050000D01*
X120340380Y-145288095D01*
%TO.C,D1*%
X154630380Y-89447595D02*
X153630380Y-89447595D01*
X153630380Y-89209500D01*
X153678000Y-89066642D01*
X153773238Y-88971404D01*
X153868476Y-88923785D01*
X154058952Y-88876166D01*
X154201809Y-88876166D01*
X154392285Y-88923785D01*
X154487523Y-88971404D01*
X154582761Y-89066642D01*
X154630380Y-89209500D01*
X154630380Y-89447595D01*
X154630380Y-87923785D02*
X154630380Y-88495214D01*
X154630380Y-88209500D02*
X153630380Y-88209500D01*
X153773238Y-88304738D01*
X153868476Y-88399976D01*
X153916095Y-88495214D01*
%TO.C,C1*%
X127823142Y-71159666D02*
X127870761Y-71207285D01*
X127918380Y-71350142D01*
X127918380Y-71445380D01*
X127870761Y-71588238D01*
X127775523Y-71683476D01*
X127680285Y-71731095D01*
X127489809Y-71778714D01*
X127346952Y-71778714D01*
X127156476Y-71731095D01*
X127061238Y-71683476D01*
X126966000Y-71588238D01*
X126918380Y-71445380D01*
X126918380Y-71350142D01*
X126966000Y-71207285D01*
X127013619Y-71159666D01*
X127918380Y-70207285D02*
X127918380Y-70778714D01*
X127918380Y-70493000D02*
X126918380Y-70493000D01*
X127061238Y-70588238D01*
X127156476Y-70683476D01*
X127204095Y-70778714D01*
%TO.C,C2*%
X148517253Y-69949455D02*
X148517253Y-70016798D01*
X148449909Y-70151485D01*
X148382566Y-70218829D01*
X148247878Y-70286172D01*
X148113191Y-70286172D01*
X148012176Y-70252501D01*
X147843817Y-70151485D01*
X147742802Y-70050470D01*
X147641787Y-69882111D01*
X147608115Y-69781096D01*
X147608115Y-69646409D01*
X147675459Y-69511722D01*
X147742802Y-69444378D01*
X147877489Y-69377035D01*
X147944833Y-69377035D01*
X148214207Y-69107661D02*
X148214207Y-69040317D01*
X148247878Y-68939302D01*
X148416237Y-68770943D01*
X148517253Y-68737272D01*
X148584596Y-68737272D01*
X148685611Y-68770943D01*
X148752955Y-68838287D01*
X148820298Y-68972974D01*
X148820298Y-69781096D01*
X149258031Y-69343363D01*
%TO.C,R10*%
X142295642Y-118371880D02*
X141962309Y-117895690D01*
X141724214Y-118371880D02*
X141724214Y-117371880D01*
X142105166Y-117371880D01*
X142200404Y-117419500D01*
X142248023Y-117467119D01*
X142295642Y-117562357D01*
X142295642Y-117705214D01*
X142248023Y-117800452D01*
X142200404Y-117848071D01*
X142105166Y-117895690D01*
X141724214Y-117895690D01*
X143248023Y-118371880D02*
X142676595Y-118371880D01*
X142962309Y-118371880D02*
X142962309Y-117371880D01*
X142867071Y-117514738D01*
X142771833Y-117609976D01*
X142676595Y-117657595D01*
X143867071Y-117371880D02*
X143962309Y-117371880D01*
X144057547Y-117419500D01*
X144105166Y-117467119D01*
X144152785Y-117562357D01*
X144200404Y-117752833D01*
X144200404Y-117990928D01*
X144152785Y-118181404D01*
X144105166Y-118276642D01*
X144057547Y-118324261D01*
X143962309Y-118371880D01*
X143867071Y-118371880D01*
X143771833Y-118324261D01*
X143724214Y-118276642D01*
X143676595Y-118181404D01*
X143628976Y-117990928D01*
X143628976Y-117752833D01*
X143676595Y-117562357D01*
X143724214Y-117467119D01*
X143771833Y-117419500D01*
X143867071Y-117371880D01*
%TO.C,R11*%
X142295642Y-115768380D02*
X141962309Y-115292190D01*
X141724214Y-115768380D02*
X141724214Y-114768380D01*
X142105166Y-114768380D01*
X142200404Y-114816000D01*
X142248023Y-114863619D01*
X142295642Y-114958857D01*
X142295642Y-115101714D01*
X142248023Y-115196952D01*
X142200404Y-115244571D01*
X142105166Y-115292190D01*
X141724214Y-115292190D01*
X143248023Y-115768380D02*
X142676595Y-115768380D01*
X142962309Y-115768380D02*
X142962309Y-114768380D01*
X142867071Y-114911238D01*
X142771833Y-115006476D01*
X142676595Y-115054095D01*
X144200404Y-115768380D02*
X143628976Y-115768380D01*
X143914690Y-115768380D02*
X143914690Y-114768380D01*
X143819452Y-114911238D01*
X143724214Y-115006476D01*
X143628976Y-115054095D01*
%TO.C,R12*%
X139184142Y-111894880D02*
X138850809Y-111418690D01*
X138612714Y-111894880D02*
X138612714Y-110894880D01*
X138993666Y-110894880D01*
X139088904Y-110942500D01*
X139136523Y-110990119D01*
X139184142Y-111085357D01*
X139184142Y-111228214D01*
X139136523Y-111323452D01*
X139088904Y-111371071D01*
X138993666Y-111418690D01*
X138612714Y-111418690D01*
X140136523Y-111894880D02*
X139565095Y-111894880D01*
X139850809Y-111894880D02*
X139850809Y-110894880D01*
X139755571Y-111037738D01*
X139660333Y-111132976D01*
X139565095Y-111180595D01*
X140517476Y-110990119D02*
X140565095Y-110942500D01*
X140660333Y-110894880D01*
X140898428Y-110894880D01*
X140993666Y-110942500D01*
X141041285Y-110990119D01*
X141088904Y-111085357D01*
X141088904Y-111180595D01*
X141041285Y-111323452D01*
X140469857Y-111894880D01*
X141088904Y-111894880D01*
%TO.C,R13*%
X139311142Y-104338380D02*
X138977809Y-103862190D01*
X138739714Y-104338380D02*
X138739714Y-103338380D01*
X139120666Y-103338380D01*
X139215904Y-103386000D01*
X139263523Y-103433619D01*
X139311142Y-103528857D01*
X139311142Y-103671714D01*
X139263523Y-103766952D01*
X139215904Y-103814571D01*
X139120666Y-103862190D01*
X138739714Y-103862190D01*
X140263523Y-104338380D02*
X139692095Y-104338380D01*
X139977809Y-104338380D02*
X139977809Y-103338380D01*
X139882571Y-103481238D01*
X139787333Y-103576476D01*
X139692095Y-103624095D01*
X140596857Y-103338380D02*
X141215904Y-103338380D01*
X140882571Y-103719333D01*
X141025428Y-103719333D01*
X141120666Y-103766952D01*
X141168285Y-103814571D01*
X141215904Y-103909809D01*
X141215904Y-104147904D01*
X141168285Y-104243142D01*
X141120666Y-104290761D01*
X141025428Y-104338380D01*
X140739714Y-104338380D01*
X140644476Y-104290761D01*
X140596857Y-104243142D01*
%TO.C,R14*%
X139311142Y-101798380D02*
X138977809Y-101322190D01*
X138739714Y-101798380D02*
X138739714Y-100798380D01*
X139120666Y-100798380D01*
X139215904Y-100846000D01*
X139263523Y-100893619D01*
X139311142Y-100988857D01*
X139311142Y-101131714D01*
X139263523Y-101226952D01*
X139215904Y-101274571D01*
X139120666Y-101322190D01*
X138739714Y-101322190D01*
X140263523Y-101798380D02*
X139692095Y-101798380D01*
X139977809Y-101798380D02*
X139977809Y-100798380D01*
X139882571Y-100941238D01*
X139787333Y-101036476D01*
X139692095Y-101084095D01*
X141120666Y-101131714D02*
X141120666Y-101798380D01*
X140882571Y-100750761D02*
X140644476Y-101465047D01*
X141263523Y-101465047D01*
%TO.C,R15*%
X139374642Y-99258380D02*
X139041309Y-98782190D01*
X138803214Y-99258380D02*
X138803214Y-98258380D01*
X139184166Y-98258380D01*
X139279404Y-98306000D01*
X139327023Y-98353619D01*
X139374642Y-98448857D01*
X139374642Y-98591714D01*
X139327023Y-98686952D01*
X139279404Y-98734571D01*
X139184166Y-98782190D01*
X138803214Y-98782190D01*
X140327023Y-99258380D02*
X139755595Y-99258380D01*
X140041309Y-99258380D02*
X140041309Y-98258380D01*
X139946071Y-98401238D01*
X139850833Y-98496476D01*
X139755595Y-98544095D01*
X141231785Y-98258380D02*
X140755595Y-98258380D01*
X140707976Y-98734571D01*
X140755595Y-98686952D01*
X140850833Y-98639333D01*
X141088928Y-98639333D01*
X141184166Y-98686952D01*
X141231785Y-98734571D01*
X141279404Y-98829809D01*
X141279404Y-99067904D01*
X141231785Y-99163142D01*
X141184166Y-99210761D01*
X141088928Y-99258380D01*
X140850833Y-99258380D01*
X140755595Y-99210761D01*
X140707976Y-99163142D01*
%TO.C,R16*%
X139311142Y-96781880D02*
X138977809Y-96305690D01*
X138739714Y-96781880D02*
X138739714Y-95781880D01*
X139120666Y-95781880D01*
X139215904Y-95829500D01*
X139263523Y-95877119D01*
X139311142Y-95972357D01*
X139311142Y-96115214D01*
X139263523Y-96210452D01*
X139215904Y-96258071D01*
X139120666Y-96305690D01*
X138739714Y-96305690D01*
X140263523Y-96781880D02*
X139692095Y-96781880D01*
X139977809Y-96781880D02*
X139977809Y-95781880D01*
X139882571Y-95924738D01*
X139787333Y-96019976D01*
X139692095Y-96067595D01*
X141120666Y-95781880D02*
X140930190Y-95781880D01*
X140834952Y-95829500D01*
X140787333Y-95877119D01*
X140692095Y-96019976D01*
X140644476Y-96210452D01*
X140644476Y-96591404D01*
X140692095Y-96686642D01*
X140739714Y-96734261D01*
X140834952Y-96781880D01*
X141025428Y-96781880D01*
X141120666Y-96734261D01*
X141168285Y-96686642D01*
X141215904Y-96591404D01*
X141215904Y-96353309D01*
X141168285Y-96258071D01*
X141120666Y-96210452D01*
X141025428Y-96162833D01*
X140834952Y-96162833D01*
X140739714Y-96210452D01*
X140692095Y-96258071D01*
X140644476Y-96353309D01*
%TO.C,R17*%
X139297142Y-94241880D02*
X138963809Y-93765690D01*
X138725714Y-94241880D02*
X138725714Y-93241880D01*
X139106666Y-93241880D01*
X139201904Y-93289500D01*
X139249523Y-93337119D01*
X139297142Y-93432357D01*
X139297142Y-93575214D01*
X139249523Y-93670452D01*
X139201904Y-93718071D01*
X139106666Y-93765690D01*
X138725714Y-93765690D01*
X140249523Y-94241880D02*
X139678095Y-94241880D01*
X139963809Y-94241880D02*
X139963809Y-93241880D01*
X139868571Y-93384738D01*
X139773333Y-93479976D01*
X139678095Y-93527595D01*
X140582857Y-93241880D02*
X141249523Y-93241880D01*
X140820952Y-94241880D01*
%TO.C,R18*%
X139247642Y-91638380D02*
X138914309Y-91162190D01*
X138676214Y-91638380D02*
X138676214Y-90638380D01*
X139057166Y-90638380D01*
X139152404Y-90686000D01*
X139200023Y-90733619D01*
X139247642Y-90828857D01*
X139247642Y-90971714D01*
X139200023Y-91066952D01*
X139152404Y-91114571D01*
X139057166Y-91162190D01*
X138676214Y-91162190D01*
X140200023Y-91638380D02*
X139628595Y-91638380D01*
X139914309Y-91638380D02*
X139914309Y-90638380D01*
X139819071Y-90781238D01*
X139723833Y-90876476D01*
X139628595Y-90924095D01*
X140771452Y-91066952D02*
X140676214Y-91019333D01*
X140628595Y-90971714D01*
X140580976Y-90876476D01*
X140580976Y-90828857D01*
X140628595Y-90733619D01*
X140676214Y-90686000D01*
X140771452Y-90638380D01*
X140961928Y-90638380D01*
X141057166Y-90686000D01*
X141104785Y-90733619D01*
X141152404Y-90828857D01*
X141152404Y-90876476D01*
X141104785Y-90971714D01*
X141057166Y-91019333D01*
X140961928Y-91066952D01*
X140771452Y-91066952D01*
X140676214Y-91114571D01*
X140628595Y-91162190D01*
X140580976Y-91257428D01*
X140580976Y-91447904D01*
X140628595Y-91543142D01*
X140676214Y-91590761D01*
X140771452Y-91638380D01*
X140961928Y-91638380D01*
X141057166Y-91590761D01*
X141104785Y-91543142D01*
X141152404Y-91447904D01*
X141152404Y-91257428D01*
X141104785Y-91162190D01*
X141057166Y-91114571D01*
X140961928Y-91066952D01*
%TO.C,U1*%
X136398095Y-70572380D02*
X136398095Y-71381904D01*
X136445714Y-71477142D01*
X136493333Y-71524761D01*
X136588571Y-71572380D01*
X136779047Y-71572380D01*
X136874285Y-71524761D01*
X136921904Y-71477142D01*
X136969523Y-71381904D01*
X136969523Y-70572380D01*
X137969523Y-71572380D02*
X137398095Y-71572380D01*
X137683809Y-71572380D02*
X137683809Y-70572380D01*
X137588571Y-70715238D01*
X137493333Y-70810476D01*
X137398095Y-70858095D01*
%TO.C,U3*%
X152209595Y-100480880D02*
X152209595Y-101290404D01*
X152257214Y-101385642D01*
X152304833Y-101433261D01*
X152400071Y-101480880D01*
X152590547Y-101480880D01*
X152685785Y-101433261D01*
X152733404Y-101385642D01*
X152781023Y-101290404D01*
X152781023Y-100480880D01*
X153161976Y-100480880D02*
X153781023Y-100480880D01*
X153447690Y-100861833D01*
X153590547Y-100861833D01*
X153685785Y-100909452D01*
X153733404Y-100957071D01*
X153781023Y-101052309D01*
X153781023Y-101290404D01*
X153733404Y-101385642D01*
X153685785Y-101433261D01*
X153590547Y-101480880D01*
X153304833Y-101480880D01*
X153209595Y-101433261D01*
X153161976Y-101385642D01*
%TO.C,J5*%
X135226380Y-141404333D02*
X135940666Y-141404333D01*
X136083523Y-141451952D01*
X136178761Y-141547190D01*
X136226380Y-141690047D01*
X136226380Y-141785285D01*
X135226380Y-140451952D02*
X135226380Y-140928142D01*
X135702571Y-140975761D01*
X135654952Y-140928142D01*
X135607333Y-140832904D01*
X135607333Y-140594809D01*
X135654952Y-140499571D01*
X135702571Y-140451952D01*
X135797809Y-140404333D01*
X136035904Y-140404333D01*
X136131142Y-140451952D01*
X136178761Y-140499571D01*
X136226380Y-140594809D01*
X136226380Y-140832904D01*
X136178761Y-140928142D01*
X136131142Y-140975761D01*
%TO.C,U2*%
X148717095Y-126708880D02*
X148717095Y-127518404D01*
X148764714Y-127613642D01*
X148812333Y-127661261D01*
X148907571Y-127708880D01*
X149098047Y-127708880D01*
X149193285Y-127661261D01*
X149240904Y-127613642D01*
X149288523Y-127518404D01*
X149288523Y-126708880D01*
X149717095Y-126804119D02*
X149764714Y-126756500D01*
X149859952Y-126708880D01*
X150098047Y-126708880D01*
X150193285Y-126756500D01*
X150240904Y-126804119D01*
X150288523Y-126899357D01*
X150288523Y-126994595D01*
X150240904Y-127137452D01*
X149669476Y-127708880D01*
X150288523Y-127708880D01*
%TO.C,D2*%
X154630380Y-85193095D02*
X153630380Y-85193095D01*
X153630380Y-84955000D01*
X153678000Y-84812142D01*
X153773238Y-84716904D01*
X153868476Y-84669285D01*
X154058952Y-84621666D01*
X154201809Y-84621666D01*
X154392285Y-84669285D01*
X154487523Y-84716904D01*
X154582761Y-84812142D01*
X154630380Y-84955000D01*
X154630380Y-85193095D01*
X153725619Y-84240714D02*
X153678000Y-84193095D01*
X153630380Y-84097857D01*
X153630380Y-83859761D01*
X153678000Y-83764523D01*
X153725619Y-83716904D01*
X153820857Y-83669285D01*
X153916095Y-83669285D01*
X154058952Y-83716904D01*
X154630380Y-84288333D01*
X154630380Y-83669285D01*
%TO.C,USBPWR*%
X144931166Y-76477880D02*
X144931166Y-77287404D01*
X144978785Y-77382642D01*
X145026404Y-77430261D01*
X145121642Y-77477880D01*
X145312119Y-77477880D01*
X145407357Y-77430261D01*
X145454976Y-77382642D01*
X145502595Y-77287404D01*
X145502595Y-76477880D01*
X145931166Y-77430261D02*
X146074023Y-77477880D01*
X146312119Y-77477880D01*
X146407357Y-77430261D01*
X146454976Y-77382642D01*
X146502595Y-77287404D01*
X146502595Y-77192166D01*
X146454976Y-77096928D01*
X146407357Y-77049309D01*
X146312119Y-77001690D01*
X146121642Y-76954071D01*
X146026404Y-76906452D01*
X145978785Y-76858833D01*
X145931166Y-76763595D01*
X145931166Y-76668357D01*
X145978785Y-76573119D01*
X146026404Y-76525500D01*
X146121642Y-76477880D01*
X146359738Y-76477880D01*
X146502595Y-76525500D01*
X147264500Y-76954071D02*
X147407357Y-77001690D01*
X147454976Y-77049309D01*
X147502595Y-77144547D01*
X147502595Y-77287404D01*
X147454976Y-77382642D01*
X147407357Y-77430261D01*
X147312119Y-77477880D01*
X146931166Y-77477880D01*
X146931166Y-76477880D01*
X147264500Y-76477880D01*
X147359738Y-76525500D01*
X147407357Y-76573119D01*
X147454976Y-76668357D01*
X147454976Y-76763595D01*
X147407357Y-76858833D01*
X147359738Y-76906452D01*
X147264500Y-76954071D01*
X146931166Y-76954071D01*
X147931166Y-77477880D02*
X147931166Y-76477880D01*
X148312119Y-76477880D01*
X148407357Y-76525500D01*
X148454976Y-76573119D01*
X148502595Y-76668357D01*
X148502595Y-76811214D01*
X148454976Y-76906452D01*
X148407357Y-76954071D01*
X148312119Y-77001690D01*
X147931166Y-77001690D01*
X148835928Y-76477880D02*
X149074023Y-77477880D01*
X149264500Y-76763595D01*
X149454976Y-77477880D01*
X149693071Y-76477880D01*
X150645452Y-77477880D02*
X150312119Y-77001690D01*
X150074023Y-77477880D02*
X150074023Y-76477880D01*
X150454976Y-76477880D01*
X150550214Y-76525500D01*
X150597833Y-76573119D01*
X150645452Y-76668357D01*
X150645452Y-76811214D01*
X150597833Y-76906452D01*
X150550214Y-76954071D01*
X150454976Y-77001690D01*
X150074023Y-77001690D01*
%TO.C,F1*%
X144137071Y-86883833D02*
X144137071Y-87217166D01*
X144660880Y-87217166D02*
X143660880Y-87217166D01*
X143660880Y-86740976D01*
X144660880Y-85836214D02*
X144660880Y-86407642D01*
X144660880Y-86121928D02*
X143660880Y-86121928D01*
X143803738Y-86217166D01*
X143898976Y-86312404D01*
X143946595Y-86407642D01*
%TO.C,C3*%
X146454833Y-102592142D02*
X146407214Y-102639761D01*
X146264357Y-102687380D01*
X146169119Y-102687380D01*
X146026261Y-102639761D01*
X145931023Y-102544523D01*
X145883404Y-102449285D01*
X145835785Y-102258809D01*
X145835785Y-102115952D01*
X145883404Y-101925476D01*
X145931023Y-101830238D01*
X146026261Y-101735000D01*
X146169119Y-101687380D01*
X146264357Y-101687380D01*
X146407214Y-101735000D01*
X146454833Y-101782619D01*
X146788166Y-101687380D02*
X147407214Y-101687380D01*
X147073880Y-102068333D01*
X147216738Y-102068333D01*
X147311976Y-102115952D01*
X147359595Y-102163571D01*
X147407214Y-102258809D01*
X147407214Y-102496904D01*
X147359595Y-102592142D01*
X147311976Y-102639761D01*
X147216738Y-102687380D01*
X146931023Y-102687380D01*
X146835785Y-102639761D01*
X146788166Y-102592142D01*
%TO.C,D3*%
X120419904Y-69159380D02*
X120419904Y-68159380D01*
X120658000Y-68159380D01*
X120800857Y-68207000D01*
X120896095Y-68302238D01*
X120943714Y-68397476D01*
X120991333Y-68587952D01*
X120991333Y-68730809D01*
X120943714Y-68921285D01*
X120896095Y-69016523D01*
X120800857Y-69111761D01*
X120658000Y-69159380D01*
X120419904Y-69159380D01*
X121324666Y-68159380D02*
X121943714Y-68159380D01*
X121610380Y-68540333D01*
X121753238Y-68540333D01*
X121848476Y-68587952D01*
X121896095Y-68635571D01*
X121943714Y-68730809D01*
X121943714Y-68968904D01*
X121896095Y-69064142D01*
X121848476Y-69111761D01*
X121753238Y-69159380D01*
X121467523Y-69159380D01*
X121372285Y-69111761D01*
X121324666Y-69064142D01*
%TO.C,F2*%
X113966666Y-68445071D02*
X113633333Y-68445071D01*
X113633333Y-68968880D02*
X113633333Y-67968880D01*
X114109523Y-67968880D01*
X114442857Y-68064119D02*
X114490476Y-68016500D01*
X114585714Y-67968880D01*
X114823809Y-67968880D01*
X114919047Y-68016500D01*
X114966666Y-68064119D01*
X115014285Y-68159357D01*
X115014285Y-68254595D01*
X114966666Y-68397452D01*
X114395238Y-68968880D01*
X115014285Y-68968880D01*
%TO.C,BP1*%
X127722380Y-129341404D02*
X128531904Y-129341404D01*
X128627142Y-129293785D01*
X128674761Y-129246166D01*
X128722380Y-129150928D01*
X128722380Y-128960452D01*
X128674761Y-128865214D01*
X128627142Y-128817595D01*
X128531904Y-128769976D01*
X127722380Y-128769976D01*
X128674761Y-128341404D02*
X128722380Y-128198547D01*
X128722380Y-127960452D01*
X128674761Y-127865214D01*
X128627142Y-127817595D01*
X128531904Y-127769976D01*
X128436666Y-127769976D01*
X128341428Y-127817595D01*
X128293809Y-127865214D01*
X128246190Y-127960452D01*
X128198571Y-128150928D01*
X128150952Y-128246166D01*
X128103333Y-128293785D01*
X128008095Y-128341404D01*
X127912857Y-128341404D01*
X127817619Y-128293785D01*
X127770000Y-128246166D01*
X127722380Y-128150928D01*
X127722380Y-127912833D01*
X127770000Y-127769976D01*
X128198571Y-127008071D02*
X128246190Y-126865214D01*
X128293809Y-126817595D01*
X128389047Y-126769976D01*
X128531904Y-126769976D01*
X128627142Y-126817595D01*
X128674761Y-126865214D01*
X128722380Y-126960452D01*
X128722380Y-127341404D01*
X127722380Y-127341404D01*
X127722380Y-127008071D01*
X127770000Y-126912833D01*
X127817619Y-126865214D01*
X127912857Y-126817595D01*
X128008095Y-126817595D01*
X128103333Y-126865214D01*
X128150952Y-126912833D01*
X128198571Y-127008071D01*
X128198571Y-127341404D01*
%TO.C,R19*%
X146689842Y-131549400D02*
X146356509Y-131073210D01*
X146118414Y-131549400D02*
X146118414Y-130549400D01*
X146499366Y-130549400D01*
X146594604Y-130597020D01*
X146642223Y-130644639D01*
X146689842Y-130739877D01*
X146689842Y-130882734D01*
X146642223Y-130977972D01*
X146594604Y-131025591D01*
X146499366Y-131073210D01*
X146118414Y-131073210D01*
X147642223Y-131549400D02*
X147070795Y-131549400D01*
X147356509Y-131549400D02*
X147356509Y-130549400D01*
X147261271Y-130692258D01*
X147166033Y-130787496D01*
X147070795Y-130835115D01*
X148118414Y-131549400D02*
X148308890Y-131549400D01*
X148404128Y-131501781D01*
X148451747Y-131454162D01*
X148546985Y-131311305D01*
X148594604Y-131120829D01*
X148594604Y-130739877D01*
X148546985Y-130644639D01*
X148499366Y-130597020D01*
X148404128Y-130549400D01*
X148213652Y-130549400D01*
X148118414Y-130597020D01*
X148070795Y-130644639D01*
X148023176Y-130739877D01*
X148023176Y-130977972D01*
X148070795Y-131073210D01*
X148118414Y-131120829D01*
X148213652Y-131168448D01*
X148404128Y-131168448D01*
X148499366Y-131120829D01*
X148546985Y-131073210D01*
X148594604Y-130977972D01*
D11*
%TO.C,J4*%
X112740000Y-65360000D02*
X112740000Y-136480000D01*
X108930000Y-132730000D02*
X106330000Y-132730000D01*
X105120000Y-136480000D02*
X105120000Y-65360000D01*
X108930000Y-99650000D02*
X111470000Y-99650000D01*
X111530000Y-132730000D02*
X110200000Y-132730000D01*
X111530000Y-69110000D02*
X106330000Y-69110000D01*
X111470000Y-102190000D02*
X108930000Y-102190000D01*
X108930000Y-102190000D02*
X108930000Y-99650000D01*
X106330000Y-132730000D02*
X106330000Y-69110000D01*
X105120000Y-136480000D02*
X112740000Y-136480000D01*
X111530000Y-131400000D02*
X111530000Y-132730000D01*
X111530000Y-130130000D02*
X111530000Y-69110000D01*
X111530000Y-130130000D02*
X108930000Y-130130000D01*
X108930000Y-130130000D02*
X108930000Y-132730000D01*
X105120000Y-65360000D02*
X112740000Y-65360000D01*
%TO.C,R1*%
X139984267Y-122426000D02*
X139641733Y-122426000D01*
X139984267Y-123446000D02*
X139641733Y-123446000D01*
%TO.C,R2*%
X139984267Y-120906000D02*
X139641733Y-120906000D01*
X139984267Y-119886000D02*
X139641733Y-119886000D01*
%TO.C,R3*%
X124899267Y-119886000D02*
X124556733Y-119886000D01*
X124899267Y-120906000D02*
X124556733Y-120906000D01*
%TO.C,R4*%
X140111267Y-87886000D02*
X139768733Y-87886000D01*
X140111267Y-86866000D02*
X139768733Y-86866000D01*
%TO.C,R5*%
X124871267Y-117346000D02*
X124528733Y-117346000D01*
X124871267Y-118366000D02*
X124528733Y-118366000D01*
%TO.C,R6*%
X139998267Y-124966000D02*
X139655733Y-124966000D01*
X139998267Y-125986000D02*
X139655733Y-125986000D01*
%TO.C,R7*%
X124835767Y-112266000D02*
X124493233Y-112266000D01*
X124835767Y-113286000D02*
X124493233Y-113286000D01*
%TO.C,R8*%
X140111267Y-90426000D02*
X139768733Y-90426000D01*
X140111267Y-89406000D02*
X139768733Y-89406000D01*
%TO.C,R9*%
X139998267Y-127506000D02*
X139655733Y-127506000D01*
X139998267Y-128526000D02*
X139655733Y-128526000D01*
%TO.C,J2*%
X118999000Y-151130000D02*
X118999000Y-140970000D01*
X118491000Y-140843000D02*
X113411000Y-140843000D01*
X118491000Y-151257000D02*
X113411000Y-151257000D01*
%TO.C,D1*%
X148990500Y-87773000D02*
X152840500Y-87773000D01*
X148990500Y-89773000D02*
X152840500Y-89773000D01*
X148990500Y-87773000D02*
X148990500Y-89773000D01*
%TO.C,C1*%
X130196000Y-71595064D02*
X130196000Y-70390936D01*
X128376000Y-71595064D02*
X128376000Y-70390936D01*
%TO.C,C2*%
X149887244Y-71935191D02*
X150738691Y-71083744D01*
X148600309Y-70648256D02*
X149451756Y-69796809D01*
%TO.C,R10*%
X139641733Y-117346000D02*
X139984267Y-117346000D01*
X139641733Y-118366000D02*
X139984267Y-118366000D01*
%TO.C,R11*%
X139669733Y-115826000D02*
X140012267Y-115826000D01*
X139669733Y-114806000D02*
X140012267Y-114806000D01*
%TO.C,R12*%
X139998267Y-112266000D02*
X139655733Y-112266000D01*
X139998267Y-113286000D02*
X139655733Y-113286000D01*
%TO.C,R13*%
X140125267Y-105666000D02*
X139782733Y-105666000D01*
X140125267Y-104646000D02*
X139782733Y-104646000D01*
%TO.C,R14*%
X140111267Y-102106000D02*
X139768733Y-102106000D01*
X140111267Y-103126000D02*
X139768733Y-103126000D01*
%TO.C,R15*%
X140111267Y-100586000D02*
X139768733Y-100586000D01*
X140111267Y-99566000D02*
X139768733Y-99566000D01*
%TO.C,R16*%
X140125267Y-98046000D02*
X139782733Y-98046000D01*
X140125267Y-97026000D02*
X139782733Y-97026000D01*
%TO.C,R17*%
X140111267Y-94486000D02*
X139768733Y-94486000D01*
X140111267Y-95506000D02*
X139768733Y-95506000D01*
%TO.C,R18*%
X140111267Y-91946000D02*
X139768733Y-91946000D01*
X140111267Y-92966000D02*
X139768733Y-92966000D01*
%TO.C,U1*%
X139596180Y-67717620D02*
X139596180Y-68977620D01*
X133586180Y-67717620D02*
X139596180Y-67717620D01*
X139596180Y-74537620D02*
X139596180Y-73277620D01*
X135836180Y-74537620D02*
X139596180Y-74537620D01*
D10*
%TO.C,U3*%
X151871500Y-100139000D02*
X152996500Y-100139000D01*
X151871500Y-91664000D02*
X147721500Y-91664000D01*
X151871500Y-91664000D02*
X151871500Y-92221500D01*
X151871500Y-100614000D02*
X151871500Y-100139000D01*
X147721500Y-100614000D02*
X147721500Y-100056500D01*
X147721500Y-91664000D02*
X147721500Y-92221500D01*
X151871500Y-100614000D02*
X147721500Y-100614000D01*
%TO.C,U2*%
X151554000Y-117381500D02*
X147404000Y-117381500D01*
X151554000Y-126331500D02*
X147404000Y-126331500D01*
X147404000Y-126331500D02*
X147404000Y-125774000D01*
X147404000Y-117381500D02*
X147404000Y-117939000D01*
X151554000Y-126331500D02*
X151554000Y-125856500D01*
X151554000Y-125856500D02*
X152679000Y-125856500D01*
X151554000Y-117381500D02*
X151554000Y-117939000D01*
D11*
%TO.C,J6*%
X145609000Y-108137000D02*
X145609000Y-106807000D01*
X148209000Y-108137000D02*
X153349000Y-108137000D01*
X153349000Y-108137000D02*
X153349000Y-105477000D01*
X148209000Y-108137000D02*
X148209000Y-105477000D01*
X146939000Y-108137000D02*
X145609000Y-108137000D01*
X148209000Y-105477000D02*
X153349000Y-105477000D01*
%TO.C,D2*%
X149060000Y-83455000D02*
X149060000Y-85455000D01*
X149060000Y-83455000D02*
X152910000Y-83455000D01*
X149060000Y-85455000D02*
X152910000Y-85455000D01*
%TO.C,USBPWR*%
X144843500Y-81213000D02*
X144843500Y-78553000D01*
X144843500Y-78553000D02*
X149983500Y-78553000D01*
X149983500Y-81213000D02*
X149983500Y-78553000D01*
X142243500Y-81213000D02*
X142243500Y-79883000D01*
X143573500Y-81213000D02*
X142243500Y-81213000D01*
X144843500Y-81213000D02*
X149983500Y-81213000D01*
%TO.C,J1*%
X118551000Y-71056500D02*
X115891000Y-71056500D01*
X118551000Y-72326500D02*
X118551000Y-73656500D01*
X118551000Y-68456500D02*
X115891000Y-68456500D01*
X118551000Y-71056500D02*
X118551000Y-68456500D01*
X118551000Y-73656500D02*
X117221000Y-73656500D01*
X115891000Y-71056500D02*
X115891000Y-68456500D01*
%TO.C,F1*%
X147211031Y-87260500D02*
X146920969Y-87260500D01*
X147211031Y-85840500D02*
X146920969Y-85840500D01*
%TO.C,C3*%
X149226748Y-102945000D02*
X149749252Y-102945000D01*
X149226748Y-101525000D02*
X149749252Y-101525000D01*
%TO.C,D3*%
X121894501Y-67802000D02*
X121894501Y-65802000D01*
X121894501Y-65802000D02*
X118044501Y-65802000D01*
X121894501Y-67802000D02*
X118044501Y-67802000D01*
%TO.C,REF\u002A\u002A*%
X127127000Y-147891500D02*
X126873000Y-147891500D01*
X128397000Y-146367500D02*
X128905000Y-146367500D01*
X128143000Y-147129500D02*
X128143000Y-146875500D01*
X127889000Y-146875500D02*
X127889000Y-146113500D01*
X127635000Y-146367500D02*
X127381000Y-146621500D01*
X127889000Y-147129500D02*
X128143000Y-147129500D01*
X127127000Y-146875500D02*
X127889000Y-146875500D01*
X128397000Y-146621500D02*
X127889000Y-146113500D01*
X128397000Y-147383500D02*
X127635000Y-147383500D01*
X127381000Y-147383500D02*
X127381000Y-147891500D01*
X127635000Y-147383500D02*
X127127000Y-146875500D01*
X128905000Y-146113500D02*
X128905000Y-145859500D01*
X128397000Y-146621500D02*
X128397000Y-147383500D01*
X128651000Y-146113500D02*
X128143000Y-145605500D01*
X128905000Y-146367500D02*
X129413000Y-146875500D01*
X127127000Y-147637500D02*
X126619000Y-147129500D01*
X127381000Y-147891500D02*
X127889000Y-148399500D01*
%TO.C,F2*%
X115451031Y-67512000D02*
X115160969Y-67512000D01*
X115451031Y-66092000D02*
X115160969Y-66092000D01*
%TO.C,BP1*%
X129984500Y-126238000D02*
X126428500Y-126238000D01*
X126428500Y-126238000D02*
X126428500Y-129540000D01*
X129984500Y-129540000D02*
X129984500Y-126238000D01*
X137326500Y-128016000D02*
G75*
G03*
X137326500Y-128016000I-1500000J0D01*
G01*
%TO.C,J3*%
X149850800Y-113830100D02*
X152510800Y-113830100D01*
X149850800Y-112560100D02*
X149850800Y-111230100D01*
X152510800Y-113830100D02*
X152510800Y-116430100D01*
X149850800Y-113830100D02*
X149850800Y-116430100D01*
X149850800Y-116430100D02*
X152510800Y-116430100D01*
X149850800Y-111230100D02*
X151180800Y-111230100D01*
%TO.C,R19*%
X150496020Y-129655900D02*
X143956020Y-129655900D01*
X143956020Y-132395900D02*
X143956020Y-132065900D01*
X150496020Y-132065900D02*
X150496020Y-132395900D01*
X150496020Y-132395900D02*
X143956020Y-132395900D01*
X150496020Y-129985900D02*
X150496020Y-129655900D01*
X143956020Y-129655900D02*
X143956020Y-129985900D01*
%TD*%
M02*
