%TF.GenerationSoftware,KiCad,Pcbnew,(6.0.2)*%
%TF.CreationDate,2022-04-05T19:05:53-06:00*%
%TF.ProjectId,F4_SMD_V1_1,46345f53-4d44-45f5-9631-5f312e6b6963,rev?*%
%TF.SameCoordinates,Original*%
%TF.FileFunction,Legend,Bot*%
%TF.FilePolarity,Positive*%
%FSLAX46Y46*%
G04 Gerber Fmt 4.6, Leading zero omitted, Abs format (unit mm)*
G04 Created by KiCad (PCBNEW (6.0.2)) date 2022-04-05 19:05:53*
%MOMM*%
%LPD*%
G01*
G04 APERTURE LIST*
%ADD10C,0.150000*%
G04 APERTURE END LIST*
D10*
X121459996Y-138666613D02*
X121507615Y-138618994D01*
X121602853Y-138476137D01*
X121650472Y-138380899D01*
X121698091Y-138238041D01*
X121745710Y-137999946D01*
X121745710Y-137809470D01*
X121698091Y-137571375D01*
X121650472Y-137428518D01*
X121602853Y-137333280D01*
X121507615Y-137190422D01*
X121459996Y-137142803D01*
X120507615Y-138190422D02*
X120555234Y-138238041D01*
X120698091Y-138285660D01*
X120793329Y-138285660D01*
X120936186Y-138238041D01*
X121031424Y-138142803D01*
X121079043Y-138047565D01*
X121126662Y-137857089D01*
X121126662Y-137714232D01*
X121079043Y-137523756D01*
X121031424Y-137428518D01*
X120936186Y-137333280D01*
X120793329Y-137285660D01*
X120698091Y-137285660D01*
X120555234Y-137333280D01*
X120507615Y-137380899D01*
X119507615Y-138190422D02*
X119555234Y-138238041D01*
X119698091Y-138285660D01*
X119793329Y-138285660D01*
X119936186Y-138238041D01*
X120031424Y-138142803D01*
X120079043Y-138047565D01*
X120126662Y-137857089D01*
X120126662Y-137714232D01*
X120079043Y-137523756D01*
X120031424Y-137428518D01*
X119936186Y-137333280D01*
X119793329Y-137285660D01*
X119698091Y-137285660D01*
X119555234Y-137333280D01*
X119507615Y-137380899D01*
X117983805Y-137761851D02*
X117840948Y-137809470D01*
X117793329Y-137857089D01*
X117745710Y-137952327D01*
X117745710Y-138095184D01*
X117793329Y-138190422D01*
X117840948Y-138238041D01*
X117936186Y-138285660D01*
X118317139Y-138285660D01*
X118317139Y-137285660D01*
X117983805Y-137285660D01*
X117888567Y-137333280D01*
X117840948Y-137380899D01*
X117793329Y-137476137D01*
X117793329Y-137571375D01*
X117840948Y-137666613D01*
X117888567Y-137714232D01*
X117983805Y-137761851D01*
X118317139Y-137761851D01*
X117126662Y-137809470D02*
X117126662Y-138285660D01*
X117459996Y-137285660D02*
X117126662Y-137809470D01*
X116793329Y-137285660D01*
X116459996Y-137904708D02*
X115698091Y-137904708D01*
X115221900Y-138285660D02*
X115221900Y-137285660D01*
X114650472Y-138285660D01*
X114650472Y-137285660D01*
X113602853Y-138190422D02*
X113650472Y-138238041D01*
X113793329Y-138285660D01*
X113888567Y-138285660D01*
X114031424Y-138238041D01*
X114126662Y-138142803D01*
X114174281Y-138047565D01*
X114221900Y-137857089D01*
X114221900Y-137714232D01*
X114174281Y-137523756D01*
X114126662Y-137428518D01*
X114031424Y-137333280D01*
X113888567Y-137285660D01*
X113793329Y-137285660D01*
X113650472Y-137333280D01*
X113602853Y-137380899D01*
X113174281Y-137904708D02*
X112412377Y-137904708D01*
X111983805Y-138238041D02*
X111840948Y-138285660D01*
X111602853Y-138285660D01*
X111507615Y-138238041D01*
X111459996Y-138190422D01*
X111412377Y-138095184D01*
X111412377Y-137999946D01*
X111459996Y-137904708D01*
X111507615Y-137857089D01*
X111602853Y-137809470D01*
X111793329Y-137761851D01*
X111888567Y-137714232D01*
X111936186Y-137666613D01*
X111983805Y-137571375D01*
X111983805Y-137476137D01*
X111936186Y-137380899D01*
X111888567Y-137333280D01*
X111793329Y-137285660D01*
X111555234Y-137285660D01*
X111412377Y-137333280D01*
X111031424Y-137999946D02*
X110555234Y-137999946D01*
X111126662Y-138285660D02*
X110793329Y-137285660D01*
X110459996Y-138285660D01*
X108936186Y-137618994D02*
X108936186Y-138285660D01*
X109174281Y-137238041D02*
X109412377Y-137952327D01*
X108793329Y-137952327D01*
X108412377Y-138190422D02*
X108364758Y-138238041D01*
X108412377Y-138285660D01*
X108459996Y-138238041D01*
X108412377Y-138190422D01*
X108412377Y-138285660D01*
X107745710Y-137285660D02*
X107650472Y-137285660D01*
X107555234Y-137333280D01*
X107507615Y-137380899D01*
X107459996Y-137476137D01*
X107412377Y-137666613D01*
X107412377Y-137904708D01*
X107459996Y-138095184D01*
X107507615Y-138190422D01*
X107555234Y-138238041D01*
X107650472Y-138285660D01*
X107745710Y-138285660D01*
X107840948Y-138238041D01*
X107888567Y-138190422D01*
X107936186Y-138095184D01*
X107983805Y-137904708D01*
X107983805Y-137666613D01*
X107936186Y-137476137D01*
X107888567Y-137380899D01*
X107840948Y-137333280D01*
X107745710Y-137285660D01*
X107079043Y-138666613D02*
X107031424Y-138618994D01*
X106936186Y-138476137D01*
X106888567Y-138380899D01*
X106840948Y-138238041D01*
X106793329Y-137999946D01*
X106793329Y-137809470D01*
X106840948Y-137571375D01*
X106888567Y-137428518D01*
X106936186Y-137333280D01*
X107031424Y-137190422D01*
X107079043Y-137142803D01*
X122007615Y-139848041D02*
X121864758Y-139895660D01*
X121626662Y-139895660D01*
X121531424Y-139848041D01*
X121483805Y-139800422D01*
X121436186Y-139705184D01*
X121436186Y-139609946D01*
X121483805Y-139514708D01*
X121531424Y-139467089D01*
X121626662Y-139419470D01*
X121817139Y-139371851D01*
X121912377Y-139324232D01*
X121959996Y-139276613D01*
X122007615Y-139181375D01*
X122007615Y-139086137D01*
X121959996Y-138990899D01*
X121912377Y-138943280D01*
X121817139Y-138895660D01*
X121579043Y-138895660D01*
X121436186Y-138943280D01*
X121055234Y-139609946D02*
X120579043Y-139609946D01*
X121150472Y-139895660D02*
X120817139Y-138895660D01*
X120483805Y-139895660D01*
X119674281Y-139895660D02*
X120150472Y-139895660D01*
X120150472Y-138895660D01*
X119340948Y-139371851D02*
X119007615Y-139371851D01*
X118864758Y-139895660D02*
X119340948Y-139895660D01*
X119340948Y-138895660D01*
X118864758Y-138895660D01*
X117674281Y-139895660D02*
X117674281Y-138895660D01*
X117102853Y-139895660D01*
X117102853Y-138895660D01*
X116436186Y-138895660D02*
X116245710Y-138895660D01*
X116150472Y-138943280D01*
X116055234Y-139038518D01*
X116007615Y-139228994D01*
X116007615Y-139562327D01*
X116055234Y-139752803D01*
X116150472Y-139848041D01*
X116245710Y-139895660D01*
X116436186Y-139895660D01*
X116531424Y-139848041D01*
X116626662Y-139752803D01*
X116674281Y-139562327D01*
X116674281Y-139228994D01*
X116626662Y-139038518D01*
X116531424Y-138943280D01*
X116436186Y-138895660D01*
X115721900Y-138895660D02*
X115150472Y-138895660D01*
X115436186Y-139895660D02*
X115436186Y-138895660D01*
X114055234Y-139895660D02*
X114055234Y-138895660D01*
X113674281Y-138895660D01*
X113579043Y-138943280D01*
X113531424Y-138990899D01*
X113483805Y-139086137D01*
X113483805Y-139228994D01*
X113531424Y-139324232D01*
X113579043Y-139371851D01*
X113674281Y-139419470D01*
X114055234Y-139419470D01*
X113055234Y-139371851D02*
X112721900Y-139371851D01*
X112579043Y-139895660D02*
X113055234Y-139895660D01*
X113055234Y-138895660D01*
X112579043Y-138895660D01*
X111579043Y-139895660D02*
X111912377Y-139419470D01*
X112150472Y-139895660D02*
X112150472Y-138895660D01*
X111769520Y-138895660D01*
X111674281Y-138943280D01*
X111626662Y-138990899D01*
X111579043Y-139086137D01*
X111579043Y-139228994D01*
X111626662Y-139324232D01*
X111674281Y-139371851D01*
X111769520Y-139419470D01*
X112150472Y-139419470D01*
X111150472Y-139895660D02*
X111150472Y-138895660D01*
X110817139Y-139609946D01*
X110483805Y-138895660D01*
X110483805Y-139895660D01*
X110007615Y-139895660D02*
X110007615Y-138895660D01*
X109674281Y-138895660D02*
X109102853Y-138895660D01*
X109388567Y-139895660D02*
X109388567Y-138895660D01*
X108912377Y-138895660D02*
X108340948Y-138895660D01*
X108626662Y-139895660D02*
X108626662Y-138895660D01*
X108007615Y-139371851D02*
X107674281Y-139371851D01*
X107531424Y-139895660D02*
X108007615Y-139895660D01*
X108007615Y-138895660D01*
X107531424Y-138895660D01*
X107102853Y-139895660D02*
X107102853Y-138895660D01*
X106864758Y-138895660D01*
X106721900Y-138943280D01*
X106626662Y-139038518D01*
X106579043Y-139133756D01*
X106531424Y-139324232D01*
X106531424Y-139467089D01*
X106579043Y-139657565D01*
X106626662Y-139752803D01*
X106721900Y-139848041D01*
X106864758Y-139895660D01*
X107102853Y-139895660D01*
M02*
