%TF.GenerationSoftware,KiCad,Pcbnew,(6.0.2)*%
%TF.CreationDate,2022-04-19T06:00:42-06:00*%
%TF.ProjectId,F4Lite_THTV1_1,46344c69-7465-45f5-9448-5456315f312e,rev?*%
%TF.SameCoordinates,Original*%
%TF.FileFunction,Legend,Bot*%
%TF.FilePolarity,Positive*%
%FSLAX46Y46*%
G04 Gerber Fmt 4.6, Leading zero omitted, Abs format (unit mm)*
G04 Created by KiCad (PCBNEW (6.0.2)) date 2022-04-19 06:00:42*
%MOMM*%
%LPD*%
G01*
G04 APERTURE LIST*
%ADD10C,0.150000*%
G04 APERTURE END LIST*
D10*
X151970476Y-146078333D02*
X152018095Y-146030714D01*
X152113333Y-145887857D01*
X152160952Y-145792619D01*
X152208571Y-145649761D01*
X152256190Y-145411666D01*
X152256190Y-145221190D01*
X152208571Y-144983095D01*
X152160952Y-144840238D01*
X152113333Y-144745000D01*
X152018095Y-144602142D01*
X151970476Y-144554523D01*
X151018095Y-145602142D02*
X151065714Y-145649761D01*
X151208571Y-145697380D01*
X151303809Y-145697380D01*
X151446666Y-145649761D01*
X151541904Y-145554523D01*
X151589523Y-145459285D01*
X151637142Y-145268809D01*
X151637142Y-145125952D01*
X151589523Y-144935476D01*
X151541904Y-144840238D01*
X151446666Y-144745000D01*
X151303809Y-144697380D01*
X151208571Y-144697380D01*
X151065714Y-144745000D01*
X151018095Y-144792619D01*
X150018095Y-145602142D02*
X150065714Y-145649761D01*
X150208571Y-145697380D01*
X150303809Y-145697380D01*
X150446666Y-145649761D01*
X150541904Y-145554523D01*
X150589523Y-145459285D01*
X150637142Y-145268809D01*
X150637142Y-145125952D01*
X150589523Y-144935476D01*
X150541904Y-144840238D01*
X150446666Y-144745000D01*
X150303809Y-144697380D01*
X150208571Y-144697380D01*
X150065714Y-144745000D01*
X150018095Y-144792619D01*
X148494285Y-145173571D02*
X148351428Y-145221190D01*
X148303809Y-145268809D01*
X148256190Y-145364047D01*
X148256190Y-145506904D01*
X148303809Y-145602142D01*
X148351428Y-145649761D01*
X148446666Y-145697380D01*
X148827619Y-145697380D01*
X148827619Y-144697380D01*
X148494285Y-144697380D01*
X148399047Y-144745000D01*
X148351428Y-144792619D01*
X148303809Y-144887857D01*
X148303809Y-144983095D01*
X148351428Y-145078333D01*
X148399047Y-145125952D01*
X148494285Y-145173571D01*
X148827619Y-145173571D01*
X147637142Y-145221190D02*
X147637142Y-145697380D01*
X147970476Y-144697380D02*
X147637142Y-145221190D01*
X147303809Y-144697380D01*
X146970476Y-145316428D02*
X146208571Y-145316428D01*
X145732380Y-145697380D02*
X145732380Y-144697380D01*
X145160952Y-145697380D01*
X145160952Y-144697380D01*
X144113333Y-145602142D02*
X144160952Y-145649761D01*
X144303809Y-145697380D01*
X144399047Y-145697380D01*
X144541904Y-145649761D01*
X144637142Y-145554523D01*
X144684761Y-145459285D01*
X144732380Y-145268809D01*
X144732380Y-145125952D01*
X144684761Y-144935476D01*
X144637142Y-144840238D01*
X144541904Y-144745000D01*
X144399047Y-144697380D01*
X144303809Y-144697380D01*
X144160952Y-144745000D01*
X144113333Y-144792619D01*
X143684761Y-145316428D02*
X142922857Y-145316428D01*
X142494285Y-145649761D02*
X142351428Y-145697380D01*
X142113333Y-145697380D01*
X142018095Y-145649761D01*
X141970476Y-145602142D01*
X141922857Y-145506904D01*
X141922857Y-145411666D01*
X141970476Y-145316428D01*
X142018095Y-145268809D01*
X142113333Y-145221190D01*
X142303809Y-145173571D01*
X142399047Y-145125952D01*
X142446666Y-145078333D01*
X142494285Y-144983095D01*
X142494285Y-144887857D01*
X142446666Y-144792619D01*
X142399047Y-144745000D01*
X142303809Y-144697380D01*
X142065714Y-144697380D01*
X141922857Y-144745000D01*
X141541904Y-145411666D02*
X141065714Y-145411666D01*
X141637142Y-145697380D02*
X141303809Y-144697380D01*
X140970476Y-145697380D01*
X139446666Y-145030714D02*
X139446666Y-145697380D01*
X139684761Y-144649761D02*
X139922857Y-145364047D01*
X139303809Y-145364047D01*
X138922857Y-145602142D02*
X138875238Y-145649761D01*
X138922857Y-145697380D01*
X138970476Y-145649761D01*
X138922857Y-145602142D01*
X138922857Y-145697380D01*
X138256190Y-144697380D02*
X138160952Y-144697380D01*
X138065714Y-144745000D01*
X138018095Y-144792619D01*
X137970476Y-144887857D01*
X137922857Y-145078333D01*
X137922857Y-145316428D01*
X137970476Y-145506904D01*
X138018095Y-145602142D01*
X138065714Y-145649761D01*
X138160952Y-145697380D01*
X138256190Y-145697380D01*
X138351428Y-145649761D01*
X138399047Y-145602142D01*
X138446666Y-145506904D01*
X138494285Y-145316428D01*
X138494285Y-145078333D01*
X138446666Y-144887857D01*
X138399047Y-144792619D01*
X138351428Y-144745000D01*
X138256190Y-144697380D01*
X137589523Y-146078333D02*
X137541904Y-146030714D01*
X137446666Y-145887857D01*
X137399047Y-145792619D01*
X137351428Y-145649761D01*
X137303809Y-145411666D01*
X137303809Y-145221190D01*
X137351428Y-144983095D01*
X137399047Y-144840238D01*
X137446666Y-144745000D01*
X137541904Y-144602142D01*
X137589523Y-144554523D01*
X152518095Y-147259761D02*
X152375238Y-147307380D01*
X152137142Y-147307380D01*
X152041904Y-147259761D01*
X151994285Y-147212142D01*
X151946666Y-147116904D01*
X151946666Y-147021666D01*
X151994285Y-146926428D01*
X152041904Y-146878809D01*
X152137142Y-146831190D01*
X152327619Y-146783571D01*
X152422857Y-146735952D01*
X152470476Y-146688333D01*
X152518095Y-146593095D01*
X152518095Y-146497857D01*
X152470476Y-146402619D01*
X152422857Y-146355000D01*
X152327619Y-146307380D01*
X152089523Y-146307380D01*
X151946666Y-146355000D01*
X151565714Y-147021666D02*
X151089523Y-147021666D01*
X151660952Y-147307380D02*
X151327619Y-146307380D01*
X150994285Y-147307380D01*
X150184761Y-147307380D02*
X150660952Y-147307380D01*
X150660952Y-146307380D01*
X149851428Y-146783571D02*
X149518095Y-146783571D01*
X149375238Y-147307380D02*
X149851428Y-147307380D01*
X149851428Y-146307380D01*
X149375238Y-146307380D01*
X148184761Y-147307380D02*
X148184761Y-146307380D01*
X147613333Y-147307380D01*
X147613333Y-146307380D01*
X146946666Y-146307380D02*
X146756190Y-146307380D01*
X146660952Y-146355000D01*
X146565714Y-146450238D01*
X146518095Y-146640714D01*
X146518095Y-146974047D01*
X146565714Y-147164523D01*
X146660952Y-147259761D01*
X146756190Y-147307380D01*
X146946666Y-147307380D01*
X147041904Y-147259761D01*
X147137142Y-147164523D01*
X147184761Y-146974047D01*
X147184761Y-146640714D01*
X147137142Y-146450238D01*
X147041904Y-146355000D01*
X146946666Y-146307380D01*
X146232380Y-146307380D02*
X145660952Y-146307380D01*
X145946666Y-147307380D02*
X145946666Y-146307380D01*
X144565714Y-147307380D02*
X144565714Y-146307380D01*
X144184761Y-146307380D01*
X144089523Y-146355000D01*
X144041904Y-146402619D01*
X143994285Y-146497857D01*
X143994285Y-146640714D01*
X144041904Y-146735952D01*
X144089523Y-146783571D01*
X144184761Y-146831190D01*
X144565714Y-146831190D01*
X143565714Y-146783571D02*
X143232380Y-146783571D01*
X143089523Y-147307380D02*
X143565714Y-147307380D01*
X143565714Y-146307380D01*
X143089523Y-146307380D01*
X142089523Y-147307380D02*
X142422857Y-146831190D01*
X142660952Y-147307380D02*
X142660952Y-146307380D01*
X142280000Y-146307380D01*
X142184761Y-146355000D01*
X142137142Y-146402619D01*
X142089523Y-146497857D01*
X142089523Y-146640714D01*
X142137142Y-146735952D01*
X142184761Y-146783571D01*
X142280000Y-146831190D01*
X142660952Y-146831190D01*
X141660952Y-147307380D02*
X141660952Y-146307380D01*
X141327619Y-147021666D01*
X140994285Y-146307380D01*
X140994285Y-147307380D01*
X140518095Y-147307380D02*
X140518095Y-146307380D01*
X140184761Y-146307380D02*
X139613333Y-146307380D01*
X139899047Y-147307380D02*
X139899047Y-146307380D01*
X139422857Y-146307380D02*
X138851428Y-146307380D01*
X139137142Y-147307380D02*
X139137142Y-146307380D01*
X138518095Y-146783571D02*
X138184761Y-146783571D01*
X138041904Y-147307380D02*
X138518095Y-147307380D01*
X138518095Y-146307380D01*
X138041904Y-146307380D01*
X137613333Y-147307380D02*
X137613333Y-146307380D01*
X137375238Y-146307380D01*
X137232380Y-146355000D01*
X137137142Y-146450238D01*
X137089523Y-146545476D01*
X137041904Y-146735952D01*
X137041904Y-146878809D01*
X137089523Y-147069285D01*
X137137142Y-147164523D01*
X137232380Y-147259761D01*
X137375238Y-147307380D01*
X137613333Y-147307380D01*
M02*
