M48
; DRILL file {KiCad (6.0.2)} date Tue Apr 19 06:00:44 2022
; FORMAT={-:-/ absolute / inch / decimal}
; #@! TF.CreationDate,2022-04-19T06:00:44-06:00
; #@! TF.GenerationSoftware,Kicad,Pcbnew,(6.0.2)
; #@! TF.FileFunction,Plated,1,2,PTH
FMAT,2
INCH
; #@! TA.AperFunction,Plated,PTH,ViaDrill
T1C0.0157
; #@! TA.AperFunction,Plated,PTH,ComponentDrill
T2C0.0276
; #@! TA.AperFunction,Plated,PTH,ComponentDrill
T3C0.0280
; #@! TA.AperFunction,Plated,PTH,ComponentDrill
T4C0.0300
; #@! TA.AperFunction,Plated,PTH,ComponentDrill
T5C0.0315
; #@! TA.AperFunction,Plated,PTH,ComponentDrill
T6C0.0354
; #@! TA.AperFunction,Plated,PTH,ComponentDrill
T7C0.0394
; #@! TA.AperFunction,Plated,PTH,ComponentDrill
T8C0.0433
%
G90
G05
T1
X4.2143Y-2.859
X4.2143Y-2.9577
X4.2143Y-3.0607
X4.2143Y-3.16
X4.2143Y-3.2602
X4.2143Y-3.3595
X4.2143Y-3.4537
X4.2143Y-3.5568
X4.2143Y-3.6606
X4.2143Y-3.7562
X4.2143Y-3.8608
X4.2143Y-4.1597
X4.2143Y-4.2605
X4.2143Y-4.3591
X4.2143Y-4.4608
X4.2143Y-4.5556
X4.2143Y-4.658
X4.2143Y-4.7588
X4.2143Y-4.8612
X4.2143Y-4.9561
X4.2143Y-5.0562
X4.2143Y-5.1555
X4.2143Y-5.2671
X4.3361Y-3.987
X4.3361Y-4.0265
X4.4Y-3.7457
X4.4075Y-3.288
X4.4105Y-3.391
X4.4609Y-4.9007
X4.466Y-5.2074
X4.4666Y-5.0076
X4.4676Y-5.108
X4.4679Y-4.2492
X4.4684Y-4.4074
X4.4689Y-4.5968
X4.4732Y-4.463
X4.5087Y-5.0378
X4.5087Y-5.1085
X4.5087Y-5.1896
X4.5358Y-5.0002
X4.6143Y-4.2336
X4.6148Y-4.5957
X4.6152Y-3.8949
X4.7406Y-3.4035
X4.7406Y-3.6088
X4.7425Y-3.304
X4.7487Y-4.9506
X4.7487Y-5.1503
X4.7491Y-5.0515
X4.7495Y-4.853
X4.7516Y-4.7225
X4.7516Y-5.2542
X4.752Y-4.5558
X4.7546Y-3.7568
X4.7573Y-3.8508
X4.7654Y-4.0078
X4.8004Y-3.2935
X4.8368Y-4.3385
X4.8505Y-3.2655
X4.855Y-3.1053
X4.8695Y-3.3795
X4.8739Y-4.8064
X4.9154Y-3.3475
X4.937Y-4.2776
X4.9418Y-3.4635
X4.975Y-5.2529
X4.9751Y-5.1961
X4.9938Y-3.4361
X4.9992Y-3.5772
X5.0521Y-3.5571
X5.0595Y-3.2331
X5.0632Y-5.1037
X5.0642Y-5.1607
X5.08Y-4.2491
X5.095Y-4.097
X5.1022Y-4.7034
X5.1022Y-4.8236
X5.1203Y-3.9863
X5.1265Y-4.9654
X5.1383Y-4.579
X5.1401Y-3.4524
X5.1407Y-4.8995
X5.153Y-3.8003
X5.1665Y-3.1867
X5.2973Y-3.4099
X5.2982Y-4.6529
X5.3034Y-3.3633
X5.3034Y-3.4566
X5.3196Y-4.2469
X5.3399Y-4.3887
X5.3471Y-3.1086
X5.3856Y-3.1516
X5.4035Y-3.6382
X5.4039Y-4.8321
X5.4296Y-3.4234
X5.4572Y-3.5951
X5.4574Y-4.1011
X5.4621Y-3.3768
X5.4668Y-3.9349
X5.4719Y-4.3887
X5.4736Y-3.4513
X5.5014Y-4.6529
X5.6046Y-4.2442
X5.6991Y-4.0821
X5.7464Y-3.3758
X5.7667Y-4.9978
X5.8185Y-2.7635
X5.8193Y-2.8795
X5.8288Y-3.5636
X5.8349Y-4.3551
X5.8384Y-4.2528
X5.8404Y-5.1469
X5.8406Y-5.2563
X5.8412Y-5.3504
X5.9225Y-2.8053
X5.9655Y-4.9017
X5.9795Y-4.2038
X5.9849Y-5.1258
X5.9918Y-5.2517
X6.0202Y-2.7627
X6.0257Y-2.8787
X6.0814Y-4.7375
X6.0839Y-4.8683
X6.1168Y-4.2931
X6.1538Y-4.2699
X6.1632Y-4.6641
X6.1754Y-4.176
X6.1844Y-4.1217
X6.2005Y-4.5219
X6.2077Y-4.2648
X6.2575Y-4.1371
X6.2871Y-4.3076
T2
X4.9628Y-2.9639
X5.1628Y-2.9639
T3
X6.2494Y-4.7936
X6.2944Y-4.5936
T4
X4.8908Y-5.6083
X4.8908Y-5.7068
X4.8908Y-5.8052
X4.8908Y-5.9036
T5
X4.6828Y-3.2564
X4.6828Y-3.3564
X4.6828Y-3.4564
X4.6828Y-3.5564
X4.6828Y-3.6564
X4.6828Y-3.7564
X4.6828Y-3.8564
X4.6828Y-3.9564
X4.6828Y-4.0564
X4.6828Y-4.1564
X4.6828Y-4.3064
X4.6828Y-4.4064
X4.6828Y-4.5064
X4.6828Y-4.6064
X4.6828Y-4.7064
X4.6828Y-4.8064
X4.6828Y-4.9064
X4.6828Y-5.0064
X4.6828Y-5.1064
X4.6828Y-5.2064
X4.7678Y-2.8114
X5.1678Y-2.8114
X6.2353Y-3.2462
X6.2353Y-3.5462
T6
X5.216Y-3.2507
X5.216Y-3.3507
X5.216Y-3.4507
X5.216Y-3.5507
X5.216Y-3.6507
X5.216Y-3.7507
X5.216Y-3.8507
X5.216Y-3.9507
X5.216Y-4.0507
X5.216Y-4.1507
X5.216Y-4.2507
X5.216Y-4.3507
X5.216Y-4.4507
X5.216Y-4.5507
X5.216Y-4.6507
X5.216Y-4.7507
X5.216Y-4.8507
X5.216Y-4.9507
X5.216Y-5.0507
X5.216Y-5.1507
X5.216Y-5.2507
X5.216Y-5.3507
X5.916Y-3.2507
X5.916Y-3.3507
X5.916Y-3.4507
X5.916Y-3.5507
X5.916Y-3.6507
X5.916Y-3.7507
X5.916Y-3.8507
X5.916Y-3.9507
X5.916Y-4.0507
X5.916Y-4.1507
X5.916Y-4.2507
X5.916Y-4.3507
X5.916Y-4.4507
X5.916Y-4.5507
X5.916Y-4.6507
X5.916Y-4.7507
X5.916Y-4.8507
X5.916Y-4.9507
X5.916Y-5.0507
X5.916Y-5.1507
X5.916Y-5.2507
X5.916Y-5.3507
X6.1191Y-5.1588
X6.1191Y-5.5588
X6.263Y-5.1573
X6.263Y-5.5573
T7
X4.8068Y-5.3941
X4.9068Y-5.3941
X6.2361Y-3.7067
X6.2361Y-3.8067
T8
X5.2753Y-2.8264
X5.2753Y-2.9264
X5.2753Y-3.0264
T0
M30
