%TF.GenerationSoftware,KiCad,Pcbnew,(6.0.2)*%
%TF.CreationDate,2022-04-19T06:00:42-06:00*%
%TF.ProjectId,F4Lite_THTV1_1,46344c69-7465-45f5-9448-5456315f312e,rev?*%
%TF.SameCoordinates,Original*%
%TF.FileFunction,Paste,Top*%
%TF.FilePolarity,Positive*%
%FSLAX46Y46*%
G04 Gerber Fmt 4.6, Leading zero omitted, Abs format (unit mm)*
G04 Created by KiCad (PCBNEW (6.0.2)) date 2022-04-19 06:00:42*
%MOMM*%
%LPD*%
G01*
G04 APERTURE LIST*
G04 Aperture macros list*
%AMRoundRect*
0 Rectangle with rounded corners*
0 $1 Rounding radius*
0 $2 $3 $4 $5 $6 $7 $8 $9 X,Y pos of 4 corners*
0 Add a 4 corners polygon primitive as box body*
4,1,4,$2,$3,$4,$5,$6,$7,$8,$9,$2,$3,0*
0 Add four circle primitives for the rounded corners*
1,1,$1+$1,$2,$3*
1,1,$1+$1,$4,$5*
1,1,$1+$1,$6,$7*
1,1,$1+$1,$8,$9*
0 Add four rect primitives between the rounded corners*
20,1,$1+$1,$2,$3,$4,$5,0*
20,1,$1+$1,$4,$5,$6,$7,0*
20,1,$1+$1,$6,$7,$8,$9,0*
20,1,$1+$1,$8,$9,$2,$3,0*%
G04 Aperture macros list end*
%ADD10R,3.800000X0.750000*%
%ADD11RoundRect,0.250001X-1.074999X0.462499X-1.074999X-0.462499X1.074999X-0.462499X1.074999X0.462499X0*%
%ADD12R,0.550000X2.910000*%
%ADD13R,1.000000X0.500000*%
%ADD14R,0.780000X0.720000*%
%ADD15R,1.200000X1.050000*%
%ADD16R,2.390000X1.050000*%
%ADD17R,1.080000X1.050000*%
%ADD18RoundRect,0.250000X-0.450000X0.325000X-0.450000X-0.325000X0.450000X-0.325000X0.450000X0.325000X0*%
%ADD19RoundRect,0.250000X-0.088388X0.548008X-0.548008X0.088388X0.088388X-0.548008X0.548008X-0.088388X0*%
%ADD20RoundRect,0.250000X0.325000X0.450000X-0.325000X0.450000X-0.325000X-0.450000X0.325000X-0.450000X0*%
G04 APERTURE END LIST*
D10*
%TO.C,J4*%
X107043220Y-132267960D03*
X107043220Y-129727960D03*
X107043220Y-127187960D03*
X107043220Y-124647960D03*
X107043220Y-122107960D03*
X107043220Y-119567960D03*
X107043220Y-117027960D03*
X107043220Y-114487960D03*
X107043220Y-111947960D03*
X107043220Y-109407960D03*
X107043220Y-106867960D03*
X107043220Y-104327960D03*
X107043220Y-101787960D03*
X107043220Y-99247960D03*
X107043220Y-96707960D03*
X107043220Y-94167960D03*
X107043220Y-91627960D03*
X107043220Y-89087960D03*
X107043220Y-86547960D03*
X107043220Y-84007960D03*
X107043220Y-81467960D03*
X107043220Y-78927960D03*
X107043220Y-76387960D03*
X107043220Y-73847960D03*
X107043220Y-71307960D03*
%TD*%
D11*
%TO.C,C2*%
X128511300Y-77546200D03*
X128511300Y-80521200D03*
%TD*%
%TO.C,C4*%
X122895360Y-105628440D03*
X122895360Y-108603440D03*
%TD*%
D12*
%TO.C,J5*%
X153804840Y-105419080D03*
X153804840Y-109609080D03*
D13*
X161039840Y-103914080D03*
X161039840Y-105014080D03*
X161039840Y-106114080D03*
X161039840Y-107214080D03*
X161039840Y-108314080D03*
X161039840Y-109414080D03*
X161039840Y-110514080D03*
X161039840Y-111614080D03*
D14*
X158359840Y-102154080D03*
D15*
X155049840Y-112789080D03*
D16*
X158234840Y-112789080D03*
D15*
X154479840Y-102144080D03*
D17*
X157089840Y-102154080D03*
%TD*%
D11*
%TO.C,C1*%
X123324620Y-74213060D03*
X123324620Y-77188060D03*
%TD*%
D18*
%TO.C,C5*%
X154477720Y-115956300D03*
X154477720Y-118006300D03*
%TD*%
D19*
%TO.C,C7*%
X112517804Y-133697096D03*
X111068236Y-135146664D03*
%TD*%
D20*
%TO.C,C6*%
X159080200Y-126392940D03*
X157030200Y-126392940D03*
%TD*%
D18*
%TO.C,C3*%
X131229100Y-77518260D03*
X131229100Y-79568260D03*
%TD*%
M02*
