%TF.GenerationSoftware,KiCad,Pcbnew,(6.0.2)*%
%TF.CreationDate,2022-04-19T06:00:42-06:00*%
%TF.ProjectId,F4Lite_THTV1_1,46344c69-7465-45f5-9448-5456315f312e,rev?*%
%TF.SameCoordinates,Original*%
%TF.FileFunction,Soldermask,Top*%
%TF.FilePolarity,Negative*%
%FSLAX46Y46*%
G04 Gerber Fmt 4.6, Leading zero omitted, Abs format (unit mm)*
G04 Created by KiCad (PCBNEW (6.0.2)) date 2022-04-19 06:00:42*
%MOMM*%
%LPD*%
G01*
G04 APERTURE LIST*
G04 Aperture macros list*
%AMRoundRect*
0 Rectangle with rounded corners*
0 $1 Rounding radius*
0 $2 $3 $4 $5 $6 $7 $8 $9 X,Y pos of 4 corners*
0 Add a 4 corners polygon primitive as box body*
4,1,4,$2,$3,$4,$5,$6,$7,$8,$9,$2,$3,0*
0 Add four circle primitives for the rounded corners*
1,1,$1+$1,$2,$3*
1,1,$1+$1,$4,$5*
1,1,$1+$1,$6,$7*
1,1,$1+$1,$8,$9*
0 Add four rect primitives between the rounded corners*
20,1,$1+$1,$2,$3,$4,$5,0*
20,1,$1+$1,$4,$5,$6,$7,0*
20,1,$1+$1,$6,$7,$8,$9,0*
20,1,$1+$1,$8,$9,$2,$3,0*%
G04 Aperture macros list end*
%ADD10C,0.100000*%
%ADD11R,3.800000X0.750000*%
%ADD12C,1.524000*%
%ADD13C,3.200000*%
%ADD14RoundRect,0.250001X-1.074999X0.462499X-1.074999X-0.462499X1.074999X-0.462499X1.074999X0.462499X0*%
%ADD15R,0.550000X2.910000*%
%ADD16R,1.000000X0.500000*%
%ADD17R,0.780000X0.720000*%
%ADD18R,1.200000X1.050000*%
%ADD19R,2.390000X1.050000*%
%ADD20R,1.080000X1.050000*%
%ADD21C,1.270000*%
%ADD22C,1.600000*%
%ADD23O,1.600000X1.600000*%
%ADD24C,1.400000*%
%ADD25O,1.400000X1.400000*%
%ADD26R,1.600000X1.600000*%
%ADD27O,3.500000X3.500000*%
%ADD28R,2.000000X1.905000*%
%ADD29O,2.000000X1.905000*%
%ADD30R,1.700000X1.700000*%
%ADD31O,1.700000X1.700000*%
%ADD32R,1.800000X1.800000*%
%ADD33O,1.800000X1.800000*%
%ADD34RoundRect,0.250000X-0.450000X0.325000X-0.450000X-0.325000X0.450000X-0.325000X0.450000X0.325000X0*%
%ADD35RoundRect,0.412500X0.412500X0.412500X-0.412500X0.412500X-0.412500X-0.412500X0.412500X-0.412500X0*%
%ADD36C,1.650000*%
%ADD37RoundRect,0.250000X-0.088388X0.548008X-0.548008X0.088388X0.088388X-0.548008X0.548008X-0.088388X0*%
%ADD38RoundRect,0.250000X0.325000X0.450000X-0.325000X0.450000X-0.325000X-0.450000X0.325000X-0.450000X0*%
G04 APERTURE END LIST*
D10*
X153614120Y-79347060D02*
X147264120Y-79347060D01*
X147264120Y-79347060D02*
X147264120Y-69631560D01*
X147264120Y-69631560D02*
X153614120Y-69631560D01*
X153614120Y-69631560D02*
X153614120Y-79347060D01*
G36*
X153614120Y-79347060D02*
G01*
X147264120Y-79347060D01*
X147264120Y-69631560D01*
X153614120Y-69631560D01*
X153614120Y-79347060D01*
G37*
X153614120Y-79347060D02*
X147264120Y-79347060D01*
X147264120Y-69631560D01*
X153614120Y-69631560D01*
X153614120Y-79347060D01*
D11*
%TO.C,J4*%
X107043220Y-132267960D03*
X107043220Y-129727960D03*
X107043220Y-127187960D03*
X107043220Y-124647960D03*
X107043220Y-122107960D03*
X107043220Y-119567960D03*
X107043220Y-117027960D03*
X107043220Y-114487960D03*
X107043220Y-111947960D03*
X107043220Y-109407960D03*
X107043220Y-106867960D03*
X107043220Y-104327960D03*
X107043220Y-101787960D03*
X107043220Y-99247960D03*
X107043220Y-96707960D03*
X107043220Y-94167960D03*
X107043220Y-91627960D03*
X107043220Y-89087960D03*
X107043220Y-86547960D03*
X107043220Y-84007960D03*
X107043220Y-81467960D03*
X107043220Y-78927960D03*
X107043220Y-76387960D03*
X107043220Y-73847960D03*
X107043220Y-71307960D03*
%TD*%
D12*
%TO.C,J2*%
X124227580Y-149952080D03*
X124227580Y-147452080D03*
X124227580Y-144952080D03*
X124227580Y-142452080D03*
%TD*%
D13*
%TO.C,REF\u002A\u002A*%
X131988560Y-145448020D03*
%TD*%
%TO.C,REF\u002A\u002A*%
X118054120Y-76553060D03*
%TD*%
D14*
%TO.C,C2*%
X128511300Y-77546200D03*
X128511300Y-80521200D03*
%TD*%
%TO.C,C4*%
X122895360Y-105628440D03*
X122895360Y-108603440D03*
%TD*%
D15*
%TO.C,J5*%
X153804840Y-105419080D03*
X153804840Y-109609080D03*
D16*
X161039840Y-103914080D03*
X161039840Y-105014080D03*
X161039840Y-106114080D03*
X161039840Y-107214080D03*
X161039840Y-108314080D03*
X161039840Y-109414080D03*
X161039840Y-110514080D03*
X161039840Y-111614080D03*
D17*
X158359840Y-102154080D03*
D18*
X155049840Y-112789080D03*
D19*
X158234840Y-112789080D03*
D18*
X154479840Y-102144080D03*
D20*
X157089840Y-102154080D03*
%TD*%
D21*
%TO.C,F1*%
X158734760Y-121757440D03*
X159877760Y-116677440D03*
%TD*%
D14*
%TO.C,C1*%
X123324620Y-74213060D03*
X123324620Y-77188060D03*
%TD*%
D22*
%TO.C,R1*%
X131262120Y-71409560D03*
D23*
X121102120Y-71409560D03*
%TD*%
D24*
%TO.C,R2*%
X131135120Y-75283060D03*
D25*
X126055120Y-75283060D03*
%TD*%
D26*
%TO.C,RN1*%
X118943120Y-109382560D03*
D23*
X118943120Y-111922560D03*
X118943120Y-114462560D03*
X118943120Y-117002560D03*
X118943120Y-119542560D03*
X118943120Y-122082560D03*
X118943120Y-124622560D03*
X118943120Y-127162560D03*
X118943120Y-129702560D03*
X118943120Y-132242560D03*
%TD*%
D26*
%TO.C,RN2*%
X118943120Y-105572560D03*
D23*
X118943120Y-103032560D03*
X118943120Y-100492560D03*
X118943120Y-97952560D03*
X118943120Y-95412560D03*
X118943120Y-92872560D03*
X118943120Y-90332560D03*
X118943120Y-87792560D03*
X118943120Y-85252560D03*
X118943120Y-82712560D03*
%TD*%
D27*
%TO.C,U1*%
X150652620Y-74330560D03*
D28*
X133992620Y-71790560D03*
D29*
X133992620Y-74330560D03*
X133992620Y-76870560D03*
%TD*%
D30*
%TO.C,J1*%
X124632720Y-137010140D03*
D31*
X122092720Y-137010140D03*
%TD*%
D32*
%TO.C,D1*%
X159080200Y-130995420D03*
D33*
X159080200Y-141155420D03*
%TD*%
D32*
%TO.C,D2*%
X155425140Y-131033520D03*
D33*
X155425140Y-141193520D03*
%TD*%
D34*
%TO.C,C5*%
X154477720Y-115956300D03*
X154477720Y-118006300D03*
%TD*%
D30*
%TO.C,J3*%
X158396940Y-96690180D03*
D31*
X158396940Y-94150180D03*
%TD*%
D22*
%TO.C,R3*%
X158376620Y-82453480D03*
D23*
X158376620Y-90073480D03*
%TD*%
D35*
%TO.C,U2*%
X150266400Y-135907780D03*
D36*
X150266400Y-133367780D03*
X150266400Y-130827780D03*
X150266400Y-128287780D03*
X150266400Y-125747780D03*
X150266400Y-123207780D03*
X150266400Y-120667780D03*
X150266400Y-118127780D03*
X150266400Y-115587780D03*
X150266400Y-113047780D03*
X150266400Y-110507780D03*
X150266400Y-107967780D03*
X150266400Y-105427780D03*
X150266400Y-102887780D03*
X150266400Y-100347780D03*
X150266400Y-97807780D03*
X150266400Y-95267780D03*
X150266400Y-92727780D03*
X150266400Y-90187780D03*
X150266400Y-87647780D03*
X150266400Y-85107780D03*
X150266400Y-82567780D03*
X132486400Y-82567780D03*
X132486400Y-85107780D03*
X132486400Y-87647780D03*
X132486400Y-90187780D03*
X132486400Y-92727780D03*
X132486400Y-95267780D03*
X132486400Y-97807780D03*
X132486400Y-100347780D03*
X132486400Y-102887780D03*
X132486400Y-105427780D03*
X132486400Y-107967780D03*
X132486400Y-110507780D03*
X132486400Y-113047780D03*
X132486400Y-115587780D03*
X132486400Y-118127780D03*
X132486400Y-120667780D03*
X132486400Y-123207780D03*
X132486400Y-125747780D03*
X132486400Y-128287780D03*
X132486400Y-130827780D03*
X132486400Y-133367780D03*
X132486400Y-135907780D03*
%TD*%
D37*
%TO.C,C7*%
X112517804Y-133697096D03*
X111068236Y-135146664D03*
%TD*%
D38*
%TO.C,C6*%
X159080200Y-126392940D03*
X157030200Y-126392940D03*
%TD*%
D34*
%TO.C,C3*%
X131229100Y-77518260D03*
X131229100Y-79568260D03*
%TD*%
M02*
