%TF.GenerationSoftware,KiCad,Pcbnew,(6.0.2)*%
%TF.CreationDate,2022-04-19T06:00:42-06:00*%
%TF.ProjectId,F4Lite_THTV1_1,46344c69-7465-45f5-9448-5456315f312e,rev?*%
%TF.SameCoordinates,Original*%
%TF.FileFunction,Legend,Top*%
%TF.FilePolarity,Positive*%
%FSLAX46Y46*%
G04 Gerber Fmt 4.6, Leading zero omitted, Abs format (unit mm)*
G04 Created by KiCad (PCBNEW (6.0.2)) date 2022-04-19 06:00:42*
%MOMM*%
%LPD*%
G01*
G04 APERTURE LIST*
%ADD10C,0.650000*%
%ADD11C,0.150000*%
%ADD12C,0.120000*%
G04 APERTURE END LIST*
D10*
X115181380Y-105468420D02*
G75*
G03*
X115181380Y-105468420I-317500J0D01*
G01*
X115181380Y-109214920D02*
G75*
G03*
X115181380Y-109214920I-317500J0D01*
G01*
D11*
X153636645Y-97071922D02*
X153208074Y-97071922D01*
X153208074Y-96171922D01*
X153936645Y-96600494D02*
X154236645Y-96600494D01*
X154365217Y-97071922D02*
X153936645Y-97071922D01*
X153936645Y-96171922D01*
X154365217Y-96171922D01*
X154750931Y-97071922D02*
X154750931Y-96171922D01*
X154965217Y-96171922D01*
X155093788Y-96214780D01*
X155179502Y-96300494D01*
X155222360Y-96386208D01*
X155265217Y-96557637D01*
X155265217Y-96686208D01*
X155222360Y-96857637D01*
X155179502Y-96943351D01*
X155093788Y-97029065D01*
X154965217Y-97071922D01*
X154750931Y-97071922D01*
X155650931Y-96729065D02*
X156336645Y-96729065D01*
X114811904Y-124854761D02*
X114011904Y-124854761D01*
X114811904Y-124511904D02*
X114392857Y-124511904D01*
X114316666Y-124550000D01*
X114278571Y-124626190D01*
X114278571Y-124740476D01*
X114316666Y-124816666D01*
X114354761Y-124854761D01*
X114278571Y-124245238D02*
X114278571Y-123940476D01*
X114011904Y-124130952D02*
X114697619Y-124130952D01*
X114773809Y-124092857D01*
X114811904Y-124016666D01*
X114811904Y-123940476D01*
X114278571Y-123788095D02*
X114278571Y-123483333D01*
X114011904Y-123673809D02*
X114697619Y-123673809D01*
X114773809Y-123635714D01*
X114811904Y-123559523D01*
X114811904Y-123483333D01*
X114278571Y-123216666D02*
X115078571Y-123216666D01*
X114316666Y-123216666D02*
X114278571Y-123140476D01*
X114278571Y-122988095D01*
X114316666Y-122911904D01*
X114354761Y-122873809D01*
X114430952Y-122835714D01*
X114659523Y-122835714D01*
X114735714Y-122873809D01*
X114773809Y-122911904D01*
X114811904Y-122988095D01*
X114811904Y-123140476D01*
X114773809Y-123216666D01*
X114773809Y-122530952D02*
X114811904Y-122454761D01*
X114811904Y-122302380D01*
X114773809Y-122226190D01*
X114697619Y-122188095D01*
X114659523Y-122188095D01*
X114583333Y-122226190D01*
X114545238Y-122302380D01*
X114545238Y-122416666D01*
X114507142Y-122492857D01*
X114430952Y-122530952D01*
X114392857Y-122530952D01*
X114316666Y-122492857D01*
X114278571Y-122416666D01*
X114278571Y-122302380D01*
X114316666Y-122226190D01*
X114735714Y-121845238D02*
X114773809Y-121807142D01*
X114811904Y-121845238D01*
X114773809Y-121883333D01*
X114735714Y-121845238D01*
X114811904Y-121845238D01*
X114316666Y-121845238D02*
X114354761Y-121807142D01*
X114392857Y-121845238D01*
X114354761Y-121883333D01*
X114316666Y-121845238D01*
X114392857Y-121845238D01*
X113973809Y-120892857D02*
X115002380Y-121578571D01*
X113973809Y-120054761D02*
X115002380Y-120740476D01*
X114811904Y-119445238D02*
X114392857Y-119445238D01*
X114316666Y-119483333D01*
X114278571Y-119559523D01*
X114278571Y-119711904D01*
X114316666Y-119788095D01*
X114773809Y-119445238D02*
X114811904Y-119521428D01*
X114811904Y-119711904D01*
X114773809Y-119788095D01*
X114697619Y-119826190D01*
X114621428Y-119826190D01*
X114545238Y-119788095D01*
X114507142Y-119711904D01*
X114507142Y-119521428D01*
X114469047Y-119445238D01*
X114278571Y-119064285D02*
X114811904Y-119064285D01*
X114354761Y-119064285D02*
X114316666Y-119026190D01*
X114278571Y-118950000D01*
X114278571Y-118835714D01*
X114316666Y-118759523D01*
X114392857Y-118721428D01*
X114811904Y-118721428D01*
X114811904Y-117997619D02*
X114011904Y-117997619D01*
X114773809Y-117997619D02*
X114811904Y-118073809D01*
X114811904Y-118226190D01*
X114773809Y-118302380D01*
X114735714Y-118340476D01*
X114659523Y-118378571D01*
X114430952Y-118378571D01*
X114354761Y-118340476D01*
X114316666Y-118302380D01*
X114278571Y-118226190D01*
X114278571Y-118073809D01*
X114316666Y-117997619D01*
X114811904Y-117616666D02*
X114278571Y-117616666D01*
X114430952Y-117616666D02*
X114354761Y-117578571D01*
X114316666Y-117540476D01*
X114278571Y-117464285D01*
X114278571Y-117388095D01*
X114811904Y-117007142D02*
X114773809Y-117083333D01*
X114735714Y-117121428D01*
X114659523Y-117159523D01*
X114430952Y-117159523D01*
X114354761Y-117121428D01*
X114316666Y-117083333D01*
X114278571Y-117007142D01*
X114278571Y-116892857D01*
X114316666Y-116816666D01*
X114354761Y-116778571D01*
X114430952Y-116740476D01*
X114659523Y-116740476D01*
X114735714Y-116778571D01*
X114773809Y-116816666D01*
X114811904Y-116892857D01*
X114811904Y-117007142D01*
X114811904Y-116054761D02*
X114011904Y-116054761D01*
X114773809Y-116054761D02*
X114811904Y-116130952D01*
X114811904Y-116283333D01*
X114773809Y-116359523D01*
X114735714Y-116397619D01*
X114659523Y-116435714D01*
X114430952Y-116435714D01*
X114354761Y-116397619D01*
X114316666Y-116359523D01*
X114278571Y-116283333D01*
X114278571Y-116130952D01*
X114316666Y-116054761D01*
X114811904Y-115330952D02*
X114392857Y-115330952D01*
X114316666Y-115369047D01*
X114278571Y-115445238D01*
X114278571Y-115597619D01*
X114316666Y-115673809D01*
X114773809Y-115330952D02*
X114811904Y-115407142D01*
X114811904Y-115597619D01*
X114773809Y-115673809D01*
X114697619Y-115711904D01*
X114621428Y-115711904D01*
X114545238Y-115673809D01*
X114507142Y-115597619D01*
X114507142Y-115407142D01*
X114469047Y-115330952D01*
X114735714Y-114950000D02*
X114773809Y-114911904D01*
X114811904Y-114950000D01*
X114773809Y-114988095D01*
X114735714Y-114950000D01*
X114811904Y-114950000D01*
X114278571Y-114645238D02*
X114811904Y-114492857D01*
X114430952Y-114340476D01*
X114811904Y-114188095D01*
X114278571Y-114035714D01*
X114811904Y-113616666D02*
X114773809Y-113692857D01*
X114735714Y-113730952D01*
X114659523Y-113769047D01*
X114430952Y-113769047D01*
X114354761Y-113730952D01*
X114316666Y-113692857D01*
X114278571Y-113616666D01*
X114278571Y-113502380D01*
X114316666Y-113426190D01*
X114354761Y-113388095D01*
X114430952Y-113350000D01*
X114659523Y-113350000D01*
X114735714Y-113388095D01*
X114773809Y-113426190D01*
X114811904Y-113502380D01*
X114811904Y-113616666D01*
X114811904Y-113007142D02*
X114278571Y-113007142D01*
X114430952Y-113007142D02*
X114354761Y-112969047D01*
X114316666Y-112930952D01*
X114278571Y-112854761D01*
X114278571Y-112778571D01*
X114811904Y-112511904D02*
X114011904Y-112511904D01*
X114507142Y-112435714D02*
X114811904Y-112207142D01*
X114278571Y-112207142D02*
X114583333Y-112511904D01*
X153636645Y-94468422D02*
X153208074Y-94468422D01*
X153208074Y-93568422D01*
X153936645Y-93996994D02*
X154236645Y-93996994D01*
X154365217Y-94468422D02*
X153936645Y-94468422D01*
X153936645Y-93568422D01*
X154365217Y-93568422D01*
X154750931Y-94468422D02*
X154750931Y-93568422D01*
X154965217Y-93568422D01*
X155093788Y-93611280D01*
X155179502Y-93696994D01*
X155222360Y-93782708D01*
X155265217Y-93954137D01*
X155265217Y-94082708D01*
X155222360Y-94254137D01*
X155179502Y-94339851D01*
X155093788Y-94425565D01*
X154965217Y-94468422D01*
X154750931Y-94468422D01*
X155650931Y-94125565D02*
X156336645Y-94125565D01*
X155993788Y-94468422D02*
X155993788Y-93782708D01*
X119926860Y-139182860D02*
X119926860Y-139992384D01*
X119974480Y-140087622D01*
X120022099Y-140135241D01*
X120117337Y-140182860D01*
X120307813Y-140182860D01*
X120403051Y-140135241D01*
X120450670Y-140087622D01*
X120498289Y-139992384D01*
X120498289Y-139182860D01*
X120926860Y-140135241D02*
X121069718Y-140182860D01*
X121307813Y-140182860D01*
X121403051Y-140135241D01*
X121450670Y-140087622D01*
X121498289Y-139992384D01*
X121498289Y-139897146D01*
X121450670Y-139801908D01*
X121403051Y-139754289D01*
X121307813Y-139706670D01*
X121117337Y-139659051D01*
X121022099Y-139611432D01*
X120974480Y-139563813D01*
X120926860Y-139468575D01*
X120926860Y-139373337D01*
X120974480Y-139278099D01*
X121022099Y-139230480D01*
X121117337Y-139182860D01*
X121355432Y-139182860D01*
X121498289Y-139230480D01*
X121926860Y-139659051D02*
X122260194Y-139659051D01*
X122403051Y-140182860D02*
X121926860Y-140182860D01*
X121926860Y-139182860D01*
X122403051Y-139182860D01*
X122593527Y-140278099D02*
X123355432Y-140278099D01*
X123450670Y-139182860D02*
X124022099Y-139182860D01*
X123736384Y-140182860D02*
X123736384Y-139182860D01*
X124355432Y-140182860D02*
X124355432Y-139182860D01*
X124736384Y-139182860D01*
X124831622Y-139230480D01*
X124879241Y-139278099D01*
X124926860Y-139373337D01*
X124926860Y-139516194D01*
X124879241Y-139611432D01*
X124831622Y-139659051D01*
X124736384Y-139706670D01*
X124355432Y-139706670D01*
X125260194Y-139182860D02*
X125498289Y-140182860D01*
X125688765Y-139468575D01*
X125879241Y-140182860D01*
X126117337Y-139182860D01*
X127069718Y-140182860D02*
X126736384Y-139706670D01*
X126498289Y-140182860D02*
X126498289Y-139182860D01*
X126879241Y-139182860D01*
X126974480Y-139230480D01*
X127022099Y-139278099D01*
X127069718Y-139373337D01*
X127069718Y-139516194D01*
X127022099Y-139611432D01*
X126974480Y-139659051D01*
X126879241Y-139706670D01*
X126498289Y-139706670D01*
X137709523Y-142218333D02*
X137661904Y-142170714D01*
X137566666Y-142027857D01*
X137519047Y-141932619D01*
X137471428Y-141789761D01*
X137423809Y-141551666D01*
X137423809Y-141361190D01*
X137471428Y-141123095D01*
X137519047Y-140980238D01*
X137566666Y-140885000D01*
X137661904Y-140742142D01*
X137709523Y-140694523D01*
X138661904Y-141742142D02*
X138614285Y-141789761D01*
X138471428Y-141837380D01*
X138376190Y-141837380D01*
X138233333Y-141789761D01*
X138138095Y-141694523D01*
X138090476Y-141599285D01*
X138042857Y-141408809D01*
X138042857Y-141265952D01*
X138090476Y-141075476D01*
X138138095Y-140980238D01*
X138233333Y-140885000D01*
X138376190Y-140837380D01*
X138471428Y-140837380D01*
X138614285Y-140885000D01*
X138661904Y-140932619D01*
X139661904Y-141742142D02*
X139614285Y-141789761D01*
X139471428Y-141837380D01*
X139376190Y-141837380D01*
X139233333Y-141789761D01*
X139138095Y-141694523D01*
X139090476Y-141599285D01*
X139042857Y-141408809D01*
X139042857Y-141265952D01*
X139090476Y-141075476D01*
X139138095Y-140980238D01*
X139233333Y-140885000D01*
X139376190Y-140837380D01*
X139471428Y-140837380D01*
X139614285Y-140885000D01*
X139661904Y-140932619D01*
X141185714Y-141313571D02*
X141328571Y-141361190D01*
X141376190Y-141408809D01*
X141423809Y-141504047D01*
X141423809Y-141646904D01*
X141376190Y-141742142D01*
X141328571Y-141789761D01*
X141233333Y-141837380D01*
X140852380Y-141837380D01*
X140852380Y-140837380D01*
X141185714Y-140837380D01*
X141280952Y-140885000D01*
X141328571Y-140932619D01*
X141376190Y-141027857D01*
X141376190Y-141123095D01*
X141328571Y-141218333D01*
X141280952Y-141265952D01*
X141185714Y-141313571D01*
X140852380Y-141313571D01*
X142042857Y-141361190D02*
X142042857Y-141837380D01*
X141709523Y-140837380D02*
X142042857Y-141361190D01*
X142376190Y-140837380D01*
X142709523Y-141456428D02*
X143471428Y-141456428D01*
X143947619Y-141837380D02*
X143947619Y-140837380D01*
X144519047Y-141837380D01*
X144519047Y-140837380D01*
X145566666Y-141742142D02*
X145519047Y-141789761D01*
X145376190Y-141837380D01*
X145280952Y-141837380D01*
X145138095Y-141789761D01*
X145042857Y-141694523D01*
X144995238Y-141599285D01*
X144947619Y-141408809D01*
X144947619Y-141265952D01*
X144995238Y-141075476D01*
X145042857Y-140980238D01*
X145138095Y-140885000D01*
X145280952Y-140837380D01*
X145376190Y-140837380D01*
X145519047Y-140885000D01*
X145566666Y-140932619D01*
X145995238Y-141456428D02*
X146757142Y-141456428D01*
X147185714Y-141789761D02*
X147328571Y-141837380D01*
X147566666Y-141837380D01*
X147661904Y-141789761D01*
X147709523Y-141742142D01*
X147757142Y-141646904D01*
X147757142Y-141551666D01*
X147709523Y-141456428D01*
X147661904Y-141408809D01*
X147566666Y-141361190D01*
X147376190Y-141313571D01*
X147280952Y-141265952D01*
X147233333Y-141218333D01*
X147185714Y-141123095D01*
X147185714Y-141027857D01*
X147233333Y-140932619D01*
X147280952Y-140885000D01*
X147376190Y-140837380D01*
X147614285Y-140837380D01*
X147757142Y-140885000D01*
X148138095Y-141551666D02*
X148614285Y-141551666D01*
X148042857Y-141837380D02*
X148376190Y-140837380D01*
X148709523Y-141837380D01*
X150233333Y-141170714D02*
X150233333Y-141837380D01*
X149995238Y-140789761D02*
X149757142Y-141504047D01*
X150376190Y-141504047D01*
X150757142Y-141742142D02*
X150804761Y-141789761D01*
X150757142Y-141837380D01*
X150709523Y-141789761D01*
X150757142Y-141742142D01*
X150757142Y-141837380D01*
X151423809Y-140837380D02*
X151519047Y-140837380D01*
X151614285Y-140885000D01*
X151661904Y-140932619D01*
X151709523Y-141027857D01*
X151757142Y-141218333D01*
X151757142Y-141456428D01*
X151709523Y-141646904D01*
X151661904Y-141742142D01*
X151614285Y-141789761D01*
X151519047Y-141837380D01*
X151423809Y-141837380D01*
X151328571Y-141789761D01*
X151280952Y-141742142D01*
X151233333Y-141646904D01*
X151185714Y-141456428D01*
X151185714Y-141218333D01*
X151233333Y-141027857D01*
X151280952Y-140932619D01*
X151328571Y-140885000D01*
X151423809Y-140837380D01*
X152090476Y-142218333D02*
X152138095Y-142170714D01*
X152233333Y-142027857D01*
X152280952Y-141932619D01*
X152328571Y-141789761D01*
X152376190Y-141551666D01*
X152376190Y-141361190D01*
X152328571Y-141123095D01*
X152280952Y-140980238D01*
X152233333Y-140885000D01*
X152138095Y-140742142D01*
X152090476Y-140694523D01*
X137161904Y-143399761D02*
X137304761Y-143447380D01*
X137542857Y-143447380D01*
X137638095Y-143399761D01*
X137685714Y-143352142D01*
X137733333Y-143256904D01*
X137733333Y-143161666D01*
X137685714Y-143066428D01*
X137638095Y-143018809D01*
X137542857Y-142971190D01*
X137352380Y-142923571D01*
X137257142Y-142875952D01*
X137209523Y-142828333D01*
X137161904Y-142733095D01*
X137161904Y-142637857D01*
X137209523Y-142542619D01*
X137257142Y-142495000D01*
X137352380Y-142447380D01*
X137590476Y-142447380D01*
X137733333Y-142495000D01*
X138114285Y-143161666D02*
X138590476Y-143161666D01*
X138019047Y-143447380D02*
X138352380Y-142447380D01*
X138685714Y-143447380D01*
X139495238Y-143447380D02*
X139019047Y-143447380D01*
X139019047Y-142447380D01*
X139828571Y-142923571D02*
X140161904Y-142923571D01*
X140304761Y-143447380D02*
X139828571Y-143447380D01*
X139828571Y-142447380D01*
X140304761Y-142447380D01*
X141495238Y-143447380D02*
X141495238Y-142447380D01*
X142066666Y-143447380D01*
X142066666Y-142447380D01*
X142733333Y-142447380D02*
X142923809Y-142447380D01*
X143019047Y-142495000D01*
X143114285Y-142590238D01*
X143161904Y-142780714D01*
X143161904Y-143114047D01*
X143114285Y-143304523D01*
X143019047Y-143399761D01*
X142923809Y-143447380D01*
X142733333Y-143447380D01*
X142638095Y-143399761D01*
X142542857Y-143304523D01*
X142495238Y-143114047D01*
X142495238Y-142780714D01*
X142542857Y-142590238D01*
X142638095Y-142495000D01*
X142733333Y-142447380D01*
X143447619Y-142447380D02*
X144019047Y-142447380D01*
X143733333Y-143447380D02*
X143733333Y-142447380D01*
X145114285Y-143447380D02*
X145114285Y-142447380D01*
X145495238Y-142447380D01*
X145590476Y-142495000D01*
X145638095Y-142542619D01*
X145685714Y-142637857D01*
X145685714Y-142780714D01*
X145638095Y-142875952D01*
X145590476Y-142923571D01*
X145495238Y-142971190D01*
X145114285Y-142971190D01*
X146114285Y-142923571D02*
X146447619Y-142923571D01*
X146590476Y-143447380D02*
X146114285Y-143447380D01*
X146114285Y-142447380D01*
X146590476Y-142447380D01*
X147590476Y-143447380D02*
X147257142Y-142971190D01*
X147019047Y-143447380D02*
X147019047Y-142447380D01*
X147400000Y-142447380D01*
X147495238Y-142495000D01*
X147542857Y-142542619D01*
X147590476Y-142637857D01*
X147590476Y-142780714D01*
X147542857Y-142875952D01*
X147495238Y-142923571D01*
X147400000Y-142971190D01*
X147019047Y-142971190D01*
X148019047Y-143447380D02*
X148019047Y-142447380D01*
X148352380Y-143161666D01*
X148685714Y-142447380D01*
X148685714Y-143447380D01*
X149161904Y-143447380D02*
X149161904Y-142447380D01*
X149495238Y-142447380D02*
X150066666Y-142447380D01*
X149780952Y-143447380D02*
X149780952Y-142447380D01*
X150257142Y-142447380D02*
X150828571Y-142447380D01*
X150542857Y-143447380D02*
X150542857Y-142447380D01*
X151161904Y-142923571D02*
X151495238Y-142923571D01*
X151638095Y-143447380D02*
X151161904Y-143447380D01*
X151161904Y-142447380D01*
X151638095Y-142447380D01*
X152066666Y-143447380D02*
X152066666Y-142447380D01*
X152304761Y-142447380D01*
X152447619Y-142495000D01*
X152542857Y-142590238D01*
X152590476Y-142685476D01*
X152638095Y-142875952D01*
X152638095Y-143018809D01*
X152590476Y-143209285D01*
X152542857Y-143304523D01*
X152447619Y-143399761D01*
X152304761Y-143447380D01*
X152066666Y-143447380D01*
X113391904Y-97680476D02*
X112591904Y-97680476D01*
X113391904Y-97337619D02*
X112972857Y-97337619D01*
X112896666Y-97375714D01*
X112858571Y-97451904D01*
X112858571Y-97566190D01*
X112896666Y-97642380D01*
X112934761Y-97680476D01*
X112858571Y-97070952D02*
X112858571Y-96766190D01*
X112591904Y-96956666D02*
X113277619Y-96956666D01*
X113353809Y-96918571D01*
X113391904Y-96842380D01*
X113391904Y-96766190D01*
X112858571Y-96613809D02*
X112858571Y-96309047D01*
X112591904Y-96499523D02*
X113277619Y-96499523D01*
X113353809Y-96461428D01*
X113391904Y-96385238D01*
X113391904Y-96309047D01*
X112858571Y-96042380D02*
X113658571Y-96042380D01*
X112896666Y-96042380D02*
X112858571Y-95966190D01*
X112858571Y-95813809D01*
X112896666Y-95737619D01*
X112934761Y-95699523D01*
X113010952Y-95661428D01*
X113239523Y-95661428D01*
X113315714Y-95699523D01*
X113353809Y-95737619D01*
X113391904Y-95813809D01*
X113391904Y-95966190D01*
X113353809Y-96042380D01*
X113353809Y-95356666D02*
X113391904Y-95280476D01*
X113391904Y-95128095D01*
X113353809Y-95051904D01*
X113277619Y-95013809D01*
X113239523Y-95013809D01*
X113163333Y-95051904D01*
X113125238Y-95128095D01*
X113125238Y-95242380D01*
X113087142Y-95318571D01*
X113010952Y-95356666D01*
X112972857Y-95356666D01*
X112896666Y-95318571D01*
X112858571Y-95242380D01*
X112858571Y-95128095D01*
X112896666Y-95051904D01*
X113315714Y-94670952D02*
X113353809Y-94632857D01*
X113391904Y-94670952D01*
X113353809Y-94709047D01*
X113315714Y-94670952D01*
X113391904Y-94670952D01*
X112896666Y-94670952D02*
X112934761Y-94632857D01*
X112972857Y-94670952D01*
X112934761Y-94709047D01*
X112896666Y-94670952D01*
X112972857Y-94670952D01*
X112553809Y-93718571D02*
X113582380Y-94404285D01*
X112553809Y-92880476D02*
X113582380Y-93566190D01*
X112858571Y-92270952D02*
X113506190Y-92270952D01*
X113582380Y-92309047D01*
X113620476Y-92347142D01*
X113658571Y-92423333D01*
X113658571Y-92537619D01*
X113620476Y-92613809D01*
X113353809Y-92270952D02*
X113391904Y-92347142D01*
X113391904Y-92499523D01*
X113353809Y-92575714D01*
X113315714Y-92613809D01*
X113239523Y-92651904D01*
X113010952Y-92651904D01*
X112934761Y-92613809D01*
X112896666Y-92575714D01*
X112858571Y-92499523D01*
X112858571Y-92347142D01*
X112896666Y-92270952D01*
X113391904Y-91890000D02*
X112858571Y-91890000D01*
X112591904Y-91890000D02*
X112630000Y-91928095D01*
X112668095Y-91890000D01*
X112630000Y-91851904D01*
X112591904Y-91890000D01*
X112668095Y-91890000D01*
X112858571Y-91623333D02*
X112858571Y-91318571D01*
X112591904Y-91509047D02*
X113277619Y-91509047D01*
X113353809Y-91470952D01*
X113391904Y-91394761D01*
X113391904Y-91318571D01*
X113391904Y-91051904D02*
X112591904Y-91051904D01*
X113391904Y-90709047D02*
X112972857Y-90709047D01*
X112896666Y-90747142D01*
X112858571Y-90823333D01*
X112858571Y-90937619D01*
X112896666Y-91013809D01*
X112934761Y-91051904D01*
X112858571Y-89985238D02*
X113391904Y-89985238D01*
X112858571Y-90328095D02*
X113277619Y-90328095D01*
X113353809Y-90290000D01*
X113391904Y-90213809D01*
X113391904Y-90099523D01*
X113353809Y-90023333D01*
X113315714Y-89985238D01*
X113391904Y-89604285D02*
X112591904Y-89604285D01*
X112896666Y-89604285D02*
X112858571Y-89528095D01*
X112858571Y-89375714D01*
X112896666Y-89299523D01*
X112934761Y-89261428D01*
X113010952Y-89223333D01*
X113239523Y-89223333D01*
X113315714Y-89261428D01*
X113353809Y-89299523D01*
X113391904Y-89375714D01*
X113391904Y-89528095D01*
X113353809Y-89604285D01*
X113315714Y-88880476D02*
X113353809Y-88842380D01*
X113391904Y-88880476D01*
X113353809Y-88918571D01*
X113315714Y-88880476D01*
X113391904Y-88880476D01*
X113353809Y-88156666D02*
X113391904Y-88232857D01*
X113391904Y-88385238D01*
X113353809Y-88461428D01*
X113315714Y-88499523D01*
X113239523Y-88537619D01*
X113010952Y-88537619D01*
X112934761Y-88499523D01*
X112896666Y-88461428D01*
X112858571Y-88385238D01*
X112858571Y-88232857D01*
X112896666Y-88156666D01*
X113391904Y-87699523D02*
X113353809Y-87775714D01*
X113315714Y-87813809D01*
X113239523Y-87851904D01*
X113010952Y-87851904D01*
X112934761Y-87813809D01*
X112896666Y-87775714D01*
X112858571Y-87699523D01*
X112858571Y-87585238D01*
X112896666Y-87509047D01*
X112934761Y-87470952D01*
X113010952Y-87432857D01*
X113239523Y-87432857D01*
X113315714Y-87470952D01*
X113353809Y-87509047D01*
X113391904Y-87585238D01*
X113391904Y-87699523D01*
X113391904Y-87090000D02*
X112858571Y-87090000D01*
X112934761Y-87090000D02*
X112896666Y-87051904D01*
X112858571Y-86975714D01*
X112858571Y-86861428D01*
X112896666Y-86785238D01*
X112972857Y-86747142D01*
X113391904Y-86747142D01*
X112972857Y-86747142D02*
X112896666Y-86709047D01*
X112858571Y-86632857D01*
X112858571Y-86518571D01*
X112896666Y-86442380D01*
X112972857Y-86404285D01*
X113391904Y-86404285D01*
X112553809Y-85451904D02*
X113582380Y-86137619D01*
X113391904Y-84842380D02*
X112972857Y-84842380D01*
X112896666Y-84880476D01*
X112858571Y-84956666D01*
X112858571Y-85109047D01*
X112896666Y-85185238D01*
X113353809Y-84842380D02*
X113391904Y-84918571D01*
X113391904Y-85109047D01*
X113353809Y-85185238D01*
X113277619Y-85223333D01*
X113201428Y-85223333D01*
X113125238Y-85185238D01*
X113087142Y-85109047D01*
X113087142Y-84918571D01*
X113049047Y-84842380D01*
X112858571Y-84461428D02*
X113391904Y-84461428D01*
X112934761Y-84461428D02*
X112896666Y-84423333D01*
X112858571Y-84347142D01*
X112858571Y-84232857D01*
X112896666Y-84156666D01*
X112972857Y-84118571D01*
X113391904Y-84118571D01*
X113391904Y-83394761D02*
X112591904Y-83394761D01*
X113353809Y-83394761D02*
X113391904Y-83470952D01*
X113391904Y-83623333D01*
X113353809Y-83699523D01*
X113315714Y-83737619D01*
X113239523Y-83775714D01*
X113010952Y-83775714D01*
X112934761Y-83737619D01*
X112896666Y-83699523D01*
X112858571Y-83623333D01*
X112858571Y-83470952D01*
X112896666Y-83394761D01*
X113391904Y-83013809D02*
X112858571Y-83013809D01*
X113010952Y-83013809D02*
X112934761Y-82975714D01*
X112896666Y-82937619D01*
X112858571Y-82861428D01*
X112858571Y-82785238D01*
X113391904Y-82404285D02*
X113353809Y-82480476D01*
X113315714Y-82518571D01*
X113239523Y-82556666D01*
X113010952Y-82556666D01*
X112934761Y-82518571D01*
X112896666Y-82480476D01*
X112858571Y-82404285D01*
X112858571Y-82290000D01*
X112896666Y-82213809D01*
X112934761Y-82175714D01*
X113010952Y-82137619D01*
X113239523Y-82137619D01*
X113315714Y-82175714D01*
X113353809Y-82213809D01*
X113391904Y-82290000D01*
X113391904Y-82404285D01*
X113391904Y-81451904D02*
X112591904Y-81451904D01*
X113353809Y-81451904D02*
X113391904Y-81528095D01*
X113391904Y-81680476D01*
X113353809Y-81756666D01*
X113315714Y-81794761D01*
X113239523Y-81832857D01*
X113010952Y-81832857D01*
X112934761Y-81794761D01*
X112896666Y-81756666D01*
X112858571Y-81680476D01*
X112858571Y-81528095D01*
X112896666Y-81451904D01*
X113391904Y-80728095D02*
X112972857Y-80728095D01*
X112896666Y-80766190D01*
X112858571Y-80842380D01*
X112858571Y-80994761D01*
X112896666Y-81070952D01*
X113353809Y-80728095D02*
X113391904Y-80804285D01*
X113391904Y-80994761D01*
X113353809Y-81070952D01*
X113277619Y-81109047D01*
X113201428Y-81109047D01*
X113125238Y-81070952D01*
X113087142Y-80994761D01*
X113087142Y-80804285D01*
X113049047Y-80728095D01*
X112553809Y-79775714D02*
X113582380Y-80461428D01*
X112972857Y-79242380D02*
X112972857Y-79509047D01*
X113391904Y-79509047D02*
X112591904Y-79509047D01*
X112591904Y-79128095D01*
X112858571Y-78480476D02*
X113391904Y-78480476D01*
X112553809Y-78670952D02*
X113125238Y-78861428D01*
X113125238Y-78366190D01*
X113468095Y-78251904D02*
X113468095Y-77642380D01*
X112972857Y-77185238D02*
X113010952Y-77070952D01*
X113049047Y-77032857D01*
X113125238Y-76994761D01*
X113239523Y-76994761D01*
X113315714Y-77032857D01*
X113353809Y-77070952D01*
X113391904Y-77147142D01*
X113391904Y-77451904D01*
X112591904Y-77451904D01*
X112591904Y-77185238D01*
X112630000Y-77109047D01*
X112668095Y-77070952D01*
X112744285Y-77032857D01*
X112820476Y-77032857D01*
X112896666Y-77070952D01*
X112934761Y-77109047D01*
X112972857Y-77185238D01*
X112972857Y-77451904D01*
X113391904Y-76537619D02*
X113353809Y-76613809D01*
X113277619Y-76651904D01*
X112591904Y-76651904D01*
X112858571Y-75890000D02*
X113391904Y-75890000D01*
X112858571Y-76232857D02*
X113277619Y-76232857D01*
X113353809Y-76194761D01*
X113391904Y-76118571D01*
X113391904Y-76004285D01*
X113353809Y-75928095D01*
X113315714Y-75890000D01*
X113353809Y-75204285D02*
X113391904Y-75280476D01*
X113391904Y-75432857D01*
X113353809Y-75509047D01*
X113277619Y-75547142D01*
X112972857Y-75547142D01*
X112896666Y-75509047D01*
X112858571Y-75432857D01*
X112858571Y-75280476D01*
X112896666Y-75204285D01*
X112972857Y-75166190D01*
X113049047Y-75166190D01*
X113125238Y-75547142D01*
X113353809Y-74861428D02*
X113391904Y-74747142D01*
X113391904Y-74556666D01*
X113353809Y-74480476D01*
X113315714Y-74442380D01*
X113239523Y-74404285D01*
X113163333Y-74404285D01*
X113087142Y-74442380D01*
X113049047Y-74480476D01*
X113010952Y-74556666D01*
X112972857Y-74709047D01*
X112934761Y-74785238D01*
X112896666Y-74823333D01*
X112820476Y-74861428D01*
X112744285Y-74861428D01*
X112668095Y-74823333D01*
X112630000Y-74785238D01*
X112591904Y-74709047D01*
X112591904Y-74518571D01*
X112630000Y-74404285D01*
X113315714Y-73604285D02*
X113353809Y-73642380D01*
X113391904Y-73756666D01*
X113391904Y-73832857D01*
X113353809Y-73947142D01*
X113277619Y-74023333D01*
X113201428Y-74061428D01*
X113049047Y-74099523D01*
X112934761Y-74099523D01*
X112782380Y-74061428D01*
X112706190Y-74023333D01*
X112630000Y-73947142D01*
X112591904Y-73832857D01*
X112591904Y-73756666D01*
X112630000Y-73642380D01*
X112668095Y-73604285D01*
X113353809Y-73299523D02*
X113391904Y-73185238D01*
X113391904Y-72994761D01*
X113353809Y-72918571D01*
X113315714Y-72880476D01*
X113239523Y-72842380D01*
X113163333Y-72842380D01*
X113087142Y-72880476D01*
X113049047Y-72918571D01*
X113010952Y-72994761D01*
X112972857Y-73147142D01*
X112934761Y-73223333D01*
X112896666Y-73261428D01*
X112820476Y-73299523D01*
X112744285Y-73299523D01*
X112668095Y-73261428D01*
X112630000Y-73223333D01*
X112591904Y-73147142D01*
X112591904Y-72956666D01*
X112630000Y-72842380D01*
X113391904Y-72499523D02*
X112591904Y-72499523D01*
X137114285Y-150140413D02*
X137066666Y-150140413D01*
X136971428Y-150092794D01*
X136923809Y-149997556D01*
X136923809Y-149521365D01*
X136876190Y-149426127D01*
X136780952Y-149378508D01*
X136876190Y-149330889D01*
X136923809Y-149235651D01*
X136923809Y-148759460D01*
X136971428Y-148664222D01*
X137066666Y-148616603D01*
X137114285Y-148616603D01*
X137828571Y-149235651D02*
X137495238Y-149235651D01*
X137495238Y-149759460D02*
X137495238Y-148759460D01*
X137971428Y-148759460D01*
X138780952Y-149092794D02*
X138780952Y-149759460D01*
X138542857Y-148711841D02*
X138304761Y-149426127D01*
X138923809Y-149426127D01*
X139780952Y-149759460D02*
X139304761Y-149759460D01*
X139304761Y-148759460D01*
X140114285Y-149759460D02*
X140114285Y-149092794D01*
X140114285Y-148759460D02*
X140066666Y-148807080D01*
X140114285Y-148854699D01*
X140161904Y-148807080D01*
X140114285Y-148759460D01*
X140114285Y-148854699D01*
X140447619Y-149092794D02*
X140828571Y-149092794D01*
X140590476Y-148759460D02*
X140590476Y-149616603D01*
X140638095Y-149711841D01*
X140733333Y-149759460D01*
X140828571Y-149759460D01*
X141542857Y-149711841D02*
X141447619Y-149759460D01*
X141257142Y-149759460D01*
X141161904Y-149711841D01*
X141114285Y-149616603D01*
X141114285Y-149235651D01*
X141161904Y-149140413D01*
X141257142Y-149092794D01*
X141447619Y-149092794D01*
X141542857Y-149140413D01*
X141590476Y-149235651D01*
X141590476Y-149330889D01*
X141114285Y-149426127D01*
X142019047Y-149664222D02*
X142066666Y-149711841D01*
X142019047Y-149759460D01*
X141971428Y-149711841D01*
X142019047Y-149664222D01*
X142019047Y-149759460D01*
X142352380Y-148759460D02*
X142923809Y-148759460D01*
X142638095Y-149759460D02*
X142638095Y-148759460D01*
X143257142Y-149759460D02*
X143257142Y-148759460D01*
X143257142Y-149140413D02*
X143352380Y-149092794D01*
X143542857Y-149092794D01*
X143638095Y-149140413D01*
X143685714Y-149188032D01*
X143733333Y-149283270D01*
X143733333Y-149568984D01*
X143685714Y-149664222D01*
X143638095Y-149711841D01*
X143542857Y-149759460D01*
X143352380Y-149759460D01*
X143257142Y-149711841D01*
X144114285Y-149473746D02*
X144590476Y-149473746D01*
X144019047Y-149759460D02*
X144352380Y-148759460D01*
X144685714Y-149759460D01*
X145019047Y-149664222D02*
X145066666Y-149711841D01*
X145019047Y-149759460D01*
X144971428Y-149711841D01*
X145019047Y-149664222D01*
X145019047Y-149759460D01*
X145495238Y-149759460D02*
X145495238Y-148759460D01*
X145733333Y-148759460D01*
X145876190Y-148807080D01*
X145971428Y-148902318D01*
X146019047Y-148997556D01*
X146066666Y-149188032D01*
X146066666Y-149330889D01*
X146019047Y-149521365D01*
X145971428Y-149616603D01*
X145876190Y-149711841D01*
X145733333Y-149759460D01*
X145495238Y-149759460D01*
X146495238Y-149664222D02*
X146542857Y-149711841D01*
X146495238Y-149759460D01*
X146447619Y-149711841D01*
X146495238Y-149664222D01*
X146495238Y-149759460D01*
X146828571Y-148759460D02*
X147400000Y-148759460D01*
X147114285Y-149759460D02*
X147114285Y-148759460D01*
X147733333Y-149759460D02*
X147733333Y-148759460D01*
X147733333Y-149235651D02*
X148304761Y-149235651D01*
X148304761Y-149759460D02*
X148304761Y-148759460D01*
X148638095Y-148759460D02*
X149209523Y-148759460D01*
X148923809Y-149759460D02*
X148923809Y-148759460D01*
X149400000Y-148759460D02*
X149733333Y-149759460D01*
X150066666Y-148759460D01*
X150923809Y-149759460D02*
X150352380Y-149759460D01*
X150638095Y-149759460D02*
X150638095Y-148759460D01*
X150542857Y-148902318D01*
X150447619Y-148997556D01*
X150352380Y-149045175D01*
X151352380Y-149664222D02*
X151400000Y-149711841D01*
X151352380Y-149759460D01*
X151304761Y-149711841D01*
X151352380Y-149664222D01*
X151352380Y-149759460D01*
X152352380Y-149759460D02*
X151780952Y-149759460D01*
X152066666Y-149759460D02*
X152066666Y-148759460D01*
X151971428Y-148902318D01*
X151876190Y-148997556D01*
X151780952Y-149045175D01*
X152685714Y-150140413D02*
X152733333Y-150140413D01*
X152828571Y-150092794D01*
X152876190Y-149997556D01*
X152876190Y-149521365D01*
X152923809Y-149426127D01*
X153019047Y-149378508D01*
X152923809Y-149330889D01*
X152876190Y-149235651D01*
X152876190Y-148759460D01*
X152828571Y-148664222D01*
X152733333Y-148616603D01*
X152685714Y-148616603D01*
X137335714Y-144996928D02*
X137250000Y-144954071D01*
X137078571Y-144954071D01*
X136992857Y-144996928D01*
X136907142Y-145082642D01*
X136864285Y-145168357D01*
X136864285Y-145339785D01*
X136907142Y-145425500D01*
X136992857Y-145511214D01*
X137078571Y-145554071D01*
X137250000Y-145554071D01*
X137335714Y-145511214D01*
X137164285Y-144654071D02*
X136950000Y-144696928D01*
X136735714Y-144825500D01*
X136607142Y-145039785D01*
X136564285Y-145254071D01*
X136607142Y-145468357D01*
X136735714Y-145682642D01*
X136950000Y-145811214D01*
X137164285Y-145854071D01*
X137378571Y-145811214D01*
X137592857Y-145682642D01*
X137721428Y-145468357D01*
X137764285Y-145254071D01*
X137721428Y-145039785D01*
X137592857Y-144825500D01*
X137378571Y-144696928D01*
X137164285Y-144654071D01*
X138707142Y-144782642D02*
X139221428Y-144782642D01*
X138964285Y-145682642D02*
X138964285Y-144782642D01*
X139864285Y-145639785D02*
X139778571Y-145682642D01*
X139607142Y-145682642D01*
X139521428Y-145639785D01*
X139478571Y-145554071D01*
X139478571Y-145211214D01*
X139521428Y-145125500D01*
X139607142Y-145082642D01*
X139778571Y-145082642D01*
X139864285Y-145125500D01*
X139907142Y-145211214D01*
X139907142Y-145296928D01*
X139478571Y-145382642D01*
X140678571Y-145639785D02*
X140592857Y-145682642D01*
X140421428Y-145682642D01*
X140335714Y-145639785D01*
X140292857Y-145596928D01*
X140250000Y-145511214D01*
X140250000Y-145254071D01*
X140292857Y-145168357D01*
X140335714Y-145125500D01*
X140421428Y-145082642D01*
X140592857Y-145082642D01*
X140678571Y-145125500D01*
X141064285Y-145682642D02*
X141064285Y-144782642D01*
X141450000Y-145682642D02*
X141450000Y-145211214D01*
X141407142Y-145125500D01*
X141321428Y-145082642D01*
X141192857Y-145082642D01*
X141107142Y-145125500D01*
X141064285Y-145168357D01*
X142564285Y-145682642D02*
X142564285Y-144782642D01*
X142564285Y-145125500D02*
X142650000Y-145082642D01*
X142821428Y-145082642D01*
X142907142Y-145125500D01*
X142950000Y-145168357D01*
X142992857Y-145254071D01*
X142992857Y-145511214D01*
X142950000Y-145596928D01*
X142907142Y-145639785D01*
X142821428Y-145682642D01*
X142650000Y-145682642D01*
X142564285Y-145639785D01*
X143292857Y-145082642D02*
X143507142Y-145682642D01*
X143721428Y-145082642D02*
X143507142Y-145682642D01*
X143421428Y-145896928D01*
X143378571Y-145939785D01*
X143292857Y-145982642D01*
X144707142Y-145425500D02*
X145135714Y-145425500D01*
X144621428Y-145682642D02*
X144921428Y-144782642D01*
X145221428Y-145682642D01*
X145521428Y-145082642D02*
X145521428Y-145682642D01*
X145521428Y-145168357D02*
X145564285Y-145125500D01*
X145650000Y-145082642D01*
X145778571Y-145082642D01*
X145864285Y-145125500D01*
X145907142Y-145211214D01*
X145907142Y-145682642D01*
X146721428Y-145682642D02*
X146721428Y-144782642D01*
X146721428Y-145639785D02*
X146635714Y-145682642D01*
X146464285Y-145682642D01*
X146378571Y-145639785D01*
X146335714Y-145596928D01*
X146292857Y-145511214D01*
X146292857Y-145254071D01*
X146335714Y-145168357D01*
X146378571Y-145125500D01*
X146464285Y-145082642D01*
X146635714Y-145082642D01*
X146721428Y-145125500D01*
X147150000Y-145682642D02*
X147150000Y-145082642D01*
X147150000Y-145254071D02*
X147192857Y-145168357D01*
X147235714Y-145125500D01*
X147321428Y-145082642D01*
X147407142Y-145082642D01*
X147835714Y-145682642D02*
X147750000Y-145639785D01*
X147707142Y-145596928D01*
X147664285Y-145511214D01*
X147664285Y-145254071D01*
X147707142Y-145168357D01*
X147750000Y-145125500D01*
X147835714Y-145082642D01*
X147964285Y-145082642D01*
X148050000Y-145125500D01*
X148092857Y-145168357D01*
X148135714Y-145254071D01*
X148135714Y-145511214D01*
X148092857Y-145596928D01*
X148050000Y-145639785D01*
X147964285Y-145682642D01*
X147835714Y-145682642D01*
X148907142Y-145682642D02*
X148907142Y-144782642D01*
X148907142Y-145639785D02*
X148821428Y-145682642D01*
X148650000Y-145682642D01*
X148564285Y-145639785D01*
X148521428Y-145596928D01*
X148478571Y-145511214D01*
X148478571Y-145254071D01*
X148521428Y-145168357D01*
X148564285Y-145125500D01*
X148650000Y-145082642D01*
X148821428Y-145082642D01*
X148907142Y-145125500D01*
X149721428Y-145682642D02*
X149721428Y-145211214D01*
X149678571Y-145125500D01*
X149592857Y-145082642D01*
X149421428Y-145082642D01*
X149335714Y-145125500D01*
X149721428Y-145639785D02*
X149635714Y-145682642D01*
X149421428Y-145682642D01*
X149335714Y-145639785D01*
X149292857Y-145554071D01*
X149292857Y-145468357D01*
X149335714Y-145382642D01*
X149421428Y-145339785D01*
X149635714Y-145339785D01*
X149721428Y-145296928D01*
X150192857Y-145639785D02*
X150192857Y-145682642D01*
X150150000Y-145768357D01*
X150107142Y-145811214D01*
X151692857Y-145682642D02*
X151264285Y-145682642D01*
X151264285Y-144782642D01*
X152421428Y-145682642D02*
X151992857Y-145682642D01*
X151992857Y-144782642D01*
X153235714Y-145596928D02*
X153192857Y-145639785D01*
X153064285Y-145682642D01*
X152978571Y-145682642D01*
X152850000Y-145639785D01*
X152764285Y-145554071D01*
X152721428Y-145468357D01*
X152678571Y-145296928D01*
X152678571Y-145168357D01*
X152721428Y-144996928D01*
X152764285Y-144911214D01*
X152850000Y-144825500D01*
X152978571Y-144782642D01*
X153064285Y-144782642D01*
X153192857Y-144825500D01*
X153235714Y-144868357D01*
X141492857Y-146874500D02*
X141921428Y-146874500D01*
X141407142Y-147131642D02*
X141707142Y-146231642D01*
X142007142Y-147131642D01*
X142307142Y-146531642D02*
X142307142Y-147431642D01*
X142307142Y-146574500D02*
X142392857Y-146531642D01*
X142564285Y-146531642D01*
X142650000Y-146574500D01*
X142692857Y-146617357D01*
X142735714Y-146703071D01*
X142735714Y-146960214D01*
X142692857Y-147045928D01*
X142650000Y-147088785D01*
X142564285Y-147131642D01*
X142392857Y-147131642D01*
X142307142Y-147088785D01*
X143121428Y-147131642D02*
X143121428Y-146531642D01*
X143121428Y-146703071D02*
X143164285Y-146617357D01*
X143207142Y-146574500D01*
X143292857Y-146531642D01*
X143378571Y-146531642D01*
X143678571Y-147131642D02*
X143678571Y-146531642D01*
X143678571Y-146231642D02*
X143635714Y-146274500D01*
X143678571Y-146317357D01*
X143721428Y-146274500D01*
X143678571Y-146231642D01*
X143678571Y-146317357D01*
X144235714Y-147131642D02*
X144150000Y-147088785D01*
X144107142Y-147003071D01*
X144107142Y-146231642D01*
X145221428Y-146317357D02*
X145264285Y-146274500D01*
X145350000Y-146231642D01*
X145564285Y-146231642D01*
X145650000Y-146274500D01*
X145692857Y-146317357D01*
X145735714Y-146403071D01*
X145735714Y-146488785D01*
X145692857Y-146617357D01*
X145178571Y-147131642D01*
X145735714Y-147131642D01*
X146292857Y-146231642D02*
X146378571Y-146231642D01*
X146464285Y-146274500D01*
X146507142Y-146317357D01*
X146550000Y-146403071D01*
X146592857Y-146574500D01*
X146592857Y-146788785D01*
X146550000Y-146960214D01*
X146507142Y-147045928D01*
X146464285Y-147088785D01*
X146378571Y-147131642D01*
X146292857Y-147131642D01*
X146207142Y-147088785D01*
X146164285Y-147045928D01*
X146121428Y-146960214D01*
X146078571Y-146788785D01*
X146078571Y-146574500D01*
X146121428Y-146403071D01*
X146164285Y-146317357D01*
X146207142Y-146274500D01*
X146292857Y-146231642D01*
X146935714Y-146317357D02*
X146978571Y-146274500D01*
X147064285Y-146231642D01*
X147278571Y-146231642D01*
X147364285Y-146274500D01*
X147407142Y-146317357D01*
X147450000Y-146403071D01*
X147450000Y-146488785D01*
X147407142Y-146617357D01*
X146892857Y-147131642D01*
X147450000Y-147131642D01*
X147792857Y-146317357D02*
X147835714Y-146274500D01*
X147921428Y-146231642D01*
X148135714Y-146231642D01*
X148221428Y-146274500D01*
X148264285Y-146317357D01*
X148307142Y-146403071D01*
X148307142Y-146488785D01*
X148264285Y-146617357D01*
X147750000Y-147131642D01*
X148307142Y-147131642D01*
X114884661Y-145810024D02*
X114884661Y-146381453D01*
X114846566Y-146495739D01*
X114770376Y-146571929D01*
X114656090Y-146610024D01*
X114579900Y-146610024D01*
X115646566Y-146610024D02*
X115265614Y-146610024D01*
X115265614Y-145810024D01*
X116370376Y-146533834D02*
X116332280Y-146571929D01*
X116217995Y-146610024D01*
X116141804Y-146610024D01*
X116027519Y-146571929D01*
X115951328Y-146495739D01*
X115913233Y-146419548D01*
X115875138Y-146267167D01*
X115875138Y-146152881D01*
X115913233Y-146000500D01*
X115951328Y-145924310D01*
X116027519Y-145848120D01*
X116141804Y-145810024D01*
X116217995Y-145810024D01*
X116332280Y-145848120D01*
X116370376Y-145886215D01*
X116941804Y-145810024D02*
X116941804Y-146381453D01*
X116903709Y-146495739D01*
X116827519Y-146571929D01*
X116713233Y-146610024D01*
X116637042Y-146610024D01*
X117703709Y-146610024D02*
X117322757Y-146610024D01*
X117322757Y-145810024D01*
X118427519Y-146533834D02*
X118389423Y-146571929D01*
X118275138Y-146610024D01*
X118198947Y-146610024D01*
X118084661Y-146571929D01*
X118008471Y-146495739D01*
X117970376Y-146419548D01*
X117932280Y-146267167D01*
X117932280Y-146152881D01*
X117970376Y-146000500D01*
X118008471Y-145924310D01*
X118084661Y-145848120D01*
X118198947Y-145810024D01*
X118275138Y-145810024D01*
X118389423Y-145848120D01*
X118427519Y-145886215D01*
X118998947Y-145810024D02*
X118998947Y-146381453D01*
X118960852Y-146495739D01*
X118884661Y-146571929D01*
X118770376Y-146610024D01*
X118694185Y-146610024D01*
X119760852Y-146610024D02*
X119379900Y-146610024D01*
X119379900Y-145810024D01*
X120484661Y-146533834D02*
X120446566Y-146571929D01*
X120332280Y-146610024D01*
X120256090Y-146610024D01*
X120141804Y-146571929D01*
X120065614Y-146495739D01*
X120027519Y-146419548D01*
X119989423Y-146267167D01*
X119989423Y-146152881D01*
X120027519Y-146000500D01*
X120065614Y-145924310D01*
X120141804Y-145848120D01*
X120256090Y-145810024D01*
X120332280Y-145810024D01*
X120446566Y-145848120D01*
X120484661Y-145886215D01*
X121056090Y-145810024D02*
X121056090Y-146381453D01*
X121017995Y-146495739D01*
X120941804Y-146571929D01*
X120827519Y-146610024D01*
X120751328Y-146610024D01*
X121817995Y-146610024D02*
X121437042Y-146610024D01*
X121437042Y-145810024D01*
X122541804Y-146533834D02*
X122503709Y-146571929D01*
X122389423Y-146610024D01*
X122313233Y-146610024D01*
X122198947Y-146571929D01*
X122122757Y-146495739D01*
X122084661Y-146419548D01*
X122046566Y-146267167D01*
X122046566Y-146152881D01*
X122084661Y-146000500D01*
X122122757Y-145924310D01*
X122198947Y-145848120D01*
X122313233Y-145810024D01*
X122389423Y-145810024D01*
X122503709Y-145848120D01*
X122541804Y-145886215D01*
%TO.C,J4*%
X111305600Y-103692721D02*
X110305600Y-103692721D01*
X111305600Y-103121293D01*
X110305600Y-103121293D01*
X111305600Y-102502245D02*
X111257981Y-102597483D01*
X111210362Y-102645102D01*
X111115124Y-102692721D01*
X110829410Y-102692721D01*
X110734172Y-102645102D01*
X110686553Y-102597483D01*
X110638934Y-102502245D01*
X110638934Y-102359388D01*
X110686553Y-102264150D01*
X110734172Y-102216531D01*
X110829410Y-102168912D01*
X111115124Y-102168912D01*
X111210362Y-102216531D01*
X111257981Y-102264150D01*
X111305600Y-102359388D01*
X111305600Y-102502245D01*
X110638934Y-101883198D02*
X110638934Y-101502245D01*
X110305600Y-101740340D02*
X111162743Y-101740340D01*
X111257981Y-101692721D01*
X111305600Y-101597483D01*
X111305600Y-101502245D01*
X111257981Y-100740340D02*
X111305600Y-100835579D01*
X111305600Y-101026055D01*
X111257981Y-101121293D01*
X111210362Y-101168912D01*
X111115124Y-101216531D01*
X110829410Y-101216531D01*
X110734172Y-101168912D01*
X110686553Y-101121293D01*
X110638934Y-101026055D01*
X110638934Y-100835579D01*
X110686553Y-100740340D01*
X111305600Y-100311769D02*
X110305600Y-100311769D01*
X111305600Y-99883198D02*
X110781791Y-99883198D01*
X110686553Y-99930817D01*
X110638934Y-100026055D01*
X110638934Y-100168912D01*
X110686553Y-100264150D01*
X110734172Y-100311769D01*
%TO.C,J2*%
X126901960Y-150334956D02*
X126901960Y-150811146D01*
X127378151Y-150858765D01*
X127330532Y-150811146D01*
X127282913Y-150715908D01*
X127282913Y-150477813D01*
X127330532Y-150382575D01*
X127378151Y-150334956D01*
X127473389Y-150287337D01*
X127711484Y-150287337D01*
X127806722Y-150334956D01*
X127854341Y-150382575D01*
X127901960Y-150477813D01*
X127901960Y-150715908D01*
X127854341Y-150811146D01*
X127806722Y-150858765D01*
X126901960Y-150001622D02*
X127901960Y-149668289D01*
X126901960Y-149334956D01*
X129425960Y-149707956D02*
X128949770Y-150041289D01*
X129425960Y-150279384D02*
X128425960Y-150279384D01*
X128425960Y-149898432D01*
X128473580Y-149803194D01*
X128521199Y-149755575D01*
X128616437Y-149707956D01*
X128759294Y-149707956D01*
X128854532Y-149755575D01*
X128902151Y-149803194D01*
X128949770Y-149898432D01*
X128949770Y-150279384D01*
X128822770Y-142397480D02*
X129298960Y-142397480D01*
X128298960Y-142730813D02*
X128822770Y-142397480D01*
X128298960Y-142064146D01*
X126949580Y-146969384D02*
X126901960Y-147064622D01*
X126901960Y-147207480D01*
X126949580Y-147350337D01*
X127044818Y-147445575D01*
X127140056Y-147493194D01*
X127330532Y-147540813D01*
X127473389Y-147540813D01*
X127663865Y-147493194D01*
X127759103Y-147445575D01*
X127854341Y-147350337D01*
X127901960Y-147207480D01*
X127901960Y-147112241D01*
X127854341Y-146969384D01*
X127806722Y-146921765D01*
X127473389Y-146921765D01*
X127473389Y-147112241D01*
X127901960Y-146493194D02*
X126901960Y-146493194D01*
X127901960Y-145921765D01*
X126901960Y-145921765D01*
X127901960Y-145445575D02*
X126901960Y-145445575D01*
X126901960Y-145207480D01*
X126949580Y-145064622D01*
X127044818Y-144969384D01*
X127140056Y-144921765D01*
X127330532Y-144874146D01*
X127473389Y-144874146D01*
X127663865Y-144921765D01*
X127759103Y-144969384D01*
X127854341Y-145064622D01*
X127901960Y-145207480D01*
X127901960Y-145445575D01*
X127901960Y-143016527D02*
X127901960Y-143587956D01*
X127901960Y-143302241D02*
X126901960Y-143302241D01*
X127044818Y-143397480D01*
X127140056Y-143492718D01*
X127187675Y-143587956D01*
X126997199Y-142635575D02*
X126949580Y-142587956D01*
X126901960Y-142492718D01*
X126901960Y-142254622D01*
X126949580Y-142159384D01*
X126997199Y-142111765D01*
X127092437Y-142064146D01*
X127187675Y-142064146D01*
X127330532Y-142111765D01*
X127901960Y-142683194D01*
X127901960Y-142064146D01*
X126901960Y-141778432D02*
X127901960Y-141445099D01*
X126901960Y-141111765D01*
%TO.C,C2*%
X125959573Y-79396862D02*
X125911954Y-79444481D01*
X125769097Y-79492100D01*
X125673859Y-79492100D01*
X125531001Y-79444481D01*
X125435763Y-79349243D01*
X125388144Y-79254005D01*
X125340525Y-79063529D01*
X125340525Y-78920672D01*
X125388144Y-78730196D01*
X125435763Y-78634958D01*
X125531001Y-78539720D01*
X125673859Y-78492100D01*
X125769097Y-78492100D01*
X125911954Y-78539720D01*
X125959573Y-78587339D01*
X126340525Y-78587339D02*
X126388144Y-78539720D01*
X126483382Y-78492100D01*
X126721478Y-78492100D01*
X126816716Y-78539720D01*
X126864335Y-78587339D01*
X126911954Y-78682577D01*
X126911954Y-78777815D01*
X126864335Y-78920672D01*
X126292906Y-79492100D01*
X126911954Y-79492100D01*
%TO.C,C4*%
X123374422Y-103689446D02*
X123422041Y-103737065D01*
X123469660Y-103879922D01*
X123469660Y-103975160D01*
X123422041Y-104118018D01*
X123326803Y-104213256D01*
X123231565Y-104260875D01*
X123041089Y-104308494D01*
X122898232Y-104308494D01*
X122707756Y-104260875D01*
X122612518Y-104213256D01*
X122517280Y-104118018D01*
X122469660Y-103975160D01*
X122469660Y-103879922D01*
X122517280Y-103737065D01*
X122564899Y-103689446D01*
X122802994Y-102832303D02*
X123469660Y-102832303D01*
X122422041Y-103070399D02*
X123136327Y-103308494D01*
X123136327Y-102689446D01*
%TO.C,J5*%
X159092220Y-107627413D02*
X159806506Y-107627413D01*
X159949363Y-107675032D01*
X160044601Y-107770270D01*
X160092220Y-107913127D01*
X160092220Y-108008365D01*
X159092220Y-106675032D02*
X159092220Y-107151222D01*
X159568411Y-107198841D01*
X159520792Y-107151222D01*
X159473173Y-107055984D01*
X159473173Y-106817889D01*
X159520792Y-106722651D01*
X159568411Y-106675032D01*
X159663649Y-106627413D01*
X159901744Y-106627413D01*
X159996982Y-106675032D01*
X160044601Y-106722651D01*
X160092220Y-106817889D01*
X160092220Y-107055984D01*
X160044601Y-107151222D01*
X159996982Y-107198841D01*
%TO.C,F1*%
X159447121Y-119435443D02*
X159447121Y-119768776D01*
X159970930Y-119768776D02*
X158970930Y-119768776D01*
X158970930Y-119292586D01*
X159970930Y-118387824D02*
X159970930Y-118959252D01*
X159970930Y-118673538D02*
X158970930Y-118673538D01*
X159113788Y-118768776D01*
X159209026Y-118864014D01*
X159256645Y-118959252D01*
%TO.C,C1*%
X120821153Y-75990722D02*
X120773534Y-76038341D01*
X120630677Y-76085960D01*
X120535439Y-76085960D01*
X120392581Y-76038341D01*
X120297343Y-75943103D01*
X120249724Y-75847865D01*
X120202105Y-75657389D01*
X120202105Y-75514532D01*
X120249724Y-75324056D01*
X120297343Y-75228818D01*
X120392581Y-75133580D01*
X120535439Y-75085960D01*
X120630677Y-75085960D01*
X120773534Y-75133580D01*
X120821153Y-75181199D01*
X121773534Y-76085960D02*
X121202105Y-76085960D01*
X121487820Y-76085960D02*
X121487820Y-75085960D01*
X121392581Y-75228818D01*
X121297343Y-75324056D01*
X121202105Y-75371675D01*
%TO.C,R1*%
X126015453Y-71861940D02*
X125682120Y-71385750D01*
X125444024Y-71861940D02*
X125444024Y-70861940D01*
X125824977Y-70861940D01*
X125920215Y-70909560D01*
X125967834Y-70957179D01*
X126015453Y-71052417D01*
X126015453Y-71195274D01*
X125967834Y-71290512D01*
X125920215Y-71338131D01*
X125824977Y-71385750D01*
X125444024Y-71385750D01*
X126967834Y-71861940D02*
X126396405Y-71861940D01*
X126682120Y-71861940D02*
X126682120Y-70861940D01*
X126586881Y-71004798D01*
X126491643Y-71100036D01*
X126396405Y-71147655D01*
%TO.C,R2*%
X128364953Y-75100440D02*
X128031620Y-74624250D01*
X127793524Y-75100440D02*
X127793524Y-74100440D01*
X128174477Y-74100440D01*
X128269715Y-74148060D01*
X128317334Y-74195679D01*
X128364953Y-74290917D01*
X128364953Y-74433774D01*
X128317334Y-74529012D01*
X128269715Y-74576631D01*
X128174477Y-74624250D01*
X127793524Y-74624250D01*
X128745905Y-74195679D02*
X128793524Y-74148060D01*
X128888762Y-74100440D01*
X129126858Y-74100440D01*
X129222096Y-74148060D01*
X129269715Y-74195679D01*
X129317334Y-74290917D01*
X129317334Y-74386155D01*
X129269715Y-74529012D01*
X128698286Y-75100440D01*
X129317334Y-75100440D01*
%TO.C,RN1*%
X117173000Y-122709536D02*
X116696810Y-123042869D01*
X117173000Y-123280964D02*
X116173000Y-123280964D01*
X116173000Y-122900012D01*
X116220620Y-122804774D01*
X116268239Y-122757155D01*
X116363477Y-122709536D01*
X116506334Y-122709536D01*
X116601572Y-122757155D01*
X116649191Y-122804774D01*
X116696810Y-122900012D01*
X116696810Y-123280964D01*
X117173000Y-122280964D02*
X116173000Y-122280964D01*
X117173000Y-121709536D01*
X116173000Y-121709536D01*
X117173000Y-120709536D02*
X117173000Y-121280964D01*
X117173000Y-120995250D02*
X116173000Y-120995250D01*
X116315858Y-121090488D01*
X116411096Y-121185726D01*
X116458715Y-121280964D01*
%TO.C,RN2*%
X116995500Y-93563036D02*
X116519310Y-93896369D01*
X116995500Y-94134464D02*
X115995500Y-94134464D01*
X115995500Y-93753512D01*
X116043120Y-93658274D01*
X116090739Y-93610655D01*
X116185977Y-93563036D01*
X116328834Y-93563036D01*
X116424072Y-93610655D01*
X116471691Y-93658274D01*
X116519310Y-93753512D01*
X116519310Y-94134464D01*
X116995500Y-93134464D02*
X115995500Y-93134464D01*
X116995500Y-92563036D01*
X115995500Y-92563036D01*
X116090739Y-92134464D02*
X116043120Y-92086845D01*
X115995500Y-91991607D01*
X115995500Y-91753512D01*
X116043120Y-91658274D01*
X116090739Y-91610655D01*
X116185977Y-91563036D01*
X116281215Y-91563036D01*
X116424072Y-91610655D01*
X116995500Y-92182083D01*
X116995500Y-91563036D01*
%TO.C,U1*%
X154025000Y-75092464D02*
X154834524Y-75092464D01*
X154929762Y-75044845D01*
X154977381Y-74997226D01*
X155025000Y-74901988D01*
X155025000Y-74711512D01*
X154977381Y-74616274D01*
X154929762Y-74568655D01*
X154834524Y-74521036D01*
X154025000Y-74521036D01*
X155025000Y-73521036D02*
X155025000Y-74092464D01*
X155025000Y-73806750D02*
X154025000Y-73806750D01*
X154167858Y-73901988D01*
X154263096Y-73997226D01*
X154310715Y-74092464D01*
%TO.C,D1*%
X159471620Y-137219915D02*
X158471620Y-137219915D01*
X158471620Y-136981820D01*
X158519240Y-136838962D01*
X158614478Y-136743724D01*
X158709716Y-136696105D01*
X158900192Y-136648486D01*
X159043049Y-136648486D01*
X159233525Y-136696105D01*
X159328763Y-136743724D01*
X159424001Y-136838962D01*
X159471620Y-136981820D01*
X159471620Y-137219915D01*
X159471620Y-135696105D02*
X159471620Y-136267534D01*
X159471620Y-135981820D02*
X158471620Y-135981820D01*
X158614478Y-136077058D01*
X158709716Y-136172296D01*
X158757335Y-136267534D01*
%TO.C,D2*%
X155890220Y-137258015D02*
X154890220Y-137258015D01*
X154890220Y-137019920D01*
X154937840Y-136877062D01*
X155033078Y-136781824D01*
X155128316Y-136734205D01*
X155318792Y-136686586D01*
X155461649Y-136686586D01*
X155652125Y-136734205D01*
X155747363Y-136781824D01*
X155842601Y-136877062D01*
X155890220Y-137019920D01*
X155890220Y-137258015D01*
X154985459Y-136305634D02*
X154937840Y-136258015D01*
X154890220Y-136162777D01*
X154890220Y-135924681D01*
X154937840Y-135829443D01*
X154985459Y-135781824D01*
X155080697Y-135734205D01*
X155175935Y-135734205D01*
X155318792Y-135781824D01*
X155890220Y-136353253D01*
X155890220Y-135734205D01*
%TO.C,C5*%
X156484862Y-117147966D02*
X156532481Y-117195585D01*
X156580100Y-117338442D01*
X156580100Y-117433680D01*
X156532481Y-117576538D01*
X156437243Y-117671776D01*
X156342005Y-117719395D01*
X156151529Y-117767014D01*
X156008672Y-117767014D01*
X155818196Y-117719395D01*
X155722958Y-117671776D01*
X155627720Y-117576538D01*
X155580100Y-117433680D01*
X155580100Y-117338442D01*
X155627720Y-117195585D01*
X155675339Y-117147966D01*
X155580100Y-116243204D02*
X155580100Y-116719395D01*
X156056291Y-116767014D01*
X156008672Y-116719395D01*
X155961053Y-116624157D01*
X155961053Y-116386061D01*
X156008672Y-116290823D01*
X156056291Y-116243204D01*
X156151529Y-116195585D01*
X156389624Y-116195585D01*
X156484862Y-116243204D01*
X156532481Y-116290823D01*
X156580100Y-116386061D01*
X156580100Y-116624157D01*
X156532481Y-116719395D01*
X156484862Y-116767014D01*
%TO.C,J3*%
X158063606Y-98472560D02*
X158063606Y-99186846D01*
X158015987Y-99329703D01*
X157920749Y-99424941D01*
X157777892Y-99472560D01*
X157682654Y-99472560D01*
X158444559Y-98472560D02*
X159063606Y-98472560D01*
X158730273Y-98853513D01*
X158873130Y-98853513D01*
X158968368Y-98901132D01*
X159015987Y-98948751D01*
X159063606Y-99043989D01*
X159063606Y-99282084D01*
X159015987Y-99377322D01*
X158968368Y-99424941D01*
X158873130Y-99472560D01*
X158587416Y-99472560D01*
X158492178Y-99424941D01*
X158444559Y-99377322D01*
%TO.C,R3*%
X161199000Y-86430146D02*
X160722810Y-86763480D01*
X161199000Y-87001575D02*
X160199000Y-87001575D01*
X160199000Y-86620622D01*
X160246620Y-86525384D01*
X160294239Y-86477765D01*
X160389477Y-86430146D01*
X160532334Y-86430146D01*
X160627572Y-86477765D01*
X160675191Y-86525384D01*
X160722810Y-86620622D01*
X160722810Y-87001575D01*
X160199000Y-86096813D02*
X160199000Y-85477765D01*
X160579953Y-85811099D01*
X160579953Y-85668241D01*
X160627572Y-85573003D01*
X160675191Y-85525384D01*
X160770429Y-85477765D01*
X161008524Y-85477765D01*
X161103762Y-85525384D01*
X161151381Y-85573003D01*
X161199000Y-85668241D01*
X161199000Y-85953956D01*
X161151381Y-86049194D01*
X161103762Y-86096813D01*
%TO.C,U2*%
X139809695Y-135360160D02*
X139809695Y-136169684D01*
X139857314Y-136264922D01*
X139904933Y-136312541D01*
X140000171Y-136360160D01*
X140190647Y-136360160D01*
X140285885Y-136312541D01*
X140333504Y-136264922D01*
X140381123Y-136169684D01*
X140381123Y-135360160D01*
X140809695Y-136312541D02*
X140952552Y-136360160D01*
X141190647Y-136360160D01*
X141285885Y-136312541D01*
X141333504Y-136264922D01*
X141381123Y-136169684D01*
X141381123Y-136074446D01*
X141333504Y-135979208D01*
X141285885Y-135931589D01*
X141190647Y-135883970D01*
X141000171Y-135836351D01*
X140904933Y-135788732D01*
X140857314Y-135741113D01*
X140809695Y-135645875D01*
X140809695Y-135550637D01*
X140857314Y-135455399D01*
X140904933Y-135407780D01*
X141000171Y-135360160D01*
X141238266Y-135360160D01*
X141381123Y-135407780D01*
X142143028Y-135836351D02*
X142285885Y-135883970D01*
X142333504Y-135931589D01*
X142381123Y-136026827D01*
X142381123Y-136169684D01*
X142333504Y-136264922D01*
X142285885Y-136312541D01*
X142190647Y-136360160D01*
X141809695Y-136360160D01*
X141809695Y-135360160D01*
X142143028Y-135360160D01*
X142238266Y-135407780D01*
X142285885Y-135455399D01*
X142333504Y-135550637D01*
X142333504Y-135645875D01*
X142285885Y-135741113D01*
X142238266Y-135788732D01*
X142143028Y-135836351D01*
X141809695Y-135836351D01*
%TO.C,C7*%
X110387949Y-136082972D02*
X110455292Y-136082972D01*
X110589979Y-136150316D01*
X110657323Y-136217660D01*
X110724666Y-136352347D01*
X110724666Y-136487034D01*
X110690995Y-136588049D01*
X110589979Y-136756408D01*
X110488964Y-136857423D01*
X110320605Y-136958438D01*
X110219590Y-136992110D01*
X110084903Y-136992110D01*
X109950216Y-136924766D01*
X109882872Y-136857423D01*
X109815529Y-136722736D01*
X109815529Y-136655392D01*
X109512483Y-136487034D02*
X109041079Y-136015629D01*
X110051231Y-135611568D01*
%TO.C,C6*%
X157888533Y-128400082D02*
X157840914Y-128447701D01*
X157698057Y-128495320D01*
X157602819Y-128495320D01*
X157459961Y-128447701D01*
X157364723Y-128352463D01*
X157317104Y-128257225D01*
X157269485Y-128066749D01*
X157269485Y-127923892D01*
X157317104Y-127733416D01*
X157364723Y-127638178D01*
X157459961Y-127542940D01*
X157602819Y-127495320D01*
X157698057Y-127495320D01*
X157840914Y-127542940D01*
X157888533Y-127590559D01*
X158745676Y-127495320D02*
X158555200Y-127495320D01*
X158459961Y-127542940D01*
X158412342Y-127590559D01*
X158317104Y-127733416D01*
X158269485Y-127923892D01*
X158269485Y-128304844D01*
X158317104Y-128400082D01*
X158364723Y-128447701D01*
X158459961Y-128495320D01*
X158650438Y-128495320D01*
X158745676Y-128447701D01*
X158793295Y-128400082D01*
X158840914Y-128304844D01*
X158840914Y-128066749D01*
X158793295Y-127971511D01*
X158745676Y-127923892D01*
X158650438Y-127876273D01*
X158459961Y-127876273D01*
X158364723Y-127923892D01*
X158317104Y-127971511D01*
X158269485Y-128066749D01*
%TO.C,C3*%
X132936953Y-79384162D02*
X132889334Y-79431781D01*
X132746477Y-79479400D01*
X132651239Y-79479400D01*
X132508381Y-79431781D01*
X132413143Y-79336543D01*
X132365524Y-79241305D01*
X132317905Y-79050829D01*
X132317905Y-78907972D01*
X132365524Y-78717496D01*
X132413143Y-78622258D01*
X132508381Y-78527020D01*
X132651239Y-78479400D01*
X132746477Y-78479400D01*
X132889334Y-78527020D01*
X132936953Y-78574639D01*
X133270286Y-78479400D02*
X133889334Y-78479400D01*
X133556000Y-78860353D01*
X133698858Y-78860353D01*
X133794096Y-78907972D01*
X133841715Y-78955591D01*
X133889334Y-79050829D01*
X133889334Y-79288924D01*
X133841715Y-79384162D01*
X133794096Y-79431781D01*
X133698858Y-79479400D01*
X133413143Y-79479400D01*
X133317905Y-79431781D01*
X133270286Y-79384162D01*
D12*
%TO.C,J4*%
X109583220Y-103057960D02*
X105773220Y-103057960D01*
X105773220Y-100517960D02*
X109583220Y-100517960D01*
X109583220Y-100517960D02*
X109583220Y-103057960D01*
%TO.C,J2*%
X126052580Y-151414480D02*
X120972580Y-151414480D01*
X126560580Y-151287480D02*
X126560580Y-141127480D01*
X126052580Y-141000480D02*
X120972580Y-141000480D01*
%TO.C,C2*%
X129871300Y-78431636D02*
X129871300Y-79635764D01*
X127151300Y-78431636D02*
X127151300Y-79635764D01*
%TO.C,C4*%
X121535360Y-106513876D02*
X121535360Y-107718004D01*
X124255360Y-106513876D02*
X124255360Y-107718004D01*
%TO.C,F1*%
X157484760Y-123507440D02*
X157484760Y-114907440D01*
X157484760Y-123507440D02*
X161584760Y-123507440D01*
X157484760Y-114907440D02*
X161584760Y-114907440D01*
X161584760Y-123507440D02*
X161584760Y-114907440D01*
%TO.C,REF\u002A\u002A*%
X113573000Y-126135000D02*
X114081000Y-125627000D01*
X113573000Y-126389000D02*
X113573000Y-126643000D01*
X112049000Y-125881000D02*
X112303000Y-126135000D01*
X113065000Y-126135000D02*
X113573000Y-126135000D01*
X112303000Y-125119000D02*
X111795000Y-125627000D01*
X112049000Y-125119000D02*
X112049000Y-124611000D01*
X112811000Y-125627000D02*
X112811000Y-125373000D01*
X112303000Y-125119000D02*
X113065000Y-125119000D01*
X112557000Y-125627000D02*
X111795000Y-125627000D01*
X113065000Y-125119000D02*
X113065000Y-125881000D01*
X113065000Y-125881000D02*
X112557000Y-126389000D01*
X112049000Y-124611000D02*
X112557000Y-124103000D01*
X112811000Y-125373000D02*
X112557000Y-125373000D01*
X113319000Y-126389000D02*
X112811000Y-126897000D01*
X111795000Y-124865000D02*
X111287000Y-125373000D01*
X111795000Y-124611000D02*
X111541000Y-124611000D01*
X112557000Y-126389000D02*
X112557000Y-125627000D01*
%TO.C,C1*%
X121964620Y-75098496D02*
X121964620Y-76302624D01*
X124684620Y-75098496D02*
X124684620Y-76302624D01*
%TO.C,R1*%
X122142120Y-71409560D02*
X122912120Y-71409560D01*
X129452120Y-70039560D02*
X122912120Y-70039560D01*
X129452120Y-72779560D02*
X129452120Y-70039560D01*
X130222120Y-71409560D02*
X129452120Y-71409560D01*
X122912120Y-70039560D02*
X122912120Y-72779560D01*
X122912120Y-72779560D02*
X129452120Y-72779560D01*
%TO.C,R2*%
X130215120Y-75283060D02*
X127055120Y-75283060D01*
X132055120Y-75283060D02*
G75*
G03*
X132055120Y-75283060I-920000J0D01*
G01*
%TO.C,RN1*%
X117543120Y-107942560D02*
X117543120Y-133682560D01*
X120343120Y-107942560D02*
X117543120Y-107942560D01*
X117543120Y-133682560D02*
X120343120Y-133682560D01*
X120343120Y-133682560D02*
X120343120Y-107942560D01*
X120343120Y-110652560D02*
X117543120Y-110652560D01*
%TO.C,RN2*%
X120343120Y-81272560D02*
X117543120Y-81272560D01*
X117543120Y-104302560D02*
X120343120Y-104302560D01*
X117543120Y-107012560D02*
X120343120Y-107012560D01*
X120343120Y-107012560D02*
X120343120Y-81272560D01*
X117543120Y-81272560D02*
X117543120Y-107012560D01*
%TO.C,U1*%
X137682620Y-76870560D02*
X135142620Y-76870560D01*
X153572620Y-69210560D02*
X137682620Y-69210560D01*
X137682620Y-74330560D02*
X135142620Y-74330560D01*
X153572620Y-69210560D02*
X153572620Y-79450560D01*
X153572620Y-79450560D02*
X137682620Y-79450560D01*
X137682620Y-69210560D02*
X137682620Y-79450560D01*
X137682620Y-71790560D02*
X135142620Y-71790560D01*
%TO.C,J1*%
X120762720Y-135680140D02*
X120762720Y-138340140D01*
X124632720Y-135680140D02*
X125962720Y-135680140D01*
X125962720Y-135680140D02*
X125962720Y-137010140D01*
X123362720Y-138340140D02*
X120762720Y-138340140D01*
X123362720Y-135680140D02*
X123362720Y-138340140D01*
X123362720Y-135680140D02*
X120762720Y-135680140D01*
%TO.C,D1*%
X157610200Y-138795420D02*
X160550200Y-138795420D01*
X160550200Y-133355420D02*
X157610200Y-133355420D01*
X160550200Y-134255420D02*
X157610200Y-134255420D01*
X160550200Y-134375420D02*
X157610200Y-134375420D01*
X160550200Y-134135420D02*
X157610200Y-134135420D01*
X160550200Y-138795420D02*
X160550200Y-133355420D01*
X159080200Y-132135420D02*
X159080200Y-133355420D01*
X157610200Y-133355420D02*
X157610200Y-138795420D01*
X159080200Y-140015420D02*
X159080200Y-138795420D01*
%TO.C,D2*%
X156895140Y-134293520D02*
X153955140Y-134293520D01*
X156895140Y-134173520D02*
X153955140Y-134173520D01*
X156895140Y-134413520D02*
X153955140Y-134413520D01*
X156895140Y-133393520D02*
X153955140Y-133393520D01*
X155425140Y-140053520D02*
X155425140Y-138833520D01*
X153955140Y-133393520D02*
X153955140Y-138833520D01*
X155425140Y-132173520D02*
X155425140Y-133393520D01*
X156895140Y-138833520D02*
X156895140Y-133393520D01*
X153955140Y-138833520D02*
X156895140Y-138833520D01*
%TO.C,C5*%
X153767720Y-116720048D02*
X153767720Y-117242552D01*
X155187720Y-116720048D02*
X155187720Y-117242552D01*
%TO.C,J3*%
X159726940Y-96690180D02*
X159726940Y-98020180D01*
X159726940Y-98020180D02*
X158396940Y-98020180D01*
X159726940Y-95420180D02*
X159726940Y-92820180D01*
X159726940Y-95420180D02*
X157066940Y-95420180D01*
X159726940Y-92820180D02*
X157066940Y-92820180D01*
X157066940Y-95420180D02*
X157066940Y-92820180D01*
%TO.C,R3*%
X159746620Y-82993480D02*
X159746620Y-89533480D01*
X157006620Y-82993480D02*
X157006620Y-89533480D01*
X159746620Y-89533480D02*
X159416620Y-89533480D01*
X157006620Y-89533480D02*
X157336620Y-89533480D01*
X157336620Y-82993480D02*
X157006620Y-82993480D01*
X159416620Y-82993480D02*
X159746620Y-82993480D01*
%TO.C,U2*%
X143154400Y-134129780D02*
X138836400Y-134129780D01*
X143154400Y-137431780D02*
X143154400Y-134129780D01*
X138836400Y-134129780D02*
X138836400Y-137431780D01*
X151766400Y-135907780D02*
G75*
G03*
X151766400Y-135907780I-1500000J0D01*
G01*
%TO.C,C7*%
X111475707Y-133735101D02*
X111106241Y-134104567D01*
X112479799Y-134739193D02*
X112110333Y-135108659D01*
%TO.C,C6*%
X158316452Y-125682940D02*
X157793948Y-125682940D01*
X158316452Y-127102940D02*
X157793948Y-127102940D01*
%TO.C,C3*%
X131939100Y-78282008D02*
X131939100Y-78804512D01*
X130519100Y-78282008D02*
X130519100Y-78804512D01*
%TD*%
M02*
