%TF.GenerationSoftware,KiCad,Pcbnew,(6.0.2)*%
%TF.CreationDate,2022-04-05T12:49:12-06:00*%
%TF.ProjectId,PowerBook_F4_THTV1,506f7765-7242-46f6-9f6b-5f46345f5448,rev?*%
%TF.SameCoordinates,Original*%
%TF.FileFunction,Legend,Top*%
%TF.FilePolarity,Positive*%
%FSLAX46Y46*%
G04 Gerber Fmt 4.6, Leading zero omitted, Abs format (unit mm)*
G04 Created by KiCad (PCBNEW (6.0.2)) date 2022-04-05 12:49:12*
%MOMM*%
%LPD*%
G01*
G04 APERTURE LIST*
%ADD10C,0.500000*%
%ADD11C,0.150000*%
%ADD12C,0.120000*%
G04 APERTURE END LIST*
D10*
X89170624Y-74070000D02*
G75*
G03*
X89170624Y-74070000I-320624J0D01*
G01*
X78990624Y-72370000D02*
G75*
G03*
X78990624Y-72370000I-320624J0D01*
G01*
D11*
X90418139Y-102805174D02*
X90180043Y-102805174D01*
X90180043Y-101376602D01*
X90418139Y-101376602D01*
X91132424Y-101948031D02*
X90799091Y-101948031D01*
X90799091Y-102471840D02*
X90799091Y-101471840D01*
X91275281Y-101471840D01*
X92084805Y-101805174D02*
X92084805Y-102471840D01*
X91846710Y-101424221D02*
X91608615Y-102138507D01*
X92227662Y-102138507D01*
X92608615Y-102376602D02*
X92656234Y-102424221D01*
X92608615Y-102471840D01*
X92560996Y-102424221D01*
X92608615Y-102376602D01*
X92608615Y-102471840D01*
X92941948Y-101471840D02*
X93513377Y-101471840D01*
X93227662Y-102471840D02*
X93227662Y-101471840D01*
X93846710Y-102471840D02*
X93846710Y-101471840D01*
X93846710Y-101852793D02*
X93941948Y-101805174D01*
X94132424Y-101805174D01*
X94227662Y-101852793D01*
X94275281Y-101900412D01*
X94322900Y-101995650D01*
X94322900Y-102281364D01*
X94275281Y-102376602D01*
X94227662Y-102424221D01*
X94132424Y-102471840D01*
X93941948Y-102471840D01*
X93846710Y-102424221D01*
X94703853Y-102186126D02*
X95180043Y-102186126D01*
X94608615Y-102471840D02*
X94941948Y-101471840D01*
X95275281Y-102471840D01*
X95608615Y-102376602D02*
X95656234Y-102424221D01*
X95608615Y-102471840D01*
X95560996Y-102424221D01*
X95608615Y-102376602D01*
X95608615Y-102471840D01*
X96084805Y-102471840D02*
X96084805Y-101471840D01*
X96465758Y-101471840D01*
X96560996Y-101519460D01*
X96608615Y-101567079D01*
X96656234Y-101662317D01*
X96656234Y-101805174D01*
X96608615Y-101900412D01*
X96560996Y-101948031D01*
X96465758Y-101995650D01*
X96084805Y-101995650D01*
X97418139Y-101948031D02*
X97560996Y-101995650D01*
X97608615Y-102043269D01*
X97656234Y-102138507D01*
X97656234Y-102281364D01*
X97608615Y-102376602D01*
X97560996Y-102424221D01*
X97465758Y-102471840D01*
X97084805Y-102471840D01*
X97084805Y-101471840D01*
X97418139Y-101471840D01*
X97513377Y-101519460D01*
X97560996Y-101567079D01*
X97608615Y-101662317D01*
X97608615Y-101757555D01*
X97560996Y-101852793D01*
X97513377Y-101900412D01*
X97418139Y-101948031D01*
X97084805Y-101948031D01*
X98084805Y-102376602D02*
X98132424Y-102424221D01*
X98084805Y-102471840D01*
X98037186Y-102424221D01*
X98084805Y-102376602D01*
X98084805Y-102471840D01*
X98418139Y-101471840D02*
X98989567Y-101471840D01*
X98703853Y-102471840D02*
X98703853Y-101471840D01*
X99322900Y-102471840D02*
X99322900Y-101471840D01*
X99322900Y-101948031D02*
X99894329Y-101948031D01*
X99894329Y-102471840D02*
X99894329Y-101471840D01*
X100227662Y-101471840D02*
X100799091Y-101471840D01*
X100513377Y-102471840D02*
X100513377Y-101471840D01*
X101132424Y-102376602D02*
X101180043Y-102424221D01*
X101132424Y-102471840D01*
X101084805Y-102424221D01*
X101132424Y-102376602D01*
X101132424Y-102471840D01*
X101465758Y-101471840D02*
X101799091Y-102471840D01*
X102132424Y-101471840D01*
X102989567Y-102471840D02*
X102418139Y-102471840D01*
X102703853Y-102471840D02*
X102703853Y-101471840D01*
X102608615Y-101614698D01*
X102513377Y-101709936D01*
X102418139Y-101757555D01*
X103322900Y-102805174D02*
X103560996Y-102805174D01*
X103560996Y-101376602D01*
X103322900Y-101376602D01*
X88465758Y-103319936D02*
X88370520Y-103272317D01*
X88180043Y-103272317D01*
X88084805Y-103319936D01*
X87989567Y-103415174D01*
X87941948Y-103510412D01*
X87941948Y-103700888D01*
X87989567Y-103796126D01*
X88084805Y-103891364D01*
X88180043Y-103938983D01*
X88370520Y-103938983D01*
X88465758Y-103891364D01*
X88275281Y-102938983D02*
X88037186Y-102986602D01*
X87799091Y-103129460D01*
X87656234Y-103367555D01*
X87608615Y-103605650D01*
X87656234Y-103843745D01*
X87799091Y-104081840D01*
X88037186Y-104224698D01*
X88275281Y-104272317D01*
X88513377Y-104224698D01*
X88751472Y-104081840D01*
X88894329Y-103843745D01*
X88941948Y-103605650D01*
X88894329Y-103367555D01*
X88751472Y-103129460D01*
X88513377Y-102986602D01*
X88275281Y-102938983D01*
X89989567Y-103081840D02*
X90560996Y-103081840D01*
X90275281Y-104081840D02*
X90275281Y-103081840D01*
X91275281Y-104034221D02*
X91180043Y-104081840D01*
X90989567Y-104081840D01*
X90894329Y-104034221D01*
X90846710Y-103938983D01*
X90846710Y-103558031D01*
X90894329Y-103462793D01*
X90989567Y-103415174D01*
X91180043Y-103415174D01*
X91275281Y-103462793D01*
X91322900Y-103558031D01*
X91322900Y-103653269D01*
X90846710Y-103748507D01*
X92180043Y-104034221D02*
X92084805Y-104081840D01*
X91894329Y-104081840D01*
X91799091Y-104034221D01*
X91751472Y-103986602D01*
X91703853Y-103891364D01*
X91703853Y-103605650D01*
X91751472Y-103510412D01*
X91799091Y-103462793D01*
X91894329Y-103415174D01*
X92084805Y-103415174D01*
X92180043Y-103462793D01*
X92608615Y-104081840D02*
X92608615Y-103081840D01*
X93037186Y-104081840D02*
X93037186Y-103558031D01*
X92989567Y-103462793D01*
X92894329Y-103415174D01*
X92751472Y-103415174D01*
X92656234Y-103462793D01*
X92608615Y-103510412D01*
X94275281Y-104081840D02*
X94275281Y-103081840D01*
X94275281Y-103462793D02*
X94370520Y-103415174D01*
X94560996Y-103415174D01*
X94656234Y-103462793D01*
X94703853Y-103510412D01*
X94751472Y-103605650D01*
X94751472Y-103891364D01*
X94703853Y-103986602D01*
X94656234Y-104034221D01*
X94560996Y-104081840D01*
X94370520Y-104081840D01*
X94275281Y-104034221D01*
X95084805Y-103415174D02*
X95322900Y-104081840D01*
X95560996Y-103415174D02*
X95322900Y-104081840D01*
X95227662Y-104319936D01*
X95180043Y-104367555D01*
X95084805Y-104415174D01*
X96656234Y-103796126D02*
X97132424Y-103796126D01*
X96560996Y-104081840D02*
X96894329Y-103081840D01*
X97227662Y-104081840D01*
X97560996Y-103415174D02*
X97560996Y-104081840D01*
X97560996Y-103510412D02*
X97608615Y-103462793D01*
X97703853Y-103415174D01*
X97846710Y-103415174D01*
X97941948Y-103462793D01*
X97989567Y-103558031D01*
X97989567Y-104081840D01*
X98894329Y-104081840D02*
X98894329Y-103081840D01*
X98894329Y-104034221D02*
X98799091Y-104081840D01*
X98608615Y-104081840D01*
X98513377Y-104034221D01*
X98465758Y-103986602D01*
X98418139Y-103891364D01*
X98418139Y-103605650D01*
X98465758Y-103510412D01*
X98513377Y-103462793D01*
X98608615Y-103415174D01*
X98799091Y-103415174D01*
X98894329Y-103462793D01*
X99370520Y-104081840D02*
X99370520Y-103415174D01*
X99370520Y-103605650D02*
X99418139Y-103510412D01*
X99465758Y-103462793D01*
X99560996Y-103415174D01*
X99656234Y-103415174D01*
X100132424Y-104081840D02*
X100037186Y-104034221D01*
X99989567Y-103986602D01*
X99941948Y-103891364D01*
X99941948Y-103605650D01*
X99989567Y-103510412D01*
X100037186Y-103462793D01*
X100132424Y-103415174D01*
X100275281Y-103415174D01*
X100370520Y-103462793D01*
X100418139Y-103510412D01*
X100465758Y-103605650D01*
X100465758Y-103891364D01*
X100418139Y-103986602D01*
X100370520Y-104034221D01*
X100275281Y-104081840D01*
X100132424Y-104081840D01*
X101322900Y-104081840D02*
X101322900Y-103081840D01*
X101322900Y-104034221D02*
X101227662Y-104081840D01*
X101037186Y-104081840D01*
X100941948Y-104034221D01*
X100894329Y-103986602D01*
X100846710Y-103891364D01*
X100846710Y-103605650D01*
X100894329Y-103510412D01*
X100941948Y-103462793D01*
X101037186Y-103415174D01*
X101227662Y-103415174D01*
X101322900Y-103462793D01*
X102227662Y-104081840D02*
X102227662Y-103558031D01*
X102180043Y-103462793D01*
X102084805Y-103415174D01*
X101894329Y-103415174D01*
X101799091Y-103462793D01*
X102227662Y-104034221D02*
X102132424Y-104081840D01*
X101894329Y-104081840D01*
X101799091Y-104034221D01*
X101751472Y-103938983D01*
X101751472Y-103843745D01*
X101799091Y-103748507D01*
X101894329Y-103700888D01*
X102132424Y-103700888D01*
X102227662Y-103653269D01*
X102751472Y-104034221D02*
X102751472Y-104081840D01*
X102703853Y-104177079D01*
X102656234Y-104224698D01*
X104418139Y-104081840D02*
X103941948Y-104081840D01*
X103941948Y-103081840D01*
X105227662Y-104081840D02*
X104751472Y-104081840D01*
X104751472Y-103081840D01*
X106132424Y-103986602D02*
X106084805Y-104034221D01*
X105941948Y-104081840D01*
X105846710Y-104081840D01*
X105703853Y-104034221D01*
X105608615Y-103938983D01*
X105560996Y-103843745D01*
X105513377Y-103653269D01*
X105513377Y-103510412D01*
X105560996Y-103319936D01*
X105608615Y-103224698D01*
X105703853Y-103129460D01*
X105846710Y-103081840D01*
X105941948Y-103081840D01*
X106084805Y-103129460D01*
X106132424Y-103177079D01*
X93084805Y-105406126D02*
X93560996Y-105406126D01*
X92989567Y-105691840D02*
X93322900Y-104691840D01*
X93656234Y-105691840D01*
X93989567Y-105025174D02*
X93989567Y-106025174D01*
X93989567Y-105072793D02*
X94084805Y-105025174D01*
X94275281Y-105025174D01*
X94370520Y-105072793D01*
X94418139Y-105120412D01*
X94465758Y-105215650D01*
X94465758Y-105501364D01*
X94418139Y-105596602D01*
X94370520Y-105644221D01*
X94275281Y-105691840D01*
X94084805Y-105691840D01*
X93989567Y-105644221D01*
X94894329Y-105691840D02*
X94894329Y-105025174D01*
X94894329Y-105215650D02*
X94941948Y-105120412D01*
X94989567Y-105072793D01*
X95084805Y-105025174D01*
X95180043Y-105025174D01*
X95513377Y-105691840D02*
X95513377Y-105025174D01*
X95513377Y-104691840D02*
X95465758Y-104739460D01*
X95513377Y-104787079D01*
X95560996Y-104739460D01*
X95513377Y-104691840D01*
X95513377Y-104787079D01*
X96132424Y-105691840D02*
X96037186Y-105644221D01*
X95989567Y-105548983D01*
X95989567Y-104691840D01*
X97227662Y-104787079D02*
X97275281Y-104739460D01*
X97370520Y-104691840D01*
X97608615Y-104691840D01*
X97703853Y-104739460D01*
X97751472Y-104787079D01*
X97799091Y-104882317D01*
X97799091Y-104977555D01*
X97751472Y-105120412D01*
X97180043Y-105691840D01*
X97799091Y-105691840D01*
X98418139Y-104691840D02*
X98513377Y-104691840D01*
X98608615Y-104739460D01*
X98656234Y-104787079D01*
X98703853Y-104882317D01*
X98751472Y-105072793D01*
X98751472Y-105310888D01*
X98703853Y-105501364D01*
X98656234Y-105596602D01*
X98608615Y-105644221D01*
X98513377Y-105691840D01*
X98418139Y-105691840D01*
X98322900Y-105644221D01*
X98275281Y-105596602D01*
X98227662Y-105501364D01*
X98180043Y-105310888D01*
X98180043Y-105072793D01*
X98227662Y-104882317D01*
X98275281Y-104787079D01*
X98322900Y-104739460D01*
X98418139Y-104691840D01*
X99132424Y-104787079D02*
X99180043Y-104739460D01*
X99275281Y-104691840D01*
X99513377Y-104691840D01*
X99608615Y-104739460D01*
X99656234Y-104787079D01*
X99703853Y-104882317D01*
X99703853Y-104977555D01*
X99656234Y-105120412D01*
X99084805Y-105691840D01*
X99703853Y-105691840D01*
X100084805Y-104787079D02*
X100132424Y-104739460D01*
X100227662Y-104691840D01*
X100465758Y-104691840D01*
X100560996Y-104739460D01*
X100608615Y-104787079D01*
X100656234Y-104882317D01*
X100656234Y-104977555D01*
X100608615Y-105120412D01*
X100037186Y-105691840D01*
X100656234Y-105691840D01*
X109035247Y-105867460D02*
X109035247Y-104867460D01*
X109463819Y-105867460D02*
X109463819Y-105343651D01*
X109416200Y-105248413D01*
X109320961Y-105200794D01*
X109178104Y-105200794D01*
X109082866Y-105248413D01*
X109035247Y-105296032D01*
X109797152Y-105200794D02*
X110178104Y-105200794D01*
X109940009Y-104867460D02*
X109940009Y-105724603D01*
X109987628Y-105819841D01*
X110082866Y-105867460D01*
X110178104Y-105867460D01*
X110368580Y-105200794D02*
X110749533Y-105200794D01*
X110511438Y-104867460D02*
X110511438Y-105724603D01*
X110559057Y-105819841D01*
X110654295Y-105867460D01*
X110749533Y-105867460D01*
X111082866Y-105200794D02*
X111082866Y-106200794D01*
X111082866Y-105248413D02*
X111178104Y-105200794D01*
X111368580Y-105200794D01*
X111463819Y-105248413D01*
X111511438Y-105296032D01*
X111559057Y-105391270D01*
X111559057Y-105676984D01*
X111511438Y-105772222D01*
X111463819Y-105819841D01*
X111368580Y-105867460D01*
X111178104Y-105867460D01*
X111082866Y-105819841D01*
X111940009Y-105819841D02*
X112035247Y-105867460D01*
X112225723Y-105867460D01*
X112320961Y-105819841D01*
X112368580Y-105724603D01*
X112368580Y-105676984D01*
X112320961Y-105581746D01*
X112225723Y-105534127D01*
X112082866Y-105534127D01*
X111987628Y-105486508D01*
X111940009Y-105391270D01*
X111940009Y-105343651D01*
X111987628Y-105248413D01*
X112082866Y-105200794D01*
X112225723Y-105200794D01*
X112320961Y-105248413D01*
X112797152Y-105772222D02*
X112844771Y-105819841D01*
X112797152Y-105867460D01*
X112749533Y-105819841D01*
X112797152Y-105772222D01*
X112797152Y-105867460D01*
X112797152Y-105248413D02*
X112844771Y-105296032D01*
X112797152Y-105343651D01*
X112749533Y-105296032D01*
X112797152Y-105248413D01*
X112797152Y-105343651D01*
X113987628Y-104819841D02*
X113130485Y-106105556D01*
X115035247Y-104819841D02*
X114178104Y-106105556D01*
X115797152Y-105867460D02*
X115797152Y-105343651D01*
X115749533Y-105248413D01*
X115654295Y-105200794D01*
X115463819Y-105200794D01*
X115368580Y-105248413D01*
X115797152Y-105819841D02*
X115701914Y-105867460D01*
X115463819Y-105867460D01*
X115368580Y-105819841D01*
X115320961Y-105724603D01*
X115320961Y-105629365D01*
X115368580Y-105534127D01*
X115463819Y-105486508D01*
X115701914Y-105486508D01*
X115797152Y-105438889D01*
X116273342Y-105200794D02*
X116273342Y-105867460D01*
X116273342Y-105296032D02*
X116320961Y-105248413D01*
X116416200Y-105200794D01*
X116559057Y-105200794D01*
X116654295Y-105248413D01*
X116701914Y-105343651D01*
X116701914Y-105867460D01*
X117606676Y-105867460D02*
X117606676Y-104867460D01*
X117606676Y-105819841D02*
X117511438Y-105867460D01*
X117320961Y-105867460D01*
X117225723Y-105819841D01*
X117178104Y-105772222D01*
X117130485Y-105676984D01*
X117130485Y-105391270D01*
X117178104Y-105296032D01*
X117225723Y-105248413D01*
X117320961Y-105200794D01*
X117511438Y-105200794D01*
X117606676Y-105248413D01*
X118082866Y-105867460D02*
X118082866Y-105200794D01*
X118082866Y-105391270D02*
X118130485Y-105296032D01*
X118178104Y-105248413D01*
X118273342Y-105200794D01*
X118368580Y-105200794D01*
X118844771Y-105867460D02*
X118749533Y-105819841D01*
X118701914Y-105772222D01*
X118654295Y-105676984D01*
X118654295Y-105391270D01*
X118701914Y-105296032D01*
X118749533Y-105248413D01*
X118844771Y-105200794D01*
X118987628Y-105200794D01*
X119082866Y-105248413D01*
X119130485Y-105296032D01*
X119178104Y-105391270D01*
X119178104Y-105676984D01*
X119130485Y-105772222D01*
X119082866Y-105819841D01*
X118987628Y-105867460D01*
X118844771Y-105867460D01*
X120035247Y-105867460D02*
X120035247Y-104867460D01*
X120035247Y-105819841D02*
X119940009Y-105867460D01*
X119749533Y-105867460D01*
X119654295Y-105819841D01*
X119606676Y-105772222D01*
X119559057Y-105676984D01*
X119559057Y-105391270D01*
X119606676Y-105296032D01*
X119654295Y-105248413D01*
X119749533Y-105200794D01*
X119940009Y-105200794D01*
X120035247Y-105248413D01*
X120940009Y-105867460D02*
X120940009Y-105343651D01*
X120892390Y-105248413D01*
X120797152Y-105200794D01*
X120606676Y-105200794D01*
X120511438Y-105248413D01*
X120940009Y-105819841D02*
X120844771Y-105867460D01*
X120606676Y-105867460D01*
X120511438Y-105819841D01*
X120463819Y-105724603D01*
X120463819Y-105629365D01*
X120511438Y-105534127D01*
X120606676Y-105486508D01*
X120844771Y-105486508D01*
X120940009Y-105438889D01*
X121416200Y-105772222D02*
X121463819Y-105819841D01*
X121416200Y-105867460D01*
X121368580Y-105819841D01*
X121416200Y-105772222D01*
X121416200Y-105867460D01*
X121797152Y-105200794D02*
X121987628Y-105867460D01*
X122178104Y-105391270D01*
X122368580Y-105867460D01*
X122559057Y-105200794D01*
X123082866Y-105867460D02*
X122987628Y-105819841D01*
X122940009Y-105772222D01*
X122892390Y-105676984D01*
X122892390Y-105391270D01*
X122940009Y-105296032D01*
X122987628Y-105248413D01*
X123082866Y-105200794D01*
X123225723Y-105200794D01*
X123320961Y-105248413D01*
X123368580Y-105296032D01*
X123416200Y-105391270D01*
X123416200Y-105676984D01*
X123368580Y-105772222D01*
X123320961Y-105819841D01*
X123225723Y-105867460D01*
X123082866Y-105867460D01*
X123844771Y-105867460D02*
X123844771Y-105200794D01*
X123844771Y-105391270D02*
X123892390Y-105296032D01*
X123940009Y-105248413D01*
X124035247Y-105200794D01*
X124130485Y-105200794D01*
X124463819Y-105867460D02*
X124463819Y-104867460D01*
X124559057Y-105486508D02*
X124844771Y-105867460D01*
X124844771Y-105200794D02*
X124463819Y-105581746D01*
X135608333Y-76160476D02*
X135560714Y-76208095D01*
X135417857Y-76303333D01*
X135322619Y-76350952D01*
X135179761Y-76398571D01*
X134941666Y-76446190D01*
X134751190Y-76446190D01*
X134513095Y-76398571D01*
X134370238Y-76350952D01*
X134275000Y-76303333D01*
X134132142Y-76208095D01*
X134084523Y-76160476D01*
X135132142Y-75208095D02*
X135179761Y-75255714D01*
X135227380Y-75398571D01*
X135227380Y-75493809D01*
X135179761Y-75636666D01*
X135084523Y-75731904D01*
X134989285Y-75779523D01*
X134798809Y-75827142D01*
X134655952Y-75827142D01*
X134465476Y-75779523D01*
X134370238Y-75731904D01*
X134275000Y-75636666D01*
X134227380Y-75493809D01*
X134227380Y-75398571D01*
X134275000Y-75255714D01*
X134322619Y-75208095D01*
X135132142Y-74208095D02*
X135179761Y-74255714D01*
X135227380Y-74398571D01*
X135227380Y-74493809D01*
X135179761Y-74636666D01*
X135084523Y-74731904D01*
X134989285Y-74779523D01*
X134798809Y-74827142D01*
X134655952Y-74827142D01*
X134465476Y-74779523D01*
X134370238Y-74731904D01*
X134275000Y-74636666D01*
X134227380Y-74493809D01*
X134227380Y-74398571D01*
X134275000Y-74255714D01*
X134322619Y-74208095D01*
X134703571Y-72684285D02*
X134751190Y-72541428D01*
X134798809Y-72493809D01*
X134894047Y-72446190D01*
X135036904Y-72446190D01*
X135132142Y-72493809D01*
X135179761Y-72541428D01*
X135227380Y-72636666D01*
X135227380Y-73017619D01*
X134227380Y-73017619D01*
X134227380Y-72684285D01*
X134275000Y-72589047D01*
X134322619Y-72541428D01*
X134417857Y-72493809D01*
X134513095Y-72493809D01*
X134608333Y-72541428D01*
X134655952Y-72589047D01*
X134703571Y-72684285D01*
X134703571Y-73017619D01*
X134751190Y-71827142D02*
X135227380Y-71827142D01*
X134227380Y-72160476D02*
X134751190Y-71827142D01*
X134227380Y-71493809D01*
X134846428Y-71160476D02*
X134846428Y-70398571D01*
X135227380Y-69922380D02*
X134227380Y-69922380D01*
X135227380Y-69350952D01*
X134227380Y-69350952D01*
X135132142Y-68303333D02*
X135179761Y-68350952D01*
X135227380Y-68493809D01*
X135227380Y-68589047D01*
X135179761Y-68731904D01*
X135084523Y-68827142D01*
X134989285Y-68874761D01*
X134798809Y-68922380D01*
X134655952Y-68922380D01*
X134465476Y-68874761D01*
X134370238Y-68827142D01*
X134275000Y-68731904D01*
X134227380Y-68589047D01*
X134227380Y-68493809D01*
X134275000Y-68350952D01*
X134322619Y-68303333D01*
X134846428Y-67874761D02*
X134846428Y-67112857D01*
X135179761Y-66684285D02*
X135227380Y-66541428D01*
X135227380Y-66303333D01*
X135179761Y-66208095D01*
X135132142Y-66160476D01*
X135036904Y-66112857D01*
X134941666Y-66112857D01*
X134846428Y-66160476D01*
X134798809Y-66208095D01*
X134751190Y-66303333D01*
X134703571Y-66493809D01*
X134655952Y-66589047D01*
X134608333Y-66636666D01*
X134513095Y-66684285D01*
X134417857Y-66684285D01*
X134322619Y-66636666D01*
X134275000Y-66589047D01*
X134227380Y-66493809D01*
X134227380Y-66255714D01*
X134275000Y-66112857D01*
X134941666Y-65731904D02*
X134941666Y-65255714D01*
X135227380Y-65827142D02*
X134227380Y-65493809D01*
X135227380Y-65160476D01*
X134560714Y-63636666D02*
X135227380Y-63636666D01*
X134179761Y-63874761D02*
X134894047Y-64112857D01*
X134894047Y-63493809D01*
X135132142Y-63112857D02*
X135179761Y-63065238D01*
X135227380Y-63112857D01*
X135179761Y-63160476D01*
X135132142Y-63112857D01*
X135227380Y-63112857D01*
X134227380Y-62446190D02*
X134227380Y-62350952D01*
X134275000Y-62255714D01*
X134322619Y-62208095D01*
X134417857Y-62160476D01*
X134608333Y-62112857D01*
X134846428Y-62112857D01*
X135036904Y-62160476D01*
X135132142Y-62208095D01*
X135179761Y-62255714D01*
X135227380Y-62350952D01*
X135227380Y-62446190D01*
X135179761Y-62541428D01*
X135132142Y-62589047D01*
X135036904Y-62636666D01*
X134846428Y-62684285D01*
X134608333Y-62684285D01*
X134417857Y-62636666D01*
X134322619Y-62589047D01*
X134275000Y-62541428D01*
X134227380Y-62446190D01*
X135608333Y-61779523D02*
X135560714Y-61731904D01*
X135417857Y-61636666D01*
X135322619Y-61589047D01*
X135179761Y-61541428D01*
X134941666Y-61493809D01*
X134751190Y-61493809D01*
X134513095Y-61541428D01*
X134370238Y-61589047D01*
X134275000Y-61636666D01*
X134132142Y-61731904D01*
X134084523Y-61779523D01*
X136789761Y-76708095D02*
X136837380Y-76565238D01*
X136837380Y-76327142D01*
X136789761Y-76231904D01*
X136742142Y-76184285D01*
X136646904Y-76136666D01*
X136551666Y-76136666D01*
X136456428Y-76184285D01*
X136408809Y-76231904D01*
X136361190Y-76327142D01*
X136313571Y-76517619D01*
X136265952Y-76612857D01*
X136218333Y-76660476D01*
X136123095Y-76708095D01*
X136027857Y-76708095D01*
X135932619Y-76660476D01*
X135885000Y-76612857D01*
X135837380Y-76517619D01*
X135837380Y-76279523D01*
X135885000Y-76136666D01*
X136551666Y-75755714D02*
X136551666Y-75279523D01*
X136837380Y-75850952D02*
X135837380Y-75517619D01*
X136837380Y-75184285D01*
X136837380Y-74374761D02*
X136837380Y-74850952D01*
X135837380Y-74850952D01*
X136313571Y-74041428D02*
X136313571Y-73708095D01*
X136837380Y-73565238D02*
X136837380Y-74041428D01*
X135837380Y-74041428D01*
X135837380Y-73565238D01*
X136837380Y-72374761D02*
X135837380Y-72374761D01*
X136837380Y-71803333D01*
X135837380Y-71803333D01*
X135837380Y-71136666D02*
X135837380Y-70946190D01*
X135885000Y-70850952D01*
X135980238Y-70755714D01*
X136170714Y-70708095D01*
X136504047Y-70708095D01*
X136694523Y-70755714D01*
X136789761Y-70850952D01*
X136837380Y-70946190D01*
X136837380Y-71136666D01*
X136789761Y-71231904D01*
X136694523Y-71327142D01*
X136504047Y-71374761D01*
X136170714Y-71374761D01*
X135980238Y-71327142D01*
X135885000Y-71231904D01*
X135837380Y-71136666D01*
X135837380Y-70422380D02*
X135837380Y-69850952D01*
X136837380Y-70136666D02*
X135837380Y-70136666D01*
X136837380Y-68755714D02*
X135837380Y-68755714D01*
X135837380Y-68374761D01*
X135885000Y-68279523D01*
X135932619Y-68231904D01*
X136027857Y-68184285D01*
X136170714Y-68184285D01*
X136265952Y-68231904D01*
X136313571Y-68279523D01*
X136361190Y-68374761D01*
X136361190Y-68755714D01*
X136313571Y-67755714D02*
X136313571Y-67422380D01*
X136837380Y-67279523D02*
X136837380Y-67755714D01*
X135837380Y-67755714D01*
X135837380Y-67279523D01*
X136837380Y-66279523D02*
X136361190Y-66612857D01*
X136837380Y-66850952D02*
X135837380Y-66850952D01*
X135837380Y-66470000D01*
X135885000Y-66374761D01*
X135932619Y-66327142D01*
X136027857Y-66279523D01*
X136170714Y-66279523D01*
X136265952Y-66327142D01*
X136313571Y-66374761D01*
X136361190Y-66470000D01*
X136361190Y-66850952D01*
X136837380Y-65850952D02*
X135837380Y-65850952D01*
X136551666Y-65517619D01*
X135837380Y-65184285D01*
X136837380Y-65184285D01*
X136837380Y-64708095D02*
X135837380Y-64708095D01*
X135837380Y-64374761D02*
X135837380Y-63803333D01*
X136837380Y-64089047D02*
X135837380Y-64089047D01*
X135837380Y-63612857D02*
X135837380Y-63041428D01*
X136837380Y-63327142D02*
X135837380Y-63327142D01*
X136313571Y-62708095D02*
X136313571Y-62374761D01*
X136837380Y-62231904D02*
X136837380Y-62708095D01*
X135837380Y-62708095D01*
X135837380Y-62231904D01*
X136837380Y-61803333D02*
X135837380Y-61803333D01*
X135837380Y-61565238D01*
X135885000Y-61422380D01*
X135980238Y-61327142D01*
X136075476Y-61279523D01*
X136265952Y-61231904D01*
X136408809Y-61231904D01*
X136599285Y-61279523D01*
X136694523Y-61327142D01*
X136789761Y-61422380D01*
X136837380Y-61565238D01*
X136837380Y-61803333D01*
X107437142Y-62045714D02*
X107437142Y-62855238D01*
X107389523Y-62950476D01*
X107341904Y-62998095D01*
X107246666Y-63045714D01*
X107103809Y-63045714D01*
X107008571Y-62998095D01*
X107437142Y-62664761D02*
X107341904Y-62712380D01*
X107151428Y-62712380D01*
X107056190Y-62664761D01*
X107008571Y-62617142D01*
X106960952Y-62521904D01*
X106960952Y-62236190D01*
X107008571Y-62140952D01*
X107056190Y-62093333D01*
X107151428Y-62045714D01*
X107341904Y-62045714D01*
X107437142Y-62093333D01*
X107913333Y-62712380D02*
X107913333Y-62045714D01*
X107913333Y-61712380D02*
X107865714Y-61760000D01*
X107913333Y-61807619D01*
X107960952Y-61760000D01*
X107913333Y-61712380D01*
X107913333Y-61807619D01*
X108246666Y-62045714D02*
X108627619Y-62045714D01*
X108389523Y-61712380D02*
X108389523Y-62569523D01*
X108437142Y-62664761D01*
X108532380Y-62712380D01*
X108627619Y-62712380D01*
X108960952Y-62712380D02*
X108960952Y-61712380D01*
X109389523Y-62712380D02*
X109389523Y-62188571D01*
X109341904Y-62093333D01*
X109246666Y-62045714D01*
X109103809Y-62045714D01*
X109008571Y-62093333D01*
X108960952Y-62140952D01*
X110294285Y-62045714D02*
X110294285Y-62712380D01*
X109865714Y-62045714D02*
X109865714Y-62569523D01*
X109913333Y-62664761D01*
X110008571Y-62712380D01*
X110151428Y-62712380D01*
X110246666Y-62664761D01*
X110294285Y-62617142D01*
X110770476Y-62712380D02*
X110770476Y-61712380D01*
X110770476Y-62093333D02*
X110865714Y-62045714D01*
X111056190Y-62045714D01*
X111151428Y-62093333D01*
X111199047Y-62140952D01*
X111246666Y-62236190D01*
X111246666Y-62521904D01*
X111199047Y-62617142D01*
X111151428Y-62664761D01*
X111056190Y-62712380D01*
X110865714Y-62712380D01*
X110770476Y-62664761D01*
X111675238Y-62617142D02*
X111722857Y-62664761D01*
X111675238Y-62712380D01*
X111627619Y-62664761D01*
X111675238Y-62617142D01*
X111675238Y-62712380D01*
X112580000Y-62664761D02*
X112484761Y-62712380D01*
X112294285Y-62712380D01*
X112199047Y-62664761D01*
X112151428Y-62617142D01*
X112103809Y-62521904D01*
X112103809Y-62236190D01*
X112151428Y-62140952D01*
X112199047Y-62093333D01*
X112294285Y-62045714D01*
X112484761Y-62045714D01*
X112580000Y-62093333D01*
X113151428Y-62712380D02*
X113056190Y-62664761D01*
X113008571Y-62617142D01*
X112960952Y-62521904D01*
X112960952Y-62236190D01*
X113008571Y-62140952D01*
X113056190Y-62093333D01*
X113151428Y-62045714D01*
X113294285Y-62045714D01*
X113389523Y-62093333D01*
X113437142Y-62140952D01*
X113484761Y-62236190D01*
X113484761Y-62521904D01*
X113437142Y-62617142D01*
X113389523Y-62664761D01*
X113294285Y-62712380D01*
X113151428Y-62712380D01*
X113913333Y-62712380D02*
X113913333Y-62045714D01*
X113913333Y-62140952D02*
X113960952Y-62093333D01*
X114056190Y-62045714D01*
X114199047Y-62045714D01*
X114294285Y-62093333D01*
X114341904Y-62188571D01*
X114341904Y-62712380D01*
X114341904Y-62188571D02*
X114389523Y-62093333D01*
X114484761Y-62045714D01*
X114627619Y-62045714D01*
X114722857Y-62093333D01*
X114770476Y-62188571D01*
X114770476Y-62712380D01*
X115960952Y-61664761D02*
X115103809Y-62950476D01*
X116722857Y-62712380D02*
X116722857Y-62188571D01*
X116675238Y-62093333D01*
X116580000Y-62045714D01*
X116389523Y-62045714D01*
X116294285Y-62093333D01*
X116722857Y-62664761D02*
X116627619Y-62712380D01*
X116389523Y-62712380D01*
X116294285Y-62664761D01*
X116246666Y-62569523D01*
X116246666Y-62474285D01*
X116294285Y-62379047D01*
X116389523Y-62331428D01*
X116627619Y-62331428D01*
X116722857Y-62283809D01*
X117199047Y-62045714D02*
X117199047Y-62712380D01*
X117199047Y-62140952D02*
X117246666Y-62093333D01*
X117341904Y-62045714D01*
X117484761Y-62045714D01*
X117580000Y-62093333D01*
X117627619Y-62188571D01*
X117627619Y-62712380D01*
X118532380Y-62712380D02*
X118532380Y-61712380D01*
X118532380Y-62664761D02*
X118437142Y-62712380D01*
X118246666Y-62712380D01*
X118151428Y-62664761D01*
X118103809Y-62617142D01*
X118056190Y-62521904D01*
X118056190Y-62236190D01*
X118103809Y-62140952D01*
X118151428Y-62093333D01*
X118246666Y-62045714D01*
X118437142Y-62045714D01*
X118532380Y-62093333D01*
X119008571Y-62712380D02*
X119008571Y-62045714D01*
X119008571Y-62236190D02*
X119056190Y-62140952D01*
X119103809Y-62093333D01*
X119199047Y-62045714D01*
X119294285Y-62045714D01*
X119770476Y-62712380D02*
X119675238Y-62664761D01*
X119627619Y-62617142D01*
X119580000Y-62521904D01*
X119580000Y-62236190D01*
X119627619Y-62140952D01*
X119675238Y-62093333D01*
X119770476Y-62045714D01*
X119913333Y-62045714D01*
X120008571Y-62093333D01*
X120056190Y-62140952D01*
X120103809Y-62236190D01*
X120103809Y-62521904D01*
X120056190Y-62617142D01*
X120008571Y-62664761D01*
X119913333Y-62712380D01*
X119770476Y-62712380D01*
X120960952Y-62712380D02*
X120960952Y-61712380D01*
X120960952Y-62664761D02*
X120865714Y-62712380D01*
X120675238Y-62712380D01*
X120580000Y-62664761D01*
X120532380Y-62617142D01*
X120484761Y-62521904D01*
X120484761Y-62236190D01*
X120532380Y-62140952D01*
X120580000Y-62093333D01*
X120675238Y-62045714D01*
X120865714Y-62045714D01*
X120960952Y-62093333D01*
X121865714Y-62712380D02*
X121865714Y-62188571D01*
X121818095Y-62093333D01*
X121722857Y-62045714D01*
X121532380Y-62045714D01*
X121437142Y-62093333D01*
X121865714Y-62664761D02*
X121770476Y-62712380D01*
X121532380Y-62712380D01*
X121437142Y-62664761D01*
X121389523Y-62569523D01*
X121389523Y-62474285D01*
X121437142Y-62379047D01*
X121532380Y-62331428D01*
X121770476Y-62331428D01*
X121865714Y-62283809D01*
X123056190Y-61664761D02*
X122199047Y-62950476D01*
X123722857Y-62188571D02*
X123389523Y-62188571D01*
X123389523Y-62712380D02*
X123389523Y-61712380D01*
X123865714Y-61712380D01*
X124675238Y-62045714D02*
X124675238Y-62712380D01*
X124437142Y-61664761D02*
X124199047Y-62379047D01*
X124818095Y-62379047D01*
X124960952Y-62807619D02*
X125722857Y-62807619D01*
X126294285Y-62188571D02*
X126437142Y-62236190D01*
X126484761Y-62283809D01*
X126532380Y-62379047D01*
X126532380Y-62521904D01*
X126484761Y-62617142D01*
X126437142Y-62664761D01*
X126341904Y-62712380D01*
X125960952Y-62712380D01*
X125960952Y-61712380D01*
X126294285Y-61712380D01*
X126389523Y-61760000D01*
X126437142Y-61807619D01*
X126484761Y-61902857D01*
X126484761Y-61998095D01*
X126437142Y-62093333D01*
X126389523Y-62140952D01*
X126294285Y-62188571D01*
X125960952Y-62188571D01*
X127103809Y-62712380D02*
X127008571Y-62664761D01*
X126960952Y-62569523D01*
X126960952Y-61712380D01*
X127913333Y-62045714D02*
X127913333Y-62712380D01*
X127484761Y-62045714D02*
X127484761Y-62569523D01*
X127532380Y-62664761D01*
X127627619Y-62712380D01*
X127770476Y-62712380D01*
X127865714Y-62664761D01*
X127913333Y-62617142D01*
X128770476Y-62664761D02*
X128675238Y-62712380D01*
X128484761Y-62712380D01*
X128389523Y-62664761D01*
X128341904Y-62569523D01*
X128341904Y-62188571D01*
X128389523Y-62093333D01*
X128484761Y-62045714D01*
X128675238Y-62045714D01*
X128770476Y-62093333D01*
X128818095Y-62188571D01*
X128818095Y-62283809D01*
X128341904Y-62379047D01*
X129199047Y-62664761D02*
X129341904Y-62712380D01*
X129580000Y-62712380D01*
X129675238Y-62664761D01*
X129722857Y-62617142D01*
X129770476Y-62521904D01*
X129770476Y-62426666D01*
X129722857Y-62331428D01*
X129675238Y-62283809D01*
X129580000Y-62236190D01*
X129389523Y-62188571D01*
X129294285Y-62140952D01*
X129246666Y-62093333D01*
X129199047Y-61998095D01*
X129199047Y-61902857D01*
X129246666Y-61807619D01*
X129294285Y-61760000D01*
X129389523Y-61712380D01*
X129627619Y-61712380D01*
X129770476Y-61760000D01*
X130770476Y-62617142D02*
X130722857Y-62664761D01*
X130580000Y-62712380D01*
X130484761Y-62712380D01*
X130341904Y-62664761D01*
X130246666Y-62569523D01*
X130199047Y-62474285D01*
X130151428Y-62283809D01*
X130151428Y-62140952D01*
X130199047Y-61950476D01*
X130246666Y-61855238D01*
X130341904Y-61760000D01*
X130484761Y-61712380D01*
X130580000Y-61712380D01*
X130722857Y-61760000D01*
X130770476Y-61807619D01*
X131151428Y-62664761D02*
X131294285Y-62712380D01*
X131532380Y-62712380D01*
X131627619Y-62664761D01*
X131675238Y-62617142D01*
X131722857Y-62521904D01*
X131722857Y-62426666D01*
X131675238Y-62331428D01*
X131627619Y-62283809D01*
X131532380Y-62236190D01*
X131341904Y-62188571D01*
X131246666Y-62140952D01*
X131199047Y-62093333D01*
X131151428Y-61998095D01*
X131151428Y-61902857D01*
X131199047Y-61807619D01*
X131246666Y-61760000D01*
X131341904Y-61712380D01*
X131580000Y-61712380D01*
X131722857Y-61760000D01*
X132151428Y-62712380D02*
X132151428Y-61712380D01*
%TO.C,SD1*%
X133871775Y-104779281D02*
X134014632Y-104826900D01*
X134252727Y-104826900D01*
X134347965Y-104779281D01*
X134395584Y-104731662D01*
X134443203Y-104636424D01*
X134443203Y-104541186D01*
X134395584Y-104445948D01*
X134347965Y-104398329D01*
X134252727Y-104350710D01*
X134062251Y-104303091D01*
X133967013Y-104255472D01*
X133919394Y-104207853D01*
X133871775Y-104112615D01*
X133871775Y-104017377D01*
X133919394Y-103922139D01*
X133967013Y-103874520D01*
X134062251Y-103826900D01*
X134300346Y-103826900D01*
X134443203Y-103874520D01*
X134871775Y-104826900D02*
X134871775Y-103826900D01*
X135109870Y-103826900D01*
X135252727Y-103874520D01*
X135347965Y-103969758D01*
X135395584Y-104064996D01*
X135443203Y-104255472D01*
X135443203Y-104398329D01*
X135395584Y-104588805D01*
X135347965Y-104684043D01*
X135252727Y-104779281D01*
X135109870Y-104826900D01*
X134871775Y-104826900D01*
X136395584Y-104826900D02*
X135824156Y-104826900D01*
X136109870Y-104826900D02*
X136109870Y-103826900D01*
X136014632Y-103969758D01*
X135919394Y-104064996D01*
X135824156Y-104112615D01*
%TO.C,C1*%
X103685887Y-73715775D02*
X103638268Y-73763394D01*
X103495411Y-73811013D01*
X103400173Y-73811013D01*
X103257315Y-73763394D01*
X103162077Y-73668156D01*
X103114458Y-73572918D01*
X103066839Y-73382442D01*
X103066839Y-73239585D01*
X103114458Y-73049109D01*
X103162077Y-72953871D01*
X103257315Y-72858633D01*
X103400173Y-72811013D01*
X103495411Y-72811013D01*
X103638268Y-72858633D01*
X103685887Y-72906252D01*
X104638268Y-73811013D02*
X104066839Y-73811013D01*
X104352554Y-73811013D02*
X104352554Y-72811013D01*
X104257315Y-72953871D01*
X104162077Y-73049109D01*
X104066839Y-73096728D01*
%TO.C,C2*%
X101322142Y-66689266D02*
X101369761Y-66736885D01*
X101417380Y-66879742D01*
X101417380Y-66974980D01*
X101369761Y-67117838D01*
X101274523Y-67213076D01*
X101179285Y-67260695D01*
X100988809Y-67308314D01*
X100845952Y-67308314D01*
X100655476Y-67260695D01*
X100560238Y-67213076D01*
X100465000Y-67117838D01*
X100417380Y-66974980D01*
X100417380Y-66879742D01*
X100465000Y-66736885D01*
X100512619Y-66689266D01*
X100512619Y-66308314D02*
X100465000Y-66260695D01*
X100417380Y-66165457D01*
X100417380Y-65927361D01*
X100465000Y-65832123D01*
X100512619Y-65784504D01*
X100607857Y-65736885D01*
X100703095Y-65736885D01*
X100845952Y-65784504D01*
X101417380Y-66355933D01*
X101417380Y-65736885D01*
%TO.C,C3*%
X85742813Y-70971682D02*
X85695194Y-71019301D01*
X85552337Y-71066920D01*
X85457099Y-71066920D01*
X85314241Y-71019301D01*
X85219003Y-70924063D01*
X85171384Y-70828825D01*
X85123765Y-70638349D01*
X85123765Y-70495492D01*
X85171384Y-70305016D01*
X85219003Y-70209778D01*
X85314241Y-70114540D01*
X85457099Y-70066920D01*
X85552337Y-70066920D01*
X85695194Y-70114540D01*
X85742813Y-70162159D01*
X86076146Y-70066920D02*
X86695194Y-70066920D01*
X86361860Y-70447873D01*
X86504718Y-70447873D01*
X86599956Y-70495492D01*
X86647575Y-70543111D01*
X86695194Y-70638349D01*
X86695194Y-70876444D01*
X86647575Y-70971682D01*
X86599956Y-71019301D01*
X86504718Y-71066920D01*
X86219003Y-71066920D01*
X86123765Y-71019301D01*
X86076146Y-70971682D01*
%TO.C,D2*%
X73064144Y-105141020D02*
X73064144Y-104141020D01*
X73302240Y-104141020D01*
X73445097Y-104188640D01*
X73540335Y-104283878D01*
X73587954Y-104379116D01*
X73635573Y-104569592D01*
X73635573Y-104712449D01*
X73587954Y-104902925D01*
X73540335Y-104998163D01*
X73445097Y-105093401D01*
X73302240Y-105141020D01*
X73064144Y-105141020D01*
X74016525Y-104236259D02*
X74064144Y-104188640D01*
X74159382Y-104141020D01*
X74397478Y-104141020D01*
X74492716Y-104188640D01*
X74540335Y-104236259D01*
X74587954Y-104331497D01*
X74587954Y-104426735D01*
X74540335Y-104569592D01*
X73968906Y-105141020D01*
X74587954Y-105141020D01*
%TO.C,D3*%
X78365124Y-66530480D02*
X78365124Y-65530480D01*
X78603220Y-65530480D01*
X78746077Y-65578100D01*
X78841315Y-65673338D01*
X78888934Y-65768576D01*
X78936553Y-65959052D01*
X78936553Y-66101909D01*
X78888934Y-66292385D01*
X78841315Y-66387623D01*
X78746077Y-66482861D01*
X78603220Y-66530480D01*
X78365124Y-66530480D01*
X79269886Y-65530480D02*
X79888934Y-65530480D01*
X79555600Y-65911433D01*
X79698458Y-65911433D01*
X79793696Y-65959052D01*
X79841315Y-66006671D01*
X79888934Y-66101909D01*
X79888934Y-66340004D01*
X79841315Y-66435242D01*
X79793696Y-66482861D01*
X79698458Y-66530480D01*
X79412743Y-66530480D01*
X79317505Y-66482861D01*
X79269886Y-66435242D01*
%TO.C,R1*%
X103194014Y-65515319D02*
X102717824Y-65848653D01*
X103194014Y-66086748D02*
X102194014Y-66086748D01*
X102194014Y-65705795D01*
X102241634Y-65610557D01*
X102289253Y-65562938D01*
X102384491Y-65515319D01*
X102527348Y-65515319D01*
X102622586Y-65562938D01*
X102670205Y-65610557D01*
X102717824Y-65705795D01*
X102717824Y-66086748D01*
X103194014Y-64562938D02*
X103194014Y-65134367D01*
X103194014Y-64848653D02*
X102194014Y-64848653D01*
X102336872Y-64943891D01*
X102432110Y-65039129D01*
X102479729Y-65134367D01*
%TO.C,R2*%
X106582375Y-66599899D02*
X106106185Y-66933233D01*
X106582375Y-67171328D02*
X105582375Y-67171328D01*
X105582375Y-66790375D01*
X105629995Y-66695137D01*
X105677614Y-66647518D01*
X105772852Y-66599899D01*
X105915709Y-66599899D01*
X106010947Y-66647518D01*
X106058566Y-66695137D01*
X106106185Y-66790375D01*
X106106185Y-67171328D01*
X105677614Y-66218947D02*
X105629995Y-66171328D01*
X105582375Y-66076090D01*
X105582375Y-65837994D01*
X105629995Y-65742756D01*
X105677614Y-65695137D01*
X105772852Y-65647518D01*
X105868090Y-65647518D01*
X106010947Y-65695137D01*
X106582375Y-66266566D01*
X106582375Y-65647518D01*
%TO.C,U1*%
X117272380Y-69551904D02*
X118081904Y-69551904D01*
X118177142Y-69504285D01*
X118224761Y-69456666D01*
X118272380Y-69361428D01*
X118272380Y-69170952D01*
X118224761Y-69075714D01*
X118177142Y-69028095D01*
X118081904Y-68980476D01*
X117272380Y-68980476D01*
X118272380Y-67980476D02*
X118272380Y-68551904D01*
X118272380Y-68266190D02*
X117272380Y-68266190D01*
X117415238Y-68361428D01*
X117510476Y-68456666D01*
X117558095Y-68551904D01*
%TO.C,D1*%
X78365124Y-63134500D02*
X78365124Y-62134500D01*
X78603220Y-62134500D01*
X78746077Y-62182120D01*
X78841315Y-62277358D01*
X78888934Y-62372596D01*
X78936553Y-62563072D01*
X78936553Y-62705929D01*
X78888934Y-62896405D01*
X78841315Y-62991643D01*
X78746077Y-63086881D01*
X78603220Y-63134500D01*
X78365124Y-63134500D01*
X79888934Y-63134500D02*
X79317505Y-63134500D01*
X79603220Y-63134500D02*
X79603220Y-62134500D01*
X79507981Y-62277358D01*
X79412743Y-62372596D01*
X79317505Y-62420215D01*
%TO.C,F1*%
X92447786Y-63921331D02*
X92114453Y-63921331D01*
X92114453Y-64445140D02*
X92114453Y-63445140D01*
X92590643Y-63445140D01*
X93495405Y-64445140D02*
X92923977Y-64445140D01*
X93209691Y-64445140D02*
X93209691Y-63445140D01*
X93114453Y-63587998D01*
X93019215Y-63683236D01*
X92923977Y-63730855D01*
%TO.C,BPF4*%
X138882595Y-86444840D02*
X138882595Y-87254364D01*
X138930214Y-87349602D01*
X138977833Y-87397221D01*
X139073071Y-87444840D01*
X139263547Y-87444840D01*
X139358785Y-87397221D01*
X139406404Y-87349602D01*
X139454023Y-87254364D01*
X139454023Y-86444840D01*
X139882595Y-87397221D02*
X140025452Y-87444840D01*
X140263547Y-87444840D01*
X140358785Y-87397221D01*
X140406404Y-87349602D01*
X140454023Y-87254364D01*
X140454023Y-87159126D01*
X140406404Y-87063888D01*
X140358785Y-87016269D01*
X140263547Y-86968650D01*
X140073071Y-86921031D01*
X139977833Y-86873412D01*
X139930214Y-86825793D01*
X139882595Y-86730555D01*
X139882595Y-86635317D01*
X139930214Y-86540079D01*
X139977833Y-86492460D01*
X140073071Y-86444840D01*
X140311166Y-86444840D01*
X140454023Y-86492460D01*
X141215928Y-86921031D02*
X141358785Y-86968650D01*
X141406404Y-87016269D01*
X141454023Y-87111507D01*
X141454023Y-87254364D01*
X141406404Y-87349602D01*
X141358785Y-87397221D01*
X141263547Y-87444840D01*
X140882595Y-87444840D01*
X140882595Y-86444840D01*
X141215928Y-86444840D01*
X141311166Y-86492460D01*
X141358785Y-86540079D01*
X141406404Y-86635317D01*
X141406404Y-86730555D01*
X141358785Y-86825793D01*
X141311166Y-86873412D01*
X141215928Y-86921031D01*
X140882595Y-86921031D01*
D12*
%TO.C,J2*%
X67434560Y-85563400D02*
X66634560Y-83963400D01*
X67434560Y-83963400D02*
X66634560Y-85563400D01*
X69128987Y-84763400D02*
G75*
G03*
X69128987Y-84763400I-894427J0D01*
G01*
%TO.C,C1*%
X104454618Y-72448633D02*
X103250490Y-72448633D01*
X104454618Y-70628633D02*
X103250490Y-70628633D01*
%TO.C,C2*%
X98323895Y-67112437D02*
X98323895Y-65908309D01*
X100143895Y-67112437D02*
X100143895Y-65908309D01*
%TO.C,C3*%
X85285496Y-73360960D02*
X86489624Y-73360960D01*
X85285496Y-71540960D02*
X86489624Y-71540960D01*
%TO.C,D2*%
X71596160Y-103231340D02*
X71596160Y-106171340D01*
X69476160Y-104701340D02*
X70696160Y-104701340D01*
X71476160Y-103231340D02*
X71476160Y-106171340D01*
X76136160Y-106171340D02*
X76136160Y-103231340D01*
X76136160Y-103231340D02*
X70696160Y-103231340D01*
X70696160Y-103231340D02*
X70696160Y-106171340D01*
X77356160Y-104701340D02*
X76136160Y-104701340D01*
X70696160Y-106171340D02*
X76136160Y-106171340D01*
X71716160Y-103231340D02*
X71716160Y-106171340D01*
%TO.C,D3*%
X80958780Y-67614140D02*
X80958780Y-64674140D01*
X76418780Y-64674140D02*
X76418780Y-67614140D01*
X83078780Y-66144140D02*
X81858780Y-66144140D01*
X81078780Y-67614140D02*
X81078780Y-64674140D01*
X81858780Y-64674140D02*
X76418780Y-64674140D01*
X76418780Y-67614140D02*
X81858780Y-67614140D01*
X81858780Y-67614140D02*
X81858780Y-64674140D01*
X80838780Y-67614140D02*
X80838780Y-64674140D01*
X75198780Y-66144140D02*
X76418780Y-66144140D01*
%TO.C,R1*%
X102802594Y-62455792D02*
X102802594Y-63405792D01*
X102802594Y-68195792D02*
X102802594Y-67245792D01*
X101882594Y-63405792D02*
X101882594Y-67245792D01*
X101882594Y-67245792D02*
X103722594Y-67245792D01*
X103722594Y-67245792D02*
X103722594Y-63405792D01*
X103722594Y-63405792D02*
X101882594Y-63405792D01*
%TO.C,R2*%
X105261315Y-68215793D02*
X105261315Y-65055793D01*
X106181315Y-69135793D02*
G75*
G03*
X106181315Y-69135793I-920000J0D01*
G01*
%TO.C,U1*%
X128714815Y-74268493D02*
X112824815Y-74268493D01*
X112824815Y-69148493D02*
X110284815Y-69148493D01*
X128714815Y-64028493D02*
X112824815Y-64028493D01*
X112824815Y-71688493D02*
X110284815Y-71688493D01*
X112824815Y-66608493D02*
X110284815Y-66608493D01*
X112824815Y-64028493D02*
X112824815Y-74268493D01*
X128714815Y-64028493D02*
X128714815Y-74268493D01*
%TO.C,U2*%
X87639200Y-74012440D02*
X77359200Y-74012440D01*
X79849200Y-99592440D02*
X85149200Y-99592440D01*
X81499200Y-74072440D02*
X79849200Y-74072440D01*
X77359200Y-74012440D02*
X77359200Y-99652440D01*
X77359200Y-99652440D02*
X87639200Y-99652440D01*
X79849200Y-74072440D02*
X79849200Y-99592440D01*
X87639200Y-99652440D02*
X87639200Y-74012440D01*
X85149200Y-99592440D02*
X85149200Y-74072440D01*
X85149200Y-74072440D02*
X83499200Y-74072440D01*
X81499200Y-74072440D02*
G75*
G03*
X83499200Y-74072440I1000000J0D01*
G01*
%TO.C,D1*%
X81828300Y-64187680D02*
X81828300Y-61247680D01*
X75168300Y-62717680D02*
X76388300Y-62717680D01*
X81828300Y-61247680D02*
X76388300Y-61247680D01*
X83048300Y-62717680D02*
X81828300Y-62717680D01*
X80808300Y-64187680D02*
X80808300Y-61247680D01*
X81048300Y-64187680D02*
X81048300Y-61247680D01*
X80928300Y-64187680D02*
X80928300Y-61247680D01*
X76388300Y-64187680D02*
X81828300Y-64187680D01*
X76388300Y-61247680D02*
X76388300Y-64187680D01*
%TO.C,F1*%
X88402221Y-61960440D02*
X88402221Y-66060440D01*
X88402221Y-61960440D02*
X97002221Y-61960440D01*
X97002221Y-61960440D02*
X97002221Y-66060440D01*
X88402221Y-66060440D02*
X97002221Y-66060440D01*
%TO.C,BPF4*%
X141414500Y-85214460D02*
X138112500Y-85214460D01*
X138112500Y-88770460D02*
X141414500Y-88770460D01*
X138112500Y-85214460D02*
X138112500Y-88770460D01*
X141390500Y-79372460D02*
G75*
G03*
X141390500Y-79372460I-1500000J0D01*
G01*
%TO.C,REF\u002A\u002A*%
X125394720Y-103375460D02*
X124886720Y-103375460D01*
X125902720Y-103121460D02*
X125902720Y-103883460D01*
X125902720Y-103883460D02*
X126664720Y-103883460D01*
X125394720Y-103629460D02*
X125902720Y-103121460D01*
X124886720Y-103375460D02*
X124378720Y-103883460D01*
X126664720Y-104899460D02*
X126918720Y-104899460D01*
X125394720Y-104391460D02*
X125394720Y-103629460D01*
X126410720Y-104899460D02*
X125902720Y-105407460D01*
X126664720Y-104645460D02*
X127172720Y-104137460D01*
X125140720Y-103121460D02*
X125648720Y-102613460D01*
X126156720Y-104391460D02*
X125394720Y-104391460D01*
X125648720Y-103883460D02*
X125648720Y-104137460D01*
X126156720Y-104391460D02*
X126664720Y-103883460D01*
X126410720Y-104391460D02*
X126410720Y-104899460D01*
X126410720Y-103629460D02*
X126156720Y-103375460D01*
X125648720Y-104137460D02*
X125902720Y-104137460D01*
X124886720Y-103121460D02*
X124886720Y-102867460D01*
%TD*%
M02*
