%TF.GenerationSoftware,KiCad,Pcbnew,(6.0.2)*%
%TF.CreationDate,2022-04-05T12:49:12-06:00*%
%TF.ProjectId,PowerBook_F4_THTV1,506f7765-7242-46f6-9f6b-5f46345f5448,rev?*%
%TF.SameCoordinates,Original*%
%TF.FileFunction,Soldermask,Bot*%
%TF.FilePolarity,Negative*%
%FSLAX46Y46*%
G04 Gerber Fmt 4.6, Leading zero omitted, Abs format (unit mm)*
G04 Created by KiCad (PCBNEW (6.0.2)) date 2022-04-05 12:49:12*
%MOMM*%
%LPD*%
G01*
G04 APERTURE LIST*
G04 Aperture macros list*
%AMRoundRect*
0 Rectangle with rounded corners*
0 $1 Rounding radius*
0 $2 $3 $4 $5 $6 $7 $8 $9 X,Y pos of 4 corners*
0 Add a 4 corners polygon primitive as box body*
4,1,4,$2,$3,$4,$5,$6,$7,$8,$9,$2,$3,0*
0 Add four circle primitives for the rounded corners*
1,1,$1+$1,$2,$3*
1,1,$1+$1,$4,$5*
1,1,$1+$1,$6,$7*
1,1,$1+$1,$8,$9*
0 Add four rect primitives between the rounded corners*
20,1,$1+$1,$2,$3,$4,$5,0*
20,1,$1+$1,$4,$5,$6,$7,0*
20,1,$1+$1,$6,$7,$8,$9,0*
20,1,$1+$1,$8,$9,$2,$3,0*%
G04 Aperture macros list end*
%ADD10RoundRect,0.050000X0.675000X0.675000X-0.675000X0.675000X-0.675000X-0.675000X0.675000X-0.675000X0*%
%ADD11O,1.450000X1.450000*%
%ADD12C,3.300000*%
%ADD13RoundRect,0.050000X-0.900000X-0.900000X0.900000X-0.900000X0.900000X0.900000X-0.900000X0.900000X0*%
%ADD14O,1.900000X1.900000*%
%ADD15RoundRect,0.050000X0.900000X0.900000X-0.900000X0.900000X-0.900000X-0.900000X0.900000X-0.900000X0*%
%ADD16C,1.500000*%
%ADD17O,1.500000X1.500000*%
%ADD18O,3.600000X3.600000*%
%ADD19RoundRect,0.050000X-1.000000X0.952500X-1.000000X-0.952500X1.000000X-0.952500X1.000000X0.952500X0*%
%ADD20O,2.100000X2.005000*%
%ADD21RoundRect,0.050000X-0.800000X-0.800000X0.800000X-0.800000X0.800000X0.800000X-0.800000X0.800000X0*%
%ADD22O,1.700000X1.700000*%
%ADD23C,1.370000*%
%ADD24RoundRect,0.462500X-0.412500X0.412500X-0.412500X-0.412500X0.412500X-0.412500X0.412500X0.412500X0*%
%ADD25C,1.750000*%
G04 APERTURE END LIST*
D10*
%TO.C,J2*%
X68234560Y-100763400D03*
D11*
X70234560Y-100763400D03*
X68234560Y-98763400D03*
X70234560Y-98763400D03*
X68234560Y-96763400D03*
X70234560Y-96763400D03*
X68234560Y-94763400D03*
X70234560Y-94763400D03*
X68234560Y-92763400D03*
X70234560Y-92763400D03*
X68234560Y-90763400D03*
X70234560Y-90763400D03*
X68234560Y-88763400D03*
X70234560Y-88763400D03*
X68234560Y-86763400D03*
X70234560Y-86763400D03*
X70234560Y-84763400D03*
X68234560Y-82763400D03*
X70234560Y-82763400D03*
X68234560Y-80763400D03*
X70234560Y-80763400D03*
X68234560Y-78763400D03*
X70234560Y-78763400D03*
X68234560Y-76763400D03*
X70234560Y-76763400D03*
X68234560Y-74763400D03*
X70234560Y-74763400D03*
X68234560Y-72763400D03*
X70234560Y-72763400D03*
X68234560Y-70763400D03*
X70234560Y-70763400D03*
X68234560Y-68763400D03*
X70234560Y-68763400D03*
X68234560Y-66763400D03*
X70234560Y-66763400D03*
X68234560Y-64763400D03*
X70234560Y-64763400D03*
X68234560Y-62763400D03*
X70234560Y-62763400D03*
X68234560Y-84763400D03*
%TD*%
D12*
%TO.C,REF\u002A\u002A*%
X83245960Y-104289860D03*
%TD*%
%TO.C,REF\u002A\u002A*%
X91737180Y-68353940D03*
%TD*%
D13*
%TO.C,D2*%
X68336160Y-104701340D03*
D14*
X78496160Y-104701340D03*
%TD*%
D15*
%TO.C,D3*%
X84218780Y-66144140D03*
D14*
X74058780Y-66144140D03*
%TD*%
D16*
%TO.C,R1*%
X102802594Y-69135792D03*
D17*
X102802594Y-61515792D03*
%TD*%
D16*
%TO.C,R2*%
X105261315Y-69135793D03*
D17*
X105261315Y-64055793D03*
%TD*%
D18*
%TO.C,U1*%
X125794815Y-69148493D03*
D19*
X109134815Y-66608493D03*
D20*
X109134815Y-69148493D03*
X109134815Y-71688493D03*
%TD*%
D21*
%TO.C,U2*%
X78689200Y-75402440D03*
D22*
X78689200Y-77942440D03*
X78689200Y-80482440D03*
X78689200Y-83022440D03*
X78689200Y-85562440D03*
X78689200Y-88102440D03*
X78689200Y-90642440D03*
X78689200Y-93182440D03*
X78689200Y-95722440D03*
X78689200Y-98262440D03*
X86309200Y-98262440D03*
X86309200Y-95722440D03*
X86309200Y-93182440D03*
X86309200Y-90642440D03*
X86309200Y-88102440D03*
X86309200Y-85562440D03*
X86309200Y-83022440D03*
X86309200Y-80482440D03*
X86309200Y-77942440D03*
X86309200Y-75402440D03*
%TD*%
D15*
%TO.C,D1*%
X84188300Y-62717680D03*
D14*
X74028300Y-62717680D03*
%TD*%
D23*
%TO.C,F1*%
X90152221Y-63210440D03*
X95232221Y-64353440D03*
%TD*%
D24*
%TO.C,BPF4*%
X139890500Y-79372460D03*
D25*
X137350500Y-79372460D03*
X134810500Y-79372460D03*
X132270500Y-79372460D03*
X129730500Y-79372460D03*
X127190500Y-79372460D03*
X124650500Y-79372460D03*
X122110500Y-79372460D03*
X119570500Y-79372460D03*
X117030500Y-79372460D03*
X114490500Y-79372460D03*
X111950500Y-79372460D03*
X109410500Y-79372460D03*
X106870500Y-79372460D03*
X104330500Y-79372460D03*
X101790500Y-79372460D03*
X99250500Y-79372460D03*
X96710500Y-79372460D03*
X94170500Y-79372460D03*
X91630500Y-79372460D03*
X91630500Y-94612460D03*
X94170500Y-94612460D03*
X96710500Y-94612460D03*
X99250500Y-94612460D03*
X101790500Y-94612460D03*
X104330500Y-94612460D03*
X106870500Y-94612460D03*
X109410500Y-94612460D03*
X111950500Y-94612460D03*
X114490500Y-94612460D03*
X117030500Y-94612460D03*
X119570500Y-94612460D03*
X122110500Y-94612460D03*
X124650500Y-94612460D03*
X127190500Y-94612460D03*
X129730500Y-94612460D03*
X132270500Y-94612460D03*
X134810500Y-94612460D03*
X137350500Y-94612460D03*
X139890500Y-94612460D03*
%TD*%
M02*
