M48
; DRILL file {KiCad (6.0.2)} date Tue Apr  5 12:49:15 2022
; FORMAT={-:-/ absolute / inch / decimal}
; #@! TF.CreationDate,2022-04-05T12:49:15-06:00
; #@! TF.GenerationSoftware,Kicad,Pcbnew,(6.0.2)
; #@! TF.FileFunction,Plated,1,2,PTH
FMAT,2
INCH
; #@! TA.AperFunction,Plated,PTH,ViaDrill
T1C0.0157
; #@! TA.AperFunction,Plated,PTH,ComponentDrill
T2C0.0276
; #@! TA.AperFunction,Plated,PTH,ComponentDrill
T3C0.0280
; #@! TA.AperFunction,Plated,PTH,ComponentDrill
T4C0.0315
; #@! TA.AperFunction,Plated,PTH,ComponentDrill
T5C0.0354
; #@! TA.AperFunction,Plated,PTH,ComponentDrill
T6C0.0433
%
G90
G05
T1
X2.8183Y-2.5899
X2.8307Y-3.2128
X2.8585Y-3.1695
X2.8841Y-4.0082
X2.893Y-3.8664
X2.8997Y-3.2168
X2.9697Y-3.8882
X2.9993Y-2.8281
X3.036Y-3.0381
X3.0783Y-2.8281
X3.1287Y-4.0061
X3.1551Y-2.8281
X3.1917Y-3.8531
X3.2576Y-3.854
X3.2984Y-2.7292
X3.3464Y-2.7292
X3.503Y-2.9778
X3.5042Y-3.8691
X3.5088Y-3.6279
X3.5315Y-3.8278
X3.603Y-3.5917
X3.7012Y-3.5782
X3.8251Y-3.5482
X3.9989Y-3.5538
X4.2046Y-3.2072
X4.253Y-3.7892
X4.2601Y-3.5872
X4.2642Y-3.0356
X4.3414Y-3.3131
X4.3745Y-3.2171
X4.4587Y-3.6345
X4.5611Y-3.6361
X4.571Y-3.2247
X4.6239Y-3.4185
X4.7077Y-3.2074
X4.7077Y-3.5131
X4.8149Y-3.5593
X4.8229Y-2.7257
X4.8652Y-2.878
X4.8664Y-2.5785
X5.0157Y-2.8775
X5.0163Y-2.5795
X5.0497Y-4.1786
X5.1933Y-3.9874
X5.2798Y-4.0211
X5.3638Y-3.9547
X5.4102Y-4.0732
T2
X4.0473Y-2.4219
X4.0473Y-2.7219
X4.1441Y-2.5219
X4.1441Y-2.7219
T3
X3.5493Y-2.4886
X3.7493Y-2.5336
T4
X2.6864Y-2.471
X2.6864Y-2.5497
X2.6864Y-2.6285
X2.6864Y-2.7072
X2.6864Y-2.786
X2.6864Y-2.8647
X2.6864Y-2.9434
X2.6864Y-3.0222
X2.6864Y-3.1009
X2.6864Y-3.1797
X2.6864Y-3.2584
X2.6864Y-3.3371
X2.6864Y-3.4159
X2.6864Y-3.4946
X2.6864Y-3.5734
X2.6864Y-3.6521
X2.6864Y-3.7308
X2.6864Y-3.8096
X2.6864Y-3.8883
X2.6864Y-3.9671
X2.7651Y-2.471
X2.7651Y-2.5497
X2.7651Y-2.6285
X2.7651Y-2.7072
X2.7651Y-2.786
X2.7651Y-2.8647
X2.7651Y-2.9434
X2.7651Y-3.0222
X2.7651Y-3.1009
X2.7651Y-3.1797
X2.7651Y-3.2584
X2.7651Y-3.3371
X2.7651Y-3.4159
X2.7651Y-3.4946
X2.7651Y-3.5734
X2.7651Y-3.6521
X2.7651Y-3.7308
X2.7651Y-3.8096
X2.7651Y-3.8883
X2.7651Y-3.9671
X3.098Y-2.9686
X3.098Y-3.0686
X3.098Y-3.1686
X3.098Y-3.2686
X3.098Y-3.3686
X3.098Y-3.4686
X3.098Y-3.5686
X3.098Y-3.6686
X3.098Y-3.7686
X3.098Y-3.8686
X3.398Y-2.9686
X3.398Y-3.0686
X3.398Y-3.1686
X3.398Y-3.2686
X3.398Y-3.3686
X3.398Y-3.4686
X3.398Y-3.5686
X3.398Y-3.6686
X3.398Y-3.7686
X3.398Y-3.8686
T5
X2.6904Y-4.1221
X2.9145Y-2.4692
X2.9157Y-2.6041
X3.0904Y-4.1221
X3.3145Y-2.4692
X3.3157Y-2.6041
X3.6075Y-3.1249
X3.6075Y-3.7249
X3.7075Y-3.1249
X3.7075Y-3.7249
X3.8075Y-3.1249
X3.8075Y-3.7249
X3.9075Y-3.1249
X3.9075Y-3.7249
X4.0075Y-3.1249
X4.0075Y-3.7249
X4.1075Y-3.1249
X4.1075Y-3.7249
X4.2075Y-3.1249
X4.2075Y-3.7249
X4.3075Y-3.1249
X4.3075Y-3.7249
X4.4075Y-3.1249
X4.4075Y-3.7249
X4.5075Y-3.1249
X4.5075Y-3.7249
X4.6075Y-3.1249
X4.6075Y-3.7249
X4.7075Y-3.1249
X4.7075Y-3.7249
X4.8075Y-3.1249
X4.8075Y-3.7249
X4.9075Y-3.1249
X4.9075Y-3.7249
X5.0075Y-3.1249
X5.0075Y-3.7249
X5.1075Y-3.1249
X5.1075Y-3.7249
X5.2075Y-3.1249
X5.2075Y-3.7249
X5.3075Y-3.1249
X5.3075Y-3.7249
X5.4075Y-3.1249
X5.4075Y-3.7249
X5.5075Y-3.1249
X5.5075Y-3.7249
T6
X4.2966Y-2.6224
X4.2966Y-2.7224
X4.2966Y-2.8224
T0
M30
