M48
; DRILL file {KiCad (6.0.2)} date Fri Apr 15 06:19:48 2022
; FORMAT={-:-/ absolute / inch / decimal}
; #@! TF.CreationDate,2022-04-15T06:19:48-06:00
; #@! TF.GenerationSoftware,Kicad,Pcbnew,(6.0.2)
; #@! TF.FileFunction,Plated,1,2,PTH
FMAT,2
INCH
; #@! TA.AperFunction,Plated,PTH,ViaDrill
T1C0.0157
; #@! TA.AperFunction,Plated,PTH,ComponentDrill
T2C0.0280
; #@! TA.AperFunction,Plated,PTH,ComponentDrill
T3C0.0300
; #@! TA.AperFunction,Plated,PTH,ComponentDrill
T4C0.0354
; #@! TA.AperFunction,Plated,PTH,ComponentDrill
T5C0.0394
%
G90
G05
T1
X4.212Y-3.4465
X4.2126Y-3.0491
X4.2128Y-5.147
X4.2133Y-2.7469
X4.2133Y-3.6471
X4.2133Y-4.2467
X4.2133Y-4.3487
X4.2133Y-4.4485
X4.2133Y-4.5485
X4.2133Y-4.6469
X4.2133Y-4.7465
X4.2133Y-4.8472
X4.2133Y-4.9482
X4.2133Y-5.0498
X4.2139Y-3.1475
X4.2139Y-3.5462
X4.214Y-2.9493
X4.214Y-3.2458
X4.2144Y-2.8455
X4.3259Y-3.4331
X4.3279Y-3.3978
X4.3323Y-3.3079
X4.3367Y-3.6978
X4.3373Y-3.0731
X4.3482Y-3.2223
X4.3712Y-3.5432
X4.3733Y-3.0715
X4.3784Y-4.2185
X4.3805Y-4.0358
X4.3826Y-4.1214
X4.3859Y-3.2212
X4.3918Y-2.9704
X4.3924Y-2.858
X4.3975Y-2.7292
X4.4295Y-3.0696
X4.4316Y-3.2707
X4.4322Y-3.2347
X4.5588Y-3.9369
X4.5588Y-3.9812
X4.5732Y-3.5214
X4.6002Y-4.5655
X4.6247Y-4.59
X4.7538Y-3.4974
X4.7699Y-3.6413
X4.7762Y-2.8545
X4.806Y-3.8844
X4.8252Y-2.7447
X4.843Y-4.5384
X4.8895Y-4.6233
X4.8903Y-4.4226
X4.9244Y-4.5375
X4.9628Y-3.8851
X5.0396Y-3.883
X5.072Y-2.8589
X5.1075Y-4.615
X5.1075Y-4.6793
X5.1075Y-4.7459
X5.1075Y-4.8113
X5.1075Y-4.8739
X5.1075Y-4.9405
X5.1075Y-5.0059
X5.1075Y-5.0741
X5.1079Y-3.8822
X5.1121Y-3.4654
X5.1131Y-2.9417
X5.1131Y-3.0071
X5.1131Y-3.0729
X5.1131Y-3.1374
X5.1131Y-3.2024
X5.1131Y-3.2674
X5.1131Y-3.3328
X5.1131Y-3.3986
X5.1138Y-2.8724
X5.1406Y-4.7122
X5.1426Y-4.8434
X5.1437Y-2.7754
X5.1463Y-4.9722
X5.1468Y-5.0397
X5.147Y-5.1097
X5.1562Y-4.6472
X5.157Y-4.5822
X5.1571Y-4.7791
X5.1605Y-4.9144
X5.1689Y-3.3001
X5.169Y-3.3651
X5.1691Y-3.4301
X5.1697Y-3.2351
X5.1713Y-3.1701
X5.1724Y-3.1051
X5.1734Y-3.0401
X5.1736Y-2.9751
X5.1744Y-2.9101
X5.2114Y-4.3576
X5.235Y-4.6199
X5.2392Y-4.0815
X5.2433Y-5.0026
X5.277Y-4.7127
X5.2995Y-4.9419
X5.2996Y-4.83
X5.3124Y-4.5568
X5.3153Y-3.6827
X5.3226Y-4.777
X5.3289Y-4.672
X5.3305Y-5.0295
X5.3596Y-3.3328
X5.3614Y-3.0553
X5.3668Y-2.9564
X5.3801Y-4.5532
X5.3853Y-3.6149
X5.4062Y-5.1499
X5.4187Y-2.8676
X5.42Y-2.8298
X5.4274Y-3.7808
X5.4564Y-4.896
X5.4569Y-4.7974
X5.4585Y-5.0123
X5.51Y-3.5167
X5.5214Y-3.6962
X5.5348Y-3.2299
X5.5365Y-3.1346
X5.5415Y-3.3515
X5.5434Y-2.985
X5.604Y-5.0088
X5.6046Y-4.7928
X5.605Y-4.8978
X5.6126Y-5.2107
X5.6169Y-4.594
X5.6297Y-4.2832
X5.6858Y-3.357
X5.6868Y-3.1809
X5.6925Y-2.9796
X5.7093Y-2.8102
X5.7333Y-4.3461
X5.736Y-4.1783
X5.748Y-4.9629
X5.75Y-4.6802
X5.76Y-4.7953
X5.7633Y-4.6384
X5.7634Y-4.8903
X5.7743Y-4.7296
X5.7867Y-5.0185
X5.7921Y-4.4185
X5.7968Y-4.9542
X5.8014Y-4.8324
X5.8028Y-4.2779
X5.8121Y-5.1437
X5.8196Y-4.4358
X5.8255Y-3.0664
X5.8291Y-2.8268
X5.8298Y-2.8676
X5.8351Y-3.2908
X5.8351Y-3.5082
X5.8374Y-5.0215
X5.8399Y-3.2504
X5.8437Y-5.9278
X5.8441Y-2.9328
X5.852Y-2.9856
X5.8608Y-3.2107
X5.8612Y-5.0616
X5.8639Y-4.4686
X5.8643Y-3.4895
X5.8791Y-2.9592
X5.8814Y-3.0344
X5.8841Y-3.1298
X5.8857Y-4.5005
X5.8918Y-3.5455
X5.8957Y-3.3492
X5.9077Y-4.8829
X5.9187Y-5.7255
X5.9219Y-4.4633
X5.9236Y-3.5472
X5.9236Y-3.6249
X5.9302Y-3.3372
X5.9555Y-4.4526
X5.9787Y-4.565
X5.9835Y-4.4771
X6.0097Y-3.8678
X6.0381Y-4.1434
X6.0387Y-4.0908
X6.0415Y-4.2125
X6.0597Y-4.7868
X6.0649Y-2.9592
X6.065Y-4.2992
X6.0788Y-3.286
X6.092Y-3.9953
X6.0936Y-3.1781
X6.1012Y-4.0591
X6.1013Y-3.9223
X6.1017Y-3.0166
X6.104Y-3.257
X6.135Y-3.6905
X6.1382Y-4.6854
X6.1437Y-4.879
X6.1472Y-2.9618
X6.1507Y-4.7297
X6.1561Y-3.9532
X6.159Y-3.8056
X6.2654Y-3.6925
X6.2658Y-3.0058
X6.2696Y-4.8427
X6.2804Y-3.2788
X6.2805Y-3.1796
X6.2812Y-3.0882
X6.2812Y-4.1125
X6.2837Y-4.6943
X6.2857Y-3.7272
X6.333Y-3.8781
X6.3382Y-3.7461
X6.3573Y-3.9665
X6.3583Y-3.7706
X6.3693Y-3.8873
X6.3946Y-3.7781
X6.429Y-3.7866
X6.5092Y-4.0055
X6.5452Y-4.0806
X6.5472Y-3.9781
X6.5718Y-4.365
X6.5895Y-4.0781
X6.5936Y-4.2149
X6.6228Y-4.1778
X6.8241Y-4.7871
X6.8295Y-3.8873
X6.8329Y-4.6803
X6.8519Y-3.7901
X7.049Y-4.0137
X7.0686Y-5.7285
X7.1566Y-3.4488
X7.1808Y-3.473
X7.2007Y-4.7314
X7.2073Y-3.4994
X7.2083Y-4.1128
X7.21Y-5.8821
X7.2386Y-4.1128
X7.2697Y-4.1128
X7.3567Y-2.7232
X7.418Y-4.9231
X7.4195Y-2.7682
X7.4626Y-2.9689
X7.4682Y-2.8562
X7.5031Y-5.0239
X7.5069Y-4.8328
X7.5082Y-2.9689
X7.5152Y-4.3943
X7.5154Y-2.8562
X7.5184Y-4.0144
X7.5239Y-3.525
X7.5952Y-5.2717
X7.5956Y-5.2242
X7.675Y-3.5294
X7.6768Y-5.018
X7.6782Y-4.0144
X7.6822Y-4.8301
X7.6881Y-4.4008
T2
X7.3081Y-2.6476
X7.5081Y-2.6926
T3
X5.3117Y-5.607
X5.3117Y-5.7055
X5.3117Y-5.8039
X5.3117Y-5.9023
T4
X6.2105Y-2.8781
X6.2105Y-2.9781
X6.2105Y-3.0781
X6.2105Y-3.1781
X6.2105Y-3.2781
X6.2105Y-3.3781
X6.2105Y-3.4781
X6.2105Y-3.5781
X6.2105Y-3.6781
X6.2105Y-3.7781
X6.2105Y-3.8781
X6.2105Y-3.9781
X6.2105Y-4.0781
X6.2105Y-4.1781
X6.2105Y-4.2781
X6.2105Y-4.3781
X6.2105Y-4.4781
X6.2105Y-4.5781
X6.2105Y-4.6781
X6.2105Y-4.7781
X6.2105Y-4.8781
X6.2105Y-4.9781
X6.9105Y-2.8781
X6.9105Y-2.9781
X6.9105Y-3.0781
X6.9105Y-3.1781
X6.9105Y-3.2781
X6.9105Y-3.3781
X6.9105Y-3.4781
X6.9105Y-3.5781
X6.9105Y-3.6781
X6.9105Y-3.7781
X6.9105Y-3.8781
X6.9105Y-3.9781
X6.9105Y-4.0781
X6.9105Y-4.1781
X6.9105Y-4.2781
X6.9105Y-4.3781
X6.9105Y-4.4781
X6.9105Y-4.5781
X6.9105Y-4.6781
X6.9105Y-4.7781
X6.9105Y-4.8781
X6.9105Y-4.9781
T5
X4.9126Y-3.6331
X5.0126Y-3.6331
X5.1126Y-3.6331
X7.7584Y-4.8543
X7.7584Y-4.9543
T0
M30
