%TF.GenerationSoftware,KiCad,Pcbnew,(6.0.2)*%
%TF.CreationDate,2022-04-15T06:19:47-06:00*%
%TF.ProjectId,XCVR_F4Lite_SMD_V1,58435652-5f46-4344-9c69-74655f534d44,rev?*%
%TF.SameCoordinates,Original*%
%TF.FileFunction,Legend,Bot*%
%TF.FilePolarity,Positive*%
%FSLAX46Y46*%
G04 Gerber Fmt 4.6, Leading zero omitted, Abs format (unit mm)*
G04 Created by KiCad (PCBNEW (6.0.2)) date 2022-04-15 06:19:47*
%MOMM*%
%LPD*%
G01*
G04 APERTURE LIST*
%ADD10C,0.300000*%
G04 APERTURE END LIST*
D10*
X197475714Y-139742500D02*
X197547142Y-139671071D01*
X197690000Y-139456785D01*
X197761428Y-139313928D01*
X197832857Y-139099642D01*
X197904285Y-138742500D01*
X197904285Y-138456785D01*
X197832857Y-138099642D01*
X197761428Y-137885357D01*
X197690000Y-137742500D01*
X197547142Y-137528214D01*
X197475714Y-137456785D01*
X196047142Y-139028214D02*
X196118571Y-139099642D01*
X196332857Y-139171071D01*
X196475714Y-139171071D01*
X196690000Y-139099642D01*
X196832857Y-138956785D01*
X196904285Y-138813928D01*
X196975714Y-138528214D01*
X196975714Y-138313928D01*
X196904285Y-138028214D01*
X196832857Y-137885357D01*
X196690000Y-137742500D01*
X196475714Y-137671071D01*
X196332857Y-137671071D01*
X196118571Y-137742500D01*
X196047142Y-137813928D01*
X194547142Y-139028214D02*
X194618571Y-139099642D01*
X194832857Y-139171071D01*
X194975714Y-139171071D01*
X195190000Y-139099642D01*
X195332857Y-138956785D01*
X195404285Y-138813928D01*
X195475714Y-138528214D01*
X195475714Y-138313928D01*
X195404285Y-138028214D01*
X195332857Y-137885357D01*
X195190000Y-137742500D01*
X194975714Y-137671071D01*
X194832857Y-137671071D01*
X194618571Y-137742500D01*
X194547142Y-137813928D01*
X192261428Y-138385357D02*
X192047142Y-138456785D01*
X191975714Y-138528214D01*
X191904285Y-138671071D01*
X191904285Y-138885357D01*
X191975714Y-139028214D01*
X192047142Y-139099642D01*
X192190000Y-139171071D01*
X192761428Y-139171071D01*
X192761428Y-137671071D01*
X192261428Y-137671071D01*
X192118571Y-137742500D01*
X192047142Y-137813928D01*
X191975714Y-137956785D01*
X191975714Y-138099642D01*
X192047142Y-138242500D01*
X192118571Y-138313928D01*
X192261428Y-138385357D01*
X192761428Y-138385357D01*
X190975714Y-138456785D02*
X190975714Y-139171071D01*
X191475714Y-137671071D02*
X190975714Y-138456785D01*
X190475714Y-137671071D01*
X189975714Y-138599642D02*
X188832857Y-138599642D01*
X188118571Y-139171071D02*
X188118571Y-137671071D01*
X187261428Y-139171071D01*
X187261428Y-137671071D01*
X185690000Y-139028214D02*
X185761428Y-139099642D01*
X185975714Y-139171071D01*
X186118571Y-139171071D01*
X186332857Y-139099642D01*
X186475714Y-138956785D01*
X186547142Y-138813928D01*
X186618571Y-138528214D01*
X186618571Y-138313928D01*
X186547142Y-138028214D01*
X186475714Y-137885357D01*
X186332857Y-137742500D01*
X186118571Y-137671071D01*
X185975714Y-137671071D01*
X185761428Y-137742500D01*
X185690000Y-137813928D01*
X185047142Y-138599642D02*
X183904285Y-138599642D01*
X183261428Y-139099642D02*
X183047142Y-139171071D01*
X182690000Y-139171071D01*
X182547142Y-139099642D01*
X182475714Y-139028214D01*
X182404285Y-138885357D01*
X182404285Y-138742500D01*
X182475714Y-138599642D01*
X182547142Y-138528214D01*
X182690000Y-138456785D01*
X182975714Y-138385357D01*
X183118571Y-138313928D01*
X183190000Y-138242500D01*
X183261428Y-138099642D01*
X183261428Y-137956785D01*
X183190000Y-137813928D01*
X183118571Y-137742500D01*
X182975714Y-137671071D01*
X182618571Y-137671071D01*
X182404285Y-137742500D01*
X181832857Y-138742500D02*
X181118571Y-138742500D01*
X181975714Y-139171071D02*
X181475714Y-137671071D01*
X180975714Y-139171071D01*
X178690000Y-138171071D02*
X178690000Y-139171071D01*
X179047142Y-137599642D02*
X179404285Y-138671071D01*
X178475714Y-138671071D01*
X177904285Y-139028214D02*
X177832857Y-139099642D01*
X177904285Y-139171071D01*
X177975714Y-139099642D01*
X177904285Y-139028214D01*
X177904285Y-139171071D01*
X176904285Y-137671071D02*
X176761428Y-137671071D01*
X176618571Y-137742500D01*
X176547142Y-137813928D01*
X176475714Y-137956785D01*
X176404285Y-138242500D01*
X176404285Y-138599642D01*
X176475714Y-138885357D01*
X176547142Y-139028214D01*
X176618571Y-139099642D01*
X176761428Y-139171071D01*
X176904285Y-139171071D01*
X177047142Y-139099642D01*
X177118571Y-139028214D01*
X177190000Y-138885357D01*
X177261428Y-138599642D01*
X177261428Y-138242500D01*
X177190000Y-137956785D01*
X177118571Y-137813928D01*
X177047142Y-137742500D01*
X176904285Y-137671071D01*
X175904285Y-139742500D02*
X175832857Y-139671071D01*
X175690000Y-139456785D01*
X175618571Y-139313928D01*
X175547142Y-139099642D01*
X175475714Y-138742500D01*
X175475714Y-138456785D01*
X175547142Y-138099642D01*
X175618571Y-137885357D01*
X175690000Y-137742500D01*
X175832857Y-137528214D01*
X175904285Y-137456785D01*
X198297142Y-141514642D02*
X198082857Y-141586071D01*
X197725714Y-141586071D01*
X197582857Y-141514642D01*
X197511428Y-141443214D01*
X197440000Y-141300357D01*
X197440000Y-141157500D01*
X197511428Y-141014642D01*
X197582857Y-140943214D01*
X197725714Y-140871785D01*
X198011428Y-140800357D01*
X198154285Y-140728928D01*
X198225714Y-140657500D01*
X198297142Y-140514642D01*
X198297142Y-140371785D01*
X198225714Y-140228928D01*
X198154285Y-140157500D01*
X198011428Y-140086071D01*
X197654285Y-140086071D01*
X197440000Y-140157500D01*
X196868571Y-141157500D02*
X196154285Y-141157500D01*
X197011428Y-141586071D02*
X196511428Y-140086071D01*
X196011428Y-141586071D01*
X194797142Y-141586071D02*
X195511428Y-141586071D01*
X195511428Y-140086071D01*
X194297142Y-140800357D02*
X193797142Y-140800357D01*
X193582857Y-141586071D02*
X194297142Y-141586071D01*
X194297142Y-140086071D01*
X193582857Y-140086071D01*
X191797142Y-141586071D02*
X191797142Y-140086071D01*
X190940000Y-141586071D01*
X190940000Y-140086071D01*
X189940000Y-140086071D02*
X189654285Y-140086071D01*
X189511428Y-140157500D01*
X189368571Y-140300357D01*
X189297142Y-140586071D01*
X189297142Y-141086071D01*
X189368571Y-141371785D01*
X189511428Y-141514642D01*
X189654285Y-141586071D01*
X189940000Y-141586071D01*
X190082857Y-141514642D01*
X190225714Y-141371785D01*
X190297142Y-141086071D01*
X190297142Y-140586071D01*
X190225714Y-140300357D01*
X190082857Y-140157500D01*
X189940000Y-140086071D01*
X188868571Y-140086071D02*
X188011428Y-140086071D01*
X188440000Y-141586071D02*
X188440000Y-140086071D01*
X186368571Y-141586071D02*
X186368571Y-140086071D01*
X185797142Y-140086071D01*
X185654285Y-140157500D01*
X185582857Y-140228928D01*
X185511428Y-140371785D01*
X185511428Y-140586071D01*
X185582857Y-140728928D01*
X185654285Y-140800357D01*
X185797142Y-140871785D01*
X186368571Y-140871785D01*
X184868571Y-140800357D02*
X184368571Y-140800357D01*
X184154285Y-141586071D02*
X184868571Y-141586071D01*
X184868571Y-140086071D01*
X184154285Y-140086071D01*
X182654285Y-141586071D02*
X183154285Y-140871785D01*
X183511428Y-141586071D02*
X183511428Y-140086071D01*
X182940000Y-140086071D01*
X182797142Y-140157500D01*
X182725714Y-140228928D01*
X182654285Y-140371785D01*
X182654285Y-140586071D01*
X182725714Y-140728928D01*
X182797142Y-140800357D01*
X182940000Y-140871785D01*
X183511428Y-140871785D01*
X182011428Y-141586071D02*
X182011428Y-140086071D01*
X181511428Y-141157500D01*
X181011428Y-140086071D01*
X181011428Y-141586071D01*
X180297142Y-141586071D02*
X180297142Y-140086071D01*
X179797142Y-140086071D02*
X178940000Y-140086071D01*
X179368571Y-141586071D02*
X179368571Y-140086071D01*
X178654285Y-140086071D02*
X177797142Y-140086071D01*
X178225714Y-141586071D02*
X178225714Y-140086071D01*
X177297142Y-140800357D02*
X176797142Y-140800357D01*
X176582857Y-141586071D02*
X177297142Y-141586071D01*
X177297142Y-140086071D01*
X176582857Y-140086071D01*
X175940000Y-141586071D02*
X175940000Y-140086071D01*
X175582857Y-140086071D01*
X175368571Y-140157500D01*
X175225714Y-140300357D01*
X175154285Y-140443214D01*
X175082857Y-140728928D01*
X175082857Y-140943214D01*
X175154285Y-141228928D01*
X175225714Y-141371785D01*
X175368571Y-141514642D01*
X175582857Y-141586071D01*
X175940000Y-141586071D01*
M02*
