%TF.GenerationSoftware,KiCad,Pcbnew,(6.0.2)*%
%TF.CreationDate,2022-04-05T13:26:03-06:00*%
%TF.ProjectId,DB25m_F4Lite_THTV1,44423235-6d5f-4463-944c-6974655f5448,rev?*%
%TF.SameCoordinates,Original*%
%TF.FileFunction,Legend,Top*%
%TF.FilePolarity,Positive*%
%FSLAX46Y46*%
G04 Gerber Fmt 4.6, Leading zero omitted, Abs format (unit mm)*
G04 Created by KiCad (PCBNEW (6.0.2)) date 2022-04-05 13:26:03*
%MOMM*%
%LPD*%
G01*
G04 APERTURE LIST*
%ADD10C,0.150000*%
%ADD11C,0.120000*%
G04 APERTURE END LIST*
D10*
X142966190Y-47187142D02*
X142918571Y-47234761D01*
X142775714Y-47282380D01*
X142680476Y-47282380D01*
X142537619Y-47234761D01*
X142442380Y-47139523D01*
X142394761Y-47044285D01*
X142347142Y-46853809D01*
X142347142Y-46710952D01*
X142394761Y-46520476D01*
X142442380Y-46425238D01*
X142537619Y-46330000D01*
X142680476Y-46282380D01*
X142775714Y-46282380D01*
X142918571Y-46330000D01*
X142966190Y-46377619D01*
X143537619Y-47282380D02*
X143442380Y-47234761D01*
X143394761Y-47187142D01*
X143347142Y-47091904D01*
X143347142Y-46806190D01*
X143394761Y-46710952D01*
X143442380Y-46663333D01*
X143537619Y-46615714D01*
X143680476Y-46615714D01*
X143775714Y-46663333D01*
X143823333Y-46710952D01*
X143870952Y-46806190D01*
X143870952Y-47091904D01*
X143823333Y-47187142D01*
X143775714Y-47234761D01*
X143680476Y-47282380D01*
X143537619Y-47282380D01*
X144299523Y-46615714D02*
X144299523Y-47282380D01*
X144299523Y-46710952D02*
X144347142Y-46663333D01*
X144442380Y-46615714D01*
X144585238Y-46615714D01*
X144680476Y-46663333D01*
X144728095Y-46758571D01*
X144728095Y-47282380D01*
X145204285Y-46615714D02*
X145204285Y-47282380D01*
X145204285Y-46710952D02*
X145251904Y-46663333D01*
X145347142Y-46615714D01*
X145490000Y-46615714D01*
X145585238Y-46663333D01*
X145632857Y-46758571D01*
X145632857Y-47282380D01*
X146490000Y-47234761D02*
X146394761Y-47282380D01*
X146204285Y-47282380D01*
X146109047Y-47234761D01*
X146061428Y-47139523D01*
X146061428Y-46758571D01*
X146109047Y-46663333D01*
X146204285Y-46615714D01*
X146394761Y-46615714D01*
X146490000Y-46663333D01*
X146537619Y-46758571D01*
X146537619Y-46853809D01*
X146061428Y-46949047D01*
X147394761Y-47234761D02*
X147299523Y-47282380D01*
X147109047Y-47282380D01*
X147013809Y-47234761D01*
X146966190Y-47187142D01*
X146918571Y-47091904D01*
X146918571Y-46806190D01*
X146966190Y-46710952D01*
X147013809Y-46663333D01*
X147109047Y-46615714D01*
X147299523Y-46615714D01*
X147394761Y-46663333D01*
X147680476Y-46615714D02*
X148061428Y-46615714D01*
X147823333Y-46282380D02*
X147823333Y-47139523D01*
X147870952Y-47234761D01*
X147966190Y-47282380D01*
X148061428Y-47282380D01*
X148537619Y-47282380D02*
X148442380Y-47234761D01*
X148394761Y-47187142D01*
X148347142Y-47091904D01*
X148347142Y-46806190D01*
X148394761Y-46710952D01*
X148442380Y-46663333D01*
X148537619Y-46615714D01*
X148680476Y-46615714D01*
X148775714Y-46663333D01*
X148823333Y-46710952D01*
X148870952Y-46806190D01*
X148870952Y-47091904D01*
X148823333Y-47187142D01*
X148775714Y-47234761D01*
X148680476Y-47282380D01*
X148537619Y-47282380D01*
X149299523Y-47282380D02*
X149299523Y-46615714D01*
X149299523Y-46806190D02*
X149347142Y-46710952D01*
X149394761Y-46663333D01*
X149490000Y-46615714D01*
X149585238Y-46615714D01*
X150680476Y-47282380D02*
X150680476Y-46282380D01*
X150680476Y-46758571D02*
X151251904Y-46758571D01*
X151251904Y-47282380D02*
X151251904Y-46282380D01*
X152109047Y-47234761D02*
X152013809Y-47282380D01*
X151823333Y-47282380D01*
X151728095Y-47234761D01*
X151680476Y-47139523D01*
X151680476Y-46758571D01*
X151728095Y-46663333D01*
X151823333Y-46615714D01*
X152013809Y-46615714D01*
X152109047Y-46663333D01*
X152156666Y-46758571D01*
X152156666Y-46853809D01*
X151680476Y-46949047D01*
X152585238Y-47282380D02*
X152585238Y-46615714D01*
X152585238Y-46806190D02*
X152632857Y-46710952D01*
X152680476Y-46663333D01*
X152775714Y-46615714D01*
X152870952Y-46615714D01*
X153585238Y-47234761D02*
X153490000Y-47282380D01*
X153299523Y-47282380D01*
X153204285Y-47234761D01*
X153156666Y-47139523D01*
X153156666Y-46758571D01*
X153204285Y-46663333D01*
X153299523Y-46615714D01*
X153490000Y-46615714D01*
X153585238Y-46663333D01*
X153632857Y-46758571D01*
X153632857Y-46853809D01*
X153156666Y-46949047D01*
X134691904Y-88237142D02*
X134644285Y-88284761D01*
X134501428Y-88332380D01*
X134406190Y-88332380D01*
X134263333Y-88284761D01*
X134168095Y-88189523D01*
X134120476Y-88094285D01*
X134072857Y-87903809D01*
X134072857Y-87760952D01*
X134120476Y-87570476D01*
X134168095Y-87475238D01*
X134263333Y-87380000D01*
X134406190Y-87332380D01*
X134501428Y-87332380D01*
X134644285Y-87380000D01*
X134691904Y-87427619D01*
X135691904Y-88237142D02*
X135644285Y-88284761D01*
X135501428Y-88332380D01*
X135406190Y-88332380D01*
X135263333Y-88284761D01*
X135168095Y-88189523D01*
X135120476Y-88094285D01*
X135072857Y-87903809D01*
X135072857Y-87760952D01*
X135120476Y-87570476D01*
X135168095Y-87475238D01*
X135263333Y-87380000D01*
X135406190Y-87332380D01*
X135501428Y-87332380D01*
X135644285Y-87380000D01*
X135691904Y-87427619D01*
X137215714Y-87808571D02*
X137358571Y-87856190D01*
X137406190Y-87903809D01*
X137453809Y-87999047D01*
X137453809Y-88141904D01*
X137406190Y-88237142D01*
X137358571Y-88284761D01*
X137263333Y-88332380D01*
X136882380Y-88332380D01*
X136882380Y-87332380D01*
X137215714Y-87332380D01*
X137310952Y-87380000D01*
X137358571Y-87427619D01*
X137406190Y-87522857D01*
X137406190Y-87618095D01*
X137358571Y-87713333D01*
X137310952Y-87760952D01*
X137215714Y-87808571D01*
X136882380Y-87808571D01*
X138072857Y-87856190D02*
X138072857Y-88332380D01*
X137739523Y-87332380D02*
X138072857Y-87856190D01*
X138406190Y-87332380D01*
X138739523Y-87951428D02*
X139501428Y-87951428D01*
X139977619Y-88332380D02*
X139977619Y-87332380D01*
X140549047Y-88332380D01*
X140549047Y-87332380D01*
X141596666Y-88237142D02*
X141549047Y-88284761D01*
X141406190Y-88332380D01*
X141310952Y-88332380D01*
X141168095Y-88284761D01*
X141072857Y-88189523D01*
X141025238Y-88094285D01*
X140977619Y-87903809D01*
X140977619Y-87760952D01*
X141025238Y-87570476D01*
X141072857Y-87475238D01*
X141168095Y-87380000D01*
X141310952Y-87332380D01*
X141406190Y-87332380D01*
X141549047Y-87380000D01*
X141596666Y-87427619D01*
X142025238Y-87951428D02*
X142787142Y-87951428D01*
X143215714Y-88284761D02*
X143358571Y-88332380D01*
X143596666Y-88332380D01*
X143691904Y-88284761D01*
X143739523Y-88237142D01*
X143787142Y-88141904D01*
X143787142Y-88046666D01*
X143739523Y-87951428D01*
X143691904Y-87903809D01*
X143596666Y-87856190D01*
X143406190Y-87808571D01*
X143310952Y-87760952D01*
X143263333Y-87713333D01*
X143215714Y-87618095D01*
X143215714Y-87522857D01*
X143263333Y-87427619D01*
X143310952Y-87380000D01*
X143406190Y-87332380D01*
X143644285Y-87332380D01*
X143787142Y-87380000D01*
X144168095Y-88046666D02*
X144644285Y-88046666D01*
X144072857Y-88332380D02*
X144406190Y-87332380D01*
X144739523Y-88332380D01*
X146263333Y-87665714D02*
X146263333Y-88332380D01*
X146025238Y-87284761D02*
X145787142Y-87999047D01*
X146406190Y-87999047D01*
X146787142Y-88237142D02*
X146834761Y-88284761D01*
X146787142Y-88332380D01*
X146739523Y-88284761D01*
X146787142Y-88237142D01*
X146787142Y-88332380D01*
X147453809Y-87332380D02*
X147549047Y-87332380D01*
X147644285Y-87380000D01*
X147691904Y-87427619D01*
X147739523Y-87522857D01*
X147787142Y-87713333D01*
X147787142Y-87951428D01*
X147739523Y-88141904D01*
X147691904Y-88237142D01*
X147644285Y-88284761D01*
X147549047Y-88332380D01*
X147453809Y-88332380D01*
X147358571Y-88284761D01*
X147310952Y-88237142D01*
X147263333Y-88141904D01*
X147215714Y-87951428D01*
X147215714Y-87713333D01*
X147263333Y-87522857D01*
X147310952Y-87427619D01*
X147358571Y-87380000D01*
X147453809Y-87332380D01*
X139358571Y-89894761D02*
X139501428Y-89942380D01*
X139739523Y-89942380D01*
X139834761Y-89894761D01*
X139882380Y-89847142D01*
X139930000Y-89751904D01*
X139930000Y-89656666D01*
X139882380Y-89561428D01*
X139834761Y-89513809D01*
X139739523Y-89466190D01*
X139549047Y-89418571D01*
X139453809Y-89370952D01*
X139406190Y-89323333D01*
X139358571Y-89228095D01*
X139358571Y-89132857D01*
X139406190Y-89037619D01*
X139453809Y-88990000D01*
X139549047Y-88942380D01*
X139787142Y-88942380D01*
X139930000Y-88990000D01*
X140310952Y-89656666D02*
X140787142Y-89656666D01*
X140215714Y-89942380D02*
X140549047Y-88942380D01*
X140882380Y-89942380D01*
X141691904Y-89942380D02*
X141215714Y-89942380D01*
X141215714Y-88942380D01*
X142025238Y-89418571D02*
X142358571Y-89418571D01*
X142501428Y-89942380D02*
X142025238Y-89942380D01*
X142025238Y-88942380D01*
X142501428Y-88942380D01*
X135382380Y-91552380D02*
X135382380Y-90552380D01*
X135953809Y-91552380D01*
X135953809Y-90552380D01*
X136620476Y-90552380D02*
X136810952Y-90552380D01*
X136906190Y-90600000D01*
X137001428Y-90695238D01*
X137049047Y-90885714D01*
X137049047Y-91219047D01*
X137001428Y-91409523D01*
X136906190Y-91504761D01*
X136810952Y-91552380D01*
X136620476Y-91552380D01*
X136525238Y-91504761D01*
X136430000Y-91409523D01*
X136382380Y-91219047D01*
X136382380Y-90885714D01*
X136430000Y-90695238D01*
X136525238Y-90600000D01*
X136620476Y-90552380D01*
X137334761Y-90552380D02*
X137906190Y-90552380D01*
X137620476Y-91552380D02*
X137620476Y-90552380D01*
X139001428Y-91552380D02*
X139001428Y-90552380D01*
X139382380Y-90552380D01*
X139477619Y-90600000D01*
X139525238Y-90647619D01*
X139572857Y-90742857D01*
X139572857Y-90885714D01*
X139525238Y-90980952D01*
X139477619Y-91028571D01*
X139382380Y-91076190D01*
X139001428Y-91076190D01*
X140001428Y-91028571D02*
X140334761Y-91028571D01*
X140477619Y-91552380D02*
X140001428Y-91552380D01*
X140001428Y-90552380D01*
X140477619Y-90552380D01*
X141477619Y-91552380D02*
X141144285Y-91076190D01*
X140906190Y-91552380D02*
X140906190Y-90552380D01*
X141287142Y-90552380D01*
X141382380Y-90600000D01*
X141430000Y-90647619D01*
X141477619Y-90742857D01*
X141477619Y-90885714D01*
X141430000Y-90980952D01*
X141382380Y-91028571D01*
X141287142Y-91076190D01*
X140906190Y-91076190D01*
X141906190Y-91552380D02*
X141906190Y-90552380D01*
X142239523Y-91266666D01*
X142572857Y-90552380D01*
X142572857Y-91552380D01*
X143049047Y-91552380D02*
X143049047Y-90552380D01*
X143382380Y-90552380D02*
X143953809Y-90552380D01*
X143668095Y-91552380D02*
X143668095Y-90552380D01*
X144144285Y-90552380D02*
X144715714Y-90552380D01*
X144430000Y-91552380D02*
X144430000Y-90552380D01*
X145049047Y-91028571D02*
X145382380Y-91028571D01*
X145525238Y-91552380D02*
X145049047Y-91552380D01*
X145049047Y-90552380D01*
X145525238Y-90552380D01*
X145953809Y-91552380D02*
X145953809Y-90552380D01*
X146191904Y-90552380D01*
X146334761Y-90600000D01*
X146430000Y-90695238D01*
X146477619Y-90790476D01*
X146525238Y-90980952D01*
X146525238Y-91123809D01*
X146477619Y-91314285D01*
X146430000Y-91409523D01*
X146334761Y-91504761D01*
X146191904Y-91552380D01*
X145953809Y-91552380D01*
X118001992Y-46366180D02*
X118001992Y-47080466D01*
X117954373Y-47223323D01*
X117859135Y-47318561D01*
X117716278Y-47366180D01*
X117621040Y-47366180D01*
X118954373Y-47366180D02*
X118478182Y-47366180D01*
X118478182Y-46366180D01*
X119859135Y-47270942D02*
X119811516Y-47318561D01*
X119668659Y-47366180D01*
X119573420Y-47366180D01*
X119430563Y-47318561D01*
X119335325Y-47223323D01*
X119287706Y-47128085D01*
X119240087Y-46937609D01*
X119240087Y-46794752D01*
X119287706Y-46604276D01*
X119335325Y-46509038D01*
X119430563Y-46413800D01*
X119573420Y-46366180D01*
X119668659Y-46366180D01*
X119811516Y-46413800D01*
X119859135Y-46461419D01*
X120573420Y-46366180D02*
X120573420Y-47080466D01*
X120525801Y-47223323D01*
X120430563Y-47318561D01*
X120287706Y-47366180D01*
X120192468Y-47366180D01*
X121525801Y-47366180D02*
X121049611Y-47366180D01*
X121049611Y-46366180D01*
X122430563Y-47270942D02*
X122382944Y-47318561D01*
X122240087Y-47366180D01*
X122144849Y-47366180D01*
X122001992Y-47318561D01*
X121906754Y-47223323D01*
X121859135Y-47128085D01*
X121811516Y-46937609D01*
X121811516Y-46794752D01*
X121859135Y-46604276D01*
X121906754Y-46509038D01*
X122001992Y-46413800D01*
X122144849Y-46366180D01*
X122240087Y-46366180D01*
X122382944Y-46413800D01*
X122430563Y-46461419D01*
X123144849Y-46366180D02*
X123144849Y-47080466D01*
X123097230Y-47223323D01*
X123001992Y-47318561D01*
X122859135Y-47366180D01*
X122763897Y-47366180D01*
X124097230Y-47366180D02*
X123621040Y-47366180D01*
X123621040Y-46366180D01*
X125001992Y-47270942D02*
X124954373Y-47318561D01*
X124811516Y-47366180D01*
X124716278Y-47366180D01*
X124573420Y-47318561D01*
X124478182Y-47223323D01*
X124430563Y-47128085D01*
X124382944Y-46937609D01*
X124382944Y-46794752D01*
X124430563Y-46604276D01*
X124478182Y-46509038D01*
X124573420Y-46413800D01*
X124716278Y-46366180D01*
X124811516Y-46366180D01*
X124954373Y-46413800D01*
X125001992Y-46461419D01*
X125716278Y-46366180D02*
X125716278Y-47080466D01*
X125668659Y-47223323D01*
X125573420Y-47318561D01*
X125430563Y-47366180D01*
X125335325Y-47366180D01*
X126668659Y-47366180D02*
X126192468Y-47366180D01*
X126192468Y-46366180D01*
X127573420Y-47270942D02*
X127525801Y-47318561D01*
X127382944Y-47366180D01*
X127287706Y-47366180D01*
X127144849Y-47318561D01*
X127049611Y-47223323D01*
X127001992Y-47128085D01*
X126954373Y-46937609D01*
X126954373Y-46794752D01*
X127001992Y-46604276D01*
X127049611Y-46509038D01*
X127144849Y-46413800D01*
X127287706Y-46366180D01*
X127382944Y-46366180D01*
X127525801Y-46413800D01*
X127573420Y-46461419D01*
X120210098Y-64151464D02*
X120210098Y-63351464D01*
X120552955Y-64151464D02*
X120552955Y-63732417D01*
X120514860Y-63656226D01*
X120438669Y-63618131D01*
X120324383Y-63618131D01*
X120248193Y-63656226D01*
X120210098Y-63694321D01*
X120819621Y-63618131D02*
X121124383Y-63618131D01*
X120933907Y-63351464D02*
X120933907Y-64037179D01*
X120972002Y-64113369D01*
X121048193Y-64151464D01*
X121124383Y-64151464D01*
X121276764Y-63618131D02*
X121581526Y-63618131D01*
X121391050Y-63351464D02*
X121391050Y-64037179D01*
X121429145Y-64113369D01*
X121505336Y-64151464D01*
X121581526Y-64151464D01*
X121848193Y-63618131D02*
X121848193Y-64418131D01*
X121848193Y-63656226D02*
X121924383Y-63618131D01*
X122076764Y-63618131D01*
X122152955Y-63656226D01*
X122191050Y-63694321D01*
X122229145Y-63770512D01*
X122229145Y-63999083D01*
X122191050Y-64075274D01*
X122152955Y-64113369D01*
X122076764Y-64151464D01*
X121924383Y-64151464D01*
X121848193Y-64113369D01*
X122533907Y-64113369D02*
X122610098Y-64151464D01*
X122762479Y-64151464D01*
X122838669Y-64113369D01*
X122876764Y-64037179D01*
X122876764Y-63999083D01*
X122838669Y-63922893D01*
X122762479Y-63884798D01*
X122648193Y-63884798D01*
X122572002Y-63846702D01*
X122533907Y-63770512D01*
X122533907Y-63732417D01*
X122572002Y-63656226D01*
X122648193Y-63618131D01*
X122762479Y-63618131D01*
X122838669Y-63656226D01*
X123219621Y-64075274D02*
X123257717Y-64113369D01*
X123219621Y-64151464D01*
X123181526Y-64113369D01*
X123219621Y-64075274D01*
X123219621Y-64151464D01*
X123219621Y-63656226D02*
X123257717Y-63694321D01*
X123219621Y-63732417D01*
X123181526Y-63694321D01*
X123219621Y-63656226D01*
X123219621Y-63732417D01*
X124172002Y-63313369D02*
X123486288Y-64341940D01*
X125010098Y-63313369D02*
X124324383Y-64341940D01*
X125619621Y-64151464D02*
X125619621Y-63732417D01*
X125581526Y-63656226D01*
X125505336Y-63618131D01*
X125352955Y-63618131D01*
X125276764Y-63656226D01*
X125619621Y-64113369D02*
X125543431Y-64151464D01*
X125352955Y-64151464D01*
X125276764Y-64113369D01*
X125238669Y-64037179D01*
X125238669Y-63960988D01*
X125276764Y-63884798D01*
X125352955Y-63846702D01*
X125543431Y-63846702D01*
X125619621Y-63808607D01*
X126000574Y-63618131D02*
X126000574Y-64151464D01*
X126000574Y-63694321D02*
X126038669Y-63656226D01*
X126114860Y-63618131D01*
X126229145Y-63618131D01*
X126305336Y-63656226D01*
X126343431Y-63732417D01*
X126343431Y-64151464D01*
X127067240Y-64151464D02*
X127067240Y-63351464D01*
X127067240Y-64113369D02*
X126991050Y-64151464D01*
X126838669Y-64151464D01*
X126762479Y-64113369D01*
X126724383Y-64075274D01*
X126686288Y-63999083D01*
X126686288Y-63770512D01*
X126724383Y-63694321D01*
X126762479Y-63656226D01*
X126838669Y-63618131D01*
X126991050Y-63618131D01*
X127067240Y-63656226D01*
X127448193Y-64151464D02*
X127448193Y-63618131D01*
X127448193Y-63770512D02*
X127486288Y-63694321D01*
X127524383Y-63656226D01*
X127600574Y-63618131D01*
X127676764Y-63618131D01*
X128057717Y-64151464D02*
X127981526Y-64113369D01*
X127943431Y-64075274D01*
X127905336Y-63999083D01*
X127905336Y-63770512D01*
X127943431Y-63694321D01*
X127981526Y-63656226D01*
X128057717Y-63618131D01*
X128172002Y-63618131D01*
X128248193Y-63656226D01*
X128286288Y-63694321D01*
X128324383Y-63770512D01*
X128324383Y-63999083D01*
X128286288Y-64075274D01*
X128248193Y-64113369D01*
X128172002Y-64151464D01*
X128057717Y-64151464D01*
X129010098Y-64151464D02*
X129010098Y-63351464D01*
X129010098Y-64113369D02*
X128933907Y-64151464D01*
X128781526Y-64151464D01*
X128705336Y-64113369D01*
X128667240Y-64075274D01*
X128629145Y-63999083D01*
X128629145Y-63770512D01*
X128667240Y-63694321D01*
X128705336Y-63656226D01*
X128781526Y-63618131D01*
X128933907Y-63618131D01*
X129010098Y-63656226D01*
X129733907Y-64151464D02*
X129733907Y-63732417D01*
X129695812Y-63656226D01*
X129619621Y-63618131D01*
X129467240Y-63618131D01*
X129391050Y-63656226D01*
X129733907Y-64113369D02*
X129657717Y-64151464D01*
X129467240Y-64151464D01*
X129391050Y-64113369D01*
X129352955Y-64037179D01*
X129352955Y-63960988D01*
X129391050Y-63884798D01*
X129467240Y-63846702D01*
X129657717Y-63846702D01*
X129733907Y-63808607D01*
X130114860Y-64075274D02*
X130152955Y-64113369D01*
X130114860Y-64151464D01*
X130076764Y-64113369D01*
X130114860Y-64075274D01*
X130114860Y-64151464D01*
X130419621Y-63618131D02*
X130572002Y-64151464D01*
X130724383Y-63770512D01*
X130876764Y-64151464D01*
X131029145Y-63618131D01*
X131448193Y-64151464D02*
X131372002Y-64113369D01*
X131333907Y-64075274D01*
X131295812Y-63999083D01*
X131295812Y-63770512D01*
X131333907Y-63694321D01*
X131372002Y-63656226D01*
X131448193Y-63618131D01*
X131562479Y-63618131D01*
X131638669Y-63656226D01*
X131676764Y-63694321D01*
X131714860Y-63770512D01*
X131714860Y-63999083D01*
X131676764Y-64075274D01*
X131638669Y-64113369D01*
X131562479Y-64151464D01*
X131448193Y-64151464D01*
X132057717Y-64151464D02*
X132057717Y-63618131D01*
X132057717Y-63770512D02*
X132095812Y-63694321D01*
X132133907Y-63656226D01*
X132210098Y-63618131D01*
X132286288Y-63618131D01*
X132552955Y-64151464D02*
X132552955Y-63351464D01*
X132629145Y-63846702D02*
X132857717Y-64151464D01*
X132857717Y-63618131D02*
X132552955Y-63922893D01*
%TO.C,D1*%
X117531904Y-90042380D02*
X117531904Y-89042380D01*
X117770000Y-89042380D01*
X117912857Y-89090000D01*
X118008095Y-89185238D01*
X118055714Y-89280476D01*
X118103333Y-89470952D01*
X118103333Y-89613809D01*
X118055714Y-89804285D01*
X118008095Y-89899523D01*
X117912857Y-89994761D01*
X117770000Y-90042380D01*
X117531904Y-90042380D01*
X119055714Y-90042380D02*
X118484285Y-90042380D01*
X118770000Y-90042380D02*
X118770000Y-89042380D01*
X118674761Y-89185238D01*
X118579523Y-89280476D01*
X118484285Y-89328095D01*
%TO.C,F1*%
X128990946Y-89457571D02*
X128657613Y-89457571D01*
X128657613Y-89981380D02*
X128657613Y-88981380D01*
X129133803Y-88981380D01*
X130038565Y-89981380D02*
X129467137Y-89981380D01*
X129752851Y-89981380D02*
X129752851Y-88981380D01*
X129657613Y-89124238D01*
X129562375Y-89219476D01*
X129467137Y-89267095D01*
%TO.C,U2*%
X108737055Y-76368446D02*
X109546579Y-76368446D01*
X109641817Y-76320827D01*
X109689436Y-76273208D01*
X109737055Y-76177970D01*
X109737055Y-75987494D01*
X109689436Y-75892256D01*
X109641817Y-75844637D01*
X109546579Y-75797018D01*
X108737055Y-75797018D01*
X109689436Y-75368446D02*
X109737055Y-75225589D01*
X109737055Y-74987494D01*
X109689436Y-74892256D01*
X109641817Y-74844637D01*
X109546579Y-74797018D01*
X109451341Y-74797018D01*
X109356103Y-74844637D01*
X109308484Y-74892256D01*
X109260865Y-74987494D01*
X109213246Y-75177970D01*
X109165627Y-75273208D01*
X109118008Y-75320827D01*
X109022770Y-75368446D01*
X108927532Y-75368446D01*
X108832294Y-75320827D01*
X108784675Y-75273208D01*
X108737055Y-75177970D01*
X108737055Y-74939875D01*
X108784675Y-74797018D01*
X109213246Y-74035113D02*
X109260865Y-73892256D01*
X109308484Y-73844637D01*
X109403722Y-73797018D01*
X109546579Y-73797018D01*
X109641817Y-73844637D01*
X109689436Y-73892256D01*
X109737055Y-73987494D01*
X109737055Y-74368446D01*
X108737055Y-74368446D01*
X108737055Y-74035113D01*
X108784675Y-73939875D01*
X108832294Y-73892256D01*
X108927532Y-73844637D01*
X109022770Y-73844637D01*
X109118008Y-73892256D01*
X109165627Y-73939875D01*
X109213246Y-74035113D01*
X109213246Y-74368446D01*
%TO.C,RN2*%
X149801983Y-56883860D02*
X149468650Y-56407670D01*
X149230555Y-56883860D02*
X149230555Y-55883860D01*
X149611507Y-55883860D01*
X149706745Y-55931480D01*
X149754364Y-55979099D01*
X149801983Y-56074337D01*
X149801983Y-56217194D01*
X149754364Y-56312432D01*
X149706745Y-56360051D01*
X149611507Y-56407670D01*
X149230555Y-56407670D01*
X150230555Y-56883860D02*
X150230555Y-55883860D01*
X150801983Y-56883860D01*
X150801983Y-55883860D01*
X151230555Y-55979099D02*
X151278174Y-55931480D01*
X151373412Y-55883860D01*
X151611507Y-55883860D01*
X151706745Y-55931480D01*
X151754364Y-55979099D01*
X151801983Y-56074337D01*
X151801983Y-56169575D01*
X151754364Y-56312432D01*
X151182936Y-56883860D01*
X151801983Y-56883860D01*
%TO.C,RN1*%
X120655483Y-57061360D02*
X120322150Y-56585170D01*
X120084055Y-57061360D02*
X120084055Y-56061360D01*
X120465007Y-56061360D01*
X120560245Y-56108980D01*
X120607864Y-56156599D01*
X120655483Y-56251837D01*
X120655483Y-56394694D01*
X120607864Y-56489932D01*
X120560245Y-56537551D01*
X120465007Y-56585170D01*
X120084055Y-56585170D01*
X121084055Y-57061360D02*
X121084055Y-56061360D01*
X121655483Y-57061360D01*
X121655483Y-56061360D01*
X122655483Y-57061360D02*
X122084055Y-57061360D01*
X122369769Y-57061360D02*
X122369769Y-56061360D01*
X122274531Y-56204218D01*
X122179293Y-56299456D01*
X122084055Y-56347075D01*
D11*
%TO.C,D1*%
X121370000Y-91070000D02*
X121370000Y-88130000D01*
X121370000Y-88130000D02*
X115930000Y-88130000D01*
X115930000Y-88130000D02*
X115930000Y-91070000D01*
X115930000Y-91070000D02*
X121370000Y-91070000D01*
X122590000Y-89600000D02*
X121370000Y-89600000D01*
X114710000Y-89600000D02*
X115930000Y-89600000D01*
X120470000Y-91070000D02*
X120470000Y-88130000D01*
X120350000Y-91070000D02*
X120350000Y-88130000D01*
X120590000Y-91070000D02*
X120590000Y-88130000D01*
%TO.C,F1*%
X125080000Y-87390000D02*
X133680000Y-87390000D01*
X125080000Y-87390000D02*
X125080000Y-91490000D01*
X133680000Y-87390000D02*
X133680000Y-91490000D01*
X125080000Y-91490000D02*
X133680000Y-91490000D01*
%TO.C,J6*%
X162440800Y-42054820D02*
X162440800Y-54394820D01*
X162440800Y-54394820D02*
X109220800Y-54394820D01*
X109220800Y-54394820D02*
X109220800Y-42054820D01*
X152700800Y-55289158D02*
X152200800Y-55289158D01*
X152200800Y-55289158D02*
X152450800Y-54856145D01*
X152450800Y-54856145D02*
X152700800Y-55289158D01*
%TO.C,U2*%
X110784675Y-84301342D02*
G75*
G03*
X110784675Y-84301342I-1500000J0D01*
G01*
X107760675Y-77189342D02*
X111062675Y-77189342D01*
X111062675Y-77189342D02*
X111062675Y-72871342D01*
X111062675Y-72871342D02*
X107760675Y-72871342D01*
%TO.C,RN2*%
X136352460Y-57431480D02*
X136352460Y-60231480D01*
X136352460Y-60231480D02*
X162092460Y-60231480D01*
X162092460Y-60231480D02*
X162092460Y-57431480D01*
X162092460Y-57431480D02*
X136352460Y-57431480D01*
X139062460Y-57431480D02*
X139062460Y-60231480D01*
%TO.C,RN1*%
X135422460Y-60231480D02*
X135422460Y-57431480D01*
X135422460Y-57431480D02*
X109682460Y-57431480D01*
X109682460Y-57431480D02*
X109682460Y-60231480D01*
X109682460Y-60231480D02*
X135422460Y-60231480D01*
X132712460Y-60231480D02*
X132712460Y-57431480D01*
%TO.C,REF\u002A\u002A*%
X133951980Y-62080140D02*
X133697980Y-61826140D01*
X134205980Y-63096140D02*
X134713980Y-62588140D01*
X132681980Y-61572140D02*
X133189980Y-61064140D01*
X132427980Y-61572140D02*
X132427980Y-61318140D01*
X132427980Y-61826140D02*
X131919980Y-62334140D01*
X132935980Y-61826140D02*
X132427980Y-61826140D01*
X133189980Y-62588140D02*
X133443980Y-62588140D01*
X133189980Y-62334140D02*
X133189980Y-62588140D01*
X133443980Y-62334140D02*
X134205980Y-62334140D01*
X133443980Y-61572140D02*
X133443980Y-62334140D01*
X132935980Y-62080140D02*
X133443980Y-61572140D01*
X132935980Y-62842140D02*
X132935980Y-62080140D01*
X133697980Y-62842140D02*
X132935980Y-62842140D01*
X133697980Y-62842140D02*
X134205980Y-62334140D01*
X133951980Y-63350140D02*
X133443980Y-63858140D01*
X133951980Y-62842140D02*
X133951980Y-63350140D01*
X134205980Y-63350140D02*
X134459980Y-63350140D01*
%TD*%
M02*
