%TF.GenerationSoftware,KiCad,Pcbnew,(6.0.2)*%
%TF.CreationDate,2022-04-05T13:26:03-06:00*%
%TF.ProjectId,DB25m_F4Lite_THTV1,44423235-6d5f-4463-944c-6974655f5448,rev?*%
%TF.SameCoordinates,Original*%
%TF.FileFunction,Soldermask,Bot*%
%TF.FilePolarity,Negative*%
%FSLAX46Y46*%
G04 Gerber Fmt 4.6, Leading zero omitted, Abs format (unit mm)*
G04 Created by KiCad (PCBNEW (6.0.2)) date 2022-04-05 13:26:03*
%MOMM*%
%LPD*%
G01*
G04 APERTURE LIST*
G04 Aperture macros list*
%AMRoundRect*
0 Rectangle with rounded corners*
0 $1 Rounding radius*
0 $2 $3 $4 $5 $6 $7 $8 $9 X,Y pos of 4 corners*
0 Add a 4 corners polygon primitive as box body*
4,1,4,$2,$3,$4,$5,$6,$7,$8,$9,$2,$3,0*
0 Add four circle primitives for the rounded corners*
1,1,$1+$1,$2,$3*
1,1,$1+$1,$4,$5*
1,1,$1+$1,$6,$7*
1,1,$1+$1,$8,$9*
0 Add four rect primitives between the rounded corners*
20,1,$1+$1,$2,$3,$4,$5,0*
20,1,$1+$1,$4,$5,$6,$7,0*
20,1,$1+$1,$6,$7,$8,$9,0*
20,1,$1+$1,$8,$9,$2,$3,0*%
G04 Aperture macros list end*
%ADD10C,0.100000*%
%ADD11O,1.800000X1.800000*%
%ADD12R,1.800000X1.800000*%
%ADD13RoundRect,0.250001X-0.462499X-1.074999X0.462499X-1.074999X0.462499X1.074999X-0.462499X1.074999X0*%
%ADD14C,1.270000*%
%ADD15C,4.000000*%
%ADD16C,1.600000*%
%ADD17R,1.600000X1.600000*%
%ADD18C,1.650000*%
%ADD19RoundRect,0.412500X0.412500X-0.412500X0.412500X0.412500X-0.412500X0.412500X-0.412500X-0.412500X0*%
%ADD20RoundRect,0.250001X0.462499X1.074999X-0.462499X1.074999X-0.462499X-1.074999X0.462499X-1.074999X0*%
%ADD21O,2.000000X1.905000*%
%ADD22R,2.000000X1.905000*%
%ADD23O,3.500000X3.500000*%
%ADD24O,1.600000X1.600000*%
%ADD25O,1.400000X1.400000*%
%ADD26C,1.400000*%
%ADD27RoundRect,0.250001X-1.074999X0.462499X-1.074999X-0.462499X1.074999X-0.462499X1.074999X0.462499X0*%
%ADD28R,1.000000X0.500000*%
%ADD29R,0.780000X0.720000*%
%ADD30R,1.080000X1.050000*%
%ADD31R,1.200000X1.050000*%
%ADD32R,2.390000X1.050000*%
%ADD33R,0.550000X2.910000*%
%ADD34C,3.200000*%
G04 APERTURE END LIST*
D10*
X116565679Y-80342739D02*
X122915680Y-80342740D01*
X122915680Y-80342740D02*
X122915680Y-70627240D01*
X122915680Y-70627240D02*
X116565680Y-70627240D01*
X116565680Y-70627240D02*
X116565679Y-80342739D01*
G36*
X122915680Y-80342740D02*
G01*
X116565679Y-80342739D01*
X116565680Y-70627240D01*
X122915680Y-70627240D01*
X122915680Y-80342740D01*
G37*
X122915680Y-80342740D02*
X116565679Y-80342739D01*
X116565680Y-70627240D01*
X122915680Y-70627240D01*
X122915680Y-80342740D01*
D11*
%TO.C,D1*%
X113570000Y-89600000D03*
D12*
X123730000Y-89600000D03*
%TD*%
D13*
%TO.C,C5*%
X118865000Y-89720000D03*
X115890000Y-89720000D03*
%TD*%
D14*
%TO.C,F1*%
X131910000Y-89783000D03*
X126830000Y-88640000D03*
%TD*%
D15*
%TO.C,J6*%
X112280800Y-51114820D03*
X159380800Y-51114820D03*
D16*
X120595800Y-49694820D03*
X123365800Y-49694820D03*
X126135800Y-49694820D03*
X128905800Y-49694820D03*
X131675800Y-49694820D03*
X134445800Y-49694820D03*
X137215800Y-49694820D03*
X139985800Y-49694820D03*
X142755800Y-49694820D03*
X145525800Y-49694820D03*
X148295800Y-49694820D03*
X151065800Y-49694820D03*
X119210800Y-52534820D03*
X121980800Y-52534820D03*
X124750800Y-52534820D03*
X127520800Y-52534820D03*
X130290800Y-52534820D03*
X133060800Y-52534820D03*
X135830800Y-52534820D03*
X138600800Y-52534820D03*
X141370800Y-52534820D03*
X144140800Y-52534820D03*
X146910800Y-52534820D03*
X149680800Y-52534820D03*
D17*
X152450800Y-52534820D03*
%TD*%
D18*
%TO.C,U2*%
X109284675Y-66521342D03*
X111824675Y-66521342D03*
X114364675Y-66521342D03*
X116904675Y-66521342D03*
X119444675Y-66521342D03*
X121984675Y-66521342D03*
X124524675Y-66521342D03*
X127064675Y-66521342D03*
X129604675Y-66521342D03*
X132144675Y-66521342D03*
X134684675Y-66521342D03*
X137224675Y-66521342D03*
X139764675Y-66521342D03*
X142304675Y-66521342D03*
X144844675Y-66521342D03*
X147384675Y-66521342D03*
X149924675Y-66521342D03*
X152464675Y-66521342D03*
X155004675Y-66521342D03*
X157544675Y-66521342D03*
X160084675Y-66521342D03*
X162624675Y-66521342D03*
X162624675Y-84301342D03*
X160084675Y-84301342D03*
X157544675Y-84301342D03*
X155004675Y-84301342D03*
X152464675Y-84301342D03*
X149924675Y-84301342D03*
X147384675Y-84301342D03*
X144844675Y-84301342D03*
X142304675Y-84301342D03*
X139764675Y-84301342D03*
X137224675Y-84301342D03*
X134684675Y-84301342D03*
X132144675Y-84301342D03*
X129604675Y-84301342D03*
X127064675Y-84301342D03*
X124524675Y-84301342D03*
X121984675Y-84301342D03*
X119444675Y-84301342D03*
X116904675Y-84301342D03*
X114364675Y-84301342D03*
X111824675Y-84301342D03*
D19*
X109284675Y-84301342D03*
%TD*%
D20*
%TO.C,C4*%
X109547000Y-63383160D03*
X112522000Y-63383160D03*
%TD*%
D21*
%TO.C,U1*%
X136096914Y-77786244D03*
X136096914Y-75246244D03*
D22*
X136096914Y-72706244D03*
D23*
X119436914Y-75246244D03*
%TD*%
D24*
%TO.C,RN2*%
X160652460Y-58831480D03*
X158112460Y-58831480D03*
X155572460Y-58831480D03*
X153032460Y-58831480D03*
X150492460Y-58831480D03*
X147952460Y-58831480D03*
X145412460Y-58831480D03*
X142872460Y-58831480D03*
X140332460Y-58831480D03*
D17*
X137792460Y-58831480D03*
%TD*%
D24*
%TO.C,RN1*%
X111122460Y-58831480D03*
X113662460Y-58831480D03*
X116202460Y-58831480D03*
X118742460Y-58831480D03*
X121282460Y-58831480D03*
X123822460Y-58831480D03*
X126362460Y-58831480D03*
X128902460Y-58831480D03*
X131442460Y-58831480D03*
D17*
X133982460Y-58831480D03*
%TD*%
D25*
%TO.C,R2*%
X144034414Y-76198744D03*
D26*
X138954414Y-76198744D03*
%TD*%
D24*
%TO.C,R1*%
X148987414Y-72325242D03*
D16*
X138827414Y-72325242D03*
%TD*%
D27*
%TO.C,C1*%
X146764914Y-78103742D03*
X146764914Y-75128742D03*
%TD*%
D20*
%TO.C,C3*%
X133089320Y-55928260D03*
X136064320Y-55928260D03*
%TD*%
D13*
%TO.C,C2*%
X142373915Y-79310243D03*
X139398915Y-79310243D03*
%TD*%
D28*
%TO.C,J5*%
X107777153Y-71901202D03*
X107777153Y-73001202D03*
X107777153Y-74101202D03*
X107777153Y-75201202D03*
X107777153Y-76301202D03*
X107777153Y-77401202D03*
X107777153Y-78501202D03*
X107777153Y-79601202D03*
D29*
X110457153Y-70141202D03*
D30*
X111727153Y-70141202D03*
D31*
X114337153Y-70131202D03*
X113767153Y-80776202D03*
D32*
X110582153Y-80776202D03*
D33*
X115012153Y-77596202D03*
X115012153Y-73406202D03*
%TD*%
D34*
%TO.C,REF\u002A\u002A*%
X157871160Y-72522080D03*
%TD*%
%TO.C,REF\u002A\u002A*%
X151290020Y-89138760D03*
%TD*%
M02*
