M48
; DRILL file {KiCad (6.0.2)} date Wed Apr  6 14:17:42 2022
; FORMAT={-:-/ absolute / inch / decimal}
; #@! TF.CreationDate,2022-04-06T14:17:42-06:00
; #@! TF.GenerationSoftware,Kicad,Pcbnew,(6.0.2)
; #@! TF.FileFunction,Plated,1,2,PTH
FMAT,2
INCH
; #@! TA.AperFunction,Plated,PTH,ViaDrill
T1C0.0157
; #@! TA.AperFunction,Plated,PTH,ComponentDrill
T2C0.0276
; #@! TA.AperFunction,Plated,PTH,ComponentDrill
T3C0.0280
; #@! TA.AperFunction,Plated,PTH,ComponentDrill
T4C0.0315
; #@! TA.AperFunction,Plated,PTH,ComponentDrill
T5C0.0354
; #@! TA.AperFunction,Plated,PTH,ComponentDrill
T6C0.0394
; #@! TA.AperFunction,Plated,PTH,ComponentDrill
T7C0.0433
; #@! TA.AperFunction,Plated,PTH,ComponentDrill
T8C0.1260
%
G90
G05
T1
X4.1084Y-3.7563
X4.1195Y-2.1612
X4.1745Y-3.171
X4.1829Y-2.999
X4.1831Y-3.5518
X4.2703Y-2.9778
X4.277Y-2.5605
X4.2807Y-3.1631
X4.336Y-3.0394
X4.3397Y-3.1274
X4.3492Y-3.5382
X4.4111Y-2.4622
X4.4404Y-3.3136
X4.5047Y-2.712
X4.534Y-3.3136
X4.5389Y-3.5591
X4.5728Y-3.0832
X4.6091Y-3.5008
X4.6512Y-2.7127
X4.6704Y-2.9205
X4.6706Y-3.6485
X4.7024Y-3.3308
X4.7358Y-2.7127
X4.8051Y-3.3256
X4.8324Y-3.4844
X4.8492Y-3.2036
X4.8764Y-2.9514
X4.8766Y-3.8008
X4.8857Y-2.7329
X4.913Y-2.5299
X4.9715Y-2.8646
X4.9716Y-2.4674
X4.9993Y-2.5425
X5.0325Y-3.3342
X5.0503Y-2.8819
X5.0761Y-2.9768
X5.0974Y-3.2522
X5.1257Y-2.5746
X5.1318Y-3.4844
X5.1372Y-2.9651
X5.1813Y-3.2309
X5.1892Y-2.877
X5.2782Y-2.8765
X5.2879Y-2.5668
X5.2882Y-3.7448
X5.2901Y-3.6332
X5.3332Y-3.331
X5.3574Y-3.0581
X5.3792Y-2.8787
X5.3913Y-2.5662
X5.4845Y-2.8792
X5.4888Y-2.5635
X5.5826Y-3.0831
X5.6447Y-2.7443
X5.683Y-2.8752
X5.7028Y-3.5506
X5.706Y-3.3351
X5.7129Y-2.7131
X5.7861Y-2.8715
X5.7953Y-2.715
X5.8091Y-2.4823
X5.8392Y-3.1874
X5.8829Y-2.8771
X5.8842Y-2.7164
X5.9285Y-3.0599
X5.9784Y-2.8784
X5.9804Y-2.7177
X5.9895Y-2.5649
X6.0382Y-2.9986
X6.077Y-2.8801
X6.0828Y-2.7155
T2
X4.8266Y-3.7391
X5.0266Y-3.7391
T3
X4.2012Y-3.6933
X4.4012Y-3.7383
T4
X4.1562Y-2.6345
X4.2562Y-2.6345
X4.3562Y-2.6345
X4.4562Y-2.6345
X4.5562Y-2.6345
X4.6316Y-3.5866
X4.6562Y-2.6345
X4.7562Y-2.6345
X4.8562Y-2.6345
X4.9562Y-2.6345
X5.0316Y-3.5866
X5.0562Y-2.6345
X5.2062Y-2.6345
X5.3062Y-2.6345
X5.4062Y-2.6345
X5.5062Y-2.6345
X5.6062Y-2.6345
X5.7062Y-2.6345
X5.8062Y-2.6345
X5.9062Y-2.6345
X6.0062Y-2.6345
X6.1062Y-2.6345
T5
X4.1299Y-3.8654
X4.1825Y-2.8001
X4.1825Y-3.4001
X4.2825Y-2.8001
X4.2825Y-3.4001
X4.3825Y-2.8001
X4.3825Y-3.4001
X4.4825Y-2.8001
X4.4825Y-3.4001
X4.5299Y-3.8654
X4.5825Y-2.8001
X4.5825Y-3.4001
X4.6825Y-2.8001
X4.6825Y-3.4001
X4.7825Y-2.8001
X4.7825Y-3.4001
X4.8825Y-2.8001
X4.8825Y-3.4001
X4.9825Y-2.8001
X4.9825Y-3.4001
X5.0825Y-2.8001
X5.0825Y-3.4001
X5.1825Y-2.8001
X5.1825Y-3.4001
X5.2825Y-2.8001
X5.2825Y-3.4001
X5.3825Y-2.8001
X5.3825Y-3.4001
X5.4825Y-2.8001
X5.4825Y-3.4001
X5.5825Y-2.8001
X5.5825Y-3.4001
X5.6825Y-2.8001
X5.6825Y-3.4001
X5.7825Y-2.8001
X5.7825Y-3.4001
X5.8825Y-2.8001
X5.8825Y-3.4001
X5.9825Y-2.8001
X5.9825Y-3.4001
X6.0825Y-2.8001
X6.0825Y-3.4001
T6
X4.4714Y-2.4129
X4.5259Y-2.3011
X4.5805Y-2.4129
X4.635Y-2.3011
X4.6895Y-2.4129
X4.744Y-2.3011
X4.7986Y-2.4129
X4.8531Y-2.3011
X4.9076Y-2.4129
X4.9621Y-2.3011
X5.0167Y-2.4129
X5.0712Y-2.3011
X5.1257Y-2.4129
X5.1803Y-2.3011
X5.2348Y-2.4129
X5.2893Y-2.3011
X5.3438Y-2.4129
X5.3984Y-2.3011
X5.4529Y-2.4129
X5.5074Y-2.3011
X5.562Y-2.4129
X5.6165Y-2.3011
X5.671Y-2.4129
X5.7255Y-2.3011
X5.7801Y-2.4129
T7
X5.1391Y-3.6016
X5.1391Y-3.7016
X5.1391Y-3.8016
T8
X4.1986Y-2.357
X6.0529Y-2.357
T0
M30
