%TF.GenerationSoftware,KiCad,Pcbnew,(6.0.2)*%
%TF.CreationDate,2022-04-06T14:17:41-06:00*%
%TF.ProjectId,DB25m_F4_THTV1,44423235-6d5f-4463-945f-54485456312e,rev?*%
%TF.SameCoordinates,Original*%
%TF.FileFunction,Soldermask,Bot*%
%TF.FilePolarity,Negative*%
%FSLAX46Y46*%
G04 Gerber Fmt 4.6, Leading zero omitted, Abs format (unit mm)*
G04 Created by KiCad (PCBNEW (6.0.2)) date 2022-04-06 14:17:41*
%MOMM*%
%LPD*%
G01*
G04 APERTURE LIST*
G04 Aperture macros list*
%AMRoundRect*
0 Rectangle with rounded corners*
0 $1 Rounding radius*
0 $2 $3 $4 $5 $6 $7 $8 $9 X,Y pos of 4 corners*
0 Add a 4 corners polygon primitive as box body*
4,1,4,$2,$3,$4,$5,$6,$7,$8,$9,$2,$3,0*
0 Add four circle primitives for the rounded corners*
1,1,$1+$1,$2,$3*
1,1,$1+$1,$4,$5*
1,1,$1+$1,$6,$7*
1,1,$1+$1,$8,$9*
0 Add four rect primitives between the rounded corners*
20,1,$1+$1,$2,$3,$4,$5,0*
20,1,$1+$1,$4,$5,$6,$7,0*
20,1,$1+$1,$6,$7,$8,$9,0*
20,1,$1+$1,$8,$9,$2,$3,0*%
G04 Aperture macros list end*
%ADD10C,3.200000*%
%ADD11C,1.270000*%
%ADD12RoundRect,0.412500X0.412500X-0.412500X0.412500X0.412500X-0.412500X0.412500X-0.412500X-0.412500X0*%
%ADD13C,1.650000*%
%ADD14C,1.600000*%
%ADD15O,1.600000X1.600000*%
%ADD16C,1.400000*%
%ADD17O,1.400000X1.400000*%
%ADD18R,1.600000X1.600000*%
%ADD19O,3.500000X3.500000*%
%ADD20R,2.000000X1.905000*%
%ADD21O,2.000000X1.905000*%
%ADD22R,1.800000X1.800000*%
%ADD23O,1.800000X1.800000*%
%ADD24C,4.000000*%
%ADD25RoundRect,0.250001X0.462499X1.074999X-0.462499X1.074999X-0.462499X-1.074999X0.462499X-1.074999X0*%
%ADD26R,0.550000X2.910000*%
%ADD27R,1.000000X0.500000*%
%ADD28R,0.780000X0.720000*%
%ADD29R,1.200000X1.050000*%
%ADD30R,2.390000X1.050000*%
%ADD31R,1.080000X1.050000*%
%ADD32RoundRect,0.250001X-0.462499X-1.074999X0.462499X-1.074999X0.462499X1.074999X-0.462499X1.074999X0*%
G04 APERTURE END LIST*
D10*
%TO.C,REF\u002A\u002A*%
X153421080Y-82265520D03*
%TD*%
D11*
%TO.C,F1*%
X106710000Y-93810000D03*
X111790000Y-94953000D03*
%TD*%
D12*
%TO.C,BP1*%
X106235500Y-86362540D03*
D13*
X108775500Y-86362540D03*
X111315500Y-86362540D03*
X113855500Y-86362540D03*
X116395500Y-86362540D03*
X118935500Y-86362540D03*
X121475500Y-86362540D03*
X124015500Y-86362540D03*
X126555500Y-86362540D03*
X129095500Y-86362540D03*
X131635500Y-86362540D03*
X134175500Y-86362540D03*
X136715500Y-86362540D03*
X139255500Y-86362540D03*
X141795500Y-86362540D03*
X144335500Y-86362540D03*
X146875500Y-86362540D03*
X149415500Y-86362540D03*
X151955500Y-86362540D03*
X154495500Y-86362540D03*
X154495500Y-71122540D03*
X151955500Y-71122540D03*
X149415500Y-71122540D03*
X146875500Y-71122540D03*
X144335500Y-71122540D03*
X141795500Y-71122540D03*
X139255500Y-71122540D03*
X136715500Y-71122540D03*
X134175500Y-71122540D03*
X131635500Y-71122540D03*
X129095500Y-71122540D03*
X126555500Y-71122540D03*
X124015500Y-71122540D03*
X121475500Y-71122540D03*
X118935500Y-71122540D03*
X116395500Y-71122540D03*
X113855500Y-71122540D03*
X111315500Y-71122540D03*
X108775500Y-71122540D03*
X106235500Y-71122540D03*
%TD*%
D14*
%TO.C,R1*%
X127802640Y-91099640D03*
D15*
X117642640Y-91099640D03*
%TD*%
D16*
%TO.C,R2*%
X127675640Y-94973140D03*
D17*
X122595640Y-94973140D03*
%TD*%
D18*
%TO.C,RN1*%
X128426499Y-66917516D03*
D15*
X125886499Y-66917516D03*
X123346499Y-66917516D03*
X120806499Y-66917516D03*
X118266499Y-66917516D03*
X115726499Y-66917516D03*
X113186499Y-66917516D03*
X110646499Y-66917516D03*
X108106499Y-66917516D03*
X105566499Y-66917516D03*
%TD*%
D18*
%TO.C,RN2*%
X132236499Y-66917517D03*
D15*
X134776499Y-66917517D03*
X137316499Y-66917517D03*
X139856499Y-66917517D03*
X142396499Y-66917517D03*
X144936499Y-66917517D03*
X147476499Y-66917517D03*
X150016499Y-66917517D03*
X152556499Y-66917517D03*
X155096499Y-66917517D03*
%TD*%
D19*
%TO.C,U1*%
X147193140Y-94020640D03*
D20*
X130533140Y-91480640D03*
D21*
X130533140Y-94020640D03*
X130533140Y-96560640D03*
%TD*%
D22*
%TO.C,D2*%
X115060000Y-98180000D03*
D23*
X104900000Y-98180000D03*
%TD*%
D24*
%TO.C,J4*%
X153743540Y-59868601D03*
X106643540Y-59868601D03*
D18*
X146813540Y-61288601D03*
D14*
X144043540Y-61288601D03*
X141273540Y-61288601D03*
X138503540Y-61288601D03*
X135733540Y-61288601D03*
X132963540Y-61288601D03*
X130193540Y-61288601D03*
X127423540Y-61288601D03*
X124653540Y-61288601D03*
X121883540Y-61288601D03*
X119113540Y-61288601D03*
X116343540Y-61288601D03*
X113573540Y-61288601D03*
X145428540Y-58448601D03*
X142658540Y-58448601D03*
X139888540Y-58448601D03*
X137118540Y-58448601D03*
X134348540Y-58448601D03*
X131578540Y-58448601D03*
X128808540Y-58448601D03*
X126038540Y-58448601D03*
X123268540Y-58448601D03*
X120498540Y-58448601D03*
X117728540Y-58448601D03*
X114958540Y-58448601D03*
%TD*%
D25*
%TO.C,C3*%
X131683760Y-63578740D03*
X128708760Y-63578740D03*
%TD*%
D26*
%TO.C,J5*%
X112011860Y-80681400D03*
X112011860Y-76491400D03*
D27*
X104776860Y-74986400D03*
X104776860Y-76086400D03*
X104776860Y-77186400D03*
X104776860Y-78286400D03*
X104776860Y-79386400D03*
X104776860Y-80486400D03*
X104776860Y-81586400D03*
X104776860Y-82686400D03*
D28*
X107456860Y-73226400D03*
D29*
X110766860Y-83861400D03*
D30*
X107581860Y-83861400D03*
D29*
X111336860Y-73216400D03*
D31*
X108726860Y-73226400D03*
%TD*%
D32*
%TO.C,C4*%
X113821820Y-74914760D03*
X116796820Y-74914760D03*
%TD*%
M02*
