%TF.GenerationSoftware,KiCad,Pcbnew,(6.0.2)*%
%TF.CreationDate,2022-04-06T14:17:41-06:00*%
%TF.ProjectId,DB25m_F4_THTV1,44423235-6d5f-4463-945f-54485456312e,rev?*%
%TF.SameCoordinates,Original*%
%TF.FileFunction,Legend,Bot*%
%TF.FilePolarity,Positive*%
%FSLAX46Y46*%
G04 Gerber Fmt 4.6, Leading zero omitted, Abs format (unit mm)*
G04 Created by KiCad (PCBNEW (6.0.2)) date 2022-04-06 14:17:41*
%MOMM*%
%LPD*%
G01*
G04 APERTURE LIST*
%ADD10C,0.150000*%
%ADD11C,0.120000*%
G04 APERTURE END LIST*
D10*
X145400476Y-83891904D02*
X145400476Y-83091904D01*
X145057619Y-83891904D02*
X145057619Y-83472857D01*
X145095714Y-83396666D01*
X145171904Y-83358571D01*
X145286190Y-83358571D01*
X145362380Y-83396666D01*
X145400476Y-83434761D01*
X144790952Y-83358571D02*
X144486190Y-83358571D01*
X144676666Y-83091904D02*
X144676666Y-83777619D01*
X144638571Y-83853809D01*
X144562380Y-83891904D01*
X144486190Y-83891904D01*
X144333809Y-83358571D02*
X144029047Y-83358571D01*
X144219523Y-83091904D02*
X144219523Y-83777619D01*
X144181428Y-83853809D01*
X144105238Y-83891904D01*
X144029047Y-83891904D01*
X143762380Y-83358571D02*
X143762380Y-84158571D01*
X143762380Y-83396666D02*
X143686190Y-83358571D01*
X143533809Y-83358571D01*
X143457619Y-83396666D01*
X143419523Y-83434761D01*
X143381428Y-83510952D01*
X143381428Y-83739523D01*
X143419523Y-83815714D01*
X143457619Y-83853809D01*
X143533809Y-83891904D01*
X143686190Y-83891904D01*
X143762380Y-83853809D01*
X143076666Y-83853809D02*
X143000476Y-83891904D01*
X142848095Y-83891904D01*
X142771904Y-83853809D01*
X142733809Y-83777619D01*
X142733809Y-83739523D01*
X142771904Y-83663333D01*
X142848095Y-83625238D01*
X142962380Y-83625238D01*
X143038571Y-83587142D01*
X143076666Y-83510952D01*
X143076666Y-83472857D01*
X143038571Y-83396666D01*
X142962380Y-83358571D01*
X142848095Y-83358571D01*
X142771904Y-83396666D01*
X142390952Y-83815714D02*
X142352857Y-83853809D01*
X142390952Y-83891904D01*
X142429047Y-83853809D01*
X142390952Y-83815714D01*
X142390952Y-83891904D01*
X142390952Y-83396666D02*
X142352857Y-83434761D01*
X142390952Y-83472857D01*
X142429047Y-83434761D01*
X142390952Y-83396666D01*
X142390952Y-83472857D01*
X141438571Y-83053809D02*
X142124285Y-84082380D01*
X140600476Y-83053809D02*
X141286190Y-84082380D01*
X139990952Y-83358571D02*
X139990952Y-84006190D01*
X140029047Y-84082380D01*
X140067142Y-84120476D01*
X140143333Y-84158571D01*
X140257619Y-84158571D01*
X140333809Y-84120476D01*
X139990952Y-83853809D02*
X140067142Y-83891904D01*
X140219523Y-83891904D01*
X140295714Y-83853809D01*
X140333809Y-83815714D01*
X140371904Y-83739523D01*
X140371904Y-83510952D01*
X140333809Y-83434761D01*
X140295714Y-83396666D01*
X140219523Y-83358571D01*
X140067142Y-83358571D01*
X139990952Y-83396666D01*
X139610000Y-83891904D02*
X139610000Y-83358571D01*
X139610000Y-83091904D02*
X139648095Y-83130000D01*
X139610000Y-83168095D01*
X139571904Y-83130000D01*
X139610000Y-83091904D01*
X139610000Y-83168095D01*
X139343333Y-83358571D02*
X139038571Y-83358571D01*
X139229047Y-83091904D02*
X139229047Y-83777619D01*
X139190952Y-83853809D01*
X139114761Y-83891904D01*
X139038571Y-83891904D01*
X138771904Y-83891904D02*
X138771904Y-83091904D01*
X138429047Y-83891904D02*
X138429047Y-83472857D01*
X138467142Y-83396666D01*
X138543333Y-83358571D01*
X138657619Y-83358571D01*
X138733809Y-83396666D01*
X138771904Y-83434761D01*
X137705238Y-83358571D02*
X137705238Y-83891904D01*
X138048095Y-83358571D02*
X138048095Y-83777619D01*
X138010000Y-83853809D01*
X137933809Y-83891904D01*
X137819523Y-83891904D01*
X137743333Y-83853809D01*
X137705238Y-83815714D01*
X137324285Y-83891904D02*
X137324285Y-83091904D01*
X137324285Y-83396666D02*
X137248095Y-83358571D01*
X137095714Y-83358571D01*
X137019523Y-83396666D01*
X136981428Y-83434761D01*
X136943333Y-83510952D01*
X136943333Y-83739523D01*
X136981428Y-83815714D01*
X137019523Y-83853809D01*
X137095714Y-83891904D01*
X137248095Y-83891904D01*
X137324285Y-83853809D01*
X136600476Y-83815714D02*
X136562380Y-83853809D01*
X136600476Y-83891904D01*
X136638571Y-83853809D01*
X136600476Y-83815714D01*
X136600476Y-83891904D01*
X135876666Y-83853809D02*
X135952857Y-83891904D01*
X136105238Y-83891904D01*
X136181428Y-83853809D01*
X136219523Y-83815714D01*
X136257619Y-83739523D01*
X136257619Y-83510952D01*
X136219523Y-83434761D01*
X136181428Y-83396666D01*
X136105238Y-83358571D01*
X135952857Y-83358571D01*
X135876666Y-83396666D01*
X135419523Y-83891904D02*
X135495714Y-83853809D01*
X135533809Y-83815714D01*
X135571904Y-83739523D01*
X135571904Y-83510952D01*
X135533809Y-83434761D01*
X135495714Y-83396666D01*
X135419523Y-83358571D01*
X135305238Y-83358571D01*
X135229047Y-83396666D01*
X135190952Y-83434761D01*
X135152857Y-83510952D01*
X135152857Y-83739523D01*
X135190952Y-83815714D01*
X135229047Y-83853809D01*
X135305238Y-83891904D01*
X135419523Y-83891904D01*
X134810000Y-83891904D02*
X134810000Y-83358571D01*
X134810000Y-83434761D02*
X134771904Y-83396666D01*
X134695714Y-83358571D01*
X134581428Y-83358571D01*
X134505238Y-83396666D01*
X134467142Y-83472857D01*
X134467142Y-83891904D01*
X134467142Y-83472857D02*
X134429047Y-83396666D01*
X134352857Y-83358571D01*
X134238571Y-83358571D01*
X134162380Y-83396666D01*
X134124285Y-83472857D01*
X134124285Y-83891904D01*
X133171904Y-83053809D02*
X133857619Y-84082380D01*
X132562380Y-83891904D02*
X132562380Y-83472857D01*
X132600476Y-83396666D01*
X132676666Y-83358571D01*
X132829047Y-83358571D01*
X132905238Y-83396666D01*
X132562380Y-83853809D02*
X132638571Y-83891904D01*
X132829047Y-83891904D01*
X132905238Y-83853809D01*
X132943333Y-83777619D01*
X132943333Y-83701428D01*
X132905238Y-83625238D01*
X132829047Y-83587142D01*
X132638571Y-83587142D01*
X132562380Y-83549047D01*
X132181428Y-83358571D02*
X132181428Y-83891904D01*
X132181428Y-83434761D02*
X132143333Y-83396666D01*
X132067142Y-83358571D01*
X131952857Y-83358571D01*
X131876666Y-83396666D01*
X131838571Y-83472857D01*
X131838571Y-83891904D01*
X131114761Y-83891904D02*
X131114761Y-83091904D01*
X131114761Y-83853809D02*
X131190952Y-83891904D01*
X131343333Y-83891904D01*
X131419523Y-83853809D01*
X131457619Y-83815714D01*
X131495714Y-83739523D01*
X131495714Y-83510952D01*
X131457619Y-83434761D01*
X131419523Y-83396666D01*
X131343333Y-83358571D01*
X131190952Y-83358571D01*
X131114761Y-83396666D01*
X130733809Y-83891904D02*
X130733809Y-83358571D01*
X130733809Y-83510952D02*
X130695714Y-83434761D01*
X130657619Y-83396666D01*
X130581428Y-83358571D01*
X130505238Y-83358571D01*
X130124285Y-83891904D02*
X130200476Y-83853809D01*
X130238571Y-83815714D01*
X130276666Y-83739523D01*
X130276666Y-83510952D01*
X130238571Y-83434761D01*
X130200476Y-83396666D01*
X130124285Y-83358571D01*
X130010000Y-83358571D01*
X129933809Y-83396666D01*
X129895714Y-83434761D01*
X129857619Y-83510952D01*
X129857619Y-83739523D01*
X129895714Y-83815714D01*
X129933809Y-83853809D01*
X130010000Y-83891904D01*
X130124285Y-83891904D01*
X129171904Y-83891904D02*
X129171904Y-83091904D01*
X129171904Y-83853809D02*
X129248095Y-83891904D01*
X129400476Y-83891904D01*
X129476666Y-83853809D01*
X129514761Y-83815714D01*
X129552857Y-83739523D01*
X129552857Y-83510952D01*
X129514761Y-83434761D01*
X129476666Y-83396666D01*
X129400476Y-83358571D01*
X129248095Y-83358571D01*
X129171904Y-83396666D01*
X128448095Y-83891904D02*
X128448095Y-83472857D01*
X128486190Y-83396666D01*
X128562380Y-83358571D01*
X128714761Y-83358571D01*
X128790952Y-83396666D01*
X128448095Y-83853809D02*
X128524285Y-83891904D01*
X128714761Y-83891904D01*
X128790952Y-83853809D01*
X128829047Y-83777619D01*
X128829047Y-83701428D01*
X128790952Y-83625238D01*
X128714761Y-83587142D01*
X128524285Y-83587142D01*
X128448095Y-83549047D01*
X127495714Y-83053809D02*
X128181428Y-84082380D01*
X126962380Y-83472857D02*
X127229047Y-83472857D01*
X127229047Y-83891904D02*
X127229047Y-83091904D01*
X126848095Y-83091904D01*
X126200476Y-83358571D02*
X126200476Y-83891904D01*
X126390952Y-83053809D02*
X126581428Y-83625238D01*
X126086190Y-83625238D01*
X125971904Y-83968095D02*
X125362380Y-83968095D01*
X124905238Y-83472857D02*
X124790952Y-83510952D01*
X124752857Y-83549047D01*
X124714761Y-83625238D01*
X124714761Y-83739523D01*
X124752857Y-83815714D01*
X124790952Y-83853809D01*
X124867142Y-83891904D01*
X125171904Y-83891904D01*
X125171904Y-83091904D01*
X124905238Y-83091904D01*
X124829047Y-83130000D01*
X124790952Y-83168095D01*
X124752857Y-83244285D01*
X124752857Y-83320476D01*
X124790952Y-83396666D01*
X124829047Y-83434761D01*
X124905238Y-83472857D01*
X125171904Y-83472857D01*
X124257619Y-83891904D02*
X124333809Y-83853809D01*
X124371904Y-83777619D01*
X124371904Y-83091904D01*
X123610000Y-83358571D02*
X123610000Y-83891904D01*
X123952857Y-83358571D02*
X123952857Y-83777619D01*
X123914761Y-83853809D01*
X123838571Y-83891904D01*
X123724285Y-83891904D01*
X123648095Y-83853809D01*
X123610000Y-83815714D01*
X122924285Y-83853809D02*
X123000476Y-83891904D01*
X123152857Y-83891904D01*
X123229047Y-83853809D01*
X123267142Y-83777619D01*
X123267142Y-83472857D01*
X123229047Y-83396666D01*
X123152857Y-83358571D01*
X123000476Y-83358571D01*
X122924285Y-83396666D01*
X122886190Y-83472857D01*
X122886190Y-83549047D01*
X123267142Y-83625238D01*
X122581428Y-83853809D02*
X122467142Y-83891904D01*
X122276666Y-83891904D01*
X122200476Y-83853809D01*
X122162380Y-83815714D01*
X122124285Y-83739523D01*
X122124285Y-83663333D01*
X122162380Y-83587142D01*
X122200476Y-83549047D01*
X122276666Y-83510952D01*
X122429047Y-83472857D01*
X122505238Y-83434761D01*
X122543333Y-83396666D01*
X122581428Y-83320476D01*
X122581428Y-83244285D01*
X122543333Y-83168095D01*
X122505238Y-83130000D01*
X122429047Y-83091904D01*
X122238571Y-83091904D01*
X122124285Y-83130000D01*
X121324285Y-83815714D02*
X121362380Y-83853809D01*
X121476666Y-83891904D01*
X121552857Y-83891904D01*
X121667142Y-83853809D01*
X121743333Y-83777619D01*
X121781428Y-83701428D01*
X121819523Y-83549047D01*
X121819523Y-83434761D01*
X121781428Y-83282380D01*
X121743333Y-83206190D01*
X121667142Y-83130000D01*
X121552857Y-83091904D01*
X121476666Y-83091904D01*
X121362380Y-83130000D01*
X121324285Y-83168095D01*
X121019523Y-83853809D02*
X120905238Y-83891904D01*
X120714761Y-83891904D01*
X120638571Y-83853809D01*
X120600476Y-83815714D01*
X120562380Y-83739523D01*
X120562380Y-83663333D01*
X120600476Y-83587142D01*
X120638571Y-83549047D01*
X120714761Y-83510952D01*
X120867142Y-83472857D01*
X120943333Y-83434761D01*
X120981428Y-83396666D01*
X121019523Y-83320476D01*
X121019523Y-83244285D01*
X120981428Y-83168095D01*
X120943333Y-83130000D01*
X120867142Y-83091904D01*
X120676666Y-83091904D01*
X120562380Y-83130000D01*
X120219523Y-83891904D02*
X120219523Y-83091904D01*
X151528095Y-64923333D02*
X151575714Y-64923333D01*
X151670952Y-64875714D01*
X151718571Y-64780476D01*
X151718571Y-64304285D01*
X151766190Y-64209047D01*
X151861428Y-64161428D01*
X151766190Y-64113809D01*
X151718571Y-64018571D01*
X151718571Y-63542380D01*
X151670952Y-63447142D01*
X151575714Y-63399523D01*
X151528095Y-63399523D01*
X150813809Y-64018571D02*
X151147142Y-64018571D01*
X151147142Y-64542380D02*
X151147142Y-63542380D01*
X150670952Y-63542380D01*
X149861428Y-63875714D02*
X149861428Y-64542380D01*
X150099523Y-63494761D02*
X150337619Y-64209047D01*
X149718571Y-64209047D01*
X149337619Y-64447142D02*
X149290000Y-64494761D01*
X149337619Y-64542380D01*
X149385238Y-64494761D01*
X149337619Y-64447142D01*
X149337619Y-64542380D01*
X149004285Y-63542380D02*
X148432857Y-63542380D01*
X148718571Y-64542380D02*
X148718571Y-63542380D01*
X148099523Y-64542380D02*
X148099523Y-63542380D01*
X148099523Y-63923333D02*
X148004285Y-63875714D01*
X147813809Y-63875714D01*
X147718571Y-63923333D01*
X147670952Y-63970952D01*
X147623333Y-64066190D01*
X147623333Y-64351904D01*
X147670952Y-64447142D01*
X147718571Y-64494761D01*
X147813809Y-64542380D01*
X148004285Y-64542380D01*
X148099523Y-64494761D01*
X147242380Y-64256666D02*
X146766190Y-64256666D01*
X147337619Y-64542380D02*
X147004285Y-63542380D01*
X146670952Y-64542380D01*
X146337619Y-64447142D02*
X146290000Y-64494761D01*
X146337619Y-64542380D01*
X146385238Y-64494761D01*
X146337619Y-64447142D01*
X146337619Y-64542380D01*
X145861428Y-64542380D02*
X145861428Y-63542380D01*
X145623333Y-63542380D01*
X145480476Y-63590000D01*
X145385238Y-63685238D01*
X145337619Y-63780476D01*
X145290000Y-63970952D01*
X145290000Y-64113809D01*
X145337619Y-64304285D01*
X145385238Y-64399523D01*
X145480476Y-64494761D01*
X145623333Y-64542380D01*
X145861428Y-64542380D01*
X144528095Y-64018571D02*
X144385238Y-64066190D01*
X144337619Y-64113809D01*
X144290000Y-64209047D01*
X144290000Y-64351904D01*
X144337619Y-64447142D01*
X144385238Y-64494761D01*
X144480476Y-64542380D01*
X144861428Y-64542380D01*
X144861428Y-63542380D01*
X144528095Y-63542380D01*
X144432857Y-63590000D01*
X144385238Y-63637619D01*
X144337619Y-63732857D01*
X144337619Y-63828095D01*
X144385238Y-63923333D01*
X144432857Y-63970952D01*
X144528095Y-64018571D01*
X144861428Y-64018571D01*
X143909047Y-63637619D02*
X143861428Y-63590000D01*
X143766190Y-63542380D01*
X143528095Y-63542380D01*
X143432857Y-63590000D01*
X143385238Y-63637619D01*
X143337619Y-63732857D01*
X143337619Y-63828095D01*
X143385238Y-63970952D01*
X143956666Y-64542380D01*
X143337619Y-64542380D01*
X142432857Y-63542380D02*
X142909047Y-63542380D01*
X142956666Y-64018571D01*
X142909047Y-63970952D01*
X142813809Y-63923333D01*
X142575714Y-63923333D01*
X142480476Y-63970952D01*
X142432857Y-64018571D01*
X142385238Y-64113809D01*
X142385238Y-64351904D01*
X142432857Y-64447142D01*
X142480476Y-64494761D01*
X142575714Y-64542380D01*
X142813809Y-64542380D01*
X142909047Y-64494761D01*
X142956666Y-64447142D01*
X141956666Y-64542380D02*
X141956666Y-63542380D01*
X141623333Y-64256666D01*
X141290000Y-63542380D01*
X141290000Y-64542380D01*
X140813809Y-64447142D02*
X140766190Y-64494761D01*
X140813809Y-64542380D01*
X140861428Y-64494761D01*
X140813809Y-64447142D01*
X140813809Y-64542380D01*
X140480476Y-63542380D02*
X139909047Y-63542380D01*
X140194761Y-64542380D02*
X140194761Y-63542380D01*
X139575714Y-64542380D02*
X139575714Y-63542380D01*
X139575714Y-64018571D02*
X139004285Y-64018571D01*
X139004285Y-64542380D02*
X139004285Y-63542380D01*
X138670952Y-63542380D02*
X138099523Y-63542380D01*
X138385238Y-64542380D02*
X138385238Y-63542380D01*
X137909047Y-63542380D02*
X137575714Y-64542380D01*
X137242380Y-63542380D01*
X136385238Y-64542380D02*
X136956666Y-64542380D01*
X136670952Y-64542380D02*
X136670952Y-63542380D01*
X136766190Y-63685238D01*
X136861428Y-63780476D01*
X136956666Y-63828095D01*
X136051904Y-64923333D02*
X136004285Y-64923333D01*
X135909047Y-64875714D01*
X135861428Y-64780476D01*
X135861428Y-64304285D01*
X135813809Y-64209047D01*
X135718571Y-64161428D01*
X135813809Y-64113809D01*
X135861428Y-64018571D01*
X135861428Y-63542380D01*
X135909047Y-63447142D01*
X136004285Y-63399523D01*
X136051904Y-63399523D01*
X134530476Y-78478333D02*
X134578095Y-78430714D01*
X134673333Y-78287857D01*
X134720952Y-78192619D01*
X134768571Y-78049761D01*
X134816190Y-77811666D01*
X134816190Y-77621190D01*
X134768571Y-77383095D01*
X134720952Y-77240238D01*
X134673333Y-77145000D01*
X134578095Y-77002142D01*
X134530476Y-76954523D01*
X133578095Y-78002142D02*
X133625714Y-78049761D01*
X133768571Y-78097380D01*
X133863809Y-78097380D01*
X134006666Y-78049761D01*
X134101904Y-77954523D01*
X134149523Y-77859285D01*
X134197142Y-77668809D01*
X134197142Y-77525952D01*
X134149523Y-77335476D01*
X134101904Y-77240238D01*
X134006666Y-77145000D01*
X133863809Y-77097380D01*
X133768571Y-77097380D01*
X133625714Y-77145000D01*
X133578095Y-77192619D01*
X132578095Y-78002142D02*
X132625714Y-78049761D01*
X132768571Y-78097380D01*
X132863809Y-78097380D01*
X133006666Y-78049761D01*
X133101904Y-77954523D01*
X133149523Y-77859285D01*
X133197142Y-77668809D01*
X133197142Y-77525952D01*
X133149523Y-77335476D01*
X133101904Y-77240238D01*
X133006666Y-77145000D01*
X132863809Y-77097380D01*
X132768571Y-77097380D01*
X132625714Y-77145000D01*
X132578095Y-77192619D01*
X131054285Y-77573571D02*
X130911428Y-77621190D01*
X130863809Y-77668809D01*
X130816190Y-77764047D01*
X130816190Y-77906904D01*
X130863809Y-78002142D01*
X130911428Y-78049761D01*
X131006666Y-78097380D01*
X131387619Y-78097380D01*
X131387619Y-77097380D01*
X131054285Y-77097380D01*
X130959047Y-77145000D01*
X130911428Y-77192619D01*
X130863809Y-77287857D01*
X130863809Y-77383095D01*
X130911428Y-77478333D01*
X130959047Y-77525952D01*
X131054285Y-77573571D01*
X131387619Y-77573571D01*
X130197142Y-77621190D02*
X130197142Y-78097380D01*
X130530476Y-77097380D02*
X130197142Y-77621190D01*
X129863809Y-77097380D01*
X129530476Y-77716428D02*
X128768571Y-77716428D01*
X128292380Y-78097380D02*
X128292380Y-77097380D01*
X127720952Y-78097380D01*
X127720952Y-77097380D01*
X126673333Y-78002142D02*
X126720952Y-78049761D01*
X126863809Y-78097380D01*
X126959047Y-78097380D01*
X127101904Y-78049761D01*
X127197142Y-77954523D01*
X127244761Y-77859285D01*
X127292380Y-77668809D01*
X127292380Y-77525952D01*
X127244761Y-77335476D01*
X127197142Y-77240238D01*
X127101904Y-77145000D01*
X126959047Y-77097380D01*
X126863809Y-77097380D01*
X126720952Y-77145000D01*
X126673333Y-77192619D01*
X126244761Y-77716428D02*
X125482857Y-77716428D01*
X125054285Y-78049761D02*
X124911428Y-78097380D01*
X124673333Y-78097380D01*
X124578095Y-78049761D01*
X124530476Y-78002142D01*
X124482857Y-77906904D01*
X124482857Y-77811666D01*
X124530476Y-77716428D01*
X124578095Y-77668809D01*
X124673333Y-77621190D01*
X124863809Y-77573571D01*
X124959047Y-77525952D01*
X125006666Y-77478333D01*
X125054285Y-77383095D01*
X125054285Y-77287857D01*
X125006666Y-77192619D01*
X124959047Y-77145000D01*
X124863809Y-77097380D01*
X124625714Y-77097380D01*
X124482857Y-77145000D01*
X124101904Y-77811666D02*
X123625714Y-77811666D01*
X124197142Y-78097380D02*
X123863809Y-77097380D01*
X123530476Y-78097380D01*
X122006666Y-77430714D02*
X122006666Y-78097380D01*
X122244761Y-77049761D02*
X122482857Y-77764047D01*
X121863809Y-77764047D01*
X121482857Y-78002142D02*
X121435238Y-78049761D01*
X121482857Y-78097380D01*
X121530476Y-78049761D01*
X121482857Y-78002142D01*
X121482857Y-78097380D01*
X120816190Y-77097380D02*
X120720952Y-77097380D01*
X120625714Y-77145000D01*
X120578095Y-77192619D01*
X120530476Y-77287857D01*
X120482857Y-77478333D01*
X120482857Y-77716428D01*
X120530476Y-77906904D01*
X120578095Y-78002142D01*
X120625714Y-78049761D01*
X120720952Y-78097380D01*
X120816190Y-78097380D01*
X120911428Y-78049761D01*
X120959047Y-78002142D01*
X121006666Y-77906904D01*
X121054285Y-77716428D01*
X121054285Y-77478333D01*
X121006666Y-77287857D01*
X120959047Y-77192619D01*
X120911428Y-77145000D01*
X120816190Y-77097380D01*
X120149523Y-78478333D02*
X120101904Y-78430714D01*
X120006666Y-78287857D01*
X119959047Y-78192619D01*
X119911428Y-78049761D01*
X119863809Y-77811666D01*
X119863809Y-77621190D01*
X119911428Y-77383095D01*
X119959047Y-77240238D01*
X120006666Y-77145000D01*
X120101904Y-77002142D01*
X120149523Y-76954523D01*
X135078095Y-79659761D02*
X134935238Y-79707380D01*
X134697142Y-79707380D01*
X134601904Y-79659761D01*
X134554285Y-79612142D01*
X134506666Y-79516904D01*
X134506666Y-79421666D01*
X134554285Y-79326428D01*
X134601904Y-79278809D01*
X134697142Y-79231190D01*
X134887619Y-79183571D01*
X134982857Y-79135952D01*
X135030476Y-79088333D01*
X135078095Y-78993095D01*
X135078095Y-78897857D01*
X135030476Y-78802619D01*
X134982857Y-78755000D01*
X134887619Y-78707380D01*
X134649523Y-78707380D01*
X134506666Y-78755000D01*
X134125714Y-79421666D02*
X133649523Y-79421666D01*
X134220952Y-79707380D02*
X133887619Y-78707380D01*
X133554285Y-79707380D01*
X132744761Y-79707380D02*
X133220952Y-79707380D01*
X133220952Y-78707380D01*
X132411428Y-79183571D02*
X132078095Y-79183571D01*
X131935238Y-79707380D02*
X132411428Y-79707380D01*
X132411428Y-78707380D01*
X131935238Y-78707380D01*
X130744761Y-79707380D02*
X130744761Y-78707380D01*
X130173333Y-79707380D01*
X130173333Y-78707380D01*
X129506666Y-78707380D02*
X129316190Y-78707380D01*
X129220952Y-78755000D01*
X129125714Y-78850238D01*
X129078095Y-79040714D01*
X129078095Y-79374047D01*
X129125714Y-79564523D01*
X129220952Y-79659761D01*
X129316190Y-79707380D01*
X129506666Y-79707380D01*
X129601904Y-79659761D01*
X129697142Y-79564523D01*
X129744761Y-79374047D01*
X129744761Y-79040714D01*
X129697142Y-78850238D01*
X129601904Y-78755000D01*
X129506666Y-78707380D01*
X128792380Y-78707380D02*
X128220952Y-78707380D01*
X128506666Y-79707380D02*
X128506666Y-78707380D01*
X127125714Y-79707380D02*
X127125714Y-78707380D01*
X126744761Y-78707380D01*
X126649523Y-78755000D01*
X126601904Y-78802619D01*
X126554285Y-78897857D01*
X126554285Y-79040714D01*
X126601904Y-79135952D01*
X126649523Y-79183571D01*
X126744761Y-79231190D01*
X127125714Y-79231190D01*
X126125714Y-79183571D02*
X125792380Y-79183571D01*
X125649523Y-79707380D02*
X126125714Y-79707380D01*
X126125714Y-78707380D01*
X125649523Y-78707380D01*
X124649523Y-79707380D02*
X124982857Y-79231190D01*
X125220952Y-79707380D02*
X125220952Y-78707380D01*
X124840000Y-78707380D01*
X124744761Y-78755000D01*
X124697142Y-78802619D01*
X124649523Y-78897857D01*
X124649523Y-79040714D01*
X124697142Y-79135952D01*
X124744761Y-79183571D01*
X124840000Y-79231190D01*
X125220952Y-79231190D01*
X124220952Y-79707380D02*
X124220952Y-78707380D01*
X123887619Y-79421666D01*
X123554285Y-78707380D01*
X123554285Y-79707380D01*
X123078095Y-79707380D02*
X123078095Y-78707380D01*
X122744761Y-78707380D02*
X122173333Y-78707380D01*
X122459047Y-79707380D02*
X122459047Y-78707380D01*
X121982857Y-78707380D02*
X121411428Y-78707380D01*
X121697142Y-79707380D02*
X121697142Y-78707380D01*
X121078095Y-79183571D02*
X120744761Y-79183571D01*
X120601904Y-79707380D02*
X121078095Y-79707380D01*
X121078095Y-78707380D01*
X120601904Y-78707380D01*
X120173333Y-79707380D02*
X120173333Y-78707380D01*
X119935238Y-78707380D01*
X119792380Y-78755000D01*
X119697142Y-78850238D01*
X119649523Y-78945476D01*
X119601904Y-79135952D01*
X119601904Y-79278809D01*
X119649523Y-79469285D01*
X119697142Y-79564523D01*
X119792380Y-79659761D01*
X119935238Y-79707380D01*
X120173333Y-79707380D01*
X141854680Y-55375368D02*
X141940394Y-55332511D01*
X142111822Y-55332511D01*
X142197537Y-55375368D01*
X142283251Y-55461082D01*
X142326108Y-55546797D01*
X142326108Y-55718225D01*
X142283251Y-55803940D01*
X142197537Y-55889654D01*
X142111822Y-55932511D01*
X141940394Y-55932511D01*
X141854680Y-55889654D01*
X142026108Y-55032511D02*
X142240394Y-55075368D01*
X142454680Y-55203940D01*
X142583251Y-55418225D01*
X142626108Y-55632511D01*
X142583251Y-55846797D01*
X142454680Y-56061082D01*
X142240394Y-56189654D01*
X142026108Y-56232511D01*
X141811822Y-56189654D01*
X141597537Y-56061082D01*
X141468965Y-55846797D01*
X141426108Y-55632511D01*
X141468965Y-55418225D01*
X141597537Y-55203940D01*
X141811822Y-55075368D01*
X142026108Y-55032511D01*
X140483251Y-55161082D02*
X139968965Y-55161082D01*
X140226108Y-56061082D02*
X140226108Y-55161082D01*
X139326108Y-56018225D02*
X139411822Y-56061082D01*
X139583251Y-56061082D01*
X139668965Y-56018225D01*
X139711822Y-55932511D01*
X139711822Y-55589654D01*
X139668965Y-55503940D01*
X139583251Y-55461082D01*
X139411822Y-55461082D01*
X139326108Y-55503940D01*
X139283251Y-55589654D01*
X139283251Y-55675368D01*
X139711822Y-55761082D01*
X138511822Y-56018225D02*
X138597537Y-56061082D01*
X138768965Y-56061082D01*
X138854680Y-56018225D01*
X138897537Y-55975368D01*
X138940394Y-55889654D01*
X138940394Y-55632511D01*
X138897537Y-55546797D01*
X138854680Y-55503940D01*
X138768965Y-55461082D01*
X138597537Y-55461082D01*
X138511822Y-55503940D01*
X138126108Y-56061082D02*
X138126108Y-55161082D01*
X137740394Y-56061082D02*
X137740394Y-55589654D01*
X137783251Y-55503940D01*
X137868965Y-55461082D01*
X137997537Y-55461082D01*
X138083251Y-55503940D01*
X138126108Y-55546797D01*
X136626108Y-56061082D02*
X136626108Y-55161082D01*
X136626108Y-55503940D02*
X136540394Y-55461082D01*
X136368965Y-55461082D01*
X136283251Y-55503940D01*
X136240394Y-55546797D01*
X136197537Y-55632511D01*
X136197537Y-55889654D01*
X136240394Y-55975368D01*
X136283251Y-56018225D01*
X136368965Y-56061082D01*
X136540394Y-56061082D01*
X136626108Y-56018225D01*
X135897537Y-55461082D02*
X135683251Y-56061082D01*
X135468965Y-55461082D02*
X135683251Y-56061082D01*
X135768965Y-56275368D01*
X135811822Y-56318225D01*
X135897537Y-56361082D01*
X134483251Y-55803940D02*
X134054680Y-55803940D01*
X134568965Y-56061082D02*
X134268965Y-55161082D01*
X133968965Y-56061082D01*
X133668965Y-55461082D02*
X133668965Y-56061082D01*
X133668965Y-55546797D02*
X133626108Y-55503940D01*
X133540394Y-55461082D01*
X133411822Y-55461082D01*
X133326108Y-55503940D01*
X133283251Y-55589654D01*
X133283251Y-56061082D01*
X132468965Y-56061082D02*
X132468965Y-55161082D01*
X132468965Y-56018225D02*
X132554680Y-56061082D01*
X132726108Y-56061082D01*
X132811822Y-56018225D01*
X132854680Y-55975368D01*
X132897537Y-55889654D01*
X132897537Y-55632511D01*
X132854680Y-55546797D01*
X132811822Y-55503940D01*
X132726108Y-55461082D01*
X132554680Y-55461082D01*
X132468965Y-55503940D01*
X132040394Y-56061082D02*
X132040394Y-55461082D01*
X132040394Y-55632511D02*
X131997537Y-55546797D01*
X131954680Y-55503940D01*
X131868965Y-55461082D01*
X131783251Y-55461082D01*
X131354680Y-56061082D02*
X131440394Y-56018225D01*
X131483251Y-55975368D01*
X131526108Y-55889654D01*
X131526108Y-55632511D01*
X131483251Y-55546797D01*
X131440394Y-55503940D01*
X131354680Y-55461082D01*
X131226108Y-55461082D01*
X131140394Y-55503940D01*
X131097537Y-55546797D01*
X131054680Y-55632511D01*
X131054680Y-55889654D01*
X131097537Y-55975368D01*
X131140394Y-56018225D01*
X131226108Y-56061082D01*
X131354680Y-56061082D01*
X130283251Y-56061082D02*
X130283251Y-55161082D01*
X130283251Y-56018225D02*
X130368965Y-56061082D01*
X130540394Y-56061082D01*
X130626108Y-56018225D01*
X130668965Y-55975368D01*
X130711822Y-55889654D01*
X130711822Y-55632511D01*
X130668965Y-55546797D01*
X130626108Y-55503940D01*
X130540394Y-55461082D01*
X130368965Y-55461082D01*
X130283251Y-55503940D01*
X129468965Y-56061082D02*
X129468965Y-55589654D01*
X129511822Y-55503940D01*
X129597537Y-55461082D01*
X129768965Y-55461082D01*
X129854680Y-55503940D01*
X129468965Y-56018225D02*
X129554680Y-56061082D01*
X129768965Y-56061082D01*
X129854680Y-56018225D01*
X129897537Y-55932511D01*
X129897537Y-55846797D01*
X129854680Y-55761082D01*
X129768965Y-55718225D01*
X129554680Y-55718225D01*
X129468965Y-55675368D01*
X128997537Y-56018225D02*
X128997537Y-56061082D01*
X129040394Y-56146797D01*
X129083251Y-56189654D01*
X127497537Y-56061082D02*
X127926108Y-56061082D01*
X127926108Y-55161082D01*
X126768965Y-56061082D02*
X127197537Y-56061082D01*
X127197537Y-55161082D01*
X125954679Y-55975368D02*
X125997537Y-56018225D01*
X126126108Y-56061082D01*
X126211822Y-56061082D01*
X126340394Y-56018225D01*
X126426108Y-55932511D01*
X126468965Y-55846797D01*
X126511822Y-55675368D01*
X126511822Y-55546797D01*
X126468965Y-55375368D01*
X126426108Y-55289654D01*
X126340394Y-55203940D01*
X126211822Y-55161082D01*
X126126108Y-55161082D01*
X125997537Y-55203940D01*
X125954679Y-55246797D01*
X125526108Y-56018225D02*
X125526108Y-56061082D01*
X125568965Y-56146797D01*
X125611822Y-56189654D01*
X124497537Y-55803940D02*
X124068965Y-55803940D01*
X124583251Y-56061082D02*
X124283251Y-55161082D01*
X123983251Y-56061082D01*
X123683251Y-55461082D02*
X123683251Y-56361082D01*
X123683251Y-55503940D02*
X123597537Y-55461082D01*
X123426108Y-55461082D01*
X123340394Y-55503940D01*
X123297537Y-55546797D01*
X123254679Y-55632511D01*
X123254679Y-55889654D01*
X123297537Y-55975368D01*
X123340394Y-56018225D01*
X123426108Y-56061082D01*
X123597537Y-56061082D01*
X123683251Y-56018225D01*
X122868965Y-56061082D02*
X122868965Y-55461082D01*
X122868965Y-55632511D02*
X122826108Y-55546797D01*
X122783251Y-55503940D01*
X122697537Y-55461082D01*
X122611822Y-55461082D01*
X122311822Y-56061082D02*
X122311822Y-55461082D01*
X122311822Y-55161082D02*
X122354679Y-55203940D01*
X122311822Y-55246797D01*
X122268965Y-55203940D01*
X122311822Y-55161082D01*
X122311822Y-55246797D01*
X121754679Y-56061082D02*
X121840394Y-56018225D01*
X121883251Y-55932511D01*
X121883251Y-55161082D01*
X120768965Y-55246797D02*
X120726108Y-55203940D01*
X120640394Y-55161082D01*
X120426108Y-55161082D01*
X120340394Y-55203940D01*
X120297537Y-55246797D01*
X120254679Y-55332511D01*
X120254679Y-55418225D01*
X120297537Y-55546797D01*
X120811822Y-56061082D01*
X120254679Y-56061082D01*
X119697537Y-55161082D02*
X119611822Y-55161082D01*
X119526108Y-55203940D01*
X119483251Y-55246797D01*
X119440394Y-55332511D01*
X119397537Y-55503940D01*
X119397537Y-55718225D01*
X119440394Y-55889654D01*
X119483251Y-55975368D01*
X119526108Y-56018225D01*
X119611822Y-56061082D01*
X119697537Y-56061082D01*
X119783251Y-56018225D01*
X119826108Y-55975368D01*
X119868965Y-55889654D01*
X119911822Y-55718225D01*
X119911822Y-55503940D01*
X119868965Y-55332511D01*
X119826108Y-55246797D01*
X119783251Y-55203940D01*
X119697537Y-55161082D01*
X119054679Y-55246797D02*
X119011822Y-55203940D01*
X118926108Y-55161082D01*
X118711822Y-55161082D01*
X118626108Y-55203940D01*
X118583251Y-55246797D01*
X118540394Y-55332511D01*
X118540394Y-55418225D01*
X118583251Y-55546797D01*
X119097537Y-56061082D01*
X118540394Y-56061082D01*
X118197537Y-55246797D02*
X118154679Y-55203940D01*
X118068965Y-55161082D01*
X117854679Y-55161082D01*
X117768965Y-55203940D01*
X117726108Y-55246797D01*
X117683251Y-55332511D01*
X117683251Y-55418225D01*
X117726108Y-55546797D01*
X118240394Y-56061082D01*
X117683251Y-56061082D01*
X123149841Y-64532464D02*
X123149841Y-63732464D01*
X122806984Y-64532464D02*
X122806984Y-64113417D01*
X122845080Y-64037226D01*
X122921270Y-63999131D01*
X123035556Y-63999131D01*
X123111746Y-64037226D01*
X123149841Y-64075321D01*
X122540318Y-63999131D02*
X122235556Y-63999131D01*
X122426032Y-63732464D02*
X122426032Y-64418179D01*
X122387937Y-64494369D01*
X122311746Y-64532464D01*
X122235556Y-64532464D01*
X122083175Y-63999131D02*
X121778413Y-63999131D01*
X121968889Y-63732464D02*
X121968889Y-64418179D01*
X121930794Y-64494369D01*
X121854603Y-64532464D01*
X121778413Y-64532464D01*
X121511746Y-63999131D02*
X121511746Y-64799131D01*
X121511746Y-64037226D02*
X121435556Y-63999131D01*
X121283175Y-63999131D01*
X121206984Y-64037226D01*
X121168889Y-64075321D01*
X121130794Y-64151512D01*
X121130794Y-64380083D01*
X121168889Y-64456274D01*
X121206984Y-64494369D01*
X121283175Y-64532464D01*
X121435556Y-64532464D01*
X121511746Y-64494369D01*
X120826032Y-64494369D02*
X120749841Y-64532464D01*
X120597460Y-64532464D01*
X120521270Y-64494369D01*
X120483175Y-64418179D01*
X120483175Y-64380083D01*
X120521270Y-64303893D01*
X120597460Y-64265798D01*
X120711746Y-64265798D01*
X120787937Y-64227702D01*
X120826032Y-64151512D01*
X120826032Y-64113417D01*
X120787937Y-64037226D01*
X120711746Y-63999131D01*
X120597460Y-63999131D01*
X120521270Y-64037226D01*
X120140318Y-64456274D02*
X120102222Y-64494369D01*
X120140318Y-64532464D01*
X120178413Y-64494369D01*
X120140318Y-64456274D01*
X120140318Y-64532464D01*
X120140318Y-64037226D02*
X120102222Y-64075321D01*
X120140318Y-64113417D01*
X120178413Y-64075321D01*
X120140318Y-64037226D01*
X120140318Y-64113417D01*
X119187937Y-63694369D02*
X119873651Y-64722940D01*
X118349841Y-63694369D02*
X119035556Y-64722940D01*
X117740318Y-64532464D02*
X117740318Y-64113417D01*
X117778413Y-64037226D01*
X117854603Y-63999131D01*
X118006984Y-63999131D01*
X118083175Y-64037226D01*
X117740318Y-64494369D02*
X117816508Y-64532464D01*
X118006984Y-64532464D01*
X118083175Y-64494369D01*
X118121270Y-64418179D01*
X118121270Y-64341988D01*
X118083175Y-64265798D01*
X118006984Y-64227702D01*
X117816508Y-64227702D01*
X117740318Y-64189607D01*
X117359365Y-63999131D02*
X117359365Y-64532464D01*
X117359365Y-64075321D02*
X117321270Y-64037226D01*
X117245080Y-63999131D01*
X117130794Y-63999131D01*
X117054603Y-64037226D01*
X117016508Y-64113417D01*
X117016508Y-64532464D01*
X116292699Y-64532464D02*
X116292699Y-63732464D01*
X116292699Y-64494369D02*
X116368889Y-64532464D01*
X116521270Y-64532464D01*
X116597460Y-64494369D01*
X116635556Y-64456274D01*
X116673651Y-64380083D01*
X116673651Y-64151512D01*
X116635556Y-64075321D01*
X116597460Y-64037226D01*
X116521270Y-63999131D01*
X116368889Y-63999131D01*
X116292699Y-64037226D01*
X115911746Y-64532464D02*
X115911746Y-63999131D01*
X115911746Y-64151512D02*
X115873651Y-64075321D01*
X115835556Y-64037226D01*
X115759365Y-63999131D01*
X115683175Y-63999131D01*
X115302222Y-64532464D02*
X115378413Y-64494369D01*
X115416508Y-64456274D01*
X115454603Y-64380083D01*
X115454603Y-64151512D01*
X115416508Y-64075321D01*
X115378413Y-64037226D01*
X115302222Y-63999131D01*
X115187937Y-63999131D01*
X115111746Y-64037226D01*
X115073651Y-64075321D01*
X115035556Y-64151512D01*
X115035556Y-64380083D01*
X115073651Y-64456274D01*
X115111746Y-64494369D01*
X115187937Y-64532464D01*
X115302222Y-64532464D01*
X114349841Y-64532464D02*
X114349841Y-63732464D01*
X114349841Y-64494369D02*
X114426032Y-64532464D01*
X114578413Y-64532464D01*
X114654603Y-64494369D01*
X114692699Y-64456274D01*
X114730794Y-64380083D01*
X114730794Y-64151512D01*
X114692699Y-64075321D01*
X114654603Y-64037226D01*
X114578413Y-63999131D01*
X114426032Y-63999131D01*
X114349841Y-64037226D01*
X113626032Y-64532464D02*
X113626032Y-64113417D01*
X113664127Y-64037226D01*
X113740318Y-63999131D01*
X113892699Y-63999131D01*
X113968889Y-64037226D01*
X113626032Y-64494369D02*
X113702222Y-64532464D01*
X113892699Y-64532464D01*
X113968889Y-64494369D01*
X114006984Y-64418179D01*
X114006984Y-64341988D01*
X113968889Y-64265798D01*
X113892699Y-64227702D01*
X113702222Y-64227702D01*
X113626032Y-64189607D01*
X113245080Y-64456274D02*
X113206984Y-64494369D01*
X113245080Y-64532464D01*
X113283175Y-64494369D01*
X113245080Y-64456274D01*
X113245080Y-64532464D01*
X112940318Y-63999131D02*
X112787937Y-64532464D01*
X112635556Y-64151512D01*
X112483175Y-64532464D01*
X112330794Y-63999131D01*
X111911746Y-64532464D02*
X111987937Y-64494369D01*
X112026032Y-64456274D01*
X112064127Y-64380083D01*
X112064127Y-64151512D01*
X112026032Y-64075321D01*
X111987937Y-64037226D01*
X111911746Y-63999131D01*
X111797460Y-63999131D01*
X111721270Y-64037226D01*
X111683175Y-64075321D01*
X111645080Y-64151512D01*
X111645080Y-64380083D01*
X111683175Y-64456274D01*
X111721270Y-64494369D01*
X111797460Y-64532464D01*
X111911746Y-64532464D01*
X111302222Y-64532464D02*
X111302222Y-63999131D01*
X111302222Y-64151512D02*
X111264127Y-64075321D01*
X111226032Y-64037226D01*
X111149841Y-63999131D01*
X111073651Y-63999131D01*
X110806984Y-64532464D02*
X110806984Y-63732464D01*
X110730794Y-64227702D02*
X110502222Y-64532464D01*
X110502222Y-63999131D02*
X110806984Y-64303893D01*
%TO.C,C3*%
X134057686Y-63973982D02*
X134105305Y-64021601D01*
X134248162Y-64069220D01*
X134343400Y-64069220D01*
X134486258Y-64021601D01*
X134581496Y-63926363D01*
X134629115Y-63831125D01*
X134676734Y-63640649D01*
X134676734Y-63497792D01*
X134629115Y-63307316D01*
X134581496Y-63212078D01*
X134486258Y-63116840D01*
X134343400Y-63069220D01*
X134248162Y-63069220D01*
X134105305Y-63116840D01*
X134057686Y-63164459D01*
X133724353Y-63069220D02*
X133105305Y-63069220D01*
X133438639Y-63450173D01*
X133295781Y-63450173D01*
X133200543Y-63497792D01*
X133152924Y-63545411D01*
X133105305Y-63640649D01*
X133105305Y-63878744D01*
X133152924Y-63973982D01*
X133200543Y-64021601D01*
X133295781Y-64069220D01*
X133581496Y-64069220D01*
X133676734Y-64021601D01*
X133724353Y-63973982D01*
%TO.C,J5*%
X105629240Y-78033066D02*
X106343526Y-78033066D01*
X106486383Y-77985447D01*
X106581621Y-77890209D01*
X106629240Y-77747352D01*
X106629240Y-77652114D01*
X105629240Y-78985447D02*
X105629240Y-78509257D01*
X106105431Y-78461638D01*
X106057812Y-78509257D01*
X106010193Y-78604495D01*
X106010193Y-78842590D01*
X106057812Y-78937828D01*
X106105431Y-78985447D01*
X106200669Y-79033066D01*
X106438764Y-79033066D01*
X106534002Y-78985447D01*
X106581621Y-78937828D01*
X106629240Y-78842590D01*
X106629240Y-78604495D01*
X106581621Y-78509257D01*
X106534002Y-78461638D01*
%TO.C,C4*%
X115475986Y-77551902D02*
X115523605Y-77599521D01*
X115666462Y-77647140D01*
X115761700Y-77647140D01*
X115904558Y-77599521D01*
X115999796Y-77504283D01*
X116047415Y-77409045D01*
X116095034Y-77218569D01*
X116095034Y-77075712D01*
X116047415Y-76885236D01*
X115999796Y-76789998D01*
X115904558Y-76694760D01*
X115761700Y-76647140D01*
X115666462Y-76647140D01*
X115523605Y-76694760D01*
X115475986Y-76742379D01*
X114618843Y-76980474D02*
X114618843Y-77647140D01*
X114856939Y-76599521D02*
X115095034Y-77313807D01*
X114475986Y-77313807D01*
D11*
%TO.C,C3*%
X130798324Y-64938740D02*
X129594196Y-64938740D01*
X130798324Y-62218740D02*
X129594196Y-62218740D01*
%TO.C,REF\u002A\u002A*%
X109481620Y-63276480D02*
X108973620Y-62768480D01*
X110751620Y-62006480D02*
X110751620Y-61752480D01*
X109735620Y-62006480D02*
X109735620Y-62768480D01*
X109735620Y-62768480D02*
X108973620Y-62768480D01*
X109989620Y-63022480D02*
X109735620Y-63022480D01*
X110243620Y-62514480D02*
X109735620Y-62006480D01*
X109227620Y-63784480D02*
X109735620Y-64292480D01*
X110243620Y-63276480D02*
X110243620Y-62514480D01*
X110243620Y-62260480D02*
X110751620Y-62260480D01*
X110751620Y-62260480D02*
X111259620Y-62768480D01*
X108973620Y-63530480D02*
X108465620Y-63022480D01*
X109227620Y-63276480D02*
X109227620Y-63784480D01*
X110497620Y-62006480D02*
X109989620Y-61498480D01*
X109989620Y-62768480D02*
X109989620Y-63022480D01*
X109481620Y-63276480D02*
X110243620Y-63276480D01*
X108973620Y-63784480D02*
X108719620Y-63784480D01*
X109227620Y-62514480D02*
X109481620Y-62260480D01*
%TO.C,C4*%
X114707256Y-76274760D02*
X115911384Y-76274760D01*
X114707256Y-73554760D02*
X115911384Y-73554760D01*
%TD*%
M02*
