%TF.GenerationSoftware,KiCad,Pcbnew,6.0.5-a6ca702e91~116~ubuntu21.10.1*%
%TF.CreationDate,2022-08-24T06:26:20-06:00*%
%TF.ProjectId,Centronics50_F4Lite_THTV1_1,43656e74-726f-46e6-9963-7335305f4634,rev?*%
%TF.SameCoordinates,Original*%
%TF.FileFunction,Soldermask,Top*%
%TF.FilePolarity,Negative*%
%FSLAX46Y46*%
G04 Gerber Fmt 4.6, Leading zero omitted, Abs format (unit mm)*
G04 Created by KiCad (PCBNEW 6.0.5-a6ca702e91~116~ubuntu21.10.1) date 2022-08-24 06:26:20*
%MOMM*%
%LPD*%
G01*
G04 APERTURE LIST*
G04 Aperture macros list*
%AMRoundRect*
0 Rectangle with rounded corners*
0 $1 Rounding radius*
0 $2 $3 $4 $5 $6 $7 $8 $9 X,Y pos of 4 corners*
0 Add a 4 corners polygon primitive as box body*
4,1,4,$2,$3,$4,$5,$6,$7,$8,$9,$2,$3,0*
0 Add four circle primitives for the rounded corners*
1,1,$1+$1,$2,$3*
1,1,$1+$1,$4,$5*
1,1,$1+$1,$6,$7*
1,1,$1+$1,$8,$9*
0 Add four rect primitives between the rounded corners*
20,1,$1+$1,$2,$3,$4,$5,0*
20,1,$1+$1,$4,$5,$6,$7,0*
20,1,$1+$1,$6,$7,$8,$9,0*
20,1,$1+$1,$8,$9,$2,$3,0*%
G04 Aperture macros list end*
%ADD10C,3.200000*%
%ADD11C,1.270000*%
%ADD12R,1.600000X1.600000*%
%ADD13O,1.600000X1.600000*%
%ADD14R,1.800000X1.800000*%
%ADD15O,1.800000X1.800000*%
%ADD16RoundRect,0.412500X0.412500X-0.412500X0.412500X0.412500X-0.412500X0.412500X-0.412500X-0.412500X0*%
%ADD17C,1.650000*%
%ADD18C,3.600000*%
%ADD19C,1.600000*%
%ADD20R,1.700000X1.700000*%
%ADD21O,1.700000X1.700000*%
%ADD22C,1.400000*%
%ADD23O,1.400000X1.400000*%
%ADD24O,3.500000X3.500000*%
%ADD25R,2.000000X1.905000*%
%ADD26O,2.000000X1.905000*%
G04 APERTURE END LIST*
D10*
%TO.C,REF\u002A\u002A*%
X151221440Y-79131160D03*
%TD*%
%TO.C,REF\u002A\u002A*%
X157802580Y-62514480D03*
%TD*%
D11*
%TO.C,F1*%
X125051820Y-79184500D03*
X130131820Y-80327500D03*
%TD*%
D12*
%TO.C,RN1*%
X134251700Y-48204120D03*
D13*
X131711700Y-48204120D03*
X129171700Y-48204120D03*
X126631700Y-48204120D03*
X124091700Y-48204120D03*
X121551700Y-48204120D03*
X119011700Y-48204120D03*
X116471700Y-48204120D03*
X113931700Y-48204120D03*
X111391700Y-48204120D03*
%TD*%
D12*
%TO.C,RN2*%
X138061700Y-48204120D03*
D13*
X140601700Y-48204120D03*
X143141700Y-48204120D03*
X145681700Y-48204120D03*
X148221700Y-48204120D03*
X150761700Y-48204120D03*
X153301700Y-48204120D03*
X155841700Y-48204120D03*
X158381700Y-48204120D03*
X160921700Y-48204120D03*
%TD*%
D14*
%TO.C,D2*%
X121864120Y-79413100D03*
D15*
X111704120Y-79413100D03*
%TD*%
D16*
%TO.C,U2*%
X109216095Y-74293742D03*
D17*
X111756095Y-74293742D03*
X114296095Y-74293742D03*
X116836095Y-74293742D03*
X119376095Y-74293742D03*
X121916095Y-74293742D03*
X124456095Y-74293742D03*
X126996095Y-74293742D03*
X129536095Y-74293742D03*
X132076095Y-74293742D03*
X134616095Y-74293742D03*
X137156095Y-74293742D03*
X139696095Y-74293742D03*
X142236095Y-74293742D03*
X144776095Y-74293742D03*
X147316095Y-74293742D03*
X149856095Y-74293742D03*
X152396095Y-74293742D03*
X154936095Y-74293742D03*
X157476095Y-74293742D03*
X160016095Y-74293742D03*
X162556095Y-74293742D03*
X162556095Y-56513742D03*
X160016095Y-56513742D03*
X157476095Y-56513742D03*
X154936095Y-56513742D03*
X152396095Y-56513742D03*
X149856095Y-56513742D03*
X147316095Y-56513742D03*
X144776095Y-56513742D03*
X142236095Y-56513742D03*
X139696095Y-56513742D03*
X137156095Y-56513742D03*
X134616095Y-56513742D03*
X132076095Y-56513742D03*
X129536095Y-56513742D03*
X126996095Y-56513742D03*
X124456095Y-56513742D03*
X121916095Y-56513742D03*
X119376095Y-56513742D03*
X116836095Y-56513742D03*
X114296095Y-56513742D03*
X111756095Y-56513742D03*
X109216095Y-56513742D03*
%TD*%
D18*
%TO.C,U3*%
X98782500Y-39998460D03*
X173632500Y-39998460D03*
D19*
X162127500Y-42288460D03*
X159967500Y-42288460D03*
X157807500Y-42288460D03*
X155647500Y-42288460D03*
X153487500Y-42288460D03*
X151327500Y-42288460D03*
X149167500Y-42288460D03*
X147007500Y-42288460D03*
X144847500Y-42288460D03*
X142687500Y-42288460D03*
X140527500Y-42288460D03*
X138367500Y-42288460D03*
X136207500Y-42288460D03*
X134047500Y-42288460D03*
X131887500Y-42288460D03*
X129727500Y-42288460D03*
X127567500Y-42288460D03*
X125407500Y-42288460D03*
X123247500Y-42288460D03*
X121087500Y-42288460D03*
X118927500Y-42288460D03*
X116767500Y-42288460D03*
X114607500Y-42288460D03*
X112447500Y-42288460D03*
X110287500Y-42288460D03*
X162127500Y-37998460D03*
X159967500Y-37998460D03*
X157807500Y-37998460D03*
X155647500Y-37998460D03*
X153487500Y-37998460D03*
X151327500Y-37998460D03*
X149167500Y-37998460D03*
X147007500Y-37998460D03*
X144847500Y-37998460D03*
X142687500Y-37998460D03*
X140527500Y-37998460D03*
X138367500Y-37998460D03*
X136207500Y-37998460D03*
X134047500Y-37998460D03*
X131887500Y-37998460D03*
X129727500Y-37998460D03*
X127567500Y-37998460D03*
X125407500Y-37998460D03*
X123247500Y-37998460D03*
X121087500Y-37998460D03*
X118927500Y-37998460D03*
X116767500Y-37998460D03*
X114607500Y-37998460D03*
X112447500Y-37998460D03*
X110287500Y-37998460D03*
%TD*%
D20*
%TO.C,J3*%
X168854120Y-70307200D03*
D21*
X168854120Y-67767200D03*
%TD*%
D19*
%TO.C,R3*%
X168935400Y-56545480D03*
D13*
X168935400Y-64165480D03*
%TD*%
D19*
%TO.C,R1*%
X138758834Y-62317642D03*
D13*
X148918834Y-62317642D03*
%TD*%
D22*
%TO.C,R2*%
X138885834Y-66191144D03*
D23*
X143965834Y-66191144D03*
%TD*%
D24*
%TO.C,U1*%
X119368334Y-65238644D03*
D25*
X136028334Y-62698644D03*
D26*
X136028334Y-65238644D03*
X136028334Y-67778644D03*
%TD*%
M02*
