M48
; DRILL file {KiCad 6.0.5-a6ca702e91~116~ubuntu21.10.1} date Wed 24 Aug 2022 06:26:21 AM MDT
; FORMAT={-:-/ absolute / inch / decimal}
; #@! TF.CreationDate,2022-08-24T06:26:21-06:00
; #@! TF.GenerationSoftware,Kicad,Pcbnew,6.0.5-a6ca702e91~116~ubuntu21.10.1
; #@! TF.FileFunction,Plated,1,4,PTH
FMAT,2
INCH
; #@! TA.AperFunction,Plated,PTH,ViaDrill
T1C0.0157
; #@! TA.AperFunction,Plated,PTH,ComponentDrill
T2C0.0276
; #@! TA.AperFunction,Plated,PTH,ComponentDrill
T3C0.0280
; #@! TA.AperFunction,Plated,PTH,ComponentDrill
T4C0.0315
; #@! TA.AperFunction,Plated,PTH,ComponentDrill
T5C0.0354
; #@! TA.AperFunction,Plated,PTH,ComponentDrill
T6C0.0394
; #@! TA.AperFunction,Plated,PTH,ComponentDrill
T7C0.0433
; #@! TA.AperFunction,Plated,PTH,ComponentDrill
T8C0.0453
; #@! TA.AperFunction,Plated,PTH,ComponentDrill
T9C0.1220
%
G90
G05
T1
X4.0893Y-1.7527
X4.0903Y-1.8432
X4.2716Y-1.8451
X4.2726Y-1.7557
X4.3031Y-2.6625
X4.3169Y-2.4793
X4.3431Y-2.4283
X4.364Y-2.6141
X4.434Y-2.606
X4.4547Y-1.5619
X4.4677Y-2.4715
X4.4739Y-2.6508
X4.4881Y-2.5246
X4.5388Y-1.5619
X4.5698Y-2.0305
X4.6215Y-2.6934
X4.625Y-1.5668
X4.6326Y-2.4006
X4.6541Y-2.0105
X4.7087Y-1.567
X4.7348Y-1.997
X4.7498Y-2.4182
X4.7704Y-1.7762
X4.7921Y-2.6909
X4.7953Y-1.5659
X4.8815Y-1.5636
X4.9667Y-1.5647
X5.3245Y-2.7457
X5.354Y-2.37
X5.397Y-2.7811
X5.423Y-2.727
X5.5064Y-1.7631
X5.6775Y-2.7285
X5.7027Y-1.5729
X5.783Y-2.8168
X5.7877Y-1.575
X5.852Y-2.794
X5.8727Y-1.5731
X5.9456Y-2.0044
X5.9578Y-1.5711
X6.0428Y-1.5732
X6.1279Y-1.5712
X6.2129Y-1.5733
X6.2554Y-2.1201
X6.2979Y-1.573
X6.3467Y-2.0273
X6.3982Y-2.8059
X6.3982Y-3.0357
T2
X5.4679Y-2.606
X5.6679Y-2.606
T3
X4.9233Y-3.1175
X5.1233Y-3.1625
T4
X4.3855Y-1.8978
X4.4855Y-1.8978
X4.5855Y-1.8978
X4.6855Y-1.8978
X4.7855Y-1.8978
X4.8855Y-1.8978
X4.9855Y-1.8978
X5.0855Y-1.8978
X5.1855Y-1.8978
X5.2855Y-1.8978
X5.4355Y-1.8978
X5.4629Y-2.4535
X5.5355Y-1.8978
X5.6355Y-1.8978
X5.7355Y-1.8978
X5.8355Y-1.8978
X5.8629Y-2.4535
X5.9355Y-1.8978
X6.0355Y-1.8978
X6.1355Y-1.8978
X6.2355Y-1.8978
X6.3355Y-1.8978
X6.651Y-2.2262
X6.651Y-2.5262
T5
X4.2998Y-2.225
X4.2998Y-2.925
X4.3978Y-3.1265
X4.3998Y-2.225
X4.3998Y-2.925
X4.4998Y-2.225
X4.4998Y-2.925
X4.5998Y-2.225
X4.5998Y-2.925
X4.6998Y-2.225
X4.6998Y-2.925
X4.7978Y-3.1265
X4.7998Y-2.225
X4.7998Y-2.925
X4.8998Y-2.225
X4.8998Y-2.925
X4.9998Y-2.225
X4.9998Y-2.925
X5.0998Y-2.225
X5.0998Y-2.925
X5.1998Y-2.225
X5.1998Y-2.925
X5.2998Y-2.225
X5.2998Y-2.925
X5.3998Y-2.225
X5.3998Y-2.925
X5.4998Y-2.225
X5.4998Y-2.925
X5.5998Y-2.225
X5.5998Y-2.925
X5.6998Y-2.225
X5.6998Y-2.925
X5.7998Y-2.225
X5.7998Y-2.925
X5.8998Y-2.225
X5.8998Y-2.925
X5.9998Y-2.225
X5.9998Y-2.925
X6.0998Y-2.225
X6.0998Y-2.925
X6.1998Y-2.225
X6.1998Y-2.925
X6.2998Y-2.225
X6.2998Y-2.925
X6.3998Y-2.225
X6.3998Y-2.925
T6
X6.6478Y-2.668
X6.6478Y-2.768
T7
X5.3554Y-2.4685
X5.3554Y-2.5685
X5.3554Y-2.6685
T8
X4.342Y-1.496
X4.342Y-1.6649
X4.4271Y-1.496
X4.4271Y-1.6649
X4.5121Y-1.496
X4.5121Y-1.6649
X4.5971Y-1.496
X4.5971Y-1.6649
X4.6822Y-1.496
X4.6822Y-1.6649
X4.7672Y-1.496
X4.7672Y-1.6649
X4.8523Y-1.496
X4.8523Y-1.6649
X4.9373Y-1.496
X4.9373Y-1.6649
X5.0223Y-1.496
X5.0223Y-1.6649
X5.1074Y-1.496
X5.1074Y-1.6649
X5.1924Y-1.496
X5.1924Y-1.6649
X5.2775Y-1.496
X5.2775Y-1.6649
X5.3625Y-1.496
X5.3625Y-1.6649
X5.4475Y-1.496
X5.4475Y-1.6649
X5.5326Y-1.496
X5.5326Y-1.6649
X5.6176Y-1.496
X5.6176Y-1.6649
X5.7027Y-1.496
X5.7027Y-1.6649
X5.7877Y-1.496
X5.7877Y-1.6649
X5.8727Y-1.496
X5.8727Y-1.6649
X5.9578Y-1.496
X5.9578Y-1.6649
X6.0428Y-1.496
X6.0428Y-1.6649
X6.1279Y-1.496
X6.1279Y-1.6649
X6.2129Y-1.496
X6.2129Y-1.6649
X6.2979Y-1.496
X6.2979Y-1.6649
X6.383Y-1.496
X6.383Y-1.6649
T9
X3.8891Y-1.5747
X6.8359Y-1.5747
T0
M30
