%TF.GenerationSoftware,KiCad,Pcbnew,(6.0.2)*%
%TF.CreationDate,2022-04-05T14:05:54-06:00*%
%TF.ProjectId,F4_THTV1,46345f54-4854-4563-912e-6b696361645f,rev?*%
%TF.SameCoordinates,Original*%
%TF.FileFunction,Legend,Top*%
%TF.FilePolarity,Positive*%
%FSLAX46Y46*%
G04 Gerber Fmt 4.6, Leading zero omitted, Abs format (unit mm)*
G04 Created by KiCad (PCBNEW (6.0.2)) date 2022-04-05 14:05:54*
%MOMM*%
%LPD*%
G01*
G04 APERTURE LIST*
%ADD10C,0.650000*%
%ADD11C,0.150000*%
%ADD12C,0.120000*%
G04 APERTURE END LIST*
D10*
X115554760Y-101800660D02*
G75*
G03*
X115554760Y-101800660I-317500J0D01*
G01*
X115554760Y-105547160D02*
G75*
G03*
X115554760Y-105547160I-317500J0D01*
G01*
D11*
X146755785Y-124422642D02*
X146327214Y-124422642D01*
X146327214Y-123522642D01*
X147055785Y-123951214D02*
X147355785Y-123951214D01*
X147484357Y-124422642D02*
X147055785Y-124422642D01*
X147055785Y-123522642D01*
X147484357Y-123522642D01*
X147870071Y-124422642D02*
X147870071Y-123522642D01*
X148084357Y-123522642D01*
X148212928Y-123565500D01*
X148298642Y-123651214D01*
X148341500Y-123736928D01*
X148384357Y-123908357D01*
X148384357Y-124036928D01*
X148341500Y-124208357D01*
X148298642Y-124294071D01*
X148212928Y-124379785D01*
X148084357Y-124422642D01*
X147870071Y-124422642D01*
X148770071Y-124079785D02*
X149455785Y-124079785D01*
X124499523Y-150823333D02*
X124451904Y-150775714D01*
X124356666Y-150632857D01*
X124309047Y-150537619D01*
X124261428Y-150394761D01*
X124213809Y-150156666D01*
X124213809Y-149966190D01*
X124261428Y-149728095D01*
X124309047Y-149585238D01*
X124356666Y-149490000D01*
X124451904Y-149347142D01*
X124499523Y-149299523D01*
X125451904Y-150347142D02*
X125404285Y-150394761D01*
X125261428Y-150442380D01*
X125166190Y-150442380D01*
X125023333Y-150394761D01*
X124928095Y-150299523D01*
X124880476Y-150204285D01*
X124832857Y-150013809D01*
X124832857Y-149870952D01*
X124880476Y-149680476D01*
X124928095Y-149585238D01*
X125023333Y-149490000D01*
X125166190Y-149442380D01*
X125261428Y-149442380D01*
X125404285Y-149490000D01*
X125451904Y-149537619D01*
X126451904Y-150347142D02*
X126404285Y-150394761D01*
X126261428Y-150442380D01*
X126166190Y-150442380D01*
X126023333Y-150394761D01*
X125928095Y-150299523D01*
X125880476Y-150204285D01*
X125832857Y-150013809D01*
X125832857Y-149870952D01*
X125880476Y-149680476D01*
X125928095Y-149585238D01*
X126023333Y-149490000D01*
X126166190Y-149442380D01*
X126261428Y-149442380D01*
X126404285Y-149490000D01*
X126451904Y-149537619D01*
X127975714Y-149918571D02*
X128118571Y-149966190D01*
X128166190Y-150013809D01*
X128213809Y-150109047D01*
X128213809Y-150251904D01*
X128166190Y-150347142D01*
X128118571Y-150394761D01*
X128023333Y-150442380D01*
X127642380Y-150442380D01*
X127642380Y-149442380D01*
X127975714Y-149442380D01*
X128070952Y-149490000D01*
X128118571Y-149537619D01*
X128166190Y-149632857D01*
X128166190Y-149728095D01*
X128118571Y-149823333D01*
X128070952Y-149870952D01*
X127975714Y-149918571D01*
X127642380Y-149918571D01*
X128832857Y-149966190D02*
X128832857Y-150442380D01*
X128499523Y-149442380D02*
X128832857Y-149966190D01*
X129166190Y-149442380D01*
X129499523Y-150061428D02*
X130261428Y-150061428D01*
X130737619Y-150442380D02*
X130737619Y-149442380D01*
X131309047Y-150442380D01*
X131309047Y-149442380D01*
X132356666Y-150347142D02*
X132309047Y-150394761D01*
X132166190Y-150442380D01*
X132070952Y-150442380D01*
X131928095Y-150394761D01*
X131832857Y-150299523D01*
X131785238Y-150204285D01*
X131737619Y-150013809D01*
X131737619Y-149870952D01*
X131785238Y-149680476D01*
X131832857Y-149585238D01*
X131928095Y-149490000D01*
X132070952Y-149442380D01*
X132166190Y-149442380D01*
X132309047Y-149490000D01*
X132356666Y-149537619D01*
X132785238Y-150061428D02*
X133547142Y-150061428D01*
X133975714Y-150394761D02*
X134118571Y-150442380D01*
X134356666Y-150442380D01*
X134451904Y-150394761D01*
X134499523Y-150347142D01*
X134547142Y-150251904D01*
X134547142Y-150156666D01*
X134499523Y-150061428D01*
X134451904Y-150013809D01*
X134356666Y-149966190D01*
X134166190Y-149918571D01*
X134070952Y-149870952D01*
X134023333Y-149823333D01*
X133975714Y-149728095D01*
X133975714Y-149632857D01*
X134023333Y-149537619D01*
X134070952Y-149490000D01*
X134166190Y-149442380D01*
X134404285Y-149442380D01*
X134547142Y-149490000D01*
X134928095Y-150156666D02*
X135404285Y-150156666D01*
X134832857Y-150442380D02*
X135166190Y-149442380D01*
X135499523Y-150442380D01*
X137023333Y-149775714D02*
X137023333Y-150442380D01*
X136785238Y-149394761D02*
X136547142Y-150109047D01*
X137166190Y-150109047D01*
X137547142Y-150347142D02*
X137594761Y-150394761D01*
X137547142Y-150442380D01*
X137499523Y-150394761D01*
X137547142Y-150347142D01*
X137547142Y-150442380D01*
X138213809Y-149442380D02*
X138309047Y-149442380D01*
X138404285Y-149490000D01*
X138451904Y-149537619D01*
X138499523Y-149632857D01*
X138547142Y-149823333D01*
X138547142Y-150061428D01*
X138499523Y-150251904D01*
X138451904Y-150347142D01*
X138404285Y-150394761D01*
X138309047Y-150442380D01*
X138213809Y-150442380D01*
X138118571Y-150394761D01*
X138070952Y-150347142D01*
X138023333Y-150251904D01*
X137975714Y-150061428D01*
X137975714Y-149823333D01*
X138023333Y-149632857D01*
X138070952Y-149537619D01*
X138118571Y-149490000D01*
X138213809Y-149442380D01*
X138880476Y-150823333D02*
X138928095Y-150775714D01*
X139023333Y-150632857D01*
X139070952Y-150537619D01*
X139118571Y-150394761D01*
X139166190Y-150156666D01*
X139166190Y-149966190D01*
X139118571Y-149728095D01*
X139070952Y-149585238D01*
X139023333Y-149490000D01*
X138928095Y-149347142D01*
X138880476Y-149299523D01*
X122066190Y-132322380D02*
X122066190Y-131322380D01*
X122304285Y-131322380D01*
X122447142Y-131370000D01*
X122542380Y-131465238D01*
X122590000Y-131560476D01*
X122637619Y-131750952D01*
X122637619Y-131893809D01*
X122590000Y-132084285D01*
X122542380Y-132179523D01*
X122447142Y-132274761D01*
X122304285Y-132322380D01*
X122066190Y-132322380D01*
X123447142Y-132274761D02*
X123351904Y-132322380D01*
X123161428Y-132322380D01*
X123066190Y-132274761D01*
X123018571Y-132179523D01*
X123018571Y-131798571D01*
X123066190Y-131703333D01*
X123161428Y-131655714D01*
X123351904Y-131655714D01*
X123447142Y-131703333D01*
X123494761Y-131798571D01*
X123494761Y-131893809D01*
X123018571Y-131989047D01*
X123875714Y-132274761D02*
X123970952Y-132322380D01*
X124161428Y-132322380D01*
X124256666Y-132274761D01*
X124304285Y-132179523D01*
X124304285Y-132131904D01*
X124256666Y-132036666D01*
X124161428Y-131989047D01*
X124018571Y-131989047D01*
X123923333Y-131941428D01*
X123875714Y-131846190D01*
X123875714Y-131798571D01*
X123923333Y-131703333D01*
X124018571Y-131655714D01*
X124161428Y-131655714D01*
X124256666Y-131703333D01*
X124732857Y-132322380D02*
X124732857Y-131322380D01*
X124828095Y-131941428D02*
X125113809Y-132322380D01*
X125113809Y-131655714D02*
X124732857Y-132036666D01*
X125399523Y-131655714D02*
X125780476Y-131655714D01*
X125542380Y-131322380D02*
X125542380Y-132179523D01*
X125590000Y-132274761D01*
X125685238Y-132322380D01*
X125780476Y-132322380D01*
X126256666Y-132322380D02*
X126161428Y-132274761D01*
X126113809Y-132227142D01*
X126066190Y-132131904D01*
X126066190Y-131846190D01*
X126113809Y-131750952D01*
X126161428Y-131703333D01*
X126256666Y-131655714D01*
X126399523Y-131655714D01*
X126494761Y-131703333D01*
X126542380Y-131750952D01*
X126590000Y-131846190D01*
X126590000Y-132131904D01*
X126542380Y-132227142D01*
X126494761Y-132274761D01*
X126399523Y-132322380D01*
X126256666Y-132322380D01*
X127018571Y-131655714D02*
X127018571Y-132655714D01*
X127018571Y-131703333D02*
X127113809Y-131655714D01*
X127304285Y-131655714D01*
X127399523Y-131703333D01*
X127447142Y-131750952D01*
X127494761Y-131846190D01*
X127494761Y-132131904D01*
X127447142Y-132227142D01*
X127399523Y-132274761D01*
X127304285Y-132322380D01*
X127113809Y-132322380D01*
X127018571Y-132274761D01*
X129018571Y-131798571D02*
X129161428Y-131846190D01*
X129209047Y-131893809D01*
X129256666Y-131989047D01*
X129256666Y-132131904D01*
X129209047Y-132227142D01*
X129161428Y-132274761D01*
X129066190Y-132322380D01*
X128685238Y-132322380D01*
X128685238Y-131322380D01*
X129018571Y-131322380D01*
X129113809Y-131370000D01*
X129161428Y-131417619D01*
X129209047Y-131512857D01*
X129209047Y-131608095D01*
X129161428Y-131703333D01*
X129113809Y-131750952D01*
X129018571Y-131798571D01*
X128685238Y-131798571D01*
X129828095Y-132322380D02*
X129732857Y-132274761D01*
X129685238Y-132179523D01*
X129685238Y-131322380D01*
X130637619Y-131655714D02*
X130637619Y-132322380D01*
X130209047Y-131655714D02*
X130209047Y-132179523D01*
X130256666Y-132274761D01*
X130351904Y-132322380D01*
X130494761Y-132322380D01*
X130590000Y-132274761D01*
X130637619Y-132227142D01*
X131494761Y-132274761D02*
X131399523Y-132322380D01*
X131209047Y-132322380D01*
X131113809Y-132274761D01*
X131066190Y-132179523D01*
X131066190Y-131798571D01*
X131113809Y-131703333D01*
X131209047Y-131655714D01*
X131399523Y-131655714D01*
X131494761Y-131703333D01*
X131542380Y-131798571D01*
X131542380Y-131893809D01*
X131066190Y-131989047D01*
X131923333Y-132274761D02*
X132066190Y-132322380D01*
X132304285Y-132322380D01*
X132399523Y-132274761D01*
X132447142Y-132227142D01*
X132494761Y-132131904D01*
X132494761Y-132036666D01*
X132447142Y-131941428D01*
X132399523Y-131893809D01*
X132304285Y-131846190D01*
X132113809Y-131798571D01*
X132018571Y-131750952D01*
X131970952Y-131703333D01*
X131923333Y-131608095D01*
X131923333Y-131512857D01*
X131970952Y-131417619D01*
X132018571Y-131370000D01*
X132113809Y-131322380D01*
X132351904Y-131322380D01*
X132494761Y-131370000D01*
X133494761Y-132227142D02*
X133447142Y-132274761D01*
X133304285Y-132322380D01*
X133209047Y-132322380D01*
X133066190Y-132274761D01*
X132970952Y-132179523D01*
X132923333Y-132084285D01*
X132875714Y-131893809D01*
X132875714Y-131750952D01*
X132923333Y-131560476D01*
X132970952Y-131465238D01*
X133066190Y-131370000D01*
X133209047Y-131322380D01*
X133304285Y-131322380D01*
X133447142Y-131370000D01*
X133494761Y-131417619D01*
X133875714Y-132274761D02*
X134018571Y-132322380D01*
X134256666Y-132322380D01*
X134351904Y-132274761D01*
X134399523Y-132227142D01*
X134447142Y-132131904D01*
X134447142Y-132036666D01*
X134399523Y-131941428D01*
X134351904Y-131893809D01*
X134256666Y-131846190D01*
X134066190Y-131798571D01*
X133970952Y-131750952D01*
X133923333Y-131703333D01*
X133875714Y-131608095D01*
X133875714Y-131512857D01*
X133923333Y-131417619D01*
X133970952Y-131370000D01*
X134066190Y-131322380D01*
X134304285Y-131322380D01*
X134447142Y-131370000D01*
X134875714Y-132322380D02*
X134875714Y-131322380D01*
X135637619Y-132703333D02*
X135590000Y-132655714D01*
X135494761Y-132512857D01*
X135447142Y-132417619D01*
X135399523Y-132274761D01*
X135351904Y-132036666D01*
X135351904Y-131846190D01*
X135399523Y-131608095D01*
X135447142Y-131465238D01*
X135494761Y-131370000D01*
X135590000Y-131227142D01*
X135637619Y-131179523D01*
X135875714Y-131322380D02*
X136447142Y-131322380D01*
X136161428Y-132322380D02*
X136161428Y-131322380D01*
X136780476Y-132322380D02*
X136780476Y-131322380D01*
X137113809Y-132036666D01*
X137447142Y-131322380D01*
X137447142Y-132322380D01*
X137828095Y-132703333D02*
X137875714Y-132655714D01*
X137970952Y-132512857D01*
X138018571Y-132417619D01*
X138066190Y-132274761D01*
X138113809Y-132036666D01*
X138113809Y-131846190D01*
X138066190Y-131608095D01*
X138018571Y-131465238D01*
X137970952Y-131370000D01*
X137875714Y-131227142D01*
X137828095Y-131179523D01*
X120851904Y-132932380D02*
X121185238Y-133932380D01*
X121518571Y-132932380D01*
X122232857Y-133884761D02*
X122137619Y-133932380D01*
X121947142Y-133932380D01*
X121851904Y-133884761D01*
X121804285Y-133789523D01*
X121804285Y-133408571D01*
X121851904Y-133313333D01*
X121947142Y-133265714D01*
X122137619Y-133265714D01*
X122232857Y-133313333D01*
X122280476Y-133408571D01*
X122280476Y-133503809D01*
X121804285Y-133599047D01*
X122709047Y-133932380D02*
X122709047Y-133265714D01*
X122709047Y-133456190D02*
X122756666Y-133360952D01*
X122804285Y-133313333D01*
X122899523Y-133265714D01*
X122994761Y-133265714D01*
X123280476Y-133884761D02*
X123375714Y-133932380D01*
X123566190Y-133932380D01*
X123661428Y-133884761D01*
X123709047Y-133789523D01*
X123709047Y-133741904D01*
X123661428Y-133646666D01*
X123566190Y-133599047D01*
X123423333Y-133599047D01*
X123328095Y-133551428D01*
X123280476Y-133456190D01*
X123280476Y-133408571D01*
X123328095Y-133313333D01*
X123423333Y-133265714D01*
X123566190Y-133265714D01*
X123661428Y-133313333D01*
X124137619Y-133932380D02*
X124137619Y-133265714D01*
X124137619Y-132932380D02*
X124089999Y-132980000D01*
X124137619Y-133027619D01*
X124185238Y-132980000D01*
X124137619Y-132932380D01*
X124137619Y-133027619D01*
X124756666Y-133932380D02*
X124661428Y-133884761D01*
X124613809Y-133837142D01*
X124566190Y-133741904D01*
X124566190Y-133456190D01*
X124613809Y-133360952D01*
X124661428Y-133313333D01*
X124756666Y-133265714D01*
X124899523Y-133265714D01*
X124994761Y-133313333D01*
X125042380Y-133360952D01*
X125089999Y-133456190D01*
X125089999Y-133741904D01*
X125042380Y-133837142D01*
X124994761Y-133884761D01*
X124899523Y-133932380D01*
X124756666Y-133932380D01*
X125518571Y-133265714D02*
X125518571Y-133932380D01*
X125518571Y-133360952D02*
X125566190Y-133313333D01*
X125661428Y-133265714D01*
X125804285Y-133265714D01*
X125899523Y-133313333D01*
X125947142Y-133408571D01*
X125947142Y-133932380D01*
X127470952Y-134313333D02*
X127423333Y-134313333D01*
X127328095Y-134265714D01*
X127280476Y-134170476D01*
X127280476Y-133694285D01*
X127232857Y-133599047D01*
X127137619Y-133551428D01*
X127232857Y-133503809D01*
X127280476Y-133408571D01*
X127280476Y-132932380D01*
X127328095Y-132837142D01*
X127423333Y-132789523D01*
X127470952Y-132789523D01*
X128185238Y-133408571D02*
X127851904Y-133408571D01*
X127851904Y-133932380D02*
X127851904Y-132932380D01*
X128328095Y-132932380D01*
X129137619Y-133265714D02*
X129137619Y-133932380D01*
X128899523Y-132884761D02*
X128661428Y-133599047D01*
X129280476Y-133599047D01*
X129661428Y-133837142D02*
X129709047Y-133884761D01*
X129661428Y-133932380D01*
X129613809Y-133884761D01*
X129661428Y-133837142D01*
X129661428Y-133932380D01*
X129994761Y-132932380D02*
X130566190Y-132932380D01*
X130280476Y-133932380D02*
X130280476Y-132932380D01*
X130899523Y-133932380D02*
X130899523Y-132932380D01*
X130899523Y-133313333D02*
X130994761Y-133265714D01*
X131185238Y-133265714D01*
X131280476Y-133313333D01*
X131328095Y-133360952D01*
X131375714Y-133456190D01*
X131375714Y-133741904D01*
X131328095Y-133837142D01*
X131280476Y-133884761D01*
X131185238Y-133932380D01*
X130994761Y-133932380D01*
X130899523Y-133884761D01*
X131756666Y-133646666D02*
X132232857Y-133646666D01*
X131661428Y-133932380D02*
X131994761Y-132932380D01*
X132328095Y-133932380D01*
X132661428Y-133837142D02*
X132709047Y-133884761D01*
X132661428Y-133932380D01*
X132613809Y-133884761D01*
X132661428Y-133837142D01*
X132661428Y-133932380D01*
X133137619Y-133932380D02*
X133137619Y-132932380D01*
X133375714Y-132932380D01*
X133518571Y-132980000D01*
X133613809Y-133075238D01*
X133661428Y-133170476D01*
X133709047Y-133360952D01*
X133709047Y-133503809D01*
X133661428Y-133694285D01*
X133613809Y-133789523D01*
X133518571Y-133884761D01*
X133375714Y-133932380D01*
X133137619Y-133932380D01*
X134137619Y-133837142D02*
X134185238Y-133884761D01*
X134137619Y-133932380D01*
X134089999Y-133884761D01*
X134137619Y-133837142D01*
X134137619Y-133932380D01*
X134470952Y-132932380D02*
X135042380Y-132932380D01*
X134756666Y-133932380D02*
X134756666Y-132932380D01*
X135375714Y-133932380D02*
X135375714Y-132932380D01*
X135375714Y-133408571D02*
X135947142Y-133408571D01*
X135947142Y-133932380D02*
X135947142Y-132932380D01*
X136280476Y-132932380D02*
X136851904Y-132932380D01*
X136566190Y-133932380D02*
X136566190Y-132932380D01*
X137042380Y-132932380D02*
X137375714Y-133932380D01*
X137709047Y-132932380D01*
X138566190Y-133932380D02*
X137994761Y-133932380D01*
X138280476Y-133932380D02*
X138280476Y-132932380D01*
X138185238Y-133075238D01*
X138090000Y-133170476D01*
X137994761Y-133218095D01*
X138899523Y-134313333D02*
X138947142Y-134313333D01*
X139042380Y-134265714D01*
X139089999Y-134170476D01*
X139089999Y-133694285D01*
X139137619Y-133599047D01*
X139232857Y-133551428D01*
X139137619Y-133503809D01*
X139089999Y-133408571D01*
X139089999Y-132932380D01*
X139042380Y-132837142D01*
X138947142Y-132789523D01*
X138899523Y-132789523D01*
X122351904Y-135494761D02*
X122494761Y-135542380D01*
X122732857Y-135542380D01*
X122828095Y-135494761D01*
X122875714Y-135447142D01*
X122923333Y-135351904D01*
X122923333Y-135256666D01*
X122875714Y-135161428D01*
X122828095Y-135113809D01*
X122732857Y-135066190D01*
X122542380Y-135018571D01*
X122447142Y-134970952D01*
X122399523Y-134923333D01*
X122351904Y-134828095D01*
X122351904Y-134732857D01*
X122399523Y-134637619D01*
X122447142Y-134590000D01*
X122542380Y-134542380D01*
X122780476Y-134542380D01*
X122923333Y-134590000D01*
X123304285Y-135256666D02*
X123780476Y-135256666D01*
X123209047Y-135542380D02*
X123542380Y-134542380D01*
X123875714Y-135542380D01*
X124685238Y-135542380D02*
X124209047Y-135542380D01*
X124209047Y-134542380D01*
X125018571Y-135018571D02*
X125351904Y-135018571D01*
X125494761Y-135542380D02*
X125018571Y-135542380D01*
X125018571Y-134542380D01*
X125494761Y-134542380D01*
X126685238Y-135542380D02*
X126685238Y-134542380D01*
X127256666Y-135542380D01*
X127256666Y-134542380D01*
X127923333Y-134542380D02*
X128113809Y-134542380D01*
X128209047Y-134590000D01*
X128304285Y-134685238D01*
X128351904Y-134875714D01*
X128351904Y-135209047D01*
X128304285Y-135399523D01*
X128209047Y-135494761D01*
X128113809Y-135542380D01*
X127923333Y-135542380D01*
X127828095Y-135494761D01*
X127732857Y-135399523D01*
X127685238Y-135209047D01*
X127685238Y-134875714D01*
X127732857Y-134685238D01*
X127828095Y-134590000D01*
X127923333Y-134542380D01*
X128637619Y-134542380D02*
X129209047Y-134542380D01*
X128923333Y-135542380D02*
X128923333Y-134542380D01*
X130304285Y-135542380D02*
X130304285Y-134542380D01*
X130685238Y-134542380D01*
X130780476Y-134590000D01*
X130828095Y-134637619D01*
X130875714Y-134732857D01*
X130875714Y-134875714D01*
X130828095Y-134970952D01*
X130780476Y-135018571D01*
X130685238Y-135066190D01*
X130304285Y-135066190D01*
X131304285Y-135018571D02*
X131637619Y-135018571D01*
X131780476Y-135542380D02*
X131304285Y-135542380D01*
X131304285Y-134542380D01*
X131780476Y-134542380D01*
X132780476Y-135542380D02*
X132447142Y-135066190D01*
X132209047Y-135542380D02*
X132209047Y-134542380D01*
X132590000Y-134542380D01*
X132685238Y-134590000D01*
X132732857Y-134637619D01*
X132780476Y-134732857D01*
X132780476Y-134875714D01*
X132732857Y-134970952D01*
X132685238Y-135018571D01*
X132590000Y-135066190D01*
X132209047Y-135066190D01*
X133209047Y-135542380D02*
X133209047Y-134542380D01*
X133542380Y-135256666D01*
X133875714Y-134542380D01*
X133875714Y-135542380D01*
X134351904Y-135542380D02*
X134351904Y-134542380D01*
X134685238Y-134542380D02*
X135256666Y-134542380D01*
X134970952Y-135542380D02*
X134970952Y-134542380D01*
X135447142Y-134542380D02*
X136018571Y-134542380D01*
X135732857Y-135542380D02*
X135732857Y-134542380D01*
X136351904Y-135018571D02*
X136685238Y-135018571D01*
X136828095Y-135542380D02*
X136351904Y-135542380D01*
X136351904Y-134542380D01*
X136828095Y-134542380D01*
X137256666Y-135542380D02*
X137256666Y-134542380D01*
X137494761Y-134542380D01*
X137637619Y-134590000D01*
X137732857Y-134685238D01*
X137780476Y-134780476D01*
X137828095Y-134970952D01*
X137828095Y-135113809D01*
X137780476Y-135304285D01*
X137732857Y-135399523D01*
X137637619Y-135494761D01*
X137494761Y-135542380D01*
X137256666Y-135542380D01*
X141205738Y-132759404D02*
X141205738Y-131959404D01*
X141548595Y-132759404D02*
X141548595Y-132340357D01*
X141510500Y-132264166D01*
X141434309Y-132226071D01*
X141320023Y-132226071D01*
X141243833Y-132264166D01*
X141205738Y-132302261D01*
X141815261Y-132226071D02*
X142120023Y-132226071D01*
X141929547Y-131959404D02*
X141929547Y-132645119D01*
X141967642Y-132721309D01*
X142043833Y-132759404D01*
X142120023Y-132759404D01*
X142272404Y-132226071D02*
X142577166Y-132226071D01*
X142386690Y-131959404D02*
X142386690Y-132645119D01*
X142424785Y-132721309D01*
X142500976Y-132759404D01*
X142577166Y-132759404D01*
X142843833Y-132226071D02*
X142843833Y-133026071D01*
X142843833Y-132264166D02*
X142920023Y-132226071D01*
X143072404Y-132226071D01*
X143148595Y-132264166D01*
X143186690Y-132302261D01*
X143224785Y-132378452D01*
X143224785Y-132607023D01*
X143186690Y-132683214D01*
X143148595Y-132721309D01*
X143072404Y-132759404D01*
X142920023Y-132759404D01*
X142843833Y-132721309D01*
X143529547Y-132721309D02*
X143605738Y-132759404D01*
X143758119Y-132759404D01*
X143834309Y-132721309D01*
X143872404Y-132645119D01*
X143872404Y-132607023D01*
X143834309Y-132530833D01*
X143758119Y-132492738D01*
X143643833Y-132492738D01*
X143567642Y-132454642D01*
X143529547Y-132378452D01*
X143529547Y-132340357D01*
X143567642Y-132264166D01*
X143643833Y-132226071D01*
X143758119Y-132226071D01*
X143834309Y-132264166D01*
X144215261Y-132683214D02*
X144253357Y-132721309D01*
X144215261Y-132759404D01*
X144177166Y-132721309D01*
X144215261Y-132683214D01*
X144215261Y-132759404D01*
X144215261Y-132264166D02*
X144253357Y-132302261D01*
X144215261Y-132340357D01*
X144177166Y-132302261D01*
X144215261Y-132264166D01*
X144215261Y-132340357D01*
X145167642Y-131921309D02*
X144481928Y-132949880D01*
X146005738Y-131921309D02*
X145320023Y-132949880D01*
X146615261Y-132759404D02*
X146615261Y-132340357D01*
X146577166Y-132264166D01*
X146500976Y-132226071D01*
X146348595Y-132226071D01*
X146272404Y-132264166D01*
X146615261Y-132721309D02*
X146539071Y-132759404D01*
X146348595Y-132759404D01*
X146272404Y-132721309D01*
X146234309Y-132645119D01*
X146234309Y-132568928D01*
X146272404Y-132492738D01*
X146348595Y-132454642D01*
X146539071Y-132454642D01*
X146615261Y-132416547D01*
X146996214Y-132226071D02*
X146996214Y-132759404D01*
X146996214Y-132302261D02*
X147034309Y-132264166D01*
X147110500Y-132226071D01*
X147224785Y-132226071D01*
X147300976Y-132264166D01*
X147339071Y-132340357D01*
X147339071Y-132759404D01*
X148062880Y-132759404D02*
X148062880Y-131959404D01*
X148062880Y-132721309D02*
X147986690Y-132759404D01*
X147834309Y-132759404D01*
X147758119Y-132721309D01*
X147720023Y-132683214D01*
X147681928Y-132607023D01*
X147681928Y-132378452D01*
X147720023Y-132302261D01*
X147758119Y-132264166D01*
X147834309Y-132226071D01*
X147986690Y-132226071D01*
X148062880Y-132264166D01*
X148443833Y-132759404D02*
X148443833Y-132226071D01*
X148443833Y-132378452D02*
X148481928Y-132302261D01*
X148520023Y-132264166D01*
X148596214Y-132226071D01*
X148672404Y-132226071D01*
X149053357Y-132759404D02*
X148977166Y-132721309D01*
X148939071Y-132683214D01*
X148900976Y-132607023D01*
X148900976Y-132378452D01*
X148939071Y-132302261D01*
X148977166Y-132264166D01*
X149053357Y-132226071D01*
X149167642Y-132226071D01*
X149243833Y-132264166D01*
X149281928Y-132302261D01*
X149320023Y-132378452D01*
X149320023Y-132607023D01*
X149281928Y-132683214D01*
X149243833Y-132721309D01*
X149167642Y-132759404D01*
X149053357Y-132759404D01*
X150005738Y-132759404D02*
X150005738Y-131959404D01*
X150005738Y-132721309D02*
X149929547Y-132759404D01*
X149777166Y-132759404D01*
X149700976Y-132721309D01*
X149662880Y-132683214D01*
X149624785Y-132607023D01*
X149624785Y-132378452D01*
X149662880Y-132302261D01*
X149700976Y-132264166D01*
X149777166Y-132226071D01*
X149929547Y-132226071D01*
X150005738Y-132264166D01*
X150729547Y-132759404D02*
X150729547Y-132340357D01*
X150691452Y-132264166D01*
X150615261Y-132226071D01*
X150462880Y-132226071D01*
X150386690Y-132264166D01*
X150729547Y-132721309D02*
X150653357Y-132759404D01*
X150462880Y-132759404D01*
X150386690Y-132721309D01*
X150348595Y-132645119D01*
X150348595Y-132568928D01*
X150386690Y-132492738D01*
X150462880Y-132454642D01*
X150653357Y-132454642D01*
X150729547Y-132416547D01*
X151110500Y-132683214D02*
X151148595Y-132721309D01*
X151110500Y-132759404D01*
X151072404Y-132721309D01*
X151110500Y-132683214D01*
X151110500Y-132759404D01*
X151415261Y-132226071D02*
X151567642Y-132759404D01*
X151720023Y-132378452D01*
X151872404Y-132759404D01*
X152024785Y-132226071D01*
X152443833Y-132759404D02*
X152367642Y-132721309D01*
X152329547Y-132683214D01*
X152291452Y-132607023D01*
X152291452Y-132378452D01*
X152329547Y-132302261D01*
X152367642Y-132264166D01*
X152443833Y-132226071D01*
X152558119Y-132226071D01*
X152634309Y-132264166D01*
X152672404Y-132302261D01*
X152710500Y-132378452D01*
X152710500Y-132607023D01*
X152672404Y-132683214D01*
X152634309Y-132721309D01*
X152558119Y-132759404D01*
X152443833Y-132759404D01*
X153053357Y-132759404D02*
X153053357Y-132226071D01*
X153053357Y-132378452D02*
X153091452Y-132302261D01*
X153129547Y-132264166D01*
X153205738Y-132226071D01*
X153281928Y-132226071D01*
X153548595Y-132759404D02*
X153548595Y-131959404D01*
X153624785Y-132454642D02*
X153853357Y-132759404D01*
X153853357Y-132226071D02*
X153548595Y-132530833D01*
X106481714Y-137617428D02*
X106395999Y-137574571D01*
X106224571Y-137574571D01*
X106138857Y-137617428D01*
X106053142Y-137703142D01*
X106010285Y-137788857D01*
X106010285Y-137960285D01*
X106053142Y-138046000D01*
X106138857Y-138131714D01*
X106224571Y-138174571D01*
X106395999Y-138174571D01*
X106481714Y-138131714D01*
X106310285Y-137274571D02*
X106095999Y-137317428D01*
X105881714Y-137446000D01*
X105753142Y-137660285D01*
X105710285Y-137874571D01*
X105753142Y-138088857D01*
X105881714Y-138303142D01*
X106095999Y-138431714D01*
X106310285Y-138474571D01*
X106524571Y-138431714D01*
X106738857Y-138303142D01*
X106867428Y-138088857D01*
X106910285Y-137874571D01*
X106867428Y-137660285D01*
X106738857Y-137446000D01*
X106524571Y-137317428D01*
X106310285Y-137274571D01*
X107853142Y-137403142D02*
X108367428Y-137403142D01*
X108110285Y-138303142D02*
X108110285Y-137403142D01*
X109010285Y-138260285D02*
X108924571Y-138303142D01*
X108753142Y-138303142D01*
X108667428Y-138260285D01*
X108624571Y-138174571D01*
X108624571Y-137831714D01*
X108667428Y-137746000D01*
X108753142Y-137703142D01*
X108924571Y-137703142D01*
X109010285Y-137746000D01*
X109053142Y-137831714D01*
X109053142Y-137917428D01*
X108624571Y-138003142D01*
X109824571Y-138260285D02*
X109738857Y-138303142D01*
X109567428Y-138303142D01*
X109481714Y-138260285D01*
X109438857Y-138217428D01*
X109395999Y-138131714D01*
X109395999Y-137874571D01*
X109438857Y-137788857D01*
X109481714Y-137746000D01*
X109567428Y-137703142D01*
X109738857Y-137703142D01*
X109824571Y-137746000D01*
X110210285Y-138303142D02*
X110210285Y-137403142D01*
X110595999Y-138303142D02*
X110595999Y-137831714D01*
X110553142Y-137746000D01*
X110467428Y-137703142D01*
X110338857Y-137703142D01*
X110253142Y-137746000D01*
X110210285Y-137788857D01*
X111710285Y-138303142D02*
X111710285Y-137403142D01*
X111710285Y-137746000D02*
X111795999Y-137703142D01*
X111967428Y-137703142D01*
X112053142Y-137746000D01*
X112095999Y-137788857D01*
X112138857Y-137874571D01*
X112138857Y-138131714D01*
X112095999Y-138217428D01*
X112053142Y-138260285D01*
X111967428Y-138303142D01*
X111795999Y-138303142D01*
X111710285Y-138260285D01*
X112438857Y-137703142D02*
X112653142Y-138303142D01*
X112867428Y-137703142D02*
X112653142Y-138303142D01*
X112567428Y-138517428D01*
X112524571Y-138560285D01*
X112438857Y-138603142D01*
X113853142Y-138046000D02*
X114281714Y-138046000D01*
X113767428Y-138303142D02*
X114067428Y-137403142D01*
X114367428Y-138303142D01*
X114667428Y-137703142D02*
X114667428Y-138303142D01*
X114667428Y-137788857D02*
X114710285Y-137746000D01*
X114795999Y-137703142D01*
X114924571Y-137703142D01*
X115010285Y-137746000D01*
X115053142Y-137831714D01*
X115053142Y-138303142D01*
X115867428Y-138303142D02*
X115867428Y-137403142D01*
X115867428Y-138260285D02*
X115781714Y-138303142D01*
X115610285Y-138303142D01*
X115524571Y-138260285D01*
X115481714Y-138217428D01*
X115438857Y-138131714D01*
X115438857Y-137874571D01*
X115481714Y-137788857D01*
X115524571Y-137746000D01*
X115610285Y-137703142D01*
X115781714Y-137703142D01*
X115867428Y-137746000D01*
X116295999Y-138303142D02*
X116295999Y-137703142D01*
X116295999Y-137874571D02*
X116338857Y-137788857D01*
X116381714Y-137746000D01*
X116467428Y-137703142D01*
X116553142Y-137703142D01*
X116981714Y-138303142D02*
X116895999Y-138260285D01*
X116853142Y-138217428D01*
X116810285Y-138131714D01*
X116810285Y-137874571D01*
X116853142Y-137788857D01*
X116895999Y-137746000D01*
X116981714Y-137703142D01*
X117110285Y-137703142D01*
X117195999Y-137746000D01*
X117238857Y-137788857D01*
X117281714Y-137874571D01*
X117281714Y-138131714D01*
X117238857Y-138217428D01*
X117195999Y-138260285D01*
X117110285Y-138303142D01*
X116981714Y-138303142D01*
X118053142Y-138303142D02*
X118053142Y-137403142D01*
X118053142Y-138260285D02*
X117967428Y-138303142D01*
X117795999Y-138303142D01*
X117710285Y-138260285D01*
X117667428Y-138217428D01*
X117624571Y-138131714D01*
X117624571Y-137874571D01*
X117667428Y-137788857D01*
X117710285Y-137746000D01*
X117795999Y-137703142D01*
X117967428Y-137703142D01*
X118053142Y-137746000D01*
X118867428Y-138303142D02*
X118867428Y-137831714D01*
X118824571Y-137746000D01*
X118738857Y-137703142D01*
X118567428Y-137703142D01*
X118481714Y-137746000D01*
X118867428Y-138260285D02*
X118781714Y-138303142D01*
X118567428Y-138303142D01*
X118481714Y-138260285D01*
X118438857Y-138174571D01*
X118438857Y-138088857D01*
X118481714Y-138003142D01*
X118567428Y-137960285D01*
X118781714Y-137960285D01*
X118867428Y-137917428D01*
X119338857Y-138260285D02*
X119338857Y-138303142D01*
X119295999Y-138388857D01*
X119253142Y-138431714D01*
X120838857Y-138303142D02*
X120410285Y-138303142D01*
X120410285Y-137403142D01*
X121567428Y-138303142D02*
X121138857Y-138303142D01*
X121138857Y-137403142D01*
X122381714Y-138217428D02*
X122338857Y-138260285D01*
X122210285Y-138303142D01*
X122124571Y-138303142D01*
X121996000Y-138260285D01*
X121910285Y-138174571D01*
X121867428Y-138088857D01*
X121824571Y-137917428D01*
X121824571Y-137788857D01*
X121867428Y-137617428D01*
X121910285Y-137531714D01*
X121996000Y-137446000D01*
X122124571Y-137403142D01*
X122210285Y-137403142D01*
X122338857Y-137446000D01*
X122381714Y-137488857D01*
X110638857Y-139495000D02*
X111067428Y-139495000D01*
X110553142Y-139752142D02*
X110853142Y-138852142D01*
X111153142Y-139752142D01*
X111453142Y-139152142D02*
X111453142Y-140052142D01*
X111453142Y-139195000D02*
X111538857Y-139152142D01*
X111710285Y-139152142D01*
X111796000Y-139195000D01*
X111838857Y-139237857D01*
X111881714Y-139323571D01*
X111881714Y-139580714D01*
X111838857Y-139666428D01*
X111796000Y-139709285D01*
X111710285Y-139752142D01*
X111538857Y-139752142D01*
X111453142Y-139709285D01*
X112267428Y-139752142D02*
X112267428Y-139152142D01*
X112267428Y-139323571D02*
X112310285Y-139237857D01*
X112353142Y-139195000D01*
X112438857Y-139152142D01*
X112524571Y-139152142D01*
X112824571Y-139752142D02*
X112824571Y-139152142D01*
X112824571Y-138852142D02*
X112781714Y-138895000D01*
X112824571Y-138937857D01*
X112867428Y-138895000D01*
X112824571Y-138852142D01*
X112824571Y-138937857D01*
X113381714Y-139752142D02*
X113296000Y-139709285D01*
X113253142Y-139623571D01*
X113253142Y-138852142D01*
X114367428Y-138937857D02*
X114410285Y-138895000D01*
X114496000Y-138852142D01*
X114710285Y-138852142D01*
X114796000Y-138895000D01*
X114838857Y-138937857D01*
X114881714Y-139023571D01*
X114881714Y-139109285D01*
X114838857Y-139237857D01*
X114324571Y-139752142D01*
X114881714Y-139752142D01*
X115438857Y-138852142D02*
X115524571Y-138852142D01*
X115610285Y-138895000D01*
X115653142Y-138937857D01*
X115696000Y-139023571D01*
X115738857Y-139195000D01*
X115738857Y-139409285D01*
X115696000Y-139580714D01*
X115653142Y-139666428D01*
X115610285Y-139709285D01*
X115524571Y-139752142D01*
X115438857Y-139752142D01*
X115353142Y-139709285D01*
X115310285Y-139666428D01*
X115267428Y-139580714D01*
X115224571Y-139409285D01*
X115224571Y-139195000D01*
X115267428Y-139023571D01*
X115310285Y-138937857D01*
X115353142Y-138895000D01*
X115438857Y-138852142D01*
X116081714Y-138937857D02*
X116124571Y-138895000D01*
X116210285Y-138852142D01*
X116424571Y-138852142D01*
X116510285Y-138895000D01*
X116553142Y-138937857D01*
X116596000Y-139023571D01*
X116596000Y-139109285D01*
X116553142Y-139237857D01*
X116038857Y-139752142D01*
X116596000Y-139752142D01*
X116938857Y-138937857D02*
X116981714Y-138895000D01*
X117067428Y-138852142D01*
X117281714Y-138852142D01*
X117367428Y-138895000D01*
X117410285Y-138937857D01*
X117453142Y-139023571D01*
X117453142Y-139109285D01*
X117410285Y-139237857D01*
X116896000Y-139752142D01*
X117453142Y-139752142D01*
X113868960Y-69061080D02*
X113868960Y-69870604D01*
X113916580Y-69965842D01*
X113964199Y-70013461D01*
X114059437Y-70061080D01*
X114249913Y-70061080D01*
X114345151Y-70013461D01*
X114392770Y-69965842D01*
X114440389Y-69870604D01*
X114440389Y-69061080D01*
X114868960Y-70013461D02*
X115011818Y-70061080D01*
X115249913Y-70061080D01*
X115345151Y-70013461D01*
X115392770Y-69965842D01*
X115440389Y-69870604D01*
X115440389Y-69775366D01*
X115392770Y-69680128D01*
X115345151Y-69632509D01*
X115249913Y-69584890D01*
X115059437Y-69537271D01*
X114964199Y-69489652D01*
X114916580Y-69442033D01*
X114868960Y-69346795D01*
X114868960Y-69251557D01*
X114916580Y-69156319D01*
X114964199Y-69108700D01*
X115059437Y-69061080D01*
X115297532Y-69061080D01*
X115440389Y-69108700D01*
X115868960Y-69537271D02*
X116202294Y-69537271D01*
X116345151Y-70061080D02*
X115868960Y-70061080D01*
X115868960Y-69061080D01*
X116345151Y-69061080D01*
X116535627Y-70156319D02*
X117297532Y-70156319D01*
X117392770Y-69061080D02*
X117964199Y-69061080D01*
X117678484Y-70061080D02*
X117678484Y-69061080D01*
X118297532Y-70061080D02*
X118297532Y-69061080D01*
X118678484Y-69061080D01*
X118773722Y-69108700D01*
X118821341Y-69156319D01*
X118868960Y-69251557D01*
X118868960Y-69394414D01*
X118821341Y-69489652D01*
X118773722Y-69537271D01*
X118678484Y-69584890D01*
X118297532Y-69584890D01*
X119202294Y-69061080D02*
X119440389Y-70061080D01*
X119630865Y-69346795D01*
X119821341Y-70061080D01*
X120059437Y-69061080D01*
X121011818Y-70061080D02*
X120678484Y-69584890D01*
X120440389Y-70061080D02*
X120440389Y-69061080D01*
X120821341Y-69061080D01*
X120916580Y-69108700D01*
X120964199Y-69156319D01*
X121011818Y-69251557D01*
X121011818Y-69394414D01*
X120964199Y-69489652D01*
X120916580Y-69537271D01*
X120821341Y-69584890D01*
X120440389Y-69584890D01*
X144951471Y-124915985D02*
X145599090Y-124915985D01*
X145675280Y-124954080D01*
X145713376Y-124992176D01*
X145751471Y-125068366D01*
X145751471Y-125182652D01*
X145713376Y-125258842D01*
X145446709Y-124915985D02*
X145484804Y-124992176D01*
X145484804Y-125144557D01*
X145446709Y-125220747D01*
X145408614Y-125258842D01*
X145332423Y-125296938D01*
X145103852Y-125296938D01*
X145027661Y-125258842D01*
X144989566Y-125220747D01*
X144951471Y-125144557D01*
X144951471Y-124992176D01*
X144989566Y-124915985D01*
X145484804Y-124535033D02*
X144951471Y-124535033D01*
X144684804Y-124535033D02*
X144722900Y-124573128D01*
X144760995Y-124535033D01*
X144722900Y-124496938D01*
X144684804Y-124535033D01*
X144760995Y-124535033D01*
X144951471Y-124268366D02*
X144951471Y-123963604D01*
X144684804Y-124154080D02*
X145370519Y-124154080D01*
X145446709Y-124115985D01*
X145484804Y-124039795D01*
X145484804Y-123963604D01*
X145484804Y-123696938D02*
X144684804Y-123696938D01*
X145484804Y-123354080D02*
X145065757Y-123354080D01*
X144989566Y-123392176D01*
X144951471Y-123468366D01*
X144951471Y-123582652D01*
X144989566Y-123658842D01*
X145027661Y-123696938D01*
X144951471Y-122630271D02*
X145484804Y-122630271D01*
X144951471Y-122973128D02*
X145370519Y-122973128D01*
X145446709Y-122935033D01*
X145484804Y-122858842D01*
X145484804Y-122744557D01*
X145446709Y-122668366D01*
X145408614Y-122630271D01*
X145484804Y-122249319D02*
X144684804Y-122249319D01*
X144989566Y-122249319D02*
X144951471Y-122173128D01*
X144951471Y-122020747D01*
X144989566Y-121944557D01*
X145027661Y-121906461D01*
X145103852Y-121868366D01*
X145332423Y-121868366D01*
X145408614Y-121906461D01*
X145446709Y-121944557D01*
X145484804Y-122020747D01*
X145484804Y-122173128D01*
X145446709Y-122249319D01*
X145408614Y-121525509D02*
X145446709Y-121487414D01*
X145484804Y-121525509D01*
X145446709Y-121563604D01*
X145408614Y-121525509D01*
X145484804Y-121525509D01*
X145446709Y-120801700D02*
X145484804Y-120877890D01*
X145484804Y-121030271D01*
X145446709Y-121106461D01*
X145408614Y-121144557D01*
X145332423Y-121182652D01*
X145103852Y-121182652D01*
X145027661Y-121144557D01*
X144989566Y-121106461D01*
X144951471Y-121030271D01*
X144951471Y-120877890D01*
X144989566Y-120801700D01*
X145484804Y-120344557D02*
X145446709Y-120420747D01*
X145408614Y-120458842D01*
X145332423Y-120496938D01*
X145103852Y-120496938D01*
X145027661Y-120458842D01*
X144989566Y-120420747D01*
X144951471Y-120344557D01*
X144951471Y-120230271D01*
X144989566Y-120154080D01*
X145027661Y-120115985D01*
X145103852Y-120077890D01*
X145332423Y-120077890D01*
X145408614Y-120115985D01*
X145446709Y-120154080D01*
X145484804Y-120230271D01*
X145484804Y-120344557D01*
X145484804Y-119735033D02*
X144951471Y-119735033D01*
X145027661Y-119735033D02*
X144989566Y-119696938D01*
X144951471Y-119620747D01*
X144951471Y-119506461D01*
X144989566Y-119430271D01*
X145065757Y-119392176D01*
X145484804Y-119392176D01*
X145065757Y-119392176D02*
X144989566Y-119354080D01*
X144951471Y-119277890D01*
X144951471Y-119163604D01*
X144989566Y-119087414D01*
X145065757Y-119049319D01*
X145484804Y-119049319D01*
X144646709Y-118096938D02*
X145675280Y-118782652D01*
X145484804Y-117487414D02*
X145065757Y-117487414D01*
X144989566Y-117525509D01*
X144951471Y-117601700D01*
X144951471Y-117754080D01*
X144989566Y-117830271D01*
X145446709Y-117487414D02*
X145484804Y-117563604D01*
X145484804Y-117754080D01*
X145446709Y-117830271D01*
X145370519Y-117868366D01*
X145294328Y-117868366D01*
X145218138Y-117830271D01*
X145180042Y-117754080D01*
X145180042Y-117563604D01*
X145141947Y-117487414D01*
X144951471Y-117106461D02*
X145484804Y-117106461D01*
X145027661Y-117106461D02*
X144989566Y-117068366D01*
X144951471Y-116992176D01*
X144951471Y-116877890D01*
X144989566Y-116801700D01*
X145065757Y-116763604D01*
X145484804Y-116763604D01*
X145484804Y-116039795D02*
X144684804Y-116039795D01*
X145446709Y-116039795D02*
X145484804Y-116115985D01*
X145484804Y-116268366D01*
X145446709Y-116344557D01*
X145408614Y-116382652D01*
X145332423Y-116420747D01*
X145103852Y-116420747D01*
X145027661Y-116382652D01*
X144989566Y-116344557D01*
X144951471Y-116268366D01*
X144951471Y-116115985D01*
X144989566Y-116039795D01*
X145484804Y-115658842D02*
X144951471Y-115658842D01*
X145103852Y-115658842D02*
X145027661Y-115620747D01*
X144989566Y-115582652D01*
X144951471Y-115506461D01*
X144951471Y-115430271D01*
X145484804Y-115049319D02*
X145446709Y-115125509D01*
X145408614Y-115163604D01*
X145332423Y-115201700D01*
X145103852Y-115201700D01*
X145027661Y-115163604D01*
X144989566Y-115125509D01*
X144951471Y-115049319D01*
X144951471Y-114935033D01*
X144989566Y-114858842D01*
X145027661Y-114820747D01*
X145103852Y-114782652D01*
X145332423Y-114782652D01*
X145408614Y-114820747D01*
X145446709Y-114858842D01*
X145484804Y-114935033D01*
X145484804Y-115049319D01*
X145484804Y-114096938D02*
X144684804Y-114096938D01*
X145446709Y-114096938D02*
X145484804Y-114173128D01*
X145484804Y-114325509D01*
X145446709Y-114401700D01*
X145408614Y-114439795D01*
X145332423Y-114477890D01*
X145103852Y-114477890D01*
X145027661Y-114439795D01*
X144989566Y-114401700D01*
X144951471Y-114325509D01*
X144951471Y-114173128D01*
X144989566Y-114096938D01*
X145484804Y-113373128D02*
X145065757Y-113373128D01*
X144989566Y-113411223D01*
X144951471Y-113487414D01*
X144951471Y-113639795D01*
X144989566Y-113715985D01*
X145446709Y-113373128D02*
X145484804Y-113449319D01*
X145484804Y-113639795D01*
X145446709Y-113715985D01*
X145370519Y-113754080D01*
X145294328Y-113754080D01*
X145218138Y-113715985D01*
X145180042Y-113639795D01*
X145180042Y-113449319D01*
X145141947Y-113373128D01*
X144646709Y-112420747D02*
X145675280Y-113106461D01*
X145065757Y-111887414D02*
X145065757Y-112154080D01*
X145484804Y-112154080D02*
X144684804Y-112154080D01*
X144684804Y-111773128D01*
X144951471Y-111125509D02*
X145484804Y-111125509D01*
X144646709Y-111315985D02*
X145218138Y-111506461D01*
X145218138Y-111011223D01*
X145560995Y-110896938D02*
X145560995Y-110287414D01*
X145065757Y-109830271D02*
X145103852Y-109715985D01*
X145141947Y-109677890D01*
X145218138Y-109639795D01*
X145332423Y-109639795D01*
X145408614Y-109677890D01*
X145446709Y-109715985D01*
X145484804Y-109792176D01*
X145484804Y-110096938D01*
X144684804Y-110096938D01*
X144684804Y-109830271D01*
X144722900Y-109754080D01*
X144760995Y-109715985D01*
X144837185Y-109677890D01*
X144913376Y-109677890D01*
X144989566Y-109715985D01*
X145027661Y-109754080D01*
X145065757Y-109830271D01*
X145065757Y-110096938D01*
X145484804Y-109182652D02*
X145446709Y-109258842D01*
X145370519Y-109296938D01*
X144684804Y-109296938D01*
X144951471Y-108535033D02*
X145484804Y-108535033D01*
X144951471Y-108877890D02*
X145370519Y-108877890D01*
X145446709Y-108839795D01*
X145484804Y-108763604D01*
X145484804Y-108649319D01*
X145446709Y-108573128D01*
X145408614Y-108535033D01*
X145446709Y-107849319D02*
X145484804Y-107925509D01*
X145484804Y-108077890D01*
X145446709Y-108154080D01*
X145370519Y-108192176D01*
X145065757Y-108192176D01*
X144989566Y-108154080D01*
X144951471Y-108077890D01*
X144951471Y-107925509D01*
X144989566Y-107849319D01*
X145065757Y-107811223D01*
X145141947Y-107811223D01*
X145218138Y-108192176D01*
X145446709Y-107506461D02*
X145484804Y-107392176D01*
X145484804Y-107201700D01*
X145446709Y-107125509D01*
X145408614Y-107087414D01*
X145332423Y-107049319D01*
X145256233Y-107049319D01*
X145180042Y-107087414D01*
X145141947Y-107125509D01*
X145103852Y-107201700D01*
X145065757Y-107354080D01*
X145027661Y-107430271D01*
X144989566Y-107468366D01*
X144913376Y-107506461D01*
X144837185Y-107506461D01*
X144760995Y-107468366D01*
X144722900Y-107430271D01*
X144684804Y-107354080D01*
X144684804Y-107163604D01*
X144722900Y-107049319D01*
X145408614Y-106249319D02*
X145446709Y-106287414D01*
X145484804Y-106401700D01*
X145484804Y-106477890D01*
X145446709Y-106592176D01*
X145370519Y-106668366D01*
X145294328Y-106706461D01*
X145141947Y-106744557D01*
X145027661Y-106744557D01*
X144875280Y-106706461D01*
X144799090Y-106668366D01*
X144722900Y-106592176D01*
X144684804Y-106477890D01*
X144684804Y-106401700D01*
X144722900Y-106287414D01*
X144760995Y-106249319D01*
X145446709Y-105944557D02*
X145484804Y-105830271D01*
X145484804Y-105639795D01*
X145446709Y-105563604D01*
X145408614Y-105525509D01*
X145332423Y-105487414D01*
X145256233Y-105487414D01*
X145180042Y-105525509D01*
X145141947Y-105563604D01*
X145103852Y-105639795D01*
X145065757Y-105792176D01*
X145027661Y-105868366D01*
X144989566Y-105906461D01*
X144913376Y-105944557D01*
X144837185Y-105944557D01*
X144760995Y-105906461D01*
X144722900Y-105868366D01*
X144684804Y-105792176D01*
X144684804Y-105601700D01*
X144722900Y-105487414D01*
X145484804Y-105144557D02*
X144684804Y-105144557D01*
X107112261Y-145294404D02*
X107112261Y-145865833D01*
X107074166Y-145980119D01*
X106997976Y-146056309D01*
X106883690Y-146094404D01*
X106807500Y-146094404D01*
X107874166Y-146094404D02*
X107493214Y-146094404D01*
X107493214Y-145294404D01*
X108597976Y-146018214D02*
X108559880Y-146056309D01*
X108445595Y-146094404D01*
X108369404Y-146094404D01*
X108255119Y-146056309D01*
X108178928Y-145980119D01*
X108140833Y-145903928D01*
X108102738Y-145751547D01*
X108102738Y-145637261D01*
X108140833Y-145484880D01*
X108178928Y-145408690D01*
X108255119Y-145332500D01*
X108369404Y-145294404D01*
X108445595Y-145294404D01*
X108559880Y-145332500D01*
X108597976Y-145370595D01*
X109169404Y-145294404D02*
X109169404Y-145865833D01*
X109131309Y-145980119D01*
X109055119Y-146056309D01*
X108940833Y-146094404D01*
X108864642Y-146094404D01*
X109931309Y-146094404D02*
X109550357Y-146094404D01*
X109550357Y-145294404D01*
X110655119Y-146018214D02*
X110617023Y-146056309D01*
X110502738Y-146094404D01*
X110426547Y-146094404D01*
X110312261Y-146056309D01*
X110236071Y-145980119D01*
X110197976Y-145903928D01*
X110159880Y-145751547D01*
X110159880Y-145637261D01*
X110197976Y-145484880D01*
X110236071Y-145408690D01*
X110312261Y-145332500D01*
X110426547Y-145294404D01*
X110502738Y-145294404D01*
X110617023Y-145332500D01*
X110655119Y-145370595D01*
X111226547Y-145294404D02*
X111226547Y-145865833D01*
X111188452Y-145980119D01*
X111112261Y-146056309D01*
X110997976Y-146094404D01*
X110921785Y-146094404D01*
X111988452Y-146094404D02*
X111607500Y-146094404D01*
X111607500Y-145294404D01*
X112712261Y-146018214D02*
X112674166Y-146056309D01*
X112559880Y-146094404D01*
X112483690Y-146094404D01*
X112369404Y-146056309D01*
X112293214Y-145980119D01*
X112255119Y-145903928D01*
X112217023Y-145751547D01*
X112217023Y-145637261D01*
X112255119Y-145484880D01*
X112293214Y-145408690D01*
X112369404Y-145332500D01*
X112483690Y-145294404D01*
X112559880Y-145294404D01*
X112674166Y-145332500D01*
X112712261Y-145370595D01*
X113283690Y-145294404D02*
X113283690Y-145865833D01*
X113245595Y-145980119D01*
X113169404Y-146056309D01*
X113055119Y-146094404D01*
X112978928Y-146094404D01*
X114045595Y-146094404D02*
X113664642Y-146094404D01*
X113664642Y-145294404D01*
X114769404Y-146018214D02*
X114731309Y-146056309D01*
X114617023Y-146094404D01*
X114540833Y-146094404D01*
X114426547Y-146056309D01*
X114350357Y-145980119D01*
X114312261Y-145903928D01*
X114274166Y-145751547D01*
X114274166Y-145637261D01*
X114312261Y-145484880D01*
X114350357Y-145408690D01*
X114426547Y-145332500D01*
X114540833Y-145294404D01*
X114617023Y-145294404D01*
X114731309Y-145332500D01*
X114769404Y-145370595D01*
X146755785Y-121819142D02*
X146327214Y-121819142D01*
X146327214Y-120919142D01*
X147055785Y-121347714D02*
X147355785Y-121347714D01*
X147484357Y-121819142D02*
X147055785Y-121819142D01*
X147055785Y-120919142D01*
X147484357Y-120919142D01*
X147870071Y-121819142D02*
X147870071Y-120919142D01*
X148084357Y-120919142D01*
X148212928Y-120962000D01*
X148298642Y-121047714D01*
X148341500Y-121133428D01*
X148384357Y-121304857D01*
X148384357Y-121433428D01*
X148341500Y-121604857D01*
X148298642Y-121690571D01*
X148212928Y-121776285D01*
X148084357Y-121819142D01*
X147870071Y-121819142D01*
X148770071Y-121476285D02*
X149455785Y-121476285D01*
X149112928Y-121819142D02*
X149112928Y-121133428D01*
%TO.C,J4*%
X112593380Y-102869761D02*
X111593380Y-102869761D01*
X112593380Y-102298333D01*
X111593380Y-102298333D01*
X112593380Y-101679285D02*
X112545761Y-101774523D01*
X112498142Y-101822142D01*
X112402904Y-101869761D01*
X112117190Y-101869761D01*
X112021952Y-101822142D01*
X111974333Y-101774523D01*
X111926714Y-101679285D01*
X111926714Y-101536428D01*
X111974333Y-101441190D01*
X112021952Y-101393571D01*
X112117190Y-101345952D01*
X112402904Y-101345952D01*
X112498142Y-101393571D01*
X112545761Y-101441190D01*
X112593380Y-101536428D01*
X112593380Y-101679285D01*
X111926714Y-101060238D02*
X111926714Y-100679285D01*
X111593380Y-100917380D02*
X112450523Y-100917380D01*
X112545761Y-100869761D01*
X112593380Y-100774523D01*
X112593380Y-100679285D01*
X112545761Y-99917380D02*
X112593380Y-100012619D01*
X112593380Y-100203095D01*
X112545761Y-100298333D01*
X112498142Y-100345952D01*
X112402904Y-100393571D01*
X112117190Y-100393571D01*
X112021952Y-100345952D01*
X111974333Y-100298333D01*
X111926714Y-100203095D01*
X111926714Y-100012619D01*
X111974333Y-99917380D01*
X112593380Y-99488809D02*
X111593380Y-99488809D01*
X112593380Y-99060238D02*
X112069571Y-99060238D01*
X111974333Y-99107857D01*
X111926714Y-99203095D01*
X111926714Y-99345952D01*
X111974333Y-99441190D01*
X112021952Y-99488809D01*
%TO.C,J2*%
X121261190Y-142240000D02*
X121737380Y-142240000D01*
X120737380Y-142573333D02*
X121261190Y-142240000D01*
X120737380Y-141906666D01*
X120340380Y-142859047D02*
X120340380Y-143430476D01*
X120340380Y-143144761D02*
X119340380Y-143144761D01*
X119483238Y-143240000D01*
X119578476Y-143335238D01*
X119626095Y-143430476D01*
X119435619Y-142478095D02*
X119388000Y-142430476D01*
X119340380Y-142335238D01*
X119340380Y-142097142D01*
X119388000Y-142001904D01*
X119435619Y-141954285D01*
X119530857Y-141906666D01*
X119626095Y-141906666D01*
X119768952Y-141954285D01*
X120340380Y-142525714D01*
X120340380Y-141906666D01*
X119340380Y-141620952D02*
X120340380Y-141287619D01*
X119340380Y-140954285D01*
X119340380Y-150177476D02*
X119340380Y-150653666D01*
X119816571Y-150701285D01*
X119768952Y-150653666D01*
X119721333Y-150558428D01*
X119721333Y-150320333D01*
X119768952Y-150225095D01*
X119816571Y-150177476D01*
X119911809Y-150129857D01*
X120149904Y-150129857D01*
X120245142Y-150177476D01*
X120292761Y-150225095D01*
X120340380Y-150320333D01*
X120340380Y-150558428D01*
X120292761Y-150653666D01*
X120245142Y-150701285D01*
X119340380Y-149844142D02*
X120340380Y-149510809D01*
X119340380Y-149177476D01*
X121864380Y-149550476D02*
X121388190Y-149883809D01*
X121864380Y-150121904D02*
X120864380Y-150121904D01*
X120864380Y-149740952D01*
X120912000Y-149645714D01*
X120959619Y-149598095D01*
X121054857Y-149550476D01*
X121197714Y-149550476D01*
X121292952Y-149598095D01*
X121340571Y-149645714D01*
X121388190Y-149740952D01*
X121388190Y-150121904D01*
X119388000Y-146811904D02*
X119340380Y-146907142D01*
X119340380Y-147050000D01*
X119388000Y-147192857D01*
X119483238Y-147288095D01*
X119578476Y-147335714D01*
X119768952Y-147383333D01*
X119911809Y-147383333D01*
X120102285Y-147335714D01*
X120197523Y-147288095D01*
X120292761Y-147192857D01*
X120340380Y-147050000D01*
X120340380Y-146954761D01*
X120292761Y-146811904D01*
X120245142Y-146764285D01*
X119911809Y-146764285D01*
X119911809Y-146954761D01*
X120340380Y-146335714D02*
X119340380Y-146335714D01*
X120340380Y-145764285D01*
X119340380Y-145764285D01*
X120340380Y-145288095D02*
X119340380Y-145288095D01*
X119340380Y-145050000D01*
X119388000Y-144907142D01*
X119483238Y-144811904D01*
X119578476Y-144764285D01*
X119768952Y-144716666D01*
X119911809Y-144716666D01*
X120102285Y-144764285D01*
X120197523Y-144811904D01*
X120292761Y-144907142D01*
X120340380Y-145050000D01*
X120340380Y-145288095D01*
%TO.C,C2*%
X129092333Y-77313142D02*
X129044714Y-77360761D01*
X128901857Y-77408380D01*
X128806619Y-77408380D01*
X128663761Y-77360761D01*
X128568523Y-77265523D01*
X128520904Y-77170285D01*
X128473285Y-76979809D01*
X128473285Y-76836952D01*
X128520904Y-76646476D01*
X128568523Y-76551238D01*
X128663761Y-76456000D01*
X128806619Y-76408380D01*
X128901857Y-76408380D01*
X129044714Y-76456000D01*
X129092333Y-76503619D01*
X129473285Y-76503619D02*
X129520904Y-76456000D01*
X129616142Y-76408380D01*
X129854238Y-76408380D01*
X129949476Y-76456000D01*
X129997095Y-76503619D01*
X130044714Y-76598857D01*
X130044714Y-76694095D01*
X129997095Y-76836952D01*
X129425666Y-77408380D01*
X130044714Y-77408380D01*
%TO.C,C3*%
X125319142Y-103508166D02*
X125366761Y-103555785D01*
X125414380Y-103698642D01*
X125414380Y-103793880D01*
X125366761Y-103936738D01*
X125271523Y-104031976D01*
X125176285Y-104079595D01*
X124985809Y-104127214D01*
X124842952Y-104127214D01*
X124652476Y-104079595D01*
X124557238Y-104031976D01*
X124462000Y-103936738D01*
X124414380Y-103793880D01*
X124414380Y-103698642D01*
X124462000Y-103555785D01*
X124509619Y-103508166D01*
X124414380Y-103174833D02*
X124414380Y-102555785D01*
X124795333Y-102889119D01*
X124795333Y-102746261D01*
X124842952Y-102651023D01*
X124890571Y-102603404D01*
X124985809Y-102555785D01*
X125223904Y-102555785D01*
X125319142Y-102603404D01*
X125366761Y-102651023D01*
X125414380Y-102746261D01*
X125414380Y-103031976D01*
X125366761Y-103127214D01*
X125319142Y-103174833D01*
%TO.C,J5*%
X136496380Y-142674333D02*
X137210666Y-142674333D01*
X137353523Y-142721952D01*
X137448761Y-142817190D01*
X137496380Y-142960047D01*
X137496380Y-143055285D01*
X136496380Y-141721952D02*
X136496380Y-142198142D01*
X136972571Y-142245761D01*
X136924952Y-142198142D01*
X136877333Y-142102904D01*
X136877333Y-141864809D01*
X136924952Y-141769571D01*
X136972571Y-141721952D01*
X137067809Y-141674333D01*
X137305904Y-141674333D01*
X137401142Y-141721952D01*
X137448761Y-141769571D01*
X137496380Y-141864809D01*
X137496380Y-142102904D01*
X137448761Y-142198142D01*
X137401142Y-142245761D01*
%TO.C,F1*%
X150399290Y-84449694D02*
X150163587Y-84685396D01*
X150533977Y-85055786D02*
X149826870Y-84348679D01*
X150163587Y-84011961D01*
X151510457Y-84079305D02*
X151106396Y-84483366D01*
X151308427Y-84281335D02*
X150601320Y-83574229D01*
X150634992Y-83742587D01*
X150634992Y-83877274D01*
X150601320Y-83978290D01*
%TO.C,BP1*%
X134135880Y-129341404D02*
X134945404Y-129341404D01*
X135040642Y-129293785D01*
X135088261Y-129246166D01*
X135135880Y-129150928D01*
X135135880Y-128960452D01*
X135088261Y-128865214D01*
X135040642Y-128817595D01*
X134945404Y-128769976D01*
X134135880Y-128769976D01*
X135088261Y-128341404D02*
X135135880Y-128198547D01*
X135135880Y-127960452D01*
X135088261Y-127865214D01*
X135040642Y-127817595D01*
X134945404Y-127769976D01*
X134850166Y-127769976D01*
X134754928Y-127817595D01*
X134707309Y-127865214D01*
X134659690Y-127960452D01*
X134612071Y-128150928D01*
X134564452Y-128246166D01*
X134516833Y-128293785D01*
X134421595Y-128341404D01*
X134326357Y-128341404D01*
X134231119Y-128293785D01*
X134183500Y-128246166D01*
X134135880Y-128150928D01*
X134135880Y-127912833D01*
X134183500Y-127769976D01*
X134612071Y-127008071D02*
X134659690Y-126865214D01*
X134707309Y-126817595D01*
X134802547Y-126769976D01*
X134945404Y-126769976D01*
X135040642Y-126817595D01*
X135088261Y-126865214D01*
X135135880Y-126960452D01*
X135135880Y-127341404D01*
X134135880Y-127341404D01*
X134135880Y-127008071D01*
X134183500Y-126912833D01*
X134231119Y-126865214D01*
X134326357Y-126817595D01*
X134421595Y-126817595D01*
X134516833Y-126865214D01*
X134564452Y-126912833D01*
X134612071Y-127008071D01*
X134612071Y-127341404D01*
%TO.C,J3*%
X150796666Y-125797880D02*
X150796666Y-126512166D01*
X150749047Y-126655023D01*
X150653809Y-126750261D01*
X150510952Y-126797880D01*
X150415714Y-126797880D01*
X151177619Y-125797880D02*
X151796666Y-125797880D01*
X151463333Y-126178833D01*
X151606190Y-126178833D01*
X151701428Y-126226452D01*
X151749047Y-126274071D01*
X151796666Y-126369309D01*
X151796666Y-126607404D01*
X151749047Y-126702642D01*
X151701428Y-126750261D01*
X151606190Y-126797880D01*
X151320476Y-126797880D01*
X151225238Y-126750261D01*
X151177619Y-126702642D01*
%TO.C,R19*%
X151709380Y-114688857D02*
X151233190Y-115022190D01*
X151709380Y-115260285D02*
X150709380Y-115260285D01*
X150709380Y-114879333D01*
X150757000Y-114784095D01*
X150804619Y-114736476D01*
X150899857Y-114688857D01*
X151042714Y-114688857D01*
X151137952Y-114736476D01*
X151185571Y-114784095D01*
X151233190Y-114879333D01*
X151233190Y-115260285D01*
X151709380Y-113736476D02*
X151709380Y-114307904D01*
X151709380Y-114022190D02*
X150709380Y-114022190D01*
X150852238Y-114117428D01*
X150947476Y-114212666D01*
X150995095Y-114307904D01*
X151709380Y-113260285D02*
X151709380Y-113069809D01*
X151661761Y-112974571D01*
X151614142Y-112926952D01*
X151471285Y-112831714D01*
X151280809Y-112784095D01*
X150899857Y-112784095D01*
X150804619Y-112831714D01*
X150757000Y-112879333D01*
X150709380Y-112974571D01*
X150709380Y-113165047D01*
X150757000Y-113260285D01*
X150804619Y-113307904D01*
X150899857Y-113355523D01*
X151137952Y-113355523D01*
X151233190Y-113307904D01*
X151280809Y-113260285D01*
X151328428Y-113165047D01*
X151328428Y-112974571D01*
X151280809Y-112879333D01*
X151233190Y-112831714D01*
X151137952Y-112784095D01*
%TO.C,C1*%
X121457642Y-72148666D02*
X121505261Y-72196285D01*
X121552880Y-72339142D01*
X121552880Y-72434380D01*
X121505261Y-72577238D01*
X121410023Y-72672476D01*
X121314785Y-72720095D01*
X121124309Y-72767714D01*
X120981452Y-72767714D01*
X120790976Y-72720095D01*
X120695738Y-72672476D01*
X120600500Y-72577238D01*
X120552880Y-72434380D01*
X120552880Y-72339142D01*
X120600500Y-72196285D01*
X120648119Y-72148666D01*
X121552880Y-71196285D02*
X121552880Y-71767714D01*
X121552880Y-71482000D02*
X120552880Y-71482000D01*
X120695738Y-71577238D01*
X120790976Y-71672476D01*
X120838595Y-71767714D01*
%TO.C,R1*%
X126071333Y-68143380D02*
X125738000Y-67667190D01*
X125499904Y-68143380D02*
X125499904Y-67143380D01*
X125880857Y-67143380D01*
X125976095Y-67191000D01*
X126023714Y-67238619D01*
X126071333Y-67333857D01*
X126071333Y-67476714D01*
X126023714Y-67571952D01*
X125976095Y-67619571D01*
X125880857Y-67667190D01*
X125499904Y-67667190D01*
X127023714Y-68143380D02*
X126452285Y-68143380D01*
X126738000Y-68143380D02*
X126738000Y-67143380D01*
X126642761Y-67286238D01*
X126547523Y-67381476D01*
X126452285Y-67429095D01*
%TO.C,R2*%
X128420833Y-71381880D02*
X128087500Y-70905690D01*
X127849404Y-71381880D02*
X127849404Y-70381880D01*
X128230357Y-70381880D01*
X128325595Y-70429500D01*
X128373214Y-70477119D01*
X128420833Y-70572357D01*
X128420833Y-70715214D01*
X128373214Y-70810452D01*
X128325595Y-70858071D01*
X128230357Y-70905690D01*
X127849404Y-70905690D01*
X128801785Y-70477119D02*
X128849404Y-70429500D01*
X128944642Y-70381880D01*
X129182738Y-70381880D01*
X129277976Y-70429500D01*
X129325595Y-70477119D01*
X129373214Y-70572357D01*
X129373214Y-70667595D01*
X129325595Y-70810452D01*
X128754166Y-71381880D01*
X129373214Y-71381880D01*
%TO.C,RN1*%
X117228880Y-118990976D02*
X116752690Y-119324309D01*
X117228880Y-119562404D02*
X116228880Y-119562404D01*
X116228880Y-119181452D01*
X116276500Y-119086214D01*
X116324119Y-119038595D01*
X116419357Y-118990976D01*
X116562214Y-118990976D01*
X116657452Y-119038595D01*
X116705071Y-119086214D01*
X116752690Y-119181452D01*
X116752690Y-119562404D01*
X117228880Y-118562404D02*
X116228880Y-118562404D01*
X117228880Y-117990976D01*
X116228880Y-117990976D01*
X117228880Y-116990976D02*
X117228880Y-117562404D01*
X117228880Y-117276690D02*
X116228880Y-117276690D01*
X116371738Y-117371928D01*
X116466976Y-117467166D01*
X116514595Y-117562404D01*
%TO.C,RN2*%
X117051380Y-89844476D02*
X116575190Y-90177809D01*
X117051380Y-90415904D02*
X116051380Y-90415904D01*
X116051380Y-90034952D01*
X116099000Y-89939714D01*
X116146619Y-89892095D01*
X116241857Y-89844476D01*
X116384714Y-89844476D01*
X116479952Y-89892095D01*
X116527571Y-89939714D01*
X116575190Y-90034952D01*
X116575190Y-90415904D01*
X117051380Y-89415904D02*
X116051380Y-89415904D01*
X117051380Y-88844476D01*
X116051380Y-88844476D01*
X116146619Y-88415904D02*
X116099000Y-88368285D01*
X116051380Y-88273047D01*
X116051380Y-88034952D01*
X116099000Y-87939714D01*
X116146619Y-87892095D01*
X116241857Y-87844476D01*
X116337095Y-87844476D01*
X116479952Y-87892095D01*
X117051380Y-88463523D01*
X117051380Y-87844476D01*
%TO.C,U1*%
X154080880Y-71373904D02*
X154890404Y-71373904D01*
X154985642Y-71326285D01*
X155033261Y-71278666D01*
X155080880Y-71183428D01*
X155080880Y-70992952D01*
X155033261Y-70897714D01*
X154985642Y-70850095D01*
X154890404Y-70802476D01*
X154080880Y-70802476D01*
X155080880Y-69802476D02*
X155080880Y-70373904D01*
X155080880Y-70088190D02*
X154080880Y-70088190D01*
X154223738Y-70183428D01*
X154318976Y-70278666D01*
X154366595Y-70373904D01*
%TO.C,D1*%
X152661880Y-98401095D02*
X151661880Y-98401095D01*
X151661880Y-98163000D01*
X151709500Y-98020142D01*
X151804738Y-97924904D01*
X151899976Y-97877285D01*
X152090452Y-97829666D01*
X152233309Y-97829666D01*
X152423785Y-97877285D01*
X152519023Y-97924904D01*
X152614261Y-98020142D01*
X152661880Y-98163000D01*
X152661880Y-98401095D01*
X152661880Y-96877285D02*
X152661880Y-97448714D01*
X152661880Y-97163000D02*
X151661880Y-97163000D01*
X151804738Y-97258238D01*
X151899976Y-97353476D01*
X151947595Y-97448714D01*
%TO.C,D2*%
X149296380Y-98401095D02*
X148296380Y-98401095D01*
X148296380Y-98163000D01*
X148344000Y-98020142D01*
X148439238Y-97924904D01*
X148534476Y-97877285D01*
X148724952Y-97829666D01*
X148867809Y-97829666D01*
X149058285Y-97877285D01*
X149153523Y-97924904D01*
X149248761Y-98020142D01*
X149296380Y-98163000D01*
X149296380Y-98401095D01*
X148391619Y-97448714D02*
X148344000Y-97401095D01*
X148296380Y-97305857D01*
X148296380Y-97067761D01*
X148344000Y-96972523D01*
X148391619Y-96924904D01*
X148486857Y-96877285D01*
X148582095Y-96877285D01*
X148724952Y-96924904D01*
X149296380Y-97496333D01*
X149296380Y-96877285D01*
%TO.C,C4*%
X127531833Y-142972142D02*
X127484214Y-143019761D01*
X127341357Y-143067380D01*
X127246119Y-143067380D01*
X127103261Y-143019761D01*
X127008023Y-142924523D01*
X126960404Y-142829285D01*
X126912785Y-142638809D01*
X126912785Y-142495952D01*
X126960404Y-142305476D01*
X127008023Y-142210238D01*
X127103261Y-142115000D01*
X127246119Y-142067380D01*
X127341357Y-142067380D01*
X127484214Y-142115000D01*
X127531833Y-142162619D01*
X128388976Y-142400714D02*
X128388976Y-143067380D01*
X128150880Y-142019761D02*
X127912785Y-142734047D01*
X128531833Y-142734047D01*
D12*
%TO.C,J4*%
X111470000Y-102190000D02*
X108930000Y-102190000D01*
X108930000Y-130130000D02*
X108930000Y-132730000D01*
X108930000Y-132730000D02*
X106330000Y-132730000D01*
X111530000Y-131400000D02*
X111530000Y-132730000D01*
X111530000Y-130130000D02*
X111530000Y-69110000D01*
X105120000Y-65360000D02*
X112740000Y-65360000D01*
X111530000Y-132730000D02*
X110200000Y-132730000D01*
X108930000Y-102190000D02*
X108930000Y-99650000D01*
X105120000Y-136480000D02*
X105120000Y-65360000D01*
X111530000Y-130130000D02*
X108930000Y-130130000D01*
X111530000Y-69110000D02*
X106330000Y-69110000D01*
X112740000Y-65360000D02*
X112740000Y-136480000D01*
X106330000Y-132730000D02*
X106330000Y-69110000D01*
X108930000Y-99650000D02*
X111470000Y-99650000D01*
X105120000Y-136480000D02*
X112740000Y-136480000D01*
%TO.C,J2*%
X118491000Y-151257000D02*
X113411000Y-151257000D01*
X118491000Y-140843000D02*
X113411000Y-140843000D01*
X118999000Y-151130000D02*
X118999000Y-140970000D01*
%TO.C,C2*%
X129861064Y-73316000D02*
X128656936Y-73316000D01*
X129861064Y-76036000D02*
X128656936Y-76036000D01*
%TO.C,C3*%
X124042000Y-102739436D02*
X124042000Y-103943564D01*
X121322000Y-102739436D02*
X121322000Y-103943564D01*
%TO.C,F1*%
X146132355Y-85941432D02*
X149031492Y-88840570D01*
X152213473Y-79860314D02*
X155112611Y-82759452D01*
X146132355Y-85941432D02*
X152213473Y-79860314D01*
X149031492Y-88840570D02*
X155112611Y-82759452D01*
%TO.C,REF\u002A\u002A*%
X147256500Y-130683000D02*
X147764500Y-131191000D01*
X148780500Y-128905000D02*
X148780500Y-128651000D01*
X147002500Y-130429000D02*
X146494500Y-129921000D01*
X148018500Y-129921000D02*
X148018500Y-129667000D01*
X148272500Y-129159000D02*
X148780500Y-129159000D01*
X147510500Y-129159000D02*
X147256500Y-129413000D01*
X147764500Y-129921000D02*
X148018500Y-129921000D01*
X148272500Y-129413000D02*
X147764500Y-128905000D01*
X147256500Y-130175000D02*
X147256500Y-130683000D01*
X148780500Y-129159000D02*
X149288500Y-129667000D01*
X148272500Y-129413000D02*
X148272500Y-130175000D01*
X147002500Y-129667000D02*
X147764500Y-129667000D01*
X147764500Y-129667000D02*
X147764500Y-128905000D01*
X147002500Y-130683000D02*
X146748500Y-130683000D01*
X148526500Y-128905000D02*
X148018500Y-128397000D01*
X148272500Y-130175000D02*
X147510500Y-130175000D01*
X147510500Y-130175000D02*
X147002500Y-129667000D01*
%TO.C,BP1*%
X132842000Y-126238000D02*
X132842000Y-129540000D01*
X136398000Y-129540000D02*
X136398000Y-126238000D01*
X136398000Y-126238000D02*
X132842000Y-126238000D01*
X143740000Y-128016000D02*
G75*
G03*
X143740000Y-128016000I-1500000J0D01*
G01*
%TO.C,J3*%
X152460000Y-122745500D02*
X149800000Y-122745500D01*
X149800000Y-122745500D02*
X149800000Y-120145500D01*
X152460000Y-120145500D02*
X149800000Y-120145500D01*
X152460000Y-125345500D02*
X151130000Y-125345500D01*
X152460000Y-124015500D02*
X152460000Y-125345500D01*
X152460000Y-122745500D02*
X152460000Y-120145500D01*
%TO.C,R19*%
X152500000Y-110776000D02*
X152500000Y-117316000D01*
X152170000Y-110776000D02*
X152500000Y-110776000D01*
X149760000Y-110776000D02*
X149760000Y-117316000D01*
X150090000Y-110776000D02*
X149760000Y-110776000D01*
X152500000Y-117316000D02*
X152170000Y-117316000D01*
X149760000Y-117316000D02*
X150090000Y-117316000D01*
%TO.C,C1*%
X122020500Y-72584064D02*
X122020500Y-71379936D01*
X124740500Y-72584064D02*
X124740500Y-71379936D01*
%TO.C,R1*%
X129508000Y-66321000D02*
X122968000Y-66321000D01*
X129508000Y-69061000D02*
X129508000Y-66321000D01*
X122968000Y-69061000D02*
X129508000Y-69061000D01*
X122968000Y-66321000D02*
X122968000Y-69061000D01*
X122198000Y-67691000D02*
X122968000Y-67691000D01*
X130278000Y-67691000D02*
X129508000Y-67691000D01*
%TO.C,R2*%
X130271000Y-71564500D02*
X127111000Y-71564500D01*
X132111000Y-71564500D02*
G75*
G03*
X132111000Y-71564500I-920000J0D01*
G01*
%TO.C,RN1*%
X120399000Y-106934000D02*
X117599000Y-106934000D01*
X120399000Y-104224000D02*
X117599000Y-104224000D01*
X120399000Y-129964000D02*
X120399000Y-104224000D01*
X117599000Y-129964000D02*
X120399000Y-129964000D01*
X117599000Y-104224000D02*
X117599000Y-129964000D01*
%TO.C,RN2*%
X117599000Y-103294000D02*
X120399000Y-103294000D01*
X117599000Y-77554000D02*
X117599000Y-103294000D01*
X117599000Y-100584000D02*
X120399000Y-100584000D01*
X120399000Y-103294000D02*
X120399000Y-77554000D01*
X120399000Y-77554000D02*
X117599000Y-77554000D01*
%TO.C,U1*%
X137738500Y-68072000D02*
X135198500Y-68072000D01*
X137738500Y-73152000D02*
X135198500Y-73152000D01*
X153628500Y-75732000D02*
X137738500Y-75732000D01*
X153628500Y-65492000D02*
X153628500Y-75732000D01*
X137738500Y-70612000D02*
X135198500Y-70612000D01*
X137738500Y-65492000D02*
X137738500Y-75732000D01*
X153628500Y-65492000D02*
X137738500Y-65492000D01*
%TO.C,J1*%
X119122500Y-65980000D02*
X119122500Y-67310000D01*
X116522500Y-68640000D02*
X113922500Y-68640000D01*
X117792500Y-65980000D02*
X119122500Y-65980000D01*
X113922500Y-65980000D02*
X113922500Y-68640000D01*
X116522500Y-65980000D02*
X113922500Y-65980000D01*
X116522500Y-65980000D02*
X116522500Y-68640000D01*
%TO.C,D1*%
X153679500Y-95772500D02*
X150739500Y-95772500D01*
X150739500Y-94752500D02*
X150739500Y-100192500D01*
X153679500Y-94752500D02*
X153679500Y-100192500D01*
X153679500Y-95532500D02*
X150739500Y-95532500D01*
X153679500Y-100192500D02*
X153349500Y-100192500D01*
X151069500Y-94752500D02*
X150739500Y-94752500D01*
X153679500Y-95652500D02*
X150739500Y-95652500D01*
X150739500Y-100192500D02*
X151069500Y-100192500D01*
X153349500Y-94752500D02*
X153679500Y-94752500D01*
%TO.C,D2*%
X150314000Y-95772500D02*
X147374000Y-95772500D01*
X147704000Y-94752500D02*
X147374000Y-94752500D01*
X150314000Y-94752500D02*
X150314000Y-100192500D01*
X147374000Y-94752500D02*
X147374000Y-100192500D01*
X147374000Y-100192500D02*
X147704000Y-100192500D01*
X150314000Y-95652500D02*
X147374000Y-95652500D01*
X149984000Y-94752500D02*
X150314000Y-94752500D01*
X150314000Y-95532500D02*
X147374000Y-95532500D01*
X150314000Y-100192500D02*
X149984000Y-100192500D01*
%TO.C,C4*%
X128300564Y-138975000D02*
X127096436Y-138975000D01*
X128300564Y-141695000D02*
X127096436Y-141695000D01*
%TD*%
M02*
