M48
; DRILL file {KiCad (6.0.2)} date Tue Apr  5 14:05:56 2022
; FORMAT={-:-/ absolute / inch / decimal}
; #@! TF.CreationDate,2022-04-05T14:05:56-06:00
; #@! TF.GenerationSoftware,Kicad,Pcbnew,(6.0.2)
; #@! TF.FileFunction,Plated,1,2,PTH
FMAT,2
INCH
; #@! TA.AperFunction,Plated,PTH,ViaDrill
T1C0.0157
; #@! TA.AperFunction,Plated,PTH,ComponentDrill
T2C0.0276
; #@! TA.AperFunction,Plated,PTH,ComponentDrill
T3C0.0280
; #@! TA.AperFunction,Plated,PTH,ComponentDrill
T4C0.0300
; #@! TA.AperFunction,Plated,PTH,ComponentDrill
T5C0.0315
; #@! TA.AperFunction,Plated,PTH,ComponentDrill
T6C0.0354
; #@! TA.AperFunction,Plated,PTH,ComponentDrill
T7C0.0394
; #@! TA.AperFunction,Plated,PTH,ComponentDrill
T8C0.0433
%
G90
G05
T1
X4.4475Y-2.7775
X4.4475Y-4.8725
X4.4493Y-4.1732
X4.46Y-3.715
X4.47Y-3.5375
X4.4721Y-4.9254
X4.4761Y-4.3211
X4.5174Y-4.2383
X4.5175Y-4.435
X4.525Y-4.71
X4.575Y-4.0875
X4.585Y-3.0425
X4.5925Y-3.8875
X4.6175Y-4.8125
X4.7499Y-3.221
X4.7499Y-3.4215
X4.7499Y-3.5218
X4.7499Y-3.6228
X4.7499Y-3.7231
X4.7513Y-3.3227
X4.752Y-3.8241
X4.7668Y-5.1732
X4.7763Y-3.9562
X4.78Y-2.995
X4.8166Y-4.2059
X4.83Y-3.96
X4.8575Y-2.6875
X4.8788Y-3.9562
X4.8809Y-4.2051
X4.915Y-3.0875
X4.9242Y-4.8439
X4.928Y-3.2397
X4.9288Y-3.3415
X4.9293Y-4.542
X4.9295Y-3.4417
X4.9302Y-3.7397
X4.9302Y-3.8406
X4.9309Y-3.5413
X4.9309Y-3.6416
X4.9612Y-3.0412
X5.078Y-3.9397
X5.1048Y-5.6052
X5.125Y-4.5475
X5.125Y-4.6425
X5.125Y-4.74
X5.125Y-4.8425
X5.17Y-4.9475
X5.2275Y-5.5575
X5.2825Y-5.73
X5.295Y-3.24
X5.295Y-3.34
X5.295Y-3.4425
X5.295Y-3.55
X5.295Y-3.645
X5.295Y-3.74
X5.295Y-3.835
X5.3174Y-4.2529
X5.3325Y-5.6425
X5.3725Y-5.5125
X5.455Y-4.6425
X5.4575Y-4.5425
X5.4575Y-4.7425
X5.4575Y-4.845
X5.46Y-4.9475
X5.5136Y-4.5417
X5.5179Y-4.4354
X5.7572Y-4.3515
X5.83Y-2.67
X5.83Y-2.8825
X5.83Y-2.9525
X5.9325Y-2.9525
X5.9675Y-4.19
X6.02Y-2.67
X6.02Y-2.9525
T2
X4.965Y-2.8175
X5.165Y-2.8175
T3
X5.8368Y-3.3696
X6.01Y-3.26
T4
X4.5931Y-5.6021
X4.5931Y-5.7006
X4.5931Y-5.799
X4.5931Y-5.8974
T5
X4.685Y-3.11
X4.685Y-3.21
X4.685Y-3.31
X4.685Y-3.41
X4.685Y-3.51
X4.685Y-3.61
X4.685Y-3.71
X4.685Y-3.81
X4.685Y-3.91
X4.685Y-4.01
X4.685Y-4.16
X4.685Y-4.26
X4.685Y-4.36
X4.685Y-4.46
X4.685Y-4.56
X4.685Y-4.66
X4.685Y-4.76
X4.685Y-4.86
X4.685Y-4.96
X4.685Y-5.06
X4.77Y-2.665
X5.17Y-2.665
X5.95Y-4.34
X5.95Y-4.64
T6
X5.0Y-3.14
X5.0Y-3.24
X5.0Y-3.34
X5.0Y-3.44
X5.0Y-3.54
X5.0Y-3.64
X5.0Y-3.74
X5.0Y-3.84
X5.0Y-3.94
X5.0Y-4.04
X5.0Y-4.14
X5.0Y-4.24
X5.0Y-4.34
X5.0Y-4.44
X5.0Y-4.54
X5.0Y-4.64
X5.0Y-4.74
X5.0Y-4.84
X5.0Y-4.94
X5.0Y-5.04
X5.6Y-3.14
X5.6Y-3.24
X5.6Y-3.34
X5.6Y-3.44
X5.6Y-3.54
X5.6Y-3.64
X5.6Y-3.74
X5.6Y-3.84
X5.6Y-3.94
X5.6Y-4.04
X5.6Y-4.14
X5.6Y-4.24
X5.6Y-4.34
X5.6Y-4.44
X5.6Y-4.54
X5.6Y-4.64
X5.6Y-4.74
X5.6Y-4.84
X5.6Y-4.94
X5.6Y-5.04
X5.86Y-3.6875
X5.86Y-3.9875
X5.9925Y-3.6875
X5.9925Y-3.9875
T7
X4.2386Y-2.7732
X4.2386Y-2.8732
X4.2386Y-2.9732
X4.2386Y-3.0732
X4.2386Y-3.1732
X4.2386Y-3.2732
X4.2386Y-3.3732
X4.2386Y-3.4732
X4.2386Y-3.5732
X4.2386Y-3.6732
X4.2386Y-3.7732
X4.2386Y-3.8732
X4.2386Y-3.9732
X4.2386Y-4.0732
X4.2386Y-4.1732
X4.2386Y-4.2732
X4.2386Y-4.3732
X4.2386Y-4.4732
X4.2386Y-4.5732
X4.2386Y-4.6732
X4.2386Y-4.7732
X4.2386Y-4.8732
X4.2386Y-4.9732
X4.2386Y-5.0732
X4.2386Y-5.1732
X4.3386Y-2.7732
X4.3386Y-2.8732
X4.3386Y-2.9732
X4.3386Y-3.0732
X4.3386Y-3.1732
X4.3386Y-3.2732
X4.3386Y-3.3732
X4.3386Y-3.4732
X4.3386Y-3.5732
X4.3386Y-3.6732
X4.3386Y-3.7732
X4.3386Y-3.8732
X4.3386Y-3.9732
X4.3386Y-4.0732
X4.3386Y-4.1732
X4.3386Y-4.2732
X4.3386Y-4.3732
X4.3386Y-4.4732
X4.3386Y-4.5732
X4.3386Y-4.6732
X4.3386Y-4.7732
X4.3386Y-4.8732
X4.3386Y-4.9732
X4.3386Y-5.0732
X4.3386Y-5.1732
X4.5375Y-2.65
X4.6375Y-2.65
X5.95Y-4.7825
X5.95Y-4.8825
T8
X5.2775Y-2.68
X5.2775Y-2.78
X5.2775Y-2.88
T0
M30
