%TF.GenerationSoftware,KiCad,Pcbnew,(6.0.2)*%
%TF.CreationDate,2022-04-05T14:05:54-06:00*%
%TF.ProjectId,F4_THTV1,46345f54-4854-4563-912e-6b696361645f,rev?*%
%TF.SameCoordinates,Original*%
%TF.FileFunction,Soldermask,Top*%
%TF.FilePolarity,Negative*%
%FSLAX46Y46*%
G04 Gerber Fmt 4.6, Leading zero omitted, Abs format (unit mm)*
G04 Created by KiCad (PCBNEW (6.0.2)) date 2022-04-05 14:05:54*
%MOMM*%
%LPD*%
G01*
G04 APERTURE LIST*
G04 Aperture macros list*
%AMRoundRect*
0 Rectangle with rounded corners*
0 $1 Rounding radius*
0 $2 $3 $4 $5 $6 $7 $8 $9 X,Y pos of 4 corners*
0 Add a 4 corners polygon primitive as box body*
4,1,4,$2,$3,$4,$5,$6,$7,$8,$9,$2,$3,0*
0 Add four circle primitives for the rounded corners*
1,1,$1+$1,$2,$3*
1,1,$1+$1,$4,$5*
1,1,$1+$1,$6,$7*
1,1,$1+$1,$8,$9*
0 Add four rect primitives between the rounded corners*
20,1,$1+$1,$2,$3,$4,$5,0*
20,1,$1+$1,$4,$5,$6,$7,0*
20,1,$1+$1,$6,$7,$8,$9,0*
20,1,$1+$1,$8,$9,$2,$3,0*%
G04 Aperture macros list end*
%ADD10C,0.100000*%
%ADD11R,1.700000X1.700000*%
%ADD12O,1.700000X1.700000*%
%ADD13C,1.524000*%
%ADD14C,3.200000*%
%ADD15RoundRect,0.250001X0.462499X1.074999X-0.462499X1.074999X-0.462499X-1.074999X0.462499X-1.074999X0*%
%ADD16RoundRect,0.250001X-1.074999X0.462499X-1.074999X-0.462499X1.074999X-0.462499X1.074999X0.462499X0*%
%ADD17R,0.550000X2.910000*%
%ADD18R,1.000000X0.500000*%
%ADD19R,0.780000X0.720000*%
%ADD20R,1.200000X1.050000*%
%ADD21R,2.390000X1.050000*%
%ADD22R,1.080000X1.050000*%
%ADD23C,1.270000*%
%ADD24RoundRect,0.412500X0.412500X0.412500X-0.412500X0.412500X-0.412500X-0.412500X0.412500X-0.412500X0*%
%ADD25C,1.650000*%
%ADD26C,1.600000*%
%ADD27O,1.600000X1.600000*%
%ADD28RoundRect,0.250001X1.074999X-0.462499X1.074999X0.462499X-1.074999X0.462499X-1.074999X-0.462499X0*%
%ADD29C,1.400000*%
%ADD30O,1.400000X1.400000*%
%ADD31R,1.600000X1.600000*%
%ADD32O,3.500000X3.500000*%
%ADD33R,2.000000X1.905000*%
%ADD34O,2.000000X1.905000*%
%ADD35R,1.800000X1.800000*%
%ADD36O,1.800000X1.800000*%
G04 APERTURE END LIST*
D10*
X153670000Y-75628500D02*
X147320000Y-75628500D01*
X147320000Y-75628500D02*
X147320000Y-65913000D01*
X147320000Y-65913000D02*
X153670000Y-65913000D01*
X153670000Y-65913000D02*
X153670000Y-75628500D01*
G36*
X153670000Y-75628500D02*
G01*
X147320000Y-75628500D01*
X147320000Y-65913000D01*
X153670000Y-65913000D01*
X153670000Y-75628500D01*
G37*
X153670000Y-75628500D02*
X147320000Y-75628500D01*
X147320000Y-65913000D01*
X153670000Y-65913000D01*
X153670000Y-75628500D01*
D11*
%TO.C,J4*%
X110200000Y-131400000D03*
D12*
X107660000Y-131400000D03*
X110200000Y-128860000D03*
X107660000Y-128860000D03*
X110200000Y-126320000D03*
X107660000Y-126320000D03*
X110200000Y-123780000D03*
X107660000Y-123780000D03*
X110200000Y-121240000D03*
X107660000Y-121240000D03*
X110200000Y-118700000D03*
X107660000Y-118700000D03*
X110200000Y-116160000D03*
X107660000Y-116160000D03*
X110200000Y-113620000D03*
X107660000Y-113620000D03*
X110200000Y-111080000D03*
X107660000Y-111080000D03*
X110200000Y-108540000D03*
X107660000Y-108540000D03*
X110200000Y-106000000D03*
X107660000Y-106000000D03*
X110200000Y-103460000D03*
X107660000Y-103460000D03*
X110200000Y-100920000D03*
X107660000Y-100920000D03*
X110200000Y-98380000D03*
X107660000Y-98380000D03*
X110200000Y-95840000D03*
X107660000Y-95840000D03*
X110200000Y-93300000D03*
X107660000Y-93300000D03*
X110200000Y-90760000D03*
X107660000Y-90760000D03*
X110200000Y-88220000D03*
X107660000Y-88220000D03*
X110200000Y-85680000D03*
X107660000Y-85680000D03*
X110200000Y-83140000D03*
X107660000Y-83140000D03*
X110200000Y-80600000D03*
X107660000Y-80600000D03*
X110200000Y-78060000D03*
X107660000Y-78060000D03*
X110200000Y-75520000D03*
X107660000Y-75520000D03*
X110200000Y-72980000D03*
X107660000Y-72980000D03*
X110200000Y-70440000D03*
X107660000Y-70440000D03*
%TD*%
D13*
%TO.C,J2*%
X116666000Y-149794600D03*
X116666000Y-147294600D03*
X116666000Y-144794600D03*
X116666000Y-142294600D03*
%TD*%
D14*
%TO.C,REF\u002A\u002A*%
X123952000Y-146177000D03*
%TD*%
%TO.C,REF\u002A\u002A*%
X118110000Y-72834500D03*
%TD*%
D15*
%TO.C,C2*%
X130746500Y-74676000D03*
X127771500Y-74676000D03*
%TD*%
D16*
%TO.C,C3*%
X122682000Y-101854000D03*
X122682000Y-104829000D03*
%TD*%
D17*
%TO.C,J5*%
X131209000Y-144656000D03*
X131209000Y-140466000D03*
D18*
X138444000Y-138961000D03*
X138444000Y-140061000D03*
X138444000Y-141161000D03*
X138444000Y-142261000D03*
X138444000Y-143361000D03*
X138444000Y-144461000D03*
X138444000Y-145561000D03*
X138444000Y-146661000D03*
D19*
X135764000Y-137201000D03*
D20*
X132454000Y-147836000D03*
D21*
X135639000Y-147836000D03*
D20*
X131884000Y-137191000D03*
D22*
X134494000Y-137201000D03*
%TD*%
D23*
%TO.C,F1*%
X148253675Y-85587879D03*
X152654000Y-82804000D03*
%TD*%
D24*
%TO.C,BP1*%
X142240000Y-128016000D03*
D25*
X142240000Y-125476000D03*
X142240000Y-122936000D03*
X142240000Y-120396000D03*
X142240000Y-117856000D03*
X142240000Y-115316000D03*
X142240000Y-112776000D03*
X142240000Y-110236000D03*
X142240000Y-107696000D03*
X142240000Y-105156000D03*
X142240000Y-102616000D03*
X142240000Y-100076000D03*
X142240000Y-97536000D03*
X142240000Y-94996000D03*
X142240000Y-92456000D03*
X142240000Y-89916000D03*
X142240000Y-87376000D03*
X142240000Y-84836000D03*
X142240000Y-82296000D03*
X142240000Y-79756000D03*
X127000000Y-79756000D03*
X127000000Y-82296000D03*
X127000000Y-84836000D03*
X127000000Y-87376000D03*
X127000000Y-89916000D03*
X127000000Y-92456000D03*
X127000000Y-94996000D03*
X127000000Y-97536000D03*
X127000000Y-100076000D03*
X127000000Y-102616000D03*
X127000000Y-105156000D03*
X127000000Y-107696000D03*
X127000000Y-110236000D03*
X127000000Y-112776000D03*
X127000000Y-115316000D03*
X127000000Y-117856000D03*
X127000000Y-120396000D03*
X127000000Y-122936000D03*
X127000000Y-125476000D03*
X127000000Y-128016000D03*
%TD*%
D11*
%TO.C,J3*%
X151130000Y-124015500D03*
D12*
X151130000Y-121475500D03*
%TD*%
D26*
%TO.C,R19*%
X151130000Y-110236000D03*
D27*
X151130000Y-117856000D03*
%TD*%
D28*
%TO.C,C1*%
X123380500Y-73469500D03*
X123380500Y-70494500D03*
%TD*%
D26*
%TO.C,R1*%
X131318000Y-67691000D03*
D27*
X121158000Y-67691000D03*
%TD*%
D29*
%TO.C,R2*%
X131191000Y-71564500D03*
D30*
X126111000Y-71564500D03*
%TD*%
D31*
%TO.C,RN1*%
X118999000Y-105664000D03*
D27*
X118999000Y-108204000D03*
X118999000Y-110744000D03*
X118999000Y-113284000D03*
X118999000Y-115824000D03*
X118999000Y-118364000D03*
X118999000Y-120904000D03*
X118999000Y-123444000D03*
X118999000Y-125984000D03*
X118999000Y-128524000D03*
%TD*%
D31*
%TO.C,RN2*%
X118999000Y-101854000D03*
D27*
X118999000Y-99314000D03*
X118999000Y-96774000D03*
X118999000Y-94234000D03*
X118999000Y-91694000D03*
X118999000Y-89154000D03*
X118999000Y-86614000D03*
X118999000Y-84074000D03*
X118999000Y-81534000D03*
X118999000Y-78994000D03*
%TD*%
D32*
%TO.C,U1*%
X150708500Y-70612000D03*
D33*
X134048500Y-68072000D03*
D34*
X134048500Y-70612000D03*
X134048500Y-73152000D03*
%TD*%
D11*
%TO.C,J1*%
X117792500Y-67310000D03*
D12*
X115252500Y-67310000D03*
%TD*%
D35*
%TO.C,D1*%
X152209500Y-93662500D03*
D36*
X152209500Y-101282500D03*
%TD*%
D35*
%TO.C,D2*%
X148844000Y-93662500D03*
D36*
X148844000Y-101282500D03*
%TD*%
D15*
%TO.C,C4*%
X129186000Y-140335000D03*
X126211000Y-140335000D03*
%TD*%
M02*
