%TF.GenerationSoftware,KiCad,Pcbnew,6.0.5-a6ca702e91~116~ubuntu21.10.1*%
%TF.CreationDate,2022-08-24T05:16:12-06:00*%
%TF.ProjectId,PowerBook_F4Lite_THTV1_2,506f7765-7242-46f6-9f6b-5f46344c6974,rev?*%
%TF.SameCoordinates,Original*%
%TF.FileFunction,Soldermask,Bot*%
%TF.FilePolarity,Negative*%
%FSLAX46Y46*%
G04 Gerber Fmt 4.6, Leading zero omitted, Abs format (unit mm)*
G04 Created by KiCad (PCBNEW 6.0.5-a6ca702e91~116~ubuntu21.10.1) date 2022-08-24 05:16:12*
%MOMM*%
%LPD*%
G01*
G04 APERTURE LIST*
G04 Aperture macros list*
%AMRoundRect*
0 Rectangle with rounded corners*
0 $1 Rounding radius*
0 $2 $3 $4 $5 $6 $7 $8 $9 X,Y pos of 4 corners*
0 Add a 4 corners polygon primitive as box body*
4,1,4,$2,$3,$4,$5,$6,$7,$8,$9,$2,$3,0*
0 Add four circle primitives for the rounded corners*
1,1,$1+$1,$2,$3*
1,1,$1+$1,$4,$5*
1,1,$1+$1,$6,$7*
1,1,$1+$1,$8,$9*
0 Add four rect primitives between the rounded corners*
20,1,$1+$1,$2,$3,$4,$5,0*
20,1,$1+$1,$4,$5,$6,$7,0*
20,1,$1+$1,$6,$7,$8,$9,0*
20,1,$1+$1,$8,$9,$2,$3,0*%
G04 Aperture macros list end*
%ADD10RoundRect,0.462500X-0.412500X0.412500X-0.412500X-0.412500X0.412500X-0.412500X0.412500X0.412500X0*%
%ADD11C,1.750000*%
%ADD12O,1.900000X1.900000*%
%ADD13RoundRect,0.050000X-0.900000X-0.900000X0.900000X-0.900000X0.900000X0.900000X-0.900000X0.900000X0*%
%ADD14RoundRect,0.050000X0.900000X0.900000X-0.900000X0.900000X-0.900000X-0.900000X0.900000X-0.900000X0*%
%ADD15RoundRect,0.050000X0.675000X0.675000X-0.675000X0.675000X-0.675000X-0.675000X0.675000X-0.675000X0*%
%ADD16O,1.450000X1.450000*%
%ADD17C,3.300000*%
%ADD18C,1.500000*%
%ADD19O,1.500000X1.500000*%
%ADD20O,3.600000X3.600000*%
%ADD21RoundRect,0.050000X-1.000000X0.952500X-1.000000X-0.952500X1.000000X-0.952500X1.000000X0.952500X0*%
%ADD22O,2.100000X2.005000*%
%ADD23RoundRect,0.050000X-0.800000X-0.800000X0.800000X-0.800000X0.800000X0.800000X-0.800000X0.800000X0*%
%ADD24O,1.700000X1.700000*%
%ADD25C,1.370000*%
G04 APERTURE END LIST*
D10*
%TO.C,U3*%
X145211800Y-77739240D03*
D11*
X142671800Y-77739240D03*
X140131800Y-77739240D03*
X137591800Y-77739240D03*
X135051800Y-77739240D03*
X132511800Y-77739240D03*
X129971800Y-77739240D03*
X127431800Y-77739240D03*
X124891800Y-77739240D03*
X122351800Y-77739240D03*
X119811800Y-77739240D03*
X117271800Y-77739240D03*
X114731800Y-77739240D03*
X112191800Y-77739240D03*
X109651800Y-77739240D03*
X107111800Y-77739240D03*
X104571800Y-77739240D03*
X102031800Y-77739240D03*
X99491800Y-77739240D03*
X96951800Y-77739240D03*
X94411800Y-77739240D03*
X91871800Y-77739240D03*
X91871800Y-95519240D03*
X94411800Y-95519240D03*
X96951800Y-95519240D03*
X99491800Y-95519240D03*
X102031800Y-95519240D03*
X104571800Y-95519240D03*
X107111800Y-95519240D03*
X109651800Y-95519240D03*
X112191800Y-95519240D03*
X114731800Y-95519240D03*
X117271800Y-95519240D03*
X119811800Y-95519240D03*
X122351800Y-95519240D03*
X124891800Y-95519240D03*
X127431800Y-95519240D03*
X129971800Y-95519240D03*
X132511800Y-95519240D03*
X135051800Y-95519240D03*
X137591800Y-95519240D03*
X140131800Y-95519240D03*
X142671800Y-95519240D03*
X145211800Y-95519240D03*
%TD*%
D12*
%TO.C,D2*%
X78356460Y-104406700D03*
D13*
X68196460Y-104406700D03*
%TD*%
D14*
%TO.C,D1*%
X84218780Y-62720220D03*
D12*
X74058780Y-62720220D03*
%TD*%
D14*
%TO.C,D3*%
X84173060Y-66179700D03*
D12*
X74013060Y-66179700D03*
%TD*%
D15*
%TO.C,J2*%
X68232020Y-100892940D03*
D16*
X70232020Y-100892940D03*
X68232020Y-98892940D03*
X70232020Y-98892940D03*
X68232020Y-96892940D03*
X70232020Y-96892940D03*
X68232020Y-94892940D03*
X70232020Y-94892940D03*
X68232020Y-92892940D03*
X70232020Y-92892940D03*
X68232020Y-90892940D03*
X70232020Y-90892940D03*
X68232020Y-88892940D03*
X70232020Y-88892940D03*
X68232020Y-86892940D03*
X70232020Y-86892940D03*
X70232020Y-84892940D03*
X68232020Y-82892940D03*
X70232020Y-82892940D03*
X68232020Y-80892940D03*
X70232020Y-80892940D03*
X68232020Y-78892940D03*
X70232020Y-78892940D03*
X68232020Y-76892940D03*
X70232020Y-76892940D03*
X68232020Y-74892940D03*
X70232020Y-74892940D03*
X68232020Y-72892940D03*
X70232020Y-72892940D03*
X68232020Y-70892940D03*
X70232020Y-70892940D03*
X68232020Y-68892940D03*
X70232020Y-68892940D03*
X68232020Y-66892940D03*
X70232020Y-66892940D03*
X68232020Y-64892940D03*
X70232020Y-64892940D03*
X68232020Y-62892940D03*
X70232020Y-62892940D03*
X68232020Y-84892940D03*
%TD*%
D17*
%TO.C,REF\u002A\u002A*%
X83245960Y-104251760D03*
%TD*%
%TO.C,REF\u002A\u002A*%
X91737180Y-68353940D03*
%TD*%
D18*
%TO.C,R1*%
X102802594Y-69135792D03*
D19*
X102802594Y-61515792D03*
%TD*%
D18*
%TO.C,R2*%
X105261315Y-69135793D03*
D19*
X105261315Y-64055793D03*
%TD*%
D20*
%TO.C,U1*%
X125794815Y-69148493D03*
D21*
X109134815Y-66608493D03*
D22*
X109134815Y-69148493D03*
X109134815Y-71688493D03*
%TD*%
D23*
%TO.C,U2*%
X78689200Y-75402440D03*
D24*
X78689200Y-77942440D03*
X78689200Y-80482440D03*
X78689200Y-83022440D03*
X78689200Y-85562440D03*
X78689200Y-88102440D03*
X78689200Y-90642440D03*
X78689200Y-93182440D03*
X78689200Y-95722440D03*
X78689200Y-98262440D03*
X86309200Y-98262440D03*
X86309200Y-95722440D03*
X86309200Y-93182440D03*
X86309200Y-90642440D03*
X86309200Y-88102440D03*
X86309200Y-85562440D03*
X86309200Y-83022440D03*
X86309200Y-80482440D03*
X86309200Y-77942440D03*
X86309200Y-75402440D03*
%TD*%
D25*
%TO.C,F1*%
X89372440Y-63545720D03*
X94452440Y-64688720D03*
%TD*%
M02*
