M48
; DRILL file {KiCad 6.0.5-a6ca702e91~116~ubuntu21.10.1} date Wed 24 Aug 2022 05:16:14 AM MDT
; FORMAT={-:-/ absolute / inch / decimal}
; #@! TF.CreationDate,2022-08-24T05:16:14-06:00
; #@! TF.GenerationSoftware,Kicad,Pcbnew,6.0.5-a6ca702e91~116~ubuntu21.10.1
; #@! TF.FileFunction,Plated,1,2,PTH
FMAT,2
INCH
; #@! TA.AperFunction,Plated,PTH,ViaDrill
T1C0.0157
; #@! TA.AperFunction,Plated,PTH,ComponentDrill
T2C0.0276
; #@! TA.AperFunction,Plated,PTH,ComponentDrill
T3C0.0280
; #@! TA.AperFunction,Plated,PTH,ComponentDrill
T4C0.0315
; #@! TA.AperFunction,Plated,PTH,ComponentDrill
T5C0.0354
; #@! TA.AperFunction,Plated,PTH,ComponentDrill
T6C0.0433
%
G90
G05
T1
X2.6133Y-4.1991
X2.8177Y-3.1307
X2.826Y-3.2063
X2.8276Y-2.8921
X2.8563Y-3.1693
X2.8672Y-3.0909
X2.8731Y-3.8737
X2.8914Y-3.7727
X2.9004Y-3.2169
X2.9213Y-3.5457
X2.9405Y-3.8741
X2.957Y-3.4805
X2.9587Y-3.102
X2.9724Y-3.0335
X2.9787Y-3.4121
X2.9915Y-2.7755
X2.9929Y-2.9787
X3.0024Y-3.6204
X3.0114Y-2.9169
X3.0171Y-3.334
X3.0175Y-3.2321
X3.0381Y-3.7645
X3.0561Y-2.8243
X3.1347Y-2.823
X3.1606Y-3.6496
X3.1794Y-3.4409
X3.1803Y-3.3413
X3.1832Y-3.5397
X3.1836Y-3.1413
X3.1836Y-3.2421
X3.1841Y-3.5943
X3.1843Y-3.8665
X3.1941Y-3.7691
X3.2208Y-3.6949
X3.2314Y-3.0363
X3.2437Y-3.1429
X3.2539Y-3.7692
X3.2631Y-3.6757
X3.2984Y-2.7292
X3.3118Y-3.8665
X3.3138Y-3.5197
X3.3142Y-3.3264
X3.3157Y-3.4268
X3.3193Y-3.2268
X3.3205Y-3.585
X3.324Y-3.1315
X3.3464Y-2.7292
X3.4337Y-3.9803
X3.4569Y-3.2956
X3.4591Y-3.1957
X3.4614Y-3.3823
X3.4764Y-3.4425
X3.4793Y-3.7775
X3.4897Y-3.4956
X3.5035Y-3.6154
X3.5074Y-2.8437
X3.5324Y-2.9963
X3.5376Y-3.7506
X3.5716Y-3.1346
X3.6305Y-3.2224
X3.6627Y-3.1172
X3.7039Y-3.3289
X3.7695Y-2.9962
X3.7717Y-3.1165
X3.8136Y-3.2027
X3.8213Y-3.6154
X3.8313Y-2.5589
X3.8674Y-3.7069
X3.9082Y-2.4885
X3.9748Y-2.4165
X3.9991Y-3.331
X4.0099Y-3.4198
X4.0837Y-3.4345
X4.1276Y-2.4188
X4.1441Y-3.5201
X4.1665Y-3.7
X4.1758Y-3.2027
X4.2255Y-3.5406
X4.2627Y-3.2027
X4.2667Y-2.9917
X4.2676Y-3.7035
X4.3027Y-3.4162
X4.3567Y-3.4162
X4.3635Y-3.1103
X4.3669Y-3.7069
X4.3911Y-3.5421
X4.4002Y-3.2123
X4.4002Y-3.3149
X4.4675Y-3.0002
X4.5337Y-3.9418
X4.6207Y-3.6126
X4.6673Y-3.5628
X4.717Y-3.5088
X4.75Y-2.722
X4.8652Y-2.878
X4.8664Y-2.5785
X5.1335Y-3.3618
X5.135Y-3.4744
X5.5209Y-3.4744
X5.562Y-3.4313
X5.564Y-3.5179
X5.5929Y-3.3008
X5.5992Y-3.3472
X5.6012Y-3.4744
X5.6327Y-3.2539
X5.6482Y-3.3447
X5.6787Y-3.4744
X5.8096Y-4.1996
T2
X4.0473Y-2.4219
X4.0473Y-2.7219
X4.1441Y-2.5219
X4.1441Y-2.7219
T3
X3.5186Y-2.5018
X3.7186Y-2.5468
T4
X2.6863Y-2.4761
X2.6863Y-2.5548
X2.6863Y-2.6336
X2.6863Y-2.7123
X2.6863Y-2.7911
X2.6863Y-2.8698
X2.6863Y-2.9485
X2.6863Y-3.0273
X2.6863Y-3.106
X2.6863Y-3.1848
X2.6863Y-3.2635
X2.6863Y-3.3422
X2.6863Y-3.421
X2.6863Y-3.4997
X2.6863Y-3.5785
X2.6863Y-3.6572
X2.6863Y-3.7359
X2.6863Y-3.8147
X2.6863Y-3.8934
X2.6863Y-3.9722
X2.765Y-2.4761
X2.765Y-2.5548
X2.765Y-2.6336
X2.765Y-2.7123
X2.765Y-2.7911
X2.765Y-2.8698
X2.765Y-2.9485
X2.765Y-3.0273
X2.765Y-3.106
X2.765Y-3.1848
X2.765Y-3.2635
X2.765Y-3.3422
X2.765Y-3.421
X2.765Y-3.4997
X2.765Y-3.5785
X2.765Y-3.6572
X2.765Y-3.7359
X2.765Y-3.8147
X2.765Y-3.8934
X2.765Y-3.9722
X3.098Y-2.9686
X3.098Y-3.0686
X3.098Y-3.1686
X3.098Y-3.2686
X3.098Y-3.3686
X3.098Y-3.4686
X3.098Y-3.5686
X3.098Y-3.6686
X3.098Y-3.7686
X3.098Y-3.8686
X3.398Y-2.9686
X3.398Y-3.0686
X3.398Y-3.1686
X3.398Y-3.2686
X3.398Y-3.3686
X3.398Y-3.4686
X3.398Y-3.5686
X3.398Y-3.6686
X3.398Y-3.7686
X3.398Y-3.8686
T5
X2.6849Y-4.1105
X2.9139Y-2.6055
X2.9157Y-2.4693
X3.0849Y-4.1105
X3.3139Y-2.6055
X3.3157Y-2.4693
X3.617Y-3.0606
X3.617Y-3.7606
X3.717Y-3.0606
X3.717Y-3.7606
X3.817Y-3.0606
X3.817Y-3.7606
X3.917Y-3.0606
X3.917Y-3.7606
X4.017Y-3.0606
X4.017Y-3.7606
X4.117Y-3.0606
X4.117Y-3.7606
X4.217Y-3.0606
X4.217Y-3.7606
X4.317Y-3.0606
X4.317Y-3.7606
X4.417Y-3.0606
X4.417Y-3.7606
X4.517Y-3.0606
X4.517Y-3.7606
X4.617Y-3.0606
X4.617Y-3.7606
X4.717Y-3.0606
X4.717Y-3.7606
X4.817Y-3.0606
X4.817Y-3.7606
X4.917Y-3.0606
X4.917Y-3.7606
X5.017Y-3.0606
X5.017Y-3.7606
X5.117Y-3.0606
X5.117Y-3.7606
X5.217Y-3.0606
X5.217Y-3.7606
X5.317Y-3.0606
X5.317Y-3.7606
X5.417Y-3.0606
X5.417Y-3.7606
X5.517Y-3.0606
X5.517Y-3.7606
X5.617Y-3.0606
X5.617Y-3.7606
X5.717Y-3.0606
X5.717Y-3.7606
T6
X4.2966Y-2.6224
X4.2966Y-2.7224
X4.2966Y-2.8224
T0
M30
