%TF.GenerationSoftware,KiCad,Pcbnew,(6.0.2)*%
%TF.CreationDate,2022-04-15T06:18:49-06:00*%
%TF.ProjectId,XCVR_F4_SMD_V1,58435652-5f46-4345-9f53-4d445f56312e,rev?*%
%TF.SameCoordinates,Original*%
%TF.FileFunction,Legend,Bot*%
%TF.FilePolarity,Positive*%
%FSLAX46Y46*%
G04 Gerber Fmt 4.6, Leading zero omitted, Abs format (unit mm)*
G04 Created by KiCad (PCBNEW (6.0.2)) date 2022-04-15 06:18:49*
%MOMM*%
%LPD*%
G01*
G04 APERTURE LIST*
%ADD10C,0.300000*%
G04 APERTURE END LIST*
D10*
X179695714Y-147362500D02*
X179767142Y-147291071D01*
X179910000Y-147076785D01*
X179981428Y-146933928D01*
X180052857Y-146719642D01*
X180124285Y-146362500D01*
X180124285Y-146076785D01*
X180052857Y-145719642D01*
X179981428Y-145505357D01*
X179910000Y-145362500D01*
X179767142Y-145148214D01*
X179695714Y-145076785D01*
X178267142Y-146648214D02*
X178338571Y-146719642D01*
X178552857Y-146791071D01*
X178695714Y-146791071D01*
X178910000Y-146719642D01*
X179052857Y-146576785D01*
X179124285Y-146433928D01*
X179195714Y-146148214D01*
X179195714Y-145933928D01*
X179124285Y-145648214D01*
X179052857Y-145505357D01*
X178910000Y-145362500D01*
X178695714Y-145291071D01*
X178552857Y-145291071D01*
X178338571Y-145362500D01*
X178267142Y-145433928D01*
X176767142Y-146648214D02*
X176838571Y-146719642D01*
X177052857Y-146791071D01*
X177195714Y-146791071D01*
X177410000Y-146719642D01*
X177552857Y-146576785D01*
X177624285Y-146433928D01*
X177695714Y-146148214D01*
X177695714Y-145933928D01*
X177624285Y-145648214D01*
X177552857Y-145505357D01*
X177410000Y-145362500D01*
X177195714Y-145291071D01*
X177052857Y-145291071D01*
X176838571Y-145362500D01*
X176767142Y-145433928D01*
X174481428Y-146005357D02*
X174267142Y-146076785D01*
X174195714Y-146148214D01*
X174124285Y-146291071D01*
X174124285Y-146505357D01*
X174195714Y-146648214D01*
X174267142Y-146719642D01*
X174410000Y-146791071D01*
X174981428Y-146791071D01*
X174981428Y-145291071D01*
X174481428Y-145291071D01*
X174338571Y-145362500D01*
X174267142Y-145433928D01*
X174195714Y-145576785D01*
X174195714Y-145719642D01*
X174267142Y-145862500D01*
X174338571Y-145933928D01*
X174481428Y-146005357D01*
X174981428Y-146005357D01*
X173195714Y-146076785D02*
X173195714Y-146791071D01*
X173695714Y-145291071D02*
X173195714Y-146076785D01*
X172695714Y-145291071D01*
X172195714Y-146219642D02*
X171052857Y-146219642D01*
X170338571Y-146791071D02*
X170338571Y-145291071D01*
X169481428Y-146791071D01*
X169481428Y-145291071D01*
X167910000Y-146648214D02*
X167981428Y-146719642D01*
X168195714Y-146791071D01*
X168338571Y-146791071D01*
X168552857Y-146719642D01*
X168695714Y-146576785D01*
X168767142Y-146433928D01*
X168838571Y-146148214D01*
X168838571Y-145933928D01*
X168767142Y-145648214D01*
X168695714Y-145505357D01*
X168552857Y-145362500D01*
X168338571Y-145291071D01*
X168195714Y-145291071D01*
X167981428Y-145362500D01*
X167910000Y-145433928D01*
X167267142Y-146219642D02*
X166124285Y-146219642D01*
X165481428Y-146719642D02*
X165267142Y-146791071D01*
X164910000Y-146791071D01*
X164767142Y-146719642D01*
X164695714Y-146648214D01*
X164624285Y-146505357D01*
X164624285Y-146362500D01*
X164695714Y-146219642D01*
X164767142Y-146148214D01*
X164910000Y-146076785D01*
X165195714Y-146005357D01*
X165338571Y-145933928D01*
X165410000Y-145862500D01*
X165481428Y-145719642D01*
X165481428Y-145576785D01*
X165410000Y-145433928D01*
X165338571Y-145362500D01*
X165195714Y-145291071D01*
X164838571Y-145291071D01*
X164624285Y-145362500D01*
X164052857Y-146362500D02*
X163338571Y-146362500D01*
X164195714Y-146791071D02*
X163695714Y-145291071D01*
X163195714Y-146791071D01*
X160910000Y-145791071D02*
X160910000Y-146791071D01*
X161267142Y-145219642D02*
X161624285Y-146291071D01*
X160695714Y-146291071D01*
X160124285Y-146648214D02*
X160052857Y-146719642D01*
X160124285Y-146791071D01*
X160195714Y-146719642D01*
X160124285Y-146648214D01*
X160124285Y-146791071D01*
X159124285Y-145291071D02*
X158981428Y-145291071D01*
X158838571Y-145362500D01*
X158767142Y-145433928D01*
X158695714Y-145576785D01*
X158624285Y-145862500D01*
X158624285Y-146219642D01*
X158695714Y-146505357D01*
X158767142Y-146648214D01*
X158838571Y-146719642D01*
X158981428Y-146791071D01*
X159124285Y-146791071D01*
X159267142Y-146719642D01*
X159338571Y-146648214D01*
X159410000Y-146505357D01*
X159481428Y-146219642D01*
X159481428Y-145862500D01*
X159410000Y-145576785D01*
X159338571Y-145433928D01*
X159267142Y-145362500D01*
X159124285Y-145291071D01*
X158124285Y-147362500D02*
X158052857Y-147291071D01*
X157910000Y-147076785D01*
X157838571Y-146933928D01*
X157767142Y-146719642D01*
X157695714Y-146362500D01*
X157695714Y-146076785D01*
X157767142Y-145719642D01*
X157838571Y-145505357D01*
X157910000Y-145362500D01*
X158052857Y-145148214D01*
X158124285Y-145076785D01*
X180517142Y-149134642D02*
X180302857Y-149206071D01*
X179945714Y-149206071D01*
X179802857Y-149134642D01*
X179731428Y-149063214D01*
X179660000Y-148920357D01*
X179660000Y-148777500D01*
X179731428Y-148634642D01*
X179802857Y-148563214D01*
X179945714Y-148491785D01*
X180231428Y-148420357D01*
X180374285Y-148348928D01*
X180445714Y-148277500D01*
X180517142Y-148134642D01*
X180517142Y-147991785D01*
X180445714Y-147848928D01*
X180374285Y-147777500D01*
X180231428Y-147706071D01*
X179874285Y-147706071D01*
X179660000Y-147777500D01*
X179088571Y-148777500D02*
X178374285Y-148777500D01*
X179231428Y-149206071D02*
X178731428Y-147706071D01*
X178231428Y-149206071D01*
X177017142Y-149206071D02*
X177731428Y-149206071D01*
X177731428Y-147706071D01*
X176517142Y-148420357D02*
X176017142Y-148420357D01*
X175802857Y-149206071D02*
X176517142Y-149206071D01*
X176517142Y-147706071D01*
X175802857Y-147706071D01*
X174017142Y-149206071D02*
X174017142Y-147706071D01*
X173160000Y-149206071D01*
X173160000Y-147706071D01*
X172160000Y-147706071D02*
X171874285Y-147706071D01*
X171731428Y-147777500D01*
X171588571Y-147920357D01*
X171517142Y-148206071D01*
X171517142Y-148706071D01*
X171588571Y-148991785D01*
X171731428Y-149134642D01*
X171874285Y-149206071D01*
X172160000Y-149206071D01*
X172302857Y-149134642D01*
X172445714Y-148991785D01*
X172517142Y-148706071D01*
X172517142Y-148206071D01*
X172445714Y-147920357D01*
X172302857Y-147777500D01*
X172160000Y-147706071D01*
X171088571Y-147706071D02*
X170231428Y-147706071D01*
X170660000Y-149206071D02*
X170660000Y-147706071D01*
X168588571Y-149206071D02*
X168588571Y-147706071D01*
X168017142Y-147706071D01*
X167874285Y-147777500D01*
X167802857Y-147848928D01*
X167731428Y-147991785D01*
X167731428Y-148206071D01*
X167802857Y-148348928D01*
X167874285Y-148420357D01*
X168017142Y-148491785D01*
X168588571Y-148491785D01*
X167088571Y-148420357D02*
X166588571Y-148420357D01*
X166374285Y-149206071D02*
X167088571Y-149206071D01*
X167088571Y-147706071D01*
X166374285Y-147706071D01*
X164874285Y-149206071D02*
X165374285Y-148491785D01*
X165731428Y-149206071D02*
X165731428Y-147706071D01*
X165160000Y-147706071D01*
X165017142Y-147777500D01*
X164945714Y-147848928D01*
X164874285Y-147991785D01*
X164874285Y-148206071D01*
X164945714Y-148348928D01*
X165017142Y-148420357D01*
X165160000Y-148491785D01*
X165731428Y-148491785D01*
X164231428Y-149206071D02*
X164231428Y-147706071D01*
X163731428Y-148777500D01*
X163231428Y-147706071D01*
X163231428Y-149206071D01*
X162517142Y-149206071D02*
X162517142Y-147706071D01*
X162017142Y-147706071D02*
X161160000Y-147706071D01*
X161588571Y-149206071D02*
X161588571Y-147706071D01*
X160874285Y-147706071D02*
X160017142Y-147706071D01*
X160445714Y-149206071D02*
X160445714Y-147706071D01*
X159517142Y-148420357D02*
X159017142Y-148420357D01*
X158802857Y-149206071D02*
X159517142Y-149206071D01*
X159517142Y-147706071D01*
X158802857Y-147706071D01*
X158160000Y-149206071D02*
X158160000Y-147706071D01*
X157802857Y-147706071D01*
X157588571Y-147777500D01*
X157445714Y-147920357D01*
X157374285Y-148063214D01*
X157302857Y-148348928D01*
X157302857Y-148563214D01*
X157374285Y-148848928D01*
X157445714Y-148991785D01*
X157588571Y-149134642D01*
X157802857Y-149206071D01*
X158160000Y-149206071D01*
M02*
