%TF.GenerationSoftware,KiCad,Pcbnew,(6.0.2)*%
%TF.CreationDate,2022-04-05T14:05:12-06:00*%
%TF.ProjectId,F4Lite_THTV1,46344c69-7465-45f5-9448-5456312e6b69,rev?*%
%TF.SameCoordinates,Original*%
%TF.FileFunction,Legend,Bot*%
%TF.FilePolarity,Positive*%
%FSLAX46Y46*%
G04 Gerber Fmt 4.6, Leading zero omitted, Abs format (unit mm)*
G04 Created by KiCad (PCBNEW (6.0.2)) date 2022-04-05 14:05:12*
%MOMM*%
%LPD*%
G01*
G04 APERTURE LIST*
%ADD10C,0.150000*%
G04 APERTURE END LIST*
D10*
X142949053Y-108864663D02*
X142901434Y-108817044D01*
X142758577Y-108721806D01*
X142663339Y-108674187D01*
X142520481Y-108626568D01*
X142282386Y-108578949D01*
X142091910Y-108578949D01*
X141853815Y-108626568D01*
X141710958Y-108674187D01*
X141615720Y-108721806D01*
X141472862Y-108817044D01*
X141425243Y-108864663D01*
X142472862Y-109817044D02*
X142520481Y-109769425D01*
X142568100Y-109626568D01*
X142568100Y-109531330D01*
X142520481Y-109388473D01*
X142425243Y-109293235D01*
X142330005Y-109245616D01*
X142139529Y-109197997D01*
X141996672Y-109197997D01*
X141806196Y-109245616D01*
X141710958Y-109293235D01*
X141615720Y-109388473D01*
X141568100Y-109531330D01*
X141568100Y-109626568D01*
X141615720Y-109769425D01*
X141663339Y-109817044D01*
X142472862Y-110817044D02*
X142520481Y-110769425D01*
X142568100Y-110626568D01*
X142568100Y-110531330D01*
X142520481Y-110388473D01*
X142425243Y-110293235D01*
X142330005Y-110245616D01*
X142139529Y-110197997D01*
X141996672Y-110197997D01*
X141806196Y-110245616D01*
X141710958Y-110293235D01*
X141615720Y-110388473D01*
X141568100Y-110531330D01*
X141568100Y-110626568D01*
X141615720Y-110769425D01*
X141663339Y-110817044D01*
X142044291Y-112340854D02*
X142091910Y-112483711D01*
X142139529Y-112531330D01*
X142234767Y-112578949D01*
X142377624Y-112578949D01*
X142472862Y-112531330D01*
X142520481Y-112483711D01*
X142568100Y-112388473D01*
X142568100Y-112007520D01*
X141568100Y-112007520D01*
X141568100Y-112340854D01*
X141615720Y-112436092D01*
X141663339Y-112483711D01*
X141758577Y-112531330D01*
X141853815Y-112531330D01*
X141949053Y-112483711D01*
X141996672Y-112436092D01*
X142044291Y-112340854D01*
X142044291Y-112007520D01*
X142091910Y-113197997D02*
X142568100Y-113197997D01*
X141568100Y-112864663D02*
X142091910Y-113197997D01*
X141568100Y-113531330D01*
X142187148Y-113864663D02*
X142187148Y-114626568D01*
X142568100Y-115102759D02*
X141568100Y-115102759D01*
X142568100Y-115674187D01*
X141568100Y-115674187D01*
X142472862Y-116721806D02*
X142520481Y-116674187D01*
X142568100Y-116531330D01*
X142568100Y-116436092D01*
X142520481Y-116293235D01*
X142425243Y-116197997D01*
X142330005Y-116150378D01*
X142139529Y-116102759D01*
X141996672Y-116102759D01*
X141806196Y-116150378D01*
X141710958Y-116197997D01*
X141615720Y-116293235D01*
X141568100Y-116436092D01*
X141568100Y-116531330D01*
X141615720Y-116674187D01*
X141663339Y-116721806D01*
X142187148Y-117150378D02*
X142187148Y-117912282D01*
X142520481Y-118340854D02*
X142568100Y-118483711D01*
X142568100Y-118721806D01*
X142520481Y-118817044D01*
X142472862Y-118864663D01*
X142377624Y-118912282D01*
X142282386Y-118912282D01*
X142187148Y-118864663D01*
X142139529Y-118817044D01*
X142091910Y-118721806D01*
X142044291Y-118531330D01*
X141996672Y-118436092D01*
X141949053Y-118388473D01*
X141853815Y-118340854D01*
X141758577Y-118340854D01*
X141663339Y-118388473D01*
X141615720Y-118436092D01*
X141568100Y-118531330D01*
X141568100Y-118769425D01*
X141615720Y-118912282D01*
X142282386Y-119293235D02*
X142282386Y-119769425D01*
X142568100Y-119197997D02*
X141568100Y-119531330D01*
X142568100Y-119864663D01*
X141901434Y-121388473D02*
X142568100Y-121388473D01*
X141520481Y-121150378D02*
X142234767Y-120912282D01*
X142234767Y-121531330D01*
X142472862Y-121912282D02*
X142520481Y-121959901D01*
X142568100Y-121912282D01*
X142520481Y-121864663D01*
X142472862Y-121912282D01*
X142568100Y-121912282D01*
X141568100Y-122578949D02*
X141568100Y-122674187D01*
X141615720Y-122769425D01*
X141663339Y-122817044D01*
X141758577Y-122864663D01*
X141949053Y-122912282D01*
X142187148Y-122912282D01*
X142377624Y-122864663D01*
X142472862Y-122817044D01*
X142520481Y-122769425D01*
X142568100Y-122674187D01*
X142568100Y-122578949D01*
X142520481Y-122483711D01*
X142472862Y-122436092D01*
X142377624Y-122388473D01*
X142187148Y-122340854D01*
X141949053Y-122340854D01*
X141758577Y-122388473D01*
X141663339Y-122436092D01*
X141615720Y-122483711D01*
X141568100Y-122578949D01*
X142949053Y-123245616D02*
X142901434Y-123293235D01*
X142758577Y-123388473D01*
X142663339Y-123436092D01*
X142520481Y-123483711D01*
X142282386Y-123531330D01*
X142091910Y-123531330D01*
X141853815Y-123483711D01*
X141710958Y-123436092D01*
X141615720Y-123388473D01*
X141472862Y-123293235D01*
X141425243Y-123245616D01*
X144130481Y-108317044D02*
X144178100Y-108459901D01*
X144178100Y-108697997D01*
X144130481Y-108793235D01*
X144082862Y-108840854D01*
X143987624Y-108888473D01*
X143892386Y-108888473D01*
X143797148Y-108840854D01*
X143749529Y-108793235D01*
X143701910Y-108697997D01*
X143654291Y-108507520D01*
X143606672Y-108412282D01*
X143559053Y-108364663D01*
X143463815Y-108317044D01*
X143368577Y-108317044D01*
X143273339Y-108364663D01*
X143225720Y-108412282D01*
X143178100Y-108507520D01*
X143178100Y-108745616D01*
X143225720Y-108888473D01*
X143892386Y-109269425D02*
X143892386Y-109745616D01*
X144178100Y-109174187D02*
X143178100Y-109507520D01*
X144178100Y-109840854D01*
X144178100Y-110650378D02*
X144178100Y-110174187D01*
X143178100Y-110174187D01*
X143654291Y-110983711D02*
X143654291Y-111317044D01*
X144178100Y-111459901D02*
X144178100Y-110983711D01*
X143178100Y-110983711D01*
X143178100Y-111459901D01*
X144178100Y-112650378D02*
X143178100Y-112650378D01*
X144178100Y-113221806D01*
X143178100Y-113221806D01*
X143178100Y-113888473D02*
X143178100Y-114078949D01*
X143225720Y-114174187D01*
X143320958Y-114269425D01*
X143511434Y-114317044D01*
X143844767Y-114317044D01*
X144035243Y-114269425D01*
X144130481Y-114174187D01*
X144178100Y-114078949D01*
X144178100Y-113888473D01*
X144130481Y-113793235D01*
X144035243Y-113697997D01*
X143844767Y-113650378D01*
X143511434Y-113650378D01*
X143320958Y-113697997D01*
X143225720Y-113793235D01*
X143178100Y-113888473D01*
X143178100Y-114602759D02*
X143178100Y-115174187D01*
X144178100Y-114888473D02*
X143178100Y-114888473D01*
X144178100Y-116269425D02*
X143178100Y-116269425D01*
X143178100Y-116650378D01*
X143225720Y-116745616D01*
X143273339Y-116793235D01*
X143368577Y-116840854D01*
X143511434Y-116840854D01*
X143606672Y-116793235D01*
X143654291Y-116745616D01*
X143701910Y-116650378D01*
X143701910Y-116269425D01*
X143654291Y-117269425D02*
X143654291Y-117602759D01*
X144178100Y-117745616D02*
X144178100Y-117269425D01*
X143178100Y-117269425D01*
X143178100Y-117745616D01*
X144178100Y-118745616D02*
X143701910Y-118412282D01*
X144178100Y-118174187D02*
X143178100Y-118174187D01*
X143178100Y-118555140D01*
X143225720Y-118650378D01*
X143273339Y-118697997D01*
X143368577Y-118745616D01*
X143511434Y-118745616D01*
X143606672Y-118697997D01*
X143654291Y-118650378D01*
X143701910Y-118555140D01*
X143701910Y-118174187D01*
X144178100Y-119174187D02*
X143178100Y-119174187D01*
X143892386Y-119507520D01*
X143178100Y-119840854D01*
X144178100Y-119840854D01*
X144178100Y-120317044D02*
X143178100Y-120317044D01*
X143178100Y-120650378D02*
X143178100Y-121221806D01*
X144178100Y-120936092D02*
X143178100Y-120936092D01*
X143178100Y-121412282D02*
X143178100Y-121983711D01*
X144178100Y-121697997D02*
X143178100Y-121697997D01*
X143654291Y-122317044D02*
X143654291Y-122650378D01*
X144178100Y-122793235D02*
X144178100Y-122317044D01*
X143178100Y-122317044D01*
X143178100Y-122793235D01*
X144178100Y-123221806D02*
X143178100Y-123221806D01*
X143178100Y-123459901D01*
X143225720Y-123602759D01*
X143320958Y-123697997D01*
X143416196Y-123745616D01*
X143606672Y-123793235D01*
X143749529Y-123793235D01*
X143940005Y-123745616D01*
X144035243Y-123697997D01*
X144130481Y-123602759D01*
X144178100Y-123459901D01*
X144178100Y-123221806D01*
M02*
