%TF.GenerationSoftware,KiCad,Pcbnew,(6.0.2)*%
%TF.CreationDate,2022-04-05T14:05:12-06:00*%
%TF.ProjectId,F4Lite_THTV1,46344c69-7465-45f5-9448-5456312e6b69,rev?*%
%TF.SameCoordinates,Original*%
%TF.FileFunction,Soldermask,Bot*%
%TF.FilePolarity,Negative*%
%FSLAX46Y46*%
G04 Gerber Fmt 4.6, Leading zero omitted, Abs format (unit mm)*
G04 Created by KiCad (PCBNEW (6.0.2)) date 2022-04-05 14:05:12*
%MOMM*%
%LPD*%
G01*
G04 APERTURE LIST*
G04 Aperture macros list*
%AMRoundRect*
0 Rectangle with rounded corners*
0 $1 Rounding radius*
0 $2 $3 $4 $5 $6 $7 $8 $9 X,Y pos of 4 corners*
0 Add a 4 corners polygon primitive as box body*
4,1,4,$2,$3,$4,$5,$6,$7,$8,$9,$2,$3,0*
0 Add four circle primitives for the rounded corners*
1,1,$1+$1,$2,$3*
1,1,$1+$1,$4,$5*
1,1,$1+$1,$6,$7*
1,1,$1+$1,$8,$9*
0 Add four rect primitives between the rounded corners*
20,1,$1+$1,$2,$3,$4,$5,0*
20,1,$1+$1,$4,$5,$6,$7,0*
20,1,$1+$1,$6,$7,$8,$9,0*
20,1,$1+$1,$8,$9,$2,$3,0*%
%AMHorizOval*
0 Thick line with rounded ends*
0 $1 width*
0 $2 $3 position (X,Y) of the first rounded end (center of the circle)*
0 $4 $5 position (X,Y) of the second rounded end (center of the circle)*
0 Add line between two ends*
20,1,$1,$2,$3,$4,$5,0*
0 Add two circle primitives to create the rounded ends*
1,1,$1,$2,$3*
1,1,$1,$4,$5*%
%AMRotRect*
0 Rectangle, with rotation*
0 The origin of the aperture is its center*
0 $1 length*
0 $2 width*
0 $3 Rotation angle, in degrees counterclockwise*
0 Add horizontal line*
21,1,$1,$2,0,0,$3*%
G04 Aperture macros list end*
%ADD10R,1.700000X1.700000*%
%ADD11O,1.700000X1.700000*%
%ADD12C,1.524000*%
%ADD13C,3.200000*%
%ADD14C,1.270000*%
%ADD15C,1.600000*%
%ADD16O,1.600000X1.600000*%
%ADD17C,1.400000*%
%ADD18O,1.400000X1.400000*%
%ADD19R,1.600000X1.600000*%
%ADD20O,3.500000X3.500000*%
%ADD21R,2.000000X1.905000*%
%ADD22O,2.000000X1.905000*%
%ADD23RotRect,1.700000X1.700000X315.000000*%
%ADD24HorizOval,1.700000X0.000000X0.000000X0.000000X0.000000X0*%
%ADD25R,1.800000X1.800000*%
%ADD26O,1.800000X1.800000*%
%ADD27RoundRect,0.412500X0.412500X0.412500X-0.412500X0.412500X-0.412500X-0.412500X0.412500X-0.412500X0*%
%ADD28C,1.650000*%
G04 APERTURE END LIST*
D10*
%TO.C,J4*%
X110200000Y-131400000D03*
D11*
X107660000Y-131400000D03*
X110200000Y-128860000D03*
X107660000Y-128860000D03*
X110200000Y-126320000D03*
X107660000Y-126320000D03*
X110200000Y-123780000D03*
X107660000Y-123780000D03*
X110200000Y-121240000D03*
X107660000Y-121240000D03*
X110200000Y-118700000D03*
X107660000Y-118700000D03*
X110200000Y-116160000D03*
X107660000Y-116160000D03*
X110200000Y-113620000D03*
X107660000Y-113620000D03*
X110200000Y-111080000D03*
X107660000Y-111080000D03*
X110200000Y-108540000D03*
X107660000Y-108540000D03*
X110200000Y-106000000D03*
X107660000Y-106000000D03*
X110200000Y-103460000D03*
X107660000Y-103460000D03*
X110200000Y-100920000D03*
X107660000Y-100920000D03*
X110200000Y-98380000D03*
X107660000Y-98380000D03*
X110200000Y-95840000D03*
X107660000Y-95840000D03*
X110200000Y-93300000D03*
X107660000Y-93300000D03*
X110200000Y-90760000D03*
X107660000Y-90760000D03*
X110200000Y-88220000D03*
X107660000Y-88220000D03*
X110200000Y-85680000D03*
X107660000Y-85680000D03*
X110200000Y-83140000D03*
X107660000Y-83140000D03*
X110200000Y-80600000D03*
X107660000Y-80600000D03*
X110200000Y-78060000D03*
X107660000Y-78060000D03*
X110200000Y-75520000D03*
X107660000Y-75520000D03*
X110200000Y-72980000D03*
X107660000Y-72980000D03*
X110200000Y-70440000D03*
X107660000Y-70440000D03*
%TD*%
D12*
%TO.C,J2*%
X116666000Y-149794600D03*
X116666000Y-147294600D03*
X116666000Y-144794600D03*
X116666000Y-142294600D03*
%TD*%
D13*
%TO.C,REF\u002A\u002A*%
X123952000Y-146177000D03*
%TD*%
%TO.C,REF\u002A\u002A*%
X118110000Y-72834500D03*
%TD*%
D14*
%TO.C,F1*%
X158790640Y-118038880D03*
X159933640Y-112958880D03*
%TD*%
D15*
%TO.C,R1*%
X131318000Y-67691000D03*
D16*
X121158000Y-67691000D03*
%TD*%
D17*
%TO.C,R2*%
X131191000Y-71564500D03*
D18*
X126111000Y-71564500D03*
%TD*%
D19*
%TO.C,RN1*%
X118999000Y-105664000D03*
D16*
X118999000Y-108204000D03*
X118999000Y-110744000D03*
X118999000Y-113284000D03*
X118999000Y-115824000D03*
X118999000Y-118364000D03*
X118999000Y-120904000D03*
X118999000Y-123444000D03*
X118999000Y-125984000D03*
X118999000Y-128524000D03*
%TD*%
D19*
%TO.C,RN2*%
X118999000Y-101854000D03*
D16*
X118999000Y-99314000D03*
X118999000Y-96774000D03*
X118999000Y-94234000D03*
X118999000Y-91694000D03*
X118999000Y-89154000D03*
X118999000Y-86614000D03*
X118999000Y-84074000D03*
X118999000Y-81534000D03*
X118999000Y-78994000D03*
%TD*%
D20*
%TO.C,U1*%
X150708500Y-70612000D03*
D21*
X134048500Y-68072000D03*
D22*
X134048500Y-70612000D03*
X134048500Y-73152000D03*
%TD*%
D23*
%TO.C,J1*%
X131615180Y-140736320D03*
D24*
X129819129Y-142532371D03*
%TD*%
D25*
%TO.C,D1*%
X159290000Y-122120000D03*
D26*
X159290000Y-132280000D03*
%TD*%
D25*
%TO.C,D2*%
X155610000Y-122140000D03*
D26*
X155610000Y-132300000D03*
%TD*%
D10*
%TO.C,J3*%
X158452820Y-92971620D03*
D11*
X158452820Y-90431620D03*
%TD*%
D15*
%TO.C,R3*%
X158432500Y-78734920D03*
D16*
X158432500Y-86354920D03*
%TD*%
D27*
%TO.C,U2*%
X150322280Y-132189220D03*
D28*
X150322280Y-129649220D03*
X150322280Y-127109220D03*
X150322280Y-124569220D03*
X150322280Y-122029220D03*
X150322280Y-119489220D03*
X150322280Y-116949220D03*
X150322280Y-114409220D03*
X150322280Y-111869220D03*
X150322280Y-109329220D03*
X150322280Y-106789220D03*
X150322280Y-104249220D03*
X150322280Y-101709220D03*
X150322280Y-99169220D03*
X150322280Y-96629220D03*
X150322280Y-94089220D03*
X150322280Y-91549220D03*
X150322280Y-89009220D03*
X150322280Y-86469220D03*
X150322280Y-83929220D03*
X150322280Y-81389220D03*
X150322280Y-78849220D03*
X132542280Y-78849220D03*
X132542280Y-81389220D03*
X132542280Y-83929220D03*
X132542280Y-86469220D03*
X132542280Y-89009220D03*
X132542280Y-91549220D03*
X132542280Y-94089220D03*
X132542280Y-96629220D03*
X132542280Y-99169220D03*
X132542280Y-101709220D03*
X132542280Y-104249220D03*
X132542280Y-106789220D03*
X132542280Y-109329220D03*
X132542280Y-111869220D03*
X132542280Y-114409220D03*
X132542280Y-116949220D03*
X132542280Y-119489220D03*
X132542280Y-122029220D03*
X132542280Y-124569220D03*
X132542280Y-127109220D03*
X132542280Y-129649220D03*
X132542280Y-132189220D03*
%TD*%
M02*
