M48
; DRILL file {KiCad (6.0.2)} date Tue Apr  5 14:05:13 2022
; FORMAT={-:-/ absolute / inch / decimal}
; #@! TF.CreationDate,2022-04-05T14:05:13-06:00
; #@! TF.GenerationSoftware,Kicad,Pcbnew,(6.0.2)
; #@! TF.FileFunction,Plated,1,2,PTH
FMAT,2
INCH
; #@! TA.AperFunction,Plated,PTH,ViaDrill
T1C0.0157
; #@! TA.AperFunction,Plated,PTH,ComponentDrill
T2C0.0276
; #@! TA.AperFunction,Plated,PTH,ComponentDrill
T3C0.0280
; #@! TA.AperFunction,Plated,PTH,ComponentDrill
T4C0.0300
; #@! TA.AperFunction,Plated,PTH,ComponentDrill
T5C0.0315
; #@! TA.AperFunction,Plated,PTH,ComponentDrill
T6C0.0354
; #@! TA.AperFunction,Plated,PTH,ComponentDrill
T7C0.0394
; #@! TA.AperFunction,Plated,PTH,ComponentDrill
T8C0.0433
%
G90
G05
T1
X4.4027Y-5.2019
X4.4049Y-5.2592
X4.453Y-5.1253
X4.4802Y-5.1748
X4.4875Y-4.0875
X4.4989Y-5.3556
X4.5027Y-4.7745
X4.5185Y-5.0254
X4.5215Y-4.4235
X4.5365Y-5.0755
X4.5768Y-4.8309
X4.5998Y-4.0875
X4.6221Y-4.791
X4.6412Y-5.3596
X4.7512Y-4.1271
X4.7638Y-3.7132
X4.7676Y-3.8614
X4.7857Y-4.4071
X4.787Y-4.8055
X4.7897Y-4.5813
X4.7897Y-4.7069
X4.8026Y-3.1471
X4.8098Y-3.0888
X4.8104Y-2.9396
X4.83Y-4.1871
X4.8717Y-3.2331
X4.8761Y-4.66
X4.9056Y-3.186
X4.944Y-3.3171
X4.9773Y-5.0497
X4.9784Y-5.1086
X4.9911Y-3.2778
X5.0014Y-3.4308
X5.0198Y-4.1271
X5.0304Y-3.0122
X5.0477Y-3.397
X5.0644Y-5.0151
X5.0654Y-4.9573
X5.0737Y-3.9527
X5.0937Y-3.8724
X5.1044Y-4.557
X5.1044Y-4.6772
X5.1287Y-4.819
X5.1405Y-4.4326
X5.1429Y-4.7531
X5.1552Y-3.6539
X5.2995Y-3.2635
X5.3056Y-3.2169
X5.3056Y-3.3102
X5.3218Y-4.1005
X5.3299Y-4.588
X5.3421Y-4.2423
X5.4057Y-3.4918
X5.4061Y-4.6857
X5.4198Y-3.2955
X5.4432Y-3.2442
X5.4596Y-3.9547
X5.464Y-4.6851
X5.469Y-3.7885
X5.4718Y-3.2944
X5.4732Y-3.4914
X5.6068Y-4.0978
X5.7013Y-3.9357
X5.7486Y-3.2294
X5.7689Y-4.8514
X5.781Y-4.2113
X5.8207Y-2.619
X5.8215Y-2.7331
X5.831Y-3.4172
X5.8342Y-5.2045
X5.8414Y-5.1101
X5.8444Y-4.9979
X5.9247Y-2.6589
X5.9944Y-5.1032
X5.9989Y-4.9689
X6.0224Y-2.6182
X6.0279Y-2.7323
X6.0836Y-4.5911
X6.0861Y-4.7219
X6.119Y-4.1467
X6.1654Y-4.5177
X6.1776Y-4.0296
X6.1913Y-3.9748
X6.2027Y-4.3755
X6.2099Y-4.1184
X6.2597Y-3.9907
X6.2893Y-4.1612
T2
X4.965Y-2.8175
X5.165Y-2.8175
T3
X6.2516Y-4.6472
X6.2966Y-4.4472
T4
X4.5931Y-5.6021
X4.5931Y-5.7006
X4.5931Y-5.799
X4.5931Y-5.8974
T5
X4.685Y-3.11
X4.685Y-3.21
X4.685Y-3.31
X4.685Y-3.41
X4.685Y-3.51
X4.685Y-3.61
X4.685Y-3.71
X4.685Y-3.81
X4.685Y-3.91
X4.685Y-4.01
X4.685Y-4.16
X4.685Y-4.26
X4.685Y-4.36
X4.685Y-4.46
X4.685Y-4.56
X4.685Y-4.66
X4.685Y-4.76
X4.685Y-4.86
X4.685Y-4.96
X4.685Y-5.06
X4.77Y-2.665
X5.17Y-2.665
X6.2375Y-3.0998
X6.2375Y-3.3998
T6
X5.2182Y-3.1043
X5.2182Y-3.2043
X5.2182Y-3.3043
X5.2182Y-3.4043
X5.2182Y-3.5043
X5.2182Y-3.6043
X5.2182Y-3.7043
X5.2182Y-3.8043
X5.2182Y-3.9043
X5.2182Y-4.0043
X5.2182Y-4.1043
X5.2182Y-4.2043
X5.2182Y-4.3043
X5.2182Y-4.4043
X5.2182Y-4.5043
X5.2182Y-4.6043
X5.2182Y-4.7043
X5.2182Y-4.8043
X5.2182Y-4.9043
X5.2182Y-5.0043
X5.2182Y-5.1043
X5.2182Y-5.2043
X5.9182Y-3.1043
X5.9182Y-3.2043
X5.9182Y-3.3043
X5.9182Y-3.4043
X5.9182Y-3.5043
X5.9182Y-3.6043
X5.9182Y-3.7043
X5.9182Y-3.8043
X5.9182Y-3.9043
X5.9182Y-4.0043
X5.9182Y-4.1043
X5.9182Y-4.2043
X5.9182Y-4.3043
X5.9182Y-4.4043
X5.9182Y-4.5043
X5.9182Y-4.6043
X5.9182Y-4.7043
X5.9182Y-4.8043
X5.9182Y-4.9043
X5.9182Y-5.0043
X5.9182Y-5.1043
X5.9182Y-5.2043
X6.1264Y-4.8087
X6.1264Y-5.2087
X6.2713Y-4.8079
X6.2713Y-5.2079
T7
X4.2386Y-2.7732
X4.2386Y-2.8732
X4.2386Y-2.9732
X4.2386Y-3.0732
X4.2386Y-3.1732
X4.2386Y-3.2732
X4.2386Y-3.3732
X4.2386Y-3.4732
X4.2386Y-3.5732
X4.2386Y-3.6732
X4.2386Y-3.7732
X4.2386Y-3.8732
X4.2386Y-3.9732
X4.2386Y-4.0732
X4.2386Y-4.1732
X4.2386Y-4.2732
X4.2386Y-4.3732
X4.2386Y-4.4732
X4.2386Y-4.5732
X4.2386Y-4.6732
X4.2386Y-4.7732
X4.2386Y-4.8732
X4.2386Y-4.9732
X4.2386Y-5.0732
X4.2386Y-5.1732
X4.3386Y-2.7732
X4.3386Y-2.8732
X4.3386Y-2.9732
X4.3386Y-3.0732
X4.3386Y-3.1732
X4.3386Y-3.2732
X4.3386Y-3.3732
X4.3386Y-3.4732
X4.3386Y-3.5732
X4.3386Y-3.6732
X4.3386Y-3.7732
X4.3386Y-3.8732
X4.3386Y-3.9732
X4.3386Y-4.0732
X4.3386Y-4.1732
X4.3386Y-4.2732
X4.3386Y-4.3732
X4.3386Y-4.4732
X4.3386Y-4.5732
X4.3386Y-4.6732
X4.3386Y-4.7732
X4.3386Y-4.8732
X4.3386Y-4.9732
X4.3386Y-5.0732
X4.3386Y-5.1732
X5.111Y-5.6115
X5.1817Y-5.5408
X6.2383Y-3.5603
X6.2383Y-3.6603
T8
X5.2775Y-2.68
X5.2775Y-2.78
X5.2775Y-2.88
T0
M30
