%TF.GenerationSoftware,KiCad,Pcbnew,(6.0.2)*%
%TF.CreationDate,2022-04-05T14:05:12-06:00*%
%TF.ProjectId,F4Lite_THTV1,46344c69-7465-45f5-9448-5456312e6b69,rev?*%
%TF.SameCoordinates,Original*%
%TF.FileFunction,Legend,Top*%
%TF.FilePolarity,Positive*%
%FSLAX46Y46*%
G04 Gerber Fmt 4.6, Leading zero omitted, Abs format (unit mm)*
G04 Created by KiCad (PCBNEW (6.0.2)) date 2022-04-05 14:05:12*
%MOMM*%
%LPD*%
G01*
G04 APERTURE LIST*
%ADD10C,0.650000*%
%ADD11C,0.150000*%
%ADD12C,0.120000*%
G04 APERTURE END LIST*
D10*
X115237260Y-101749860D02*
G75*
G03*
X115237260Y-101749860I-317500J0D01*
G01*
X115237260Y-105496360D02*
G75*
G03*
X115237260Y-105496360I-317500J0D01*
G01*
D11*
X153692525Y-93353362D02*
X153263954Y-93353362D01*
X153263954Y-92453362D01*
X153992525Y-92881934D02*
X154292525Y-92881934D01*
X154421097Y-93353362D02*
X153992525Y-93353362D01*
X153992525Y-92453362D01*
X154421097Y-92453362D01*
X154806811Y-93353362D02*
X154806811Y-92453362D01*
X155021097Y-92453362D01*
X155149668Y-92496220D01*
X155235382Y-92581934D01*
X155278240Y-92667648D01*
X155321097Y-92839077D01*
X155321097Y-92967648D01*
X155278240Y-93139077D01*
X155235382Y-93224791D01*
X155149668Y-93310505D01*
X155021097Y-93353362D01*
X154806811Y-93353362D01*
X155706811Y-93010505D02*
X156392525Y-93010505D01*
X106205714Y-137686928D02*
X106119999Y-137644071D01*
X105948571Y-137644071D01*
X105862857Y-137686928D01*
X105777142Y-137772642D01*
X105734285Y-137858357D01*
X105734285Y-138029785D01*
X105777142Y-138115500D01*
X105862857Y-138201214D01*
X105948571Y-138244071D01*
X106119999Y-138244071D01*
X106205714Y-138201214D01*
X106034285Y-137344071D02*
X105819999Y-137386928D01*
X105605714Y-137515500D01*
X105477142Y-137729785D01*
X105434285Y-137944071D01*
X105477142Y-138158357D01*
X105605714Y-138372642D01*
X105819999Y-138501214D01*
X106034285Y-138544071D01*
X106248571Y-138501214D01*
X106462857Y-138372642D01*
X106591428Y-138158357D01*
X106634285Y-137944071D01*
X106591428Y-137729785D01*
X106462857Y-137515500D01*
X106248571Y-137386928D01*
X106034285Y-137344071D01*
X107577142Y-137472642D02*
X108091428Y-137472642D01*
X107834285Y-138372642D02*
X107834285Y-137472642D01*
X108734285Y-138329785D02*
X108648571Y-138372642D01*
X108477142Y-138372642D01*
X108391428Y-138329785D01*
X108348571Y-138244071D01*
X108348571Y-137901214D01*
X108391428Y-137815500D01*
X108477142Y-137772642D01*
X108648571Y-137772642D01*
X108734285Y-137815500D01*
X108777142Y-137901214D01*
X108777142Y-137986928D01*
X108348571Y-138072642D01*
X109548571Y-138329785D02*
X109462857Y-138372642D01*
X109291428Y-138372642D01*
X109205714Y-138329785D01*
X109162857Y-138286928D01*
X109119999Y-138201214D01*
X109119999Y-137944071D01*
X109162857Y-137858357D01*
X109205714Y-137815500D01*
X109291428Y-137772642D01*
X109462857Y-137772642D01*
X109548571Y-137815500D01*
X109934285Y-138372642D02*
X109934285Y-137472642D01*
X110319999Y-138372642D02*
X110319999Y-137901214D01*
X110277142Y-137815500D01*
X110191428Y-137772642D01*
X110062857Y-137772642D01*
X109977142Y-137815500D01*
X109934285Y-137858357D01*
X111434285Y-138372642D02*
X111434285Y-137472642D01*
X111434285Y-137815500D02*
X111519999Y-137772642D01*
X111691428Y-137772642D01*
X111777142Y-137815500D01*
X111819999Y-137858357D01*
X111862857Y-137944071D01*
X111862857Y-138201214D01*
X111819999Y-138286928D01*
X111777142Y-138329785D01*
X111691428Y-138372642D01*
X111519999Y-138372642D01*
X111434285Y-138329785D01*
X112162857Y-137772642D02*
X112377142Y-138372642D01*
X112591428Y-137772642D02*
X112377142Y-138372642D01*
X112291428Y-138586928D01*
X112248571Y-138629785D01*
X112162857Y-138672642D01*
X113577142Y-138115500D02*
X114005714Y-138115500D01*
X113491428Y-138372642D02*
X113791428Y-137472642D01*
X114091428Y-138372642D01*
X114391428Y-137772642D02*
X114391428Y-138372642D01*
X114391428Y-137858357D02*
X114434285Y-137815500D01*
X114519999Y-137772642D01*
X114648571Y-137772642D01*
X114734285Y-137815500D01*
X114777142Y-137901214D01*
X114777142Y-138372642D01*
X115591428Y-138372642D02*
X115591428Y-137472642D01*
X115591428Y-138329785D02*
X115505714Y-138372642D01*
X115334285Y-138372642D01*
X115248571Y-138329785D01*
X115205714Y-138286928D01*
X115162857Y-138201214D01*
X115162857Y-137944071D01*
X115205714Y-137858357D01*
X115248571Y-137815500D01*
X115334285Y-137772642D01*
X115505714Y-137772642D01*
X115591428Y-137815500D01*
X116019999Y-138372642D02*
X116019999Y-137772642D01*
X116019999Y-137944071D02*
X116062857Y-137858357D01*
X116105714Y-137815500D01*
X116191428Y-137772642D01*
X116277142Y-137772642D01*
X116705714Y-138372642D02*
X116619999Y-138329785D01*
X116577142Y-138286928D01*
X116534285Y-138201214D01*
X116534285Y-137944071D01*
X116577142Y-137858357D01*
X116619999Y-137815500D01*
X116705714Y-137772642D01*
X116834285Y-137772642D01*
X116919999Y-137815500D01*
X116962857Y-137858357D01*
X117005714Y-137944071D01*
X117005714Y-138201214D01*
X116962857Y-138286928D01*
X116919999Y-138329785D01*
X116834285Y-138372642D01*
X116705714Y-138372642D01*
X117777142Y-138372642D02*
X117777142Y-137472642D01*
X117777142Y-138329785D02*
X117691428Y-138372642D01*
X117519999Y-138372642D01*
X117434285Y-138329785D01*
X117391428Y-138286928D01*
X117348571Y-138201214D01*
X117348571Y-137944071D01*
X117391428Y-137858357D01*
X117434285Y-137815500D01*
X117519999Y-137772642D01*
X117691428Y-137772642D01*
X117777142Y-137815500D01*
X118591428Y-138372642D02*
X118591428Y-137901214D01*
X118548571Y-137815500D01*
X118462857Y-137772642D01*
X118291428Y-137772642D01*
X118205714Y-137815500D01*
X118591428Y-138329785D02*
X118505714Y-138372642D01*
X118291428Y-138372642D01*
X118205714Y-138329785D01*
X118162857Y-138244071D01*
X118162857Y-138158357D01*
X118205714Y-138072642D01*
X118291428Y-138029785D01*
X118505714Y-138029785D01*
X118591428Y-137986928D01*
X119062857Y-138329785D02*
X119062857Y-138372642D01*
X119019999Y-138458357D01*
X118977142Y-138501214D01*
X120562857Y-138372642D02*
X120134285Y-138372642D01*
X120134285Y-137472642D01*
X121291428Y-138372642D02*
X120862857Y-138372642D01*
X120862857Y-137472642D01*
X122105714Y-138286928D02*
X122062857Y-138329785D01*
X121934285Y-138372642D01*
X121848571Y-138372642D01*
X121720000Y-138329785D01*
X121634285Y-138244071D01*
X121591428Y-138158357D01*
X121548571Y-137986928D01*
X121548571Y-137858357D01*
X121591428Y-137686928D01*
X121634285Y-137601214D01*
X121720000Y-137515500D01*
X121848571Y-137472642D01*
X121934285Y-137472642D01*
X122062857Y-137515500D01*
X122105714Y-137558357D01*
X109934285Y-139821642D02*
X109934285Y-138921642D01*
X110234285Y-139564500D01*
X110534285Y-138921642D01*
X110534285Y-139821642D01*
X111348571Y-139821642D02*
X111348571Y-139350214D01*
X111305714Y-139264500D01*
X111220000Y-139221642D01*
X111048571Y-139221642D01*
X110962857Y-139264500D01*
X111348571Y-139778785D02*
X111262857Y-139821642D01*
X111048571Y-139821642D01*
X110962857Y-139778785D01*
X110920000Y-139693071D01*
X110920000Y-139607357D01*
X110962857Y-139521642D01*
X111048571Y-139478785D01*
X111262857Y-139478785D01*
X111348571Y-139435928D01*
X111777142Y-139821642D02*
X111777142Y-139221642D01*
X111777142Y-139393071D02*
X111820000Y-139307357D01*
X111862857Y-139264500D01*
X111948571Y-139221642D01*
X112034285Y-139221642D01*
X112720000Y-139778785D02*
X112634285Y-139821642D01*
X112462857Y-139821642D01*
X112377142Y-139778785D01*
X112334285Y-139735928D01*
X112291428Y-139650214D01*
X112291428Y-139393071D01*
X112334285Y-139307357D01*
X112377142Y-139264500D01*
X112462857Y-139221642D01*
X112634285Y-139221642D01*
X112720000Y-139264500D01*
X113105714Y-139821642D02*
X113105714Y-138921642D01*
X113491428Y-139821642D02*
X113491428Y-139350214D01*
X113448571Y-139264500D01*
X113362857Y-139221642D01*
X113234285Y-139221642D01*
X113148571Y-139264500D01*
X113105714Y-139307357D01*
X114562857Y-139007357D02*
X114605714Y-138964500D01*
X114691428Y-138921642D01*
X114905714Y-138921642D01*
X114991428Y-138964500D01*
X115034285Y-139007357D01*
X115077142Y-139093071D01*
X115077142Y-139178785D01*
X115034285Y-139307357D01*
X114520000Y-139821642D01*
X115077142Y-139821642D01*
X115634285Y-138921642D02*
X115720000Y-138921642D01*
X115805714Y-138964500D01*
X115848571Y-139007357D01*
X115891428Y-139093071D01*
X115934285Y-139264500D01*
X115934285Y-139478785D01*
X115891428Y-139650214D01*
X115848571Y-139735928D01*
X115805714Y-139778785D01*
X115720000Y-139821642D01*
X115634285Y-139821642D01*
X115548571Y-139778785D01*
X115505714Y-139735928D01*
X115462857Y-139650214D01*
X115420000Y-139478785D01*
X115420000Y-139264500D01*
X115462857Y-139093071D01*
X115505714Y-139007357D01*
X115548571Y-138964500D01*
X115634285Y-138921642D01*
X116277142Y-139007357D02*
X116320000Y-138964500D01*
X116405714Y-138921642D01*
X116620000Y-138921642D01*
X116705714Y-138964500D01*
X116748571Y-139007357D01*
X116791428Y-139093071D01*
X116791428Y-139178785D01*
X116748571Y-139307357D01*
X116234285Y-139821642D01*
X116791428Y-139821642D01*
X117134285Y-139007357D02*
X117177142Y-138964500D01*
X117262857Y-138921642D01*
X117477142Y-138921642D01*
X117562857Y-138964500D01*
X117605714Y-139007357D01*
X117648571Y-139093071D01*
X117648571Y-139178785D01*
X117605714Y-139307357D01*
X117091428Y-139821642D01*
X117648571Y-139821642D01*
X122565714Y-134142857D02*
X123375238Y-134142857D01*
X123470476Y-134190476D01*
X123518095Y-134238095D01*
X123565714Y-134333333D01*
X123565714Y-134476190D01*
X123518095Y-134571428D01*
X123184761Y-134142857D02*
X123232380Y-134238095D01*
X123232380Y-134428571D01*
X123184761Y-134523809D01*
X123137142Y-134571428D01*
X123041904Y-134619047D01*
X122756190Y-134619047D01*
X122660952Y-134571428D01*
X122613333Y-134523809D01*
X122565714Y-134428571D01*
X122565714Y-134238095D01*
X122613333Y-134142857D01*
X123232380Y-133666666D02*
X122565714Y-133666666D01*
X122232380Y-133666666D02*
X122280000Y-133714285D01*
X122327619Y-133666666D01*
X122280000Y-133619047D01*
X122232380Y-133666666D01*
X122327619Y-133666666D01*
X122565714Y-133333333D02*
X122565714Y-132952380D01*
X122232380Y-133190476D02*
X123089523Y-133190476D01*
X123184761Y-133142857D01*
X123232380Y-133047619D01*
X123232380Y-132952380D01*
X123232380Y-132619047D02*
X122232380Y-132619047D01*
X123232380Y-132190476D02*
X122708571Y-132190476D01*
X122613333Y-132238095D01*
X122565714Y-132333333D01*
X122565714Y-132476190D01*
X122613333Y-132571428D01*
X122660952Y-132619047D01*
X122565714Y-131285714D02*
X123232380Y-131285714D01*
X122565714Y-131714285D02*
X123089523Y-131714285D01*
X123184761Y-131666666D01*
X123232380Y-131571428D01*
X123232380Y-131428571D01*
X123184761Y-131333333D01*
X123137142Y-131285714D01*
X123232380Y-130809523D02*
X122232380Y-130809523D01*
X122613333Y-130809523D02*
X122565714Y-130714285D01*
X122565714Y-130523809D01*
X122613333Y-130428571D01*
X122660952Y-130380952D01*
X122756190Y-130333333D01*
X123041904Y-130333333D01*
X123137142Y-130380952D01*
X123184761Y-130428571D01*
X123232380Y-130523809D01*
X123232380Y-130714285D01*
X123184761Y-130809523D01*
X123137142Y-129904761D02*
X123184761Y-129857142D01*
X123232380Y-129904761D01*
X123184761Y-129952380D01*
X123137142Y-129904761D01*
X123232380Y-129904761D01*
X123184761Y-129000000D02*
X123232380Y-129095238D01*
X123232380Y-129285714D01*
X123184761Y-129380952D01*
X123137142Y-129428571D01*
X123041904Y-129476190D01*
X122756190Y-129476190D01*
X122660952Y-129428571D01*
X122613333Y-129380952D01*
X122565714Y-129285714D01*
X122565714Y-129095238D01*
X122613333Y-129000000D01*
X123232380Y-128428571D02*
X123184761Y-128523809D01*
X123137142Y-128571428D01*
X123041904Y-128619047D01*
X122756190Y-128619047D01*
X122660952Y-128571428D01*
X122613333Y-128523809D01*
X122565714Y-128428571D01*
X122565714Y-128285714D01*
X122613333Y-128190476D01*
X122660952Y-128142857D01*
X122756190Y-128095238D01*
X123041904Y-128095238D01*
X123137142Y-128142857D01*
X123184761Y-128190476D01*
X123232380Y-128285714D01*
X123232380Y-128428571D01*
X123232380Y-127666666D02*
X122565714Y-127666666D01*
X122660952Y-127666666D02*
X122613333Y-127619047D01*
X122565714Y-127523809D01*
X122565714Y-127380952D01*
X122613333Y-127285714D01*
X122708571Y-127238095D01*
X123232380Y-127238095D01*
X122708571Y-127238095D02*
X122613333Y-127190476D01*
X122565714Y-127095238D01*
X122565714Y-126952380D01*
X122613333Y-126857142D01*
X122708571Y-126809523D01*
X123232380Y-126809523D01*
X122184761Y-125619047D02*
X123470476Y-126476190D01*
X123232380Y-124857142D02*
X122708571Y-124857142D01*
X122613333Y-124904761D01*
X122565714Y-125000000D01*
X122565714Y-125190476D01*
X122613333Y-125285714D01*
X123184761Y-124857142D02*
X123232380Y-124952380D01*
X123232380Y-125190476D01*
X123184761Y-125285714D01*
X123089523Y-125333333D01*
X122994285Y-125333333D01*
X122899047Y-125285714D01*
X122851428Y-125190476D01*
X122851428Y-124952380D01*
X122803809Y-124857142D01*
X122565714Y-124380952D02*
X123232380Y-124380952D01*
X122660952Y-124380952D02*
X122613333Y-124333333D01*
X122565714Y-124238095D01*
X122565714Y-124095238D01*
X122613333Y-124000000D01*
X122708571Y-123952380D01*
X123232380Y-123952380D01*
X123232380Y-123047619D02*
X122232380Y-123047619D01*
X123184761Y-123047619D02*
X123232380Y-123142857D01*
X123232380Y-123333333D01*
X123184761Y-123428571D01*
X123137142Y-123476190D01*
X123041904Y-123523809D01*
X122756190Y-123523809D01*
X122660952Y-123476190D01*
X122613333Y-123428571D01*
X122565714Y-123333333D01*
X122565714Y-123142857D01*
X122613333Y-123047619D01*
X123232380Y-122571428D02*
X122565714Y-122571428D01*
X122756190Y-122571428D02*
X122660952Y-122523809D01*
X122613333Y-122476190D01*
X122565714Y-122380952D01*
X122565714Y-122285714D01*
X123232380Y-121809523D02*
X123184761Y-121904761D01*
X123137142Y-121952380D01*
X123041904Y-122000000D01*
X122756190Y-122000000D01*
X122660952Y-121952380D01*
X122613333Y-121904761D01*
X122565714Y-121809523D01*
X122565714Y-121666666D01*
X122613333Y-121571428D01*
X122660952Y-121523809D01*
X122756190Y-121476190D01*
X123041904Y-121476190D01*
X123137142Y-121523809D01*
X123184761Y-121571428D01*
X123232380Y-121666666D01*
X123232380Y-121809523D01*
X123232380Y-120619047D02*
X122232380Y-120619047D01*
X123184761Y-120619047D02*
X123232380Y-120714285D01*
X123232380Y-120904761D01*
X123184761Y-121000000D01*
X123137142Y-121047619D01*
X123041904Y-121095238D01*
X122756190Y-121095238D01*
X122660952Y-121047619D01*
X122613333Y-121000000D01*
X122565714Y-120904761D01*
X122565714Y-120714285D01*
X122613333Y-120619047D01*
X123232380Y-119714285D02*
X122708571Y-119714285D01*
X122613333Y-119761904D01*
X122565714Y-119857142D01*
X122565714Y-120047619D01*
X122613333Y-120142857D01*
X123184761Y-119714285D02*
X123232380Y-119809523D01*
X123232380Y-120047619D01*
X123184761Y-120142857D01*
X123089523Y-120190476D01*
X122994285Y-120190476D01*
X122899047Y-120142857D01*
X122851428Y-120047619D01*
X122851428Y-119809523D01*
X122803809Y-119714285D01*
X122184761Y-118523809D02*
X123470476Y-119380952D01*
X122708571Y-117857142D02*
X122708571Y-118190476D01*
X123232380Y-118190476D02*
X122232380Y-118190476D01*
X122232380Y-117714285D01*
X122565714Y-116904761D02*
X123232380Y-116904761D01*
X122184761Y-117142857D02*
X122899047Y-117380952D01*
X122899047Y-116761904D01*
X123327619Y-116619047D02*
X123327619Y-115857142D01*
X122708571Y-115285714D02*
X122756190Y-115142857D01*
X122803809Y-115095238D01*
X122899047Y-115047619D01*
X123041904Y-115047619D01*
X123137142Y-115095238D01*
X123184761Y-115142857D01*
X123232380Y-115238095D01*
X123232380Y-115619047D01*
X122232380Y-115619047D01*
X122232380Y-115285714D01*
X122280000Y-115190476D01*
X122327619Y-115142857D01*
X122422857Y-115095238D01*
X122518095Y-115095238D01*
X122613333Y-115142857D01*
X122660952Y-115190476D01*
X122708571Y-115285714D01*
X122708571Y-115619047D01*
X123232380Y-114476190D02*
X123184761Y-114571428D01*
X123089523Y-114619047D01*
X122232380Y-114619047D01*
X122565714Y-113666666D02*
X123232380Y-113666666D01*
X122565714Y-114095238D02*
X123089523Y-114095238D01*
X123184761Y-114047619D01*
X123232380Y-113952380D01*
X123232380Y-113809523D01*
X123184761Y-113714285D01*
X123137142Y-113666666D01*
X123184761Y-112809523D02*
X123232380Y-112904761D01*
X123232380Y-113095238D01*
X123184761Y-113190476D01*
X123089523Y-113238095D01*
X122708571Y-113238095D01*
X122613333Y-113190476D01*
X122565714Y-113095238D01*
X122565714Y-112904761D01*
X122613333Y-112809523D01*
X122708571Y-112761904D01*
X122803809Y-112761904D01*
X122899047Y-113238095D01*
X123184761Y-112380952D02*
X123232380Y-112238095D01*
X123232380Y-112000000D01*
X123184761Y-111904761D01*
X123137142Y-111857142D01*
X123041904Y-111809523D01*
X122946666Y-111809523D01*
X122851428Y-111857142D01*
X122803809Y-111904761D01*
X122756190Y-112000000D01*
X122708571Y-112190476D01*
X122660952Y-112285714D01*
X122613333Y-112333333D01*
X122518095Y-112380952D01*
X122422857Y-112380952D01*
X122327619Y-112333333D01*
X122280000Y-112285714D01*
X122232380Y-112190476D01*
X122232380Y-111952380D01*
X122280000Y-111809523D01*
X123137142Y-110809523D02*
X123184761Y-110857142D01*
X123232380Y-111000000D01*
X123232380Y-111095238D01*
X123184761Y-111238095D01*
X123089523Y-111333333D01*
X122994285Y-111380952D01*
X122803809Y-111428571D01*
X122660952Y-111428571D01*
X122470476Y-111380952D01*
X122375238Y-111333333D01*
X122280000Y-111238095D01*
X122232380Y-111095238D01*
X122232380Y-111000000D01*
X122280000Y-110857142D01*
X122327619Y-110809523D01*
X123184761Y-110428571D02*
X123232380Y-110285714D01*
X123232380Y-110047619D01*
X123184761Y-109952380D01*
X123137142Y-109904761D01*
X123041904Y-109857142D01*
X122946666Y-109857142D01*
X122851428Y-109904761D01*
X122803809Y-109952380D01*
X122756190Y-110047619D01*
X122708571Y-110238095D01*
X122660952Y-110333333D01*
X122613333Y-110380952D01*
X122518095Y-110428571D01*
X122422857Y-110428571D01*
X122327619Y-110380952D01*
X122280000Y-110333333D01*
X122232380Y-110238095D01*
X122232380Y-110000000D01*
X122280000Y-109857142D01*
X123232380Y-109428571D02*
X122232380Y-109428571D01*
X129564229Y-145981320D02*
X130136649Y-146553740D01*
X130237664Y-146587411D01*
X130305007Y-146587411D01*
X130406023Y-146553740D01*
X130540710Y-146419053D01*
X130574381Y-146318037D01*
X130574381Y-146250694D01*
X130540710Y-146149679D01*
X129968290Y-145577259D01*
X130944771Y-145947648D02*
X131079458Y-145880305D01*
X131247816Y-145711946D01*
X131281488Y-145610931D01*
X131281488Y-145543587D01*
X131247816Y-145442572D01*
X131180473Y-145375228D01*
X131079458Y-145341557D01*
X131012114Y-145341557D01*
X130911099Y-145375228D01*
X130742740Y-145476244D01*
X130641725Y-145509915D01*
X130574381Y-145509915D01*
X130473366Y-145476244D01*
X130406023Y-145408900D01*
X130372351Y-145307885D01*
X130372351Y-145240541D01*
X130406023Y-145139526D01*
X130574381Y-144971167D01*
X130709068Y-144903824D01*
X131315160Y-144903824D02*
X131550862Y-144668122D01*
X132022267Y-144937496D02*
X131685549Y-145274213D01*
X130978442Y-144567106D01*
X131315160Y-144230389D01*
X132224297Y-144870152D02*
X132763045Y-144331404D01*
X132055938Y-143489610D02*
X132460000Y-143085549D01*
X132965076Y-143994687D02*
X132257969Y-143287580D01*
X133402809Y-143556954D02*
X132695702Y-142849847D01*
X132965076Y-142580473D01*
X133066091Y-142546801D01*
X133133435Y-142546801D01*
X133234450Y-142580473D01*
X133335465Y-142681488D01*
X133369137Y-142782503D01*
X133369137Y-142849847D01*
X133335465Y-142950862D01*
X133066091Y-143220236D01*
X133335465Y-142210084D02*
X134210931Y-142748832D01*
X133840541Y-142109068D01*
X134480305Y-142479458D01*
X133941557Y-141603992D01*
X135322098Y-141637664D02*
X134749679Y-141536649D01*
X134918037Y-142041725D02*
X134210931Y-141334618D01*
X134480305Y-141065244D01*
X134581320Y-141031572D01*
X134648663Y-141031572D01*
X134749679Y-141065244D01*
X134850694Y-141166259D01*
X134884366Y-141267275D01*
X134884366Y-141334618D01*
X134850694Y-141435633D01*
X134581320Y-141705007D01*
X107112261Y-145294404D02*
X107112261Y-145865833D01*
X107074166Y-145980119D01*
X106997976Y-146056309D01*
X106883690Y-146094404D01*
X106807500Y-146094404D01*
X107874166Y-146094404D02*
X107493214Y-146094404D01*
X107493214Y-145294404D01*
X108597976Y-146018214D02*
X108559880Y-146056309D01*
X108445595Y-146094404D01*
X108369404Y-146094404D01*
X108255119Y-146056309D01*
X108178928Y-145980119D01*
X108140833Y-145903928D01*
X108102738Y-145751547D01*
X108102738Y-145637261D01*
X108140833Y-145484880D01*
X108178928Y-145408690D01*
X108255119Y-145332500D01*
X108369404Y-145294404D01*
X108445595Y-145294404D01*
X108559880Y-145332500D01*
X108597976Y-145370595D01*
X109169404Y-145294404D02*
X109169404Y-145865833D01*
X109131309Y-145980119D01*
X109055119Y-146056309D01*
X108940833Y-146094404D01*
X108864642Y-146094404D01*
X109931309Y-146094404D02*
X109550357Y-146094404D01*
X109550357Y-145294404D01*
X110655119Y-146018214D02*
X110617023Y-146056309D01*
X110502738Y-146094404D01*
X110426547Y-146094404D01*
X110312261Y-146056309D01*
X110236071Y-145980119D01*
X110197976Y-145903928D01*
X110159880Y-145751547D01*
X110159880Y-145637261D01*
X110197976Y-145484880D01*
X110236071Y-145408690D01*
X110312261Y-145332500D01*
X110426547Y-145294404D01*
X110502738Y-145294404D01*
X110617023Y-145332500D01*
X110655119Y-145370595D01*
X111226547Y-145294404D02*
X111226547Y-145865833D01*
X111188452Y-145980119D01*
X111112261Y-146056309D01*
X110997976Y-146094404D01*
X110921785Y-146094404D01*
X111988452Y-146094404D02*
X111607500Y-146094404D01*
X111607500Y-145294404D01*
X112712261Y-146018214D02*
X112674166Y-146056309D01*
X112559880Y-146094404D01*
X112483690Y-146094404D01*
X112369404Y-146056309D01*
X112293214Y-145980119D01*
X112255119Y-145903928D01*
X112217023Y-145751547D01*
X112217023Y-145637261D01*
X112255119Y-145484880D01*
X112293214Y-145408690D01*
X112369404Y-145332500D01*
X112483690Y-145294404D01*
X112559880Y-145294404D01*
X112674166Y-145332500D01*
X112712261Y-145370595D01*
X113283690Y-145294404D02*
X113283690Y-145865833D01*
X113245595Y-145980119D01*
X113169404Y-146056309D01*
X113055119Y-146094404D01*
X112978928Y-146094404D01*
X114045595Y-146094404D02*
X113664642Y-146094404D01*
X113664642Y-145294404D01*
X114769404Y-146018214D02*
X114731309Y-146056309D01*
X114617023Y-146094404D01*
X114540833Y-146094404D01*
X114426547Y-146056309D01*
X114350357Y-145980119D01*
X114312261Y-145903928D01*
X114274166Y-145751547D01*
X114274166Y-145637261D01*
X114312261Y-145484880D01*
X114350357Y-145408690D01*
X114426547Y-145332500D01*
X114540833Y-145294404D01*
X114617023Y-145294404D01*
X114731309Y-145332500D01*
X114769404Y-145370595D01*
X126376384Y-126106401D02*
X125576384Y-126106401D01*
X126376384Y-125763544D02*
X125957337Y-125763544D01*
X125881146Y-125801640D01*
X125843051Y-125877830D01*
X125843051Y-125992116D01*
X125881146Y-126068306D01*
X125919241Y-126106401D01*
X125843051Y-125496878D02*
X125843051Y-125192116D01*
X125576384Y-125382592D02*
X126262099Y-125382592D01*
X126338289Y-125344497D01*
X126376384Y-125268306D01*
X126376384Y-125192116D01*
X125843051Y-125039735D02*
X125843051Y-124734973D01*
X125576384Y-124925449D02*
X126262099Y-124925449D01*
X126338289Y-124887354D01*
X126376384Y-124811163D01*
X126376384Y-124734973D01*
X125843051Y-124468306D02*
X126643051Y-124468306D01*
X125881146Y-124468306D02*
X125843051Y-124392116D01*
X125843051Y-124239735D01*
X125881146Y-124163544D01*
X125919241Y-124125449D01*
X125995432Y-124087354D01*
X126224003Y-124087354D01*
X126300194Y-124125449D01*
X126338289Y-124163544D01*
X126376384Y-124239735D01*
X126376384Y-124392116D01*
X126338289Y-124468306D01*
X126338289Y-123782592D02*
X126376384Y-123706401D01*
X126376384Y-123554020D01*
X126338289Y-123477830D01*
X126262099Y-123439735D01*
X126224003Y-123439735D01*
X126147813Y-123477830D01*
X126109718Y-123554020D01*
X126109718Y-123668306D01*
X126071622Y-123744497D01*
X125995432Y-123782592D01*
X125957337Y-123782592D01*
X125881146Y-123744497D01*
X125843051Y-123668306D01*
X125843051Y-123554020D01*
X125881146Y-123477830D01*
X126300194Y-123096878D02*
X126338289Y-123058782D01*
X126376384Y-123096878D01*
X126338289Y-123134973D01*
X126300194Y-123096878D01*
X126376384Y-123096878D01*
X125881146Y-123096878D02*
X125919241Y-123058782D01*
X125957337Y-123096878D01*
X125919241Y-123134973D01*
X125881146Y-123096878D01*
X125957337Y-123096878D01*
X125538289Y-122144497D02*
X126566860Y-122830211D01*
X125538289Y-121306401D02*
X126566860Y-121992116D01*
X126376384Y-120696878D02*
X125957337Y-120696878D01*
X125881146Y-120734973D01*
X125843051Y-120811163D01*
X125843051Y-120963544D01*
X125881146Y-121039735D01*
X126338289Y-120696878D02*
X126376384Y-120773068D01*
X126376384Y-120963544D01*
X126338289Y-121039735D01*
X126262099Y-121077830D01*
X126185908Y-121077830D01*
X126109718Y-121039735D01*
X126071622Y-120963544D01*
X126071622Y-120773068D01*
X126033527Y-120696878D01*
X125843051Y-120315925D02*
X126376384Y-120315925D01*
X125919241Y-120315925D02*
X125881146Y-120277830D01*
X125843051Y-120201640D01*
X125843051Y-120087354D01*
X125881146Y-120011163D01*
X125957337Y-119973068D01*
X126376384Y-119973068D01*
X126376384Y-119249259D02*
X125576384Y-119249259D01*
X126338289Y-119249259D02*
X126376384Y-119325449D01*
X126376384Y-119477830D01*
X126338289Y-119554020D01*
X126300194Y-119592116D01*
X126224003Y-119630211D01*
X125995432Y-119630211D01*
X125919241Y-119592116D01*
X125881146Y-119554020D01*
X125843051Y-119477830D01*
X125843051Y-119325449D01*
X125881146Y-119249259D01*
X126376384Y-118868306D02*
X125843051Y-118868306D01*
X125995432Y-118868306D02*
X125919241Y-118830211D01*
X125881146Y-118792116D01*
X125843051Y-118715925D01*
X125843051Y-118639735D01*
X126376384Y-118258782D02*
X126338289Y-118334973D01*
X126300194Y-118373068D01*
X126224003Y-118411163D01*
X125995432Y-118411163D01*
X125919241Y-118373068D01*
X125881146Y-118334973D01*
X125843051Y-118258782D01*
X125843051Y-118144497D01*
X125881146Y-118068306D01*
X125919241Y-118030211D01*
X125995432Y-117992116D01*
X126224003Y-117992116D01*
X126300194Y-118030211D01*
X126338289Y-118068306D01*
X126376384Y-118144497D01*
X126376384Y-118258782D01*
X126376384Y-117306401D02*
X125576384Y-117306401D01*
X126338289Y-117306401D02*
X126376384Y-117382592D01*
X126376384Y-117534973D01*
X126338289Y-117611163D01*
X126300194Y-117649259D01*
X126224003Y-117687354D01*
X125995432Y-117687354D01*
X125919241Y-117649259D01*
X125881146Y-117611163D01*
X125843051Y-117534973D01*
X125843051Y-117382592D01*
X125881146Y-117306401D01*
X126376384Y-116582592D02*
X125957337Y-116582592D01*
X125881146Y-116620687D01*
X125843051Y-116696878D01*
X125843051Y-116849259D01*
X125881146Y-116925449D01*
X126338289Y-116582592D02*
X126376384Y-116658782D01*
X126376384Y-116849259D01*
X126338289Y-116925449D01*
X126262099Y-116963544D01*
X126185908Y-116963544D01*
X126109718Y-116925449D01*
X126071622Y-116849259D01*
X126071622Y-116658782D01*
X126033527Y-116582592D01*
X126300194Y-116201640D02*
X126338289Y-116163544D01*
X126376384Y-116201640D01*
X126338289Y-116239735D01*
X126300194Y-116201640D01*
X126376384Y-116201640D01*
X125843051Y-115896878D02*
X126376384Y-115744497D01*
X125995432Y-115592116D01*
X126376384Y-115439735D01*
X125843051Y-115287354D01*
X126376384Y-114868306D02*
X126338289Y-114944497D01*
X126300194Y-114982592D01*
X126224003Y-115020687D01*
X125995432Y-115020687D01*
X125919241Y-114982592D01*
X125881146Y-114944497D01*
X125843051Y-114868306D01*
X125843051Y-114754020D01*
X125881146Y-114677830D01*
X125919241Y-114639735D01*
X125995432Y-114601640D01*
X126224003Y-114601640D01*
X126300194Y-114639735D01*
X126338289Y-114677830D01*
X126376384Y-114754020D01*
X126376384Y-114868306D01*
X126376384Y-114258782D02*
X125843051Y-114258782D01*
X125995432Y-114258782D02*
X125919241Y-114220687D01*
X125881146Y-114182592D01*
X125843051Y-114106401D01*
X125843051Y-114030211D01*
X126376384Y-113763544D02*
X125576384Y-113763544D01*
X126071622Y-113687354D02*
X126376384Y-113458782D01*
X125843051Y-113458782D02*
X126147813Y-113763544D01*
X153692525Y-90749862D02*
X153263954Y-90749862D01*
X153263954Y-89849862D01*
X153992525Y-90278434D02*
X154292525Y-90278434D01*
X154421097Y-90749862D02*
X153992525Y-90749862D01*
X153992525Y-89849862D01*
X154421097Y-89849862D01*
X154806811Y-90749862D02*
X154806811Y-89849862D01*
X155021097Y-89849862D01*
X155149668Y-89892720D01*
X155235382Y-89978434D01*
X155278240Y-90064148D01*
X155321097Y-90235577D01*
X155321097Y-90364148D01*
X155278240Y-90535577D01*
X155235382Y-90621291D01*
X155149668Y-90707005D01*
X155021097Y-90749862D01*
X154806811Y-90749862D01*
X155706811Y-90407005D02*
X156392525Y-90407005D01*
X156049668Y-90749862D02*
X156049668Y-90064148D01*
X125328571Y-137413333D02*
X125280952Y-137413333D01*
X125185714Y-137365714D01*
X125138095Y-137270476D01*
X125138095Y-136794285D01*
X125090476Y-136699047D01*
X124995238Y-136651428D01*
X125090476Y-136603809D01*
X125138095Y-136508571D01*
X125138095Y-136032380D01*
X125185714Y-135937142D01*
X125280952Y-135889523D01*
X125328571Y-135889523D01*
X126042857Y-136508571D02*
X125709523Y-136508571D01*
X125709523Y-137032380D02*
X125709523Y-136032380D01*
X126185714Y-136032380D01*
X126995238Y-136365714D02*
X126995238Y-137032380D01*
X126757142Y-135984761D02*
X126519047Y-136699047D01*
X127138095Y-136699047D01*
X127995238Y-137032380D02*
X127519047Y-137032380D01*
X127519047Y-136032380D01*
X128328571Y-137032380D02*
X128328571Y-136365714D01*
X128328571Y-136032380D02*
X128280952Y-136080000D01*
X128328571Y-136127619D01*
X128376190Y-136080000D01*
X128328571Y-136032380D01*
X128328571Y-136127619D01*
X128661904Y-136365714D02*
X129042857Y-136365714D01*
X128804761Y-136032380D02*
X128804761Y-136889523D01*
X128852380Y-136984761D01*
X128947619Y-137032380D01*
X129042857Y-137032380D01*
X129757142Y-136984761D02*
X129661904Y-137032380D01*
X129471428Y-137032380D01*
X129376190Y-136984761D01*
X129328571Y-136889523D01*
X129328571Y-136508571D01*
X129376190Y-136413333D01*
X129471428Y-136365714D01*
X129661904Y-136365714D01*
X129757142Y-136413333D01*
X129804761Y-136508571D01*
X129804761Y-136603809D01*
X129328571Y-136699047D01*
X130233333Y-136937142D02*
X130280952Y-136984761D01*
X130233333Y-137032380D01*
X130185714Y-136984761D01*
X130233333Y-136937142D01*
X130233333Y-137032380D01*
X130566666Y-136032380D02*
X131138095Y-136032380D01*
X130852380Y-137032380D02*
X130852380Y-136032380D01*
X131471428Y-137032380D02*
X131471428Y-136032380D01*
X131471428Y-136413333D02*
X131566666Y-136365714D01*
X131757142Y-136365714D01*
X131852380Y-136413333D01*
X131900000Y-136460952D01*
X131947619Y-136556190D01*
X131947619Y-136841904D01*
X131900000Y-136937142D01*
X131852380Y-136984761D01*
X131757142Y-137032380D01*
X131566666Y-137032380D01*
X131471428Y-136984761D01*
X132328571Y-136746666D02*
X132804761Y-136746666D01*
X132233333Y-137032380D02*
X132566666Y-136032380D01*
X132900000Y-137032380D01*
X133233333Y-136937142D02*
X133280952Y-136984761D01*
X133233333Y-137032380D01*
X133185714Y-136984761D01*
X133233333Y-136937142D01*
X133233333Y-137032380D01*
X133709523Y-137032380D02*
X133709523Y-136032380D01*
X133947619Y-136032380D01*
X134090476Y-136080000D01*
X134185714Y-136175238D01*
X134233333Y-136270476D01*
X134280952Y-136460952D01*
X134280952Y-136603809D01*
X134233333Y-136794285D01*
X134185714Y-136889523D01*
X134090476Y-136984761D01*
X133947619Y-137032380D01*
X133709523Y-137032380D01*
X134709523Y-136937142D02*
X134757142Y-136984761D01*
X134709523Y-137032380D01*
X134661904Y-136984761D01*
X134709523Y-136937142D01*
X134709523Y-137032380D01*
X135042857Y-136032380D02*
X135614285Y-136032380D01*
X135328571Y-137032380D02*
X135328571Y-136032380D01*
X135947619Y-137032380D02*
X135947619Y-136032380D01*
X135947619Y-136508571D02*
X136519047Y-136508571D01*
X136519047Y-137032380D02*
X136519047Y-136032380D01*
X136852380Y-136032380D02*
X137423809Y-136032380D01*
X137138095Y-137032380D02*
X137138095Y-136032380D01*
X137614285Y-136032380D02*
X137947619Y-137032380D01*
X138280952Y-136032380D01*
X139138095Y-137032380D02*
X138566666Y-137032380D01*
X138852380Y-137032380D02*
X138852380Y-136032380D01*
X138757142Y-136175238D01*
X138661904Y-136270476D01*
X138566666Y-136318095D01*
X139471428Y-137413333D02*
X139519047Y-137413333D01*
X139614285Y-137365714D01*
X139661904Y-137270476D01*
X139661904Y-136794285D01*
X139709523Y-136699047D01*
X139804761Y-136651428D01*
X139709523Y-136603809D01*
X139661904Y-136508571D01*
X139661904Y-136032380D01*
X139614285Y-135937142D01*
X139519047Y-135889523D01*
X139471428Y-135889523D01*
X125268333Y-99750476D02*
X125220714Y-99798095D01*
X125077857Y-99893333D01*
X124982619Y-99940952D01*
X124839761Y-99988571D01*
X124601666Y-100036190D01*
X124411190Y-100036190D01*
X124173095Y-99988571D01*
X124030238Y-99940952D01*
X123935000Y-99893333D01*
X123792142Y-99798095D01*
X123744523Y-99750476D01*
X124792142Y-98798095D02*
X124839761Y-98845714D01*
X124887380Y-98988571D01*
X124887380Y-99083809D01*
X124839761Y-99226666D01*
X124744523Y-99321904D01*
X124649285Y-99369523D01*
X124458809Y-99417142D01*
X124315952Y-99417142D01*
X124125476Y-99369523D01*
X124030238Y-99321904D01*
X123935000Y-99226666D01*
X123887380Y-99083809D01*
X123887380Y-98988571D01*
X123935000Y-98845714D01*
X123982619Y-98798095D01*
X124792142Y-97798095D02*
X124839761Y-97845714D01*
X124887380Y-97988571D01*
X124887380Y-98083809D01*
X124839761Y-98226666D01*
X124744523Y-98321904D01*
X124649285Y-98369523D01*
X124458809Y-98417142D01*
X124315952Y-98417142D01*
X124125476Y-98369523D01*
X124030238Y-98321904D01*
X123935000Y-98226666D01*
X123887380Y-98083809D01*
X123887380Y-97988571D01*
X123935000Y-97845714D01*
X123982619Y-97798095D01*
X124363571Y-96274285D02*
X124411190Y-96131428D01*
X124458809Y-96083809D01*
X124554047Y-96036190D01*
X124696904Y-96036190D01*
X124792142Y-96083809D01*
X124839761Y-96131428D01*
X124887380Y-96226666D01*
X124887380Y-96607619D01*
X123887380Y-96607619D01*
X123887380Y-96274285D01*
X123935000Y-96179047D01*
X123982619Y-96131428D01*
X124077857Y-96083809D01*
X124173095Y-96083809D01*
X124268333Y-96131428D01*
X124315952Y-96179047D01*
X124363571Y-96274285D01*
X124363571Y-96607619D01*
X124411190Y-95417142D02*
X124887380Y-95417142D01*
X123887380Y-95750476D02*
X124411190Y-95417142D01*
X123887380Y-95083809D01*
X124506428Y-94750476D02*
X124506428Y-93988571D01*
X124887380Y-93512380D02*
X123887380Y-93512380D01*
X124887380Y-92940952D01*
X123887380Y-92940952D01*
X124792142Y-91893333D02*
X124839761Y-91940952D01*
X124887380Y-92083809D01*
X124887380Y-92179047D01*
X124839761Y-92321904D01*
X124744523Y-92417142D01*
X124649285Y-92464761D01*
X124458809Y-92512380D01*
X124315952Y-92512380D01*
X124125476Y-92464761D01*
X124030238Y-92417142D01*
X123935000Y-92321904D01*
X123887380Y-92179047D01*
X123887380Y-92083809D01*
X123935000Y-91940952D01*
X123982619Y-91893333D01*
X124506428Y-91464761D02*
X124506428Y-90702857D01*
X124839761Y-90274285D02*
X124887380Y-90131428D01*
X124887380Y-89893333D01*
X124839761Y-89798095D01*
X124792142Y-89750476D01*
X124696904Y-89702857D01*
X124601666Y-89702857D01*
X124506428Y-89750476D01*
X124458809Y-89798095D01*
X124411190Y-89893333D01*
X124363571Y-90083809D01*
X124315952Y-90179047D01*
X124268333Y-90226666D01*
X124173095Y-90274285D01*
X124077857Y-90274285D01*
X123982619Y-90226666D01*
X123935000Y-90179047D01*
X123887380Y-90083809D01*
X123887380Y-89845714D01*
X123935000Y-89702857D01*
X124601666Y-89321904D02*
X124601666Y-88845714D01*
X124887380Y-89417142D02*
X123887380Y-89083809D01*
X124887380Y-88750476D01*
X124220714Y-87226666D02*
X124887380Y-87226666D01*
X123839761Y-87464761D02*
X124554047Y-87702857D01*
X124554047Y-87083809D01*
X124792142Y-86702857D02*
X124839761Y-86655238D01*
X124887380Y-86702857D01*
X124839761Y-86750476D01*
X124792142Y-86702857D01*
X124887380Y-86702857D01*
X123887380Y-86036190D02*
X123887380Y-85940952D01*
X123935000Y-85845714D01*
X123982619Y-85798095D01*
X124077857Y-85750476D01*
X124268333Y-85702857D01*
X124506428Y-85702857D01*
X124696904Y-85750476D01*
X124792142Y-85798095D01*
X124839761Y-85845714D01*
X124887380Y-85940952D01*
X124887380Y-86036190D01*
X124839761Y-86131428D01*
X124792142Y-86179047D01*
X124696904Y-86226666D01*
X124506428Y-86274285D01*
X124268333Y-86274285D01*
X124077857Y-86226666D01*
X123982619Y-86179047D01*
X123935000Y-86131428D01*
X123887380Y-86036190D01*
X125268333Y-85369523D02*
X125220714Y-85321904D01*
X125077857Y-85226666D01*
X124982619Y-85179047D01*
X124839761Y-85131428D01*
X124601666Y-85083809D01*
X124411190Y-85083809D01*
X124173095Y-85131428D01*
X124030238Y-85179047D01*
X123935000Y-85226666D01*
X123792142Y-85321904D01*
X123744523Y-85369523D01*
X126449761Y-100298095D02*
X126497380Y-100155238D01*
X126497380Y-99917142D01*
X126449761Y-99821904D01*
X126402142Y-99774285D01*
X126306904Y-99726666D01*
X126211666Y-99726666D01*
X126116428Y-99774285D01*
X126068809Y-99821904D01*
X126021190Y-99917142D01*
X125973571Y-100107619D01*
X125925952Y-100202857D01*
X125878333Y-100250476D01*
X125783095Y-100298095D01*
X125687857Y-100298095D01*
X125592619Y-100250476D01*
X125545000Y-100202857D01*
X125497380Y-100107619D01*
X125497380Y-99869523D01*
X125545000Y-99726666D01*
X126211666Y-99345714D02*
X126211666Y-98869523D01*
X126497380Y-99440952D02*
X125497380Y-99107619D01*
X126497380Y-98774285D01*
X126497380Y-97964761D02*
X126497380Y-98440952D01*
X125497380Y-98440952D01*
X125973571Y-97631428D02*
X125973571Y-97298095D01*
X126497380Y-97155238D02*
X126497380Y-97631428D01*
X125497380Y-97631428D01*
X125497380Y-97155238D01*
X126497380Y-95964761D02*
X125497380Y-95964761D01*
X126497380Y-95393333D01*
X125497380Y-95393333D01*
X125497380Y-94726666D02*
X125497380Y-94536190D01*
X125545000Y-94440952D01*
X125640238Y-94345714D01*
X125830714Y-94298095D01*
X126164047Y-94298095D01*
X126354523Y-94345714D01*
X126449761Y-94440952D01*
X126497380Y-94536190D01*
X126497380Y-94726666D01*
X126449761Y-94821904D01*
X126354523Y-94917142D01*
X126164047Y-94964761D01*
X125830714Y-94964761D01*
X125640238Y-94917142D01*
X125545000Y-94821904D01*
X125497380Y-94726666D01*
X125497380Y-94012380D02*
X125497380Y-93440952D01*
X126497380Y-93726666D02*
X125497380Y-93726666D01*
X126497380Y-92345714D02*
X125497380Y-92345714D01*
X125497380Y-91964761D01*
X125545000Y-91869523D01*
X125592619Y-91821904D01*
X125687857Y-91774285D01*
X125830714Y-91774285D01*
X125925952Y-91821904D01*
X125973571Y-91869523D01*
X126021190Y-91964761D01*
X126021190Y-92345714D01*
X125973571Y-91345714D02*
X125973571Y-91012380D01*
X126497380Y-90869523D02*
X126497380Y-91345714D01*
X125497380Y-91345714D01*
X125497380Y-90869523D01*
X126497380Y-89869523D02*
X126021190Y-90202857D01*
X126497380Y-90440952D02*
X125497380Y-90440952D01*
X125497380Y-90060000D01*
X125545000Y-89964761D01*
X125592619Y-89917142D01*
X125687857Y-89869523D01*
X125830714Y-89869523D01*
X125925952Y-89917142D01*
X125973571Y-89964761D01*
X126021190Y-90060000D01*
X126021190Y-90440952D01*
X126497380Y-89440952D02*
X125497380Y-89440952D01*
X126211666Y-89107619D01*
X125497380Y-88774285D01*
X126497380Y-88774285D01*
X126497380Y-88298095D02*
X125497380Y-88298095D01*
X125497380Y-87964761D02*
X125497380Y-87393333D01*
X126497380Y-87679047D02*
X125497380Y-87679047D01*
X125497380Y-87202857D02*
X125497380Y-86631428D01*
X126497380Y-86917142D02*
X125497380Y-86917142D01*
X125973571Y-86298095D02*
X125973571Y-85964761D01*
X126497380Y-85821904D02*
X126497380Y-86298095D01*
X125497380Y-86298095D01*
X125497380Y-85821904D01*
X126497380Y-85393333D02*
X125497380Y-85393333D01*
X125497380Y-85155238D01*
X125545000Y-85012380D01*
X125640238Y-84917142D01*
X125735476Y-84869523D01*
X125925952Y-84821904D01*
X126068809Y-84821904D01*
X126259285Y-84869523D01*
X126354523Y-84917142D01*
X126449761Y-85012380D01*
X126497380Y-85155238D01*
X126497380Y-85393333D01*
%TO.C,J4*%
X112593380Y-102869761D02*
X111593380Y-102869761D01*
X112593380Y-102298333D01*
X111593380Y-102298333D01*
X112593380Y-101679285D02*
X112545761Y-101774523D01*
X112498142Y-101822142D01*
X112402904Y-101869761D01*
X112117190Y-101869761D01*
X112021952Y-101822142D01*
X111974333Y-101774523D01*
X111926714Y-101679285D01*
X111926714Y-101536428D01*
X111974333Y-101441190D01*
X112021952Y-101393571D01*
X112117190Y-101345952D01*
X112402904Y-101345952D01*
X112498142Y-101393571D01*
X112545761Y-101441190D01*
X112593380Y-101536428D01*
X112593380Y-101679285D01*
X111926714Y-101060238D02*
X111926714Y-100679285D01*
X111593380Y-100917380D02*
X112450523Y-100917380D01*
X112545761Y-100869761D01*
X112593380Y-100774523D01*
X112593380Y-100679285D01*
X112545761Y-99917380D02*
X112593380Y-100012619D01*
X112593380Y-100203095D01*
X112545761Y-100298333D01*
X112498142Y-100345952D01*
X112402904Y-100393571D01*
X112117190Y-100393571D01*
X112021952Y-100345952D01*
X111974333Y-100298333D01*
X111926714Y-100203095D01*
X111926714Y-100012619D01*
X111974333Y-99917380D01*
X112593380Y-99488809D02*
X111593380Y-99488809D01*
X112593380Y-99060238D02*
X112069571Y-99060238D01*
X111974333Y-99107857D01*
X111926714Y-99203095D01*
X111926714Y-99345952D01*
X111974333Y-99441190D01*
X112021952Y-99488809D01*
%TO.C,J2*%
X121864380Y-149550476D02*
X121388190Y-149883809D01*
X121864380Y-150121904D02*
X120864380Y-150121904D01*
X120864380Y-149740952D01*
X120912000Y-149645714D01*
X120959619Y-149598095D01*
X121054857Y-149550476D01*
X121197714Y-149550476D01*
X121292952Y-149598095D01*
X121340571Y-149645714D01*
X121388190Y-149740952D01*
X121388190Y-150121904D01*
X120340380Y-142859047D02*
X120340380Y-143430476D01*
X120340380Y-143144761D02*
X119340380Y-143144761D01*
X119483238Y-143240000D01*
X119578476Y-143335238D01*
X119626095Y-143430476D01*
X119435619Y-142478095D02*
X119388000Y-142430476D01*
X119340380Y-142335238D01*
X119340380Y-142097142D01*
X119388000Y-142001904D01*
X119435619Y-141954285D01*
X119530857Y-141906666D01*
X119626095Y-141906666D01*
X119768952Y-141954285D01*
X120340380Y-142525714D01*
X120340380Y-141906666D01*
X119340380Y-141620952D02*
X120340380Y-141287619D01*
X119340380Y-140954285D01*
X121261190Y-142240000D02*
X121737380Y-142240000D01*
X120737380Y-142573333D02*
X121261190Y-142240000D01*
X120737380Y-141906666D01*
X119340380Y-150177476D02*
X119340380Y-150653666D01*
X119816571Y-150701285D01*
X119768952Y-150653666D01*
X119721333Y-150558428D01*
X119721333Y-150320333D01*
X119768952Y-150225095D01*
X119816571Y-150177476D01*
X119911809Y-150129857D01*
X120149904Y-150129857D01*
X120245142Y-150177476D01*
X120292761Y-150225095D01*
X120340380Y-150320333D01*
X120340380Y-150558428D01*
X120292761Y-150653666D01*
X120245142Y-150701285D01*
X119340380Y-149844142D02*
X120340380Y-149510809D01*
X119340380Y-149177476D01*
X119388000Y-146811904D02*
X119340380Y-146907142D01*
X119340380Y-147050000D01*
X119388000Y-147192857D01*
X119483238Y-147288095D01*
X119578476Y-147335714D01*
X119768952Y-147383333D01*
X119911809Y-147383333D01*
X120102285Y-147335714D01*
X120197523Y-147288095D01*
X120292761Y-147192857D01*
X120340380Y-147050000D01*
X120340380Y-146954761D01*
X120292761Y-146811904D01*
X120245142Y-146764285D01*
X119911809Y-146764285D01*
X119911809Y-146954761D01*
X120340380Y-146335714D02*
X119340380Y-146335714D01*
X120340380Y-145764285D01*
X119340380Y-145764285D01*
X120340380Y-145288095D02*
X119340380Y-145288095D01*
X119340380Y-145050000D01*
X119388000Y-144907142D01*
X119483238Y-144811904D01*
X119578476Y-144764285D01*
X119768952Y-144716666D01*
X119911809Y-144716666D01*
X120102285Y-144764285D01*
X120197523Y-144811904D01*
X120292761Y-144907142D01*
X120340380Y-145050000D01*
X120340380Y-145288095D01*
%TO.C,C2*%
X127445473Y-77313142D02*
X127397854Y-77360761D01*
X127254997Y-77408380D01*
X127159759Y-77408380D01*
X127016901Y-77360761D01*
X126921663Y-77265523D01*
X126874044Y-77170285D01*
X126826425Y-76979809D01*
X126826425Y-76836952D01*
X126874044Y-76646476D01*
X126921663Y-76551238D01*
X127016901Y-76456000D01*
X127159759Y-76408380D01*
X127254997Y-76408380D01*
X127397854Y-76456000D01*
X127445473Y-76503619D01*
X127826425Y-76503619D02*
X127874044Y-76456000D01*
X127969282Y-76408380D01*
X128207378Y-76408380D01*
X128302616Y-76456000D01*
X128350235Y-76503619D01*
X128397854Y-76598857D01*
X128397854Y-76694095D01*
X128350235Y-76836952D01*
X127778806Y-77408380D01*
X128397854Y-77408380D01*
%TO.C,C3*%
X125319142Y-103508166D02*
X125366761Y-103555785D01*
X125414380Y-103698642D01*
X125414380Y-103793880D01*
X125366761Y-103936738D01*
X125271523Y-104031976D01*
X125176285Y-104079595D01*
X124985809Y-104127214D01*
X124842952Y-104127214D01*
X124652476Y-104079595D01*
X124557238Y-104031976D01*
X124462000Y-103936738D01*
X124414380Y-103793880D01*
X124414380Y-103698642D01*
X124462000Y-103555785D01*
X124509619Y-103508166D01*
X124414380Y-103174833D02*
X124414380Y-102555785D01*
X124795333Y-102889119D01*
X124795333Y-102746261D01*
X124842952Y-102651023D01*
X124890571Y-102603404D01*
X124985809Y-102555785D01*
X125223904Y-102555785D01*
X125319142Y-102603404D01*
X125366761Y-102651023D01*
X125414380Y-102746261D01*
X125414380Y-103031976D01*
X125366761Y-103127214D01*
X125319142Y-103174833D01*
%TO.C,J5*%
X159148100Y-103908853D02*
X159862386Y-103908853D01*
X160005243Y-103956472D01*
X160100481Y-104051710D01*
X160148100Y-104194567D01*
X160148100Y-104289805D01*
X159148100Y-102956472D02*
X159148100Y-103432662D01*
X159624291Y-103480281D01*
X159576672Y-103432662D01*
X159529053Y-103337424D01*
X159529053Y-103099329D01*
X159576672Y-103004091D01*
X159624291Y-102956472D01*
X159719529Y-102908853D01*
X159957624Y-102908853D01*
X160052862Y-102956472D01*
X160100481Y-103004091D01*
X160148100Y-103099329D01*
X160148100Y-103337424D01*
X160100481Y-103432662D01*
X160052862Y-103480281D01*
%TO.C,F1*%
X159503001Y-115716883D02*
X159503001Y-116050216D01*
X160026810Y-116050216D02*
X159026810Y-116050216D01*
X159026810Y-115574026D01*
X160026810Y-114669264D02*
X160026810Y-115240692D01*
X160026810Y-114954978D02*
X159026810Y-114954978D01*
X159169668Y-115050216D01*
X159264906Y-115145454D01*
X159312525Y-115240692D01*
%TO.C,C1*%
X123201133Y-76303142D02*
X123153514Y-76350761D01*
X123010657Y-76398380D01*
X122915419Y-76398380D01*
X122772561Y-76350761D01*
X122677323Y-76255523D01*
X122629704Y-76160285D01*
X122582085Y-75969809D01*
X122582085Y-75826952D01*
X122629704Y-75636476D01*
X122677323Y-75541238D01*
X122772561Y-75446000D01*
X122915419Y-75398380D01*
X123010657Y-75398380D01*
X123153514Y-75446000D01*
X123201133Y-75493619D01*
X124153514Y-76398380D02*
X123582085Y-76398380D01*
X123867800Y-76398380D02*
X123867800Y-75398380D01*
X123772561Y-75541238D01*
X123677323Y-75636476D01*
X123582085Y-75684095D01*
%TO.C,R1*%
X126071333Y-68143380D02*
X125738000Y-67667190D01*
X125499904Y-68143380D02*
X125499904Y-67143380D01*
X125880857Y-67143380D01*
X125976095Y-67191000D01*
X126023714Y-67238619D01*
X126071333Y-67333857D01*
X126071333Y-67476714D01*
X126023714Y-67571952D01*
X125976095Y-67619571D01*
X125880857Y-67667190D01*
X125499904Y-67667190D01*
X127023714Y-68143380D02*
X126452285Y-68143380D01*
X126738000Y-68143380D02*
X126738000Y-67143380D01*
X126642761Y-67286238D01*
X126547523Y-67381476D01*
X126452285Y-67429095D01*
%TO.C,R2*%
X128420833Y-71381880D02*
X128087500Y-70905690D01*
X127849404Y-71381880D02*
X127849404Y-70381880D01*
X128230357Y-70381880D01*
X128325595Y-70429500D01*
X128373214Y-70477119D01*
X128420833Y-70572357D01*
X128420833Y-70715214D01*
X128373214Y-70810452D01*
X128325595Y-70858071D01*
X128230357Y-70905690D01*
X127849404Y-70905690D01*
X128801785Y-70477119D02*
X128849404Y-70429500D01*
X128944642Y-70381880D01*
X129182738Y-70381880D01*
X129277976Y-70429500D01*
X129325595Y-70477119D01*
X129373214Y-70572357D01*
X129373214Y-70667595D01*
X129325595Y-70810452D01*
X128754166Y-71381880D01*
X129373214Y-71381880D01*
%TO.C,RN1*%
X117228880Y-118990976D02*
X116752690Y-119324309D01*
X117228880Y-119562404D02*
X116228880Y-119562404D01*
X116228880Y-119181452D01*
X116276500Y-119086214D01*
X116324119Y-119038595D01*
X116419357Y-118990976D01*
X116562214Y-118990976D01*
X116657452Y-119038595D01*
X116705071Y-119086214D01*
X116752690Y-119181452D01*
X116752690Y-119562404D01*
X117228880Y-118562404D02*
X116228880Y-118562404D01*
X117228880Y-117990976D01*
X116228880Y-117990976D01*
X117228880Y-116990976D02*
X117228880Y-117562404D01*
X117228880Y-117276690D02*
X116228880Y-117276690D01*
X116371738Y-117371928D01*
X116466976Y-117467166D01*
X116514595Y-117562404D01*
%TO.C,RN2*%
X117051380Y-89844476D02*
X116575190Y-90177809D01*
X117051380Y-90415904D02*
X116051380Y-90415904D01*
X116051380Y-90034952D01*
X116099000Y-89939714D01*
X116146619Y-89892095D01*
X116241857Y-89844476D01*
X116384714Y-89844476D01*
X116479952Y-89892095D01*
X116527571Y-89939714D01*
X116575190Y-90034952D01*
X116575190Y-90415904D01*
X117051380Y-89415904D02*
X116051380Y-89415904D01*
X117051380Y-88844476D01*
X116051380Y-88844476D01*
X116146619Y-88415904D02*
X116099000Y-88368285D01*
X116051380Y-88273047D01*
X116051380Y-88034952D01*
X116099000Y-87939714D01*
X116146619Y-87892095D01*
X116241857Y-87844476D01*
X116337095Y-87844476D01*
X116479952Y-87892095D01*
X117051380Y-88463523D01*
X117051380Y-87844476D01*
%TO.C,D1*%
X159742380Y-128338095D02*
X158742380Y-128338095D01*
X158742380Y-128100000D01*
X158790000Y-127957142D01*
X158885238Y-127861904D01*
X158980476Y-127814285D01*
X159170952Y-127766666D01*
X159313809Y-127766666D01*
X159504285Y-127814285D01*
X159599523Y-127861904D01*
X159694761Y-127957142D01*
X159742380Y-128100000D01*
X159742380Y-128338095D01*
X159742380Y-126814285D02*
X159742380Y-127385714D01*
X159742380Y-127100000D02*
X158742380Y-127100000D01*
X158885238Y-127195238D01*
X158980476Y-127290476D01*
X159028095Y-127385714D01*
%TO.C,D2*%
X155992380Y-128358095D02*
X154992380Y-128358095D01*
X154992380Y-128120000D01*
X155040000Y-127977142D01*
X155135238Y-127881904D01*
X155230476Y-127834285D01*
X155420952Y-127786666D01*
X155563809Y-127786666D01*
X155754285Y-127834285D01*
X155849523Y-127881904D01*
X155944761Y-127977142D01*
X155992380Y-128120000D01*
X155992380Y-128358095D01*
X155087619Y-127405714D02*
X155040000Y-127358095D01*
X154992380Y-127262857D01*
X154992380Y-127024761D01*
X155040000Y-126929523D01*
X155087619Y-126881904D01*
X155182857Y-126834285D01*
X155278095Y-126834285D01*
X155420952Y-126881904D01*
X155992380Y-127453333D01*
X155992380Y-126834285D01*
%TO.C,C4*%
X157170742Y-113429406D02*
X157218361Y-113477025D01*
X157265980Y-113619882D01*
X157265980Y-113715120D01*
X157218361Y-113857978D01*
X157123123Y-113953216D01*
X157027885Y-114000835D01*
X156837409Y-114048454D01*
X156694552Y-114048454D01*
X156504076Y-114000835D01*
X156408838Y-113953216D01*
X156313600Y-113857978D01*
X156265980Y-113715120D01*
X156265980Y-113619882D01*
X156313600Y-113477025D01*
X156361219Y-113429406D01*
X156599314Y-112572263D02*
X157265980Y-112572263D01*
X156218361Y-112810359D02*
X156932647Y-113048454D01*
X156932647Y-112429406D01*
%TO.C,J3*%
X158119486Y-94754000D02*
X158119486Y-95468286D01*
X158071867Y-95611143D01*
X157976629Y-95706381D01*
X157833772Y-95754000D01*
X157738534Y-95754000D01*
X158500439Y-94754000D02*
X159119486Y-94754000D01*
X158786153Y-95134953D01*
X158929010Y-95134953D01*
X159024248Y-95182572D01*
X159071867Y-95230191D01*
X159119486Y-95325429D01*
X159119486Y-95563524D01*
X159071867Y-95658762D01*
X159024248Y-95706381D01*
X158929010Y-95754000D01*
X158643296Y-95754000D01*
X158548058Y-95706381D01*
X158500439Y-95658762D01*
%TO.C,R3*%
X161254880Y-82711586D02*
X160778690Y-83044920D01*
X161254880Y-83283015D02*
X160254880Y-83283015D01*
X160254880Y-82902062D01*
X160302500Y-82806824D01*
X160350119Y-82759205D01*
X160445357Y-82711586D01*
X160588214Y-82711586D01*
X160683452Y-82759205D01*
X160731071Y-82806824D01*
X160778690Y-82902062D01*
X160778690Y-83283015D01*
X160254880Y-82378253D02*
X160254880Y-81759205D01*
X160635833Y-82092539D01*
X160635833Y-81949681D01*
X160683452Y-81854443D01*
X160731071Y-81806824D01*
X160826309Y-81759205D01*
X161064404Y-81759205D01*
X161159642Y-81806824D01*
X161207261Y-81854443D01*
X161254880Y-81949681D01*
X161254880Y-82235396D01*
X161207261Y-82330634D01*
X161159642Y-82378253D01*
%TO.C,U2*%
X139865575Y-131641600D02*
X139865575Y-132451124D01*
X139913194Y-132546362D01*
X139960813Y-132593981D01*
X140056051Y-132641600D01*
X140246527Y-132641600D01*
X140341765Y-132593981D01*
X140389384Y-132546362D01*
X140437003Y-132451124D01*
X140437003Y-131641600D01*
X140865575Y-132593981D02*
X141008432Y-132641600D01*
X141246527Y-132641600D01*
X141341765Y-132593981D01*
X141389384Y-132546362D01*
X141437003Y-132451124D01*
X141437003Y-132355886D01*
X141389384Y-132260648D01*
X141341765Y-132213029D01*
X141246527Y-132165410D01*
X141056051Y-132117791D01*
X140960813Y-132070172D01*
X140913194Y-132022553D01*
X140865575Y-131927315D01*
X140865575Y-131832077D01*
X140913194Y-131736839D01*
X140960813Y-131689220D01*
X141056051Y-131641600D01*
X141294146Y-131641600D01*
X141437003Y-131689220D01*
X142198908Y-132117791D02*
X142341765Y-132165410D01*
X142389384Y-132213029D01*
X142437003Y-132308267D01*
X142437003Y-132451124D01*
X142389384Y-132546362D01*
X142341765Y-132593981D01*
X142246527Y-132641600D01*
X141865575Y-132641600D01*
X141865575Y-131641600D01*
X142198908Y-131641600D01*
X142294146Y-131689220D01*
X142341765Y-131736839D01*
X142389384Y-131832077D01*
X142389384Y-131927315D01*
X142341765Y-132022553D01*
X142294146Y-132070172D01*
X142198908Y-132117791D01*
X141865575Y-132117791D01*
D12*
%TO.C,J4*%
X108930000Y-130130000D02*
X108930000Y-132730000D01*
X111470000Y-102190000D02*
X108930000Y-102190000D01*
X111530000Y-131400000D02*
X111530000Y-132730000D01*
X105120000Y-65360000D02*
X112740000Y-65360000D01*
X108930000Y-102190000D02*
X108930000Y-99650000D01*
X111530000Y-130130000D02*
X111530000Y-69110000D01*
X108930000Y-132730000D02*
X106330000Y-132730000D01*
X111530000Y-132730000D02*
X110200000Y-132730000D01*
X106330000Y-132730000D02*
X106330000Y-69110000D01*
X105120000Y-136480000D02*
X112740000Y-136480000D01*
X112740000Y-65360000D02*
X112740000Y-136480000D01*
X111530000Y-69110000D02*
X106330000Y-69110000D01*
X108930000Y-99650000D02*
X111470000Y-99650000D01*
X105120000Y-136480000D02*
X105120000Y-65360000D01*
X111530000Y-130130000D02*
X108930000Y-130130000D01*
%TO.C,J2*%
X118491000Y-151257000D02*
X113411000Y-151257000D01*
X118999000Y-151130000D02*
X118999000Y-140970000D01*
X118491000Y-140843000D02*
X113411000Y-140843000D01*
%TO.C,C2*%
X129861064Y-76036000D02*
X128656936Y-76036000D01*
X129861064Y-73316000D02*
X128656936Y-73316000D01*
%TO.C,C3*%
X121322000Y-102739436D02*
X121322000Y-103943564D01*
X124042000Y-102739436D02*
X124042000Y-103943564D01*
%TO.C,F1*%
X157540640Y-111188880D02*
X161640640Y-111188880D01*
X157540640Y-119788880D02*
X157540640Y-111188880D01*
X157540640Y-119788880D02*
X161640640Y-119788880D01*
X161640640Y-119788880D02*
X161640640Y-111188880D01*
%TO.C,REF\u002A\u002A*%
X124414280Y-113474500D02*
X124922280Y-113982500D01*
X125938280Y-111950500D02*
X126446280Y-112458500D01*
X125176280Y-112712500D02*
X125176280Y-112458500D01*
X124160280Y-113220500D02*
X123652280Y-112712500D01*
X124668280Y-112966500D02*
X124160280Y-112458500D01*
X125430280Y-112204500D02*
X124922280Y-111696500D01*
X124922280Y-112458500D02*
X124922280Y-111696500D01*
X124160280Y-112458500D02*
X124922280Y-112458500D01*
X125684280Y-111696500D02*
X125176280Y-111188500D01*
X124160280Y-113474500D02*
X123906280Y-113474500D01*
X125430280Y-111950500D02*
X125938280Y-111950500D01*
X125938280Y-111696500D02*
X125938280Y-111442500D01*
X125430280Y-112204500D02*
X125430280Y-112966500D01*
X124668280Y-111950500D02*
X124414280Y-112204500D01*
X124414280Y-112966500D02*
X124414280Y-113474500D01*
X125430280Y-112966500D02*
X124668280Y-112966500D01*
X124922280Y-112712500D02*
X125176280Y-112712500D01*
%TO.C,C1*%
X122020500Y-71379936D02*
X122020500Y-72584064D01*
X124740500Y-71379936D02*
X124740500Y-72584064D01*
%TO.C,R1*%
X129508000Y-69061000D02*
X129508000Y-66321000D01*
X122968000Y-66321000D02*
X122968000Y-69061000D01*
X122198000Y-67691000D02*
X122968000Y-67691000D01*
X130278000Y-67691000D02*
X129508000Y-67691000D01*
X122968000Y-69061000D02*
X129508000Y-69061000D01*
X129508000Y-66321000D02*
X122968000Y-66321000D01*
%TO.C,R2*%
X130271000Y-71564500D02*
X127111000Y-71564500D01*
X132111000Y-71564500D02*
G75*
G03*
X132111000Y-71564500I-920000J0D01*
G01*
%TO.C,RN1*%
X117599000Y-129964000D02*
X120399000Y-129964000D01*
X120399000Y-104224000D02*
X117599000Y-104224000D01*
X117599000Y-104224000D02*
X117599000Y-129964000D01*
X120399000Y-129964000D02*
X120399000Y-104224000D01*
X120399000Y-106934000D02*
X117599000Y-106934000D01*
%TO.C,RN2*%
X120399000Y-103294000D02*
X120399000Y-77554000D01*
X120399000Y-77554000D02*
X117599000Y-77554000D01*
X117599000Y-103294000D02*
X120399000Y-103294000D01*
X117599000Y-77554000D02*
X117599000Y-103294000D01*
X117599000Y-100584000D02*
X120399000Y-100584000D01*
%TO.C,U1*%
X137738500Y-68072000D02*
X135198500Y-68072000D01*
X153628500Y-65492000D02*
X153628500Y-75732000D01*
X137738500Y-73152000D02*
X135198500Y-73152000D01*
X137738500Y-70612000D02*
X135198500Y-70612000D01*
X153628500Y-75732000D02*
X137738500Y-75732000D01*
X153628500Y-65492000D02*
X137738500Y-65492000D01*
X137738500Y-65492000D02*
X137738500Y-75732000D01*
%TO.C,J1*%
X131657606Y-142574798D02*
X129819129Y-144413275D01*
X127938225Y-142532371D02*
X129819129Y-144413275D01*
X130674728Y-139795868D02*
X131615180Y-138855416D01*
X129776702Y-140693894D02*
X127938225Y-142532371D01*
X131615180Y-138855416D02*
X132555632Y-139795868D01*
X129776702Y-140693894D02*
X131657606Y-142574798D01*
%TO.C,D1*%
X160760000Y-124480000D02*
X157820000Y-124480000D01*
X157820000Y-124480000D02*
X157820000Y-129920000D01*
X160760000Y-125380000D02*
X157820000Y-125380000D01*
X160760000Y-125500000D02*
X157820000Y-125500000D01*
X159290000Y-131140000D02*
X159290000Y-129920000D01*
X160760000Y-125260000D02*
X157820000Y-125260000D01*
X160760000Y-129920000D02*
X160760000Y-124480000D01*
X157820000Y-129920000D02*
X160760000Y-129920000D01*
X159290000Y-123260000D02*
X159290000Y-124480000D01*
%TO.C,D2*%
X157080000Y-125280000D02*
X154140000Y-125280000D01*
X154140000Y-129940000D02*
X157080000Y-129940000D01*
X157080000Y-124500000D02*
X154140000Y-124500000D01*
X155610000Y-131160000D02*
X155610000Y-129940000D01*
X157080000Y-129940000D02*
X157080000Y-124500000D01*
X155610000Y-123280000D02*
X155610000Y-124500000D01*
X157080000Y-125520000D02*
X154140000Y-125520000D01*
X157080000Y-125400000D02*
X154140000Y-125400000D01*
X154140000Y-124500000D02*
X154140000Y-129940000D01*
%TO.C,C4*%
X155893600Y-112660676D02*
X155893600Y-113864804D01*
X153173600Y-112660676D02*
X153173600Y-113864804D01*
%TO.C,J3*%
X159782820Y-94301620D02*
X158452820Y-94301620D01*
X157122820Y-91701620D02*
X157122820Y-89101620D01*
X159782820Y-89101620D02*
X157122820Y-89101620D01*
X159782820Y-91701620D02*
X159782820Y-89101620D01*
X159782820Y-92971620D02*
X159782820Y-94301620D01*
X159782820Y-91701620D02*
X157122820Y-91701620D01*
%TO.C,R3*%
X159802500Y-79274920D02*
X159802500Y-85814920D01*
X157392500Y-79274920D02*
X157062500Y-79274920D01*
X159802500Y-85814920D02*
X159472500Y-85814920D01*
X159472500Y-79274920D02*
X159802500Y-79274920D01*
X157062500Y-79274920D02*
X157062500Y-85814920D01*
X157062500Y-85814920D02*
X157392500Y-85814920D01*
%TO.C,U2*%
X138892280Y-130411220D02*
X138892280Y-133713220D01*
X143210280Y-133713220D02*
X143210280Y-130411220D01*
X143210280Y-130411220D02*
X138892280Y-130411220D01*
X151822280Y-132189220D02*
G75*
G03*
X151822280Y-132189220I-1500000J0D01*
G01*
%TD*%
M02*
