%TF.GenerationSoftware,KiCad,Pcbnew,6.0.5-a6ca702e91~116~ubuntu21.10.1*%
%TF.CreationDate,2022-08-24T06:01:09-06:00*%
%TF.ProjectId,DB25m_F4Lite_THTV1_1,44423235-6d5f-4463-944c-6974655f5448,rev?*%
%TF.SameCoordinates,Original*%
%TF.FileFunction,Legend,Bot*%
%TF.FilePolarity,Positive*%
%FSLAX46Y46*%
G04 Gerber Fmt 4.6, Leading zero omitted, Abs format (unit mm)*
G04 Created by KiCad (PCBNEW 6.0.5-a6ca702e91~116~ubuntu21.10.1) date 2022-08-24 06:01:09*
%MOMM*%
%LPD*%
G01*
G04 APERTURE LIST*
%ADD10C,0.150000*%
%ADD11C,0.120000*%
G04 APERTURE END LIST*
D10*
X129920476Y-62998333D02*
X129968095Y-62950714D01*
X130063333Y-62807857D01*
X130110952Y-62712619D01*
X130158571Y-62569761D01*
X130206190Y-62331666D01*
X130206190Y-62141190D01*
X130158571Y-61903095D01*
X130110952Y-61760238D01*
X130063333Y-61665000D01*
X129968095Y-61522142D01*
X129920476Y-61474523D01*
X128968095Y-62522142D02*
X129015714Y-62569761D01*
X129158571Y-62617380D01*
X129253809Y-62617380D01*
X129396666Y-62569761D01*
X129491904Y-62474523D01*
X129539523Y-62379285D01*
X129587142Y-62188809D01*
X129587142Y-62045952D01*
X129539523Y-61855476D01*
X129491904Y-61760238D01*
X129396666Y-61665000D01*
X129253809Y-61617380D01*
X129158571Y-61617380D01*
X129015714Y-61665000D01*
X128968095Y-61712619D01*
X127968095Y-62522142D02*
X128015714Y-62569761D01*
X128158571Y-62617380D01*
X128253809Y-62617380D01*
X128396666Y-62569761D01*
X128491904Y-62474523D01*
X128539523Y-62379285D01*
X128587142Y-62188809D01*
X128587142Y-62045952D01*
X128539523Y-61855476D01*
X128491904Y-61760238D01*
X128396666Y-61665000D01*
X128253809Y-61617380D01*
X128158571Y-61617380D01*
X128015714Y-61665000D01*
X127968095Y-61712619D01*
X126444285Y-62093571D02*
X126301428Y-62141190D01*
X126253809Y-62188809D01*
X126206190Y-62284047D01*
X126206190Y-62426904D01*
X126253809Y-62522142D01*
X126301428Y-62569761D01*
X126396666Y-62617380D01*
X126777619Y-62617380D01*
X126777619Y-61617380D01*
X126444285Y-61617380D01*
X126349047Y-61665000D01*
X126301428Y-61712619D01*
X126253809Y-61807857D01*
X126253809Y-61903095D01*
X126301428Y-61998333D01*
X126349047Y-62045952D01*
X126444285Y-62093571D01*
X126777619Y-62093571D01*
X125587142Y-62141190D02*
X125587142Y-62617380D01*
X125920476Y-61617380D02*
X125587142Y-62141190D01*
X125253809Y-61617380D01*
X124920476Y-62236428D02*
X124158571Y-62236428D01*
X123682380Y-62617380D02*
X123682380Y-61617380D01*
X123110952Y-62617380D01*
X123110952Y-61617380D01*
X122063333Y-62522142D02*
X122110952Y-62569761D01*
X122253809Y-62617380D01*
X122349047Y-62617380D01*
X122491904Y-62569761D01*
X122587142Y-62474523D01*
X122634761Y-62379285D01*
X122682380Y-62188809D01*
X122682380Y-62045952D01*
X122634761Y-61855476D01*
X122587142Y-61760238D01*
X122491904Y-61665000D01*
X122349047Y-61617380D01*
X122253809Y-61617380D01*
X122110952Y-61665000D01*
X122063333Y-61712619D01*
X121634761Y-62236428D02*
X120872857Y-62236428D01*
X120444285Y-62569761D02*
X120301428Y-62617380D01*
X120063333Y-62617380D01*
X119968095Y-62569761D01*
X119920476Y-62522142D01*
X119872857Y-62426904D01*
X119872857Y-62331666D01*
X119920476Y-62236428D01*
X119968095Y-62188809D01*
X120063333Y-62141190D01*
X120253809Y-62093571D01*
X120349047Y-62045952D01*
X120396666Y-61998333D01*
X120444285Y-61903095D01*
X120444285Y-61807857D01*
X120396666Y-61712619D01*
X120349047Y-61665000D01*
X120253809Y-61617380D01*
X120015714Y-61617380D01*
X119872857Y-61665000D01*
X119491904Y-62331666D02*
X119015714Y-62331666D01*
X119587142Y-62617380D02*
X119253809Y-61617380D01*
X118920476Y-62617380D01*
X117396666Y-61950714D02*
X117396666Y-62617380D01*
X117634761Y-61569761D02*
X117872857Y-62284047D01*
X117253809Y-62284047D01*
X116872857Y-62522142D02*
X116825238Y-62569761D01*
X116872857Y-62617380D01*
X116920476Y-62569761D01*
X116872857Y-62522142D01*
X116872857Y-62617380D01*
X116206190Y-61617380D02*
X116110952Y-61617380D01*
X116015714Y-61665000D01*
X115968095Y-61712619D01*
X115920476Y-61807857D01*
X115872857Y-61998333D01*
X115872857Y-62236428D01*
X115920476Y-62426904D01*
X115968095Y-62522142D01*
X116015714Y-62569761D01*
X116110952Y-62617380D01*
X116206190Y-62617380D01*
X116301428Y-62569761D01*
X116349047Y-62522142D01*
X116396666Y-62426904D01*
X116444285Y-62236428D01*
X116444285Y-61998333D01*
X116396666Y-61807857D01*
X116349047Y-61712619D01*
X116301428Y-61665000D01*
X116206190Y-61617380D01*
X115539523Y-62998333D02*
X115491904Y-62950714D01*
X115396666Y-62807857D01*
X115349047Y-62712619D01*
X115301428Y-62569761D01*
X115253809Y-62331666D01*
X115253809Y-62141190D01*
X115301428Y-61903095D01*
X115349047Y-61760238D01*
X115396666Y-61665000D01*
X115491904Y-61522142D01*
X115539523Y-61474523D01*
X130468095Y-64179761D02*
X130325238Y-64227380D01*
X130087142Y-64227380D01*
X129991904Y-64179761D01*
X129944285Y-64132142D01*
X129896666Y-64036904D01*
X129896666Y-63941666D01*
X129944285Y-63846428D01*
X129991904Y-63798809D01*
X130087142Y-63751190D01*
X130277619Y-63703571D01*
X130372857Y-63655952D01*
X130420476Y-63608333D01*
X130468095Y-63513095D01*
X130468095Y-63417857D01*
X130420476Y-63322619D01*
X130372857Y-63275000D01*
X130277619Y-63227380D01*
X130039523Y-63227380D01*
X129896666Y-63275000D01*
X129515714Y-63941666D02*
X129039523Y-63941666D01*
X129610952Y-64227380D02*
X129277619Y-63227380D01*
X128944285Y-64227380D01*
X128134761Y-64227380D02*
X128610952Y-64227380D01*
X128610952Y-63227380D01*
X127801428Y-63703571D02*
X127468095Y-63703571D01*
X127325238Y-64227380D02*
X127801428Y-64227380D01*
X127801428Y-63227380D01*
X127325238Y-63227380D01*
X126134761Y-64227380D02*
X126134761Y-63227380D01*
X125563333Y-64227380D01*
X125563333Y-63227380D01*
X124896666Y-63227380D02*
X124706190Y-63227380D01*
X124610952Y-63275000D01*
X124515714Y-63370238D01*
X124468095Y-63560714D01*
X124468095Y-63894047D01*
X124515714Y-64084523D01*
X124610952Y-64179761D01*
X124706190Y-64227380D01*
X124896666Y-64227380D01*
X124991904Y-64179761D01*
X125087142Y-64084523D01*
X125134761Y-63894047D01*
X125134761Y-63560714D01*
X125087142Y-63370238D01*
X124991904Y-63275000D01*
X124896666Y-63227380D01*
X124182380Y-63227380D02*
X123610952Y-63227380D01*
X123896666Y-64227380D02*
X123896666Y-63227380D01*
X122515714Y-64227380D02*
X122515714Y-63227380D01*
X122134761Y-63227380D01*
X122039523Y-63275000D01*
X121991904Y-63322619D01*
X121944285Y-63417857D01*
X121944285Y-63560714D01*
X121991904Y-63655952D01*
X122039523Y-63703571D01*
X122134761Y-63751190D01*
X122515714Y-63751190D01*
X121515714Y-63703571D02*
X121182380Y-63703571D01*
X121039523Y-64227380D02*
X121515714Y-64227380D01*
X121515714Y-63227380D01*
X121039523Y-63227380D01*
X120039523Y-64227380D02*
X120372857Y-63751190D01*
X120610952Y-64227380D02*
X120610952Y-63227380D01*
X120230000Y-63227380D01*
X120134761Y-63275000D01*
X120087142Y-63322619D01*
X120039523Y-63417857D01*
X120039523Y-63560714D01*
X120087142Y-63655952D01*
X120134761Y-63703571D01*
X120230000Y-63751190D01*
X120610952Y-63751190D01*
X119610952Y-64227380D02*
X119610952Y-63227380D01*
X119277619Y-63941666D01*
X118944285Y-63227380D01*
X118944285Y-64227380D01*
X118468095Y-64227380D02*
X118468095Y-63227380D01*
X118134761Y-63227380D02*
X117563333Y-63227380D01*
X117849047Y-64227380D02*
X117849047Y-63227380D01*
X117372857Y-63227380D02*
X116801428Y-63227380D01*
X117087142Y-64227380D02*
X117087142Y-63227380D01*
X116468095Y-63703571D02*
X116134761Y-63703571D01*
X115991904Y-64227380D02*
X116468095Y-64227380D01*
X116468095Y-63227380D01*
X115991904Y-63227380D01*
X115563333Y-64227380D02*
X115563333Y-63227380D01*
X115325238Y-63227380D01*
X115182380Y-63275000D01*
X115087142Y-63370238D01*
X115039523Y-63465476D01*
X114991904Y-63655952D01*
X114991904Y-63798809D01*
X115039523Y-63989285D01*
X115087142Y-64084523D01*
X115182380Y-64179761D01*
X115325238Y-64227380D01*
X115563333Y-64227380D01*
X160292857Y-63145714D02*
X160292857Y-63955238D01*
X160340476Y-64050476D01*
X160388095Y-64098095D01*
X160483333Y-64145714D01*
X160626190Y-64145714D01*
X160721428Y-64098095D01*
X160292857Y-63764761D02*
X160388095Y-63812380D01*
X160578571Y-63812380D01*
X160673809Y-63764761D01*
X160721428Y-63717142D01*
X160769047Y-63621904D01*
X160769047Y-63336190D01*
X160721428Y-63240952D01*
X160673809Y-63193333D01*
X160578571Y-63145714D01*
X160388095Y-63145714D01*
X160292857Y-63193333D01*
X159816666Y-63812380D02*
X159816666Y-63145714D01*
X159816666Y-62812380D02*
X159864285Y-62860000D01*
X159816666Y-62907619D01*
X159769047Y-62860000D01*
X159816666Y-62812380D01*
X159816666Y-62907619D01*
X159483333Y-63145714D02*
X159102380Y-63145714D01*
X159340476Y-62812380D02*
X159340476Y-63669523D01*
X159292857Y-63764761D01*
X159197619Y-63812380D01*
X159102380Y-63812380D01*
X158769047Y-63812380D02*
X158769047Y-62812380D01*
X158340476Y-63812380D02*
X158340476Y-63288571D01*
X158388095Y-63193333D01*
X158483333Y-63145714D01*
X158626190Y-63145714D01*
X158721428Y-63193333D01*
X158769047Y-63240952D01*
X157435714Y-63145714D02*
X157435714Y-63812380D01*
X157864285Y-63145714D02*
X157864285Y-63669523D01*
X157816666Y-63764761D01*
X157721428Y-63812380D01*
X157578571Y-63812380D01*
X157483333Y-63764761D01*
X157435714Y-63717142D01*
X156959523Y-63812380D02*
X156959523Y-62812380D01*
X156959523Y-63193333D02*
X156864285Y-63145714D01*
X156673809Y-63145714D01*
X156578571Y-63193333D01*
X156530952Y-63240952D01*
X156483333Y-63336190D01*
X156483333Y-63621904D01*
X156530952Y-63717142D01*
X156578571Y-63764761D01*
X156673809Y-63812380D01*
X156864285Y-63812380D01*
X156959523Y-63764761D01*
X156054761Y-63717142D02*
X156007142Y-63764761D01*
X156054761Y-63812380D01*
X156102380Y-63764761D01*
X156054761Y-63717142D01*
X156054761Y-63812380D01*
X155150000Y-63764761D02*
X155245238Y-63812380D01*
X155435714Y-63812380D01*
X155530952Y-63764761D01*
X155578571Y-63717142D01*
X155626190Y-63621904D01*
X155626190Y-63336190D01*
X155578571Y-63240952D01*
X155530952Y-63193333D01*
X155435714Y-63145714D01*
X155245238Y-63145714D01*
X155150000Y-63193333D01*
X154578571Y-63812380D02*
X154673809Y-63764761D01*
X154721428Y-63717142D01*
X154769047Y-63621904D01*
X154769047Y-63336190D01*
X154721428Y-63240952D01*
X154673809Y-63193333D01*
X154578571Y-63145714D01*
X154435714Y-63145714D01*
X154340476Y-63193333D01*
X154292857Y-63240952D01*
X154245238Y-63336190D01*
X154245238Y-63621904D01*
X154292857Y-63717142D01*
X154340476Y-63764761D01*
X154435714Y-63812380D01*
X154578571Y-63812380D01*
X153816666Y-63812380D02*
X153816666Y-63145714D01*
X153816666Y-63240952D02*
X153769047Y-63193333D01*
X153673809Y-63145714D01*
X153530952Y-63145714D01*
X153435714Y-63193333D01*
X153388095Y-63288571D01*
X153388095Y-63812380D01*
X153388095Y-63288571D02*
X153340476Y-63193333D01*
X153245238Y-63145714D01*
X153102380Y-63145714D01*
X153007142Y-63193333D01*
X152959523Y-63288571D01*
X152959523Y-63812380D01*
X151769047Y-62764761D02*
X152626190Y-64050476D01*
X151007142Y-63812380D02*
X151007142Y-63288571D01*
X151054761Y-63193333D01*
X151150000Y-63145714D01*
X151340476Y-63145714D01*
X151435714Y-63193333D01*
X151007142Y-63764761D02*
X151102380Y-63812380D01*
X151340476Y-63812380D01*
X151435714Y-63764761D01*
X151483333Y-63669523D01*
X151483333Y-63574285D01*
X151435714Y-63479047D01*
X151340476Y-63431428D01*
X151102380Y-63431428D01*
X151007142Y-63383809D01*
X150530952Y-63145714D02*
X150530952Y-63812380D01*
X150530952Y-63240952D02*
X150483333Y-63193333D01*
X150388095Y-63145714D01*
X150245238Y-63145714D01*
X150150000Y-63193333D01*
X150102380Y-63288571D01*
X150102380Y-63812380D01*
X149197619Y-63812380D02*
X149197619Y-62812380D01*
X149197619Y-63764761D02*
X149292857Y-63812380D01*
X149483333Y-63812380D01*
X149578571Y-63764761D01*
X149626190Y-63717142D01*
X149673809Y-63621904D01*
X149673809Y-63336190D01*
X149626190Y-63240952D01*
X149578571Y-63193333D01*
X149483333Y-63145714D01*
X149292857Y-63145714D01*
X149197619Y-63193333D01*
X148721428Y-63812380D02*
X148721428Y-63145714D01*
X148721428Y-63336190D02*
X148673809Y-63240952D01*
X148626190Y-63193333D01*
X148530952Y-63145714D01*
X148435714Y-63145714D01*
X147959523Y-63812380D02*
X148054761Y-63764761D01*
X148102380Y-63717142D01*
X148150000Y-63621904D01*
X148150000Y-63336190D01*
X148102380Y-63240952D01*
X148054761Y-63193333D01*
X147959523Y-63145714D01*
X147816666Y-63145714D01*
X147721428Y-63193333D01*
X147673809Y-63240952D01*
X147626190Y-63336190D01*
X147626190Y-63621904D01*
X147673809Y-63717142D01*
X147721428Y-63764761D01*
X147816666Y-63812380D01*
X147959523Y-63812380D01*
X146769047Y-63812380D02*
X146769047Y-62812380D01*
X146769047Y-63764761D02*
X146864285Y-63812380D01*
X147054761Y-63812380D01*
X147150000Y-63764761D01*
X147197619Y-63717142D01*
X147245238Y-63621904D01*
X147245238Y-63336190D01*
X147197619Y-63240952D01*
X147150000Y-63193333D01*
X147054761Y-63145714D01*
X146864285Y-63145714D01*
X146769047Y-63193333D01*
X145864285Y-63812380D02*
X145864285Y-63288571D01*
X145911904Y-63193333D01*
X146007142Y-63145714D01*
X146197619Y-63145714D01*
X146292857Y-63193333D01*
X145864285Y-63764761D02*
X145959523Y-63812380D01*
X146197619Y-63812380D01*
X146292857Y-63764761D01*
X146340476Y-63669523D01*
X146340476Y-63574285D01*
X146292857Y-63479047D01*
X146197619Y-63431428D01*
X145959523Y-63431428D01*
X145864285Y-63383809D01*
X144673809Y-62764761D02*
X145530952Y-64050476D01*
X144007142Y-63288571D02*
X144340476Y-63288571D01*
X144340476Y-63812380D02*
X144340476Y-62812380D01*
X143864285Y-62812380D01*
X143054761Y-63145714D02*
X143054761Y-63812380D01*
X143292857Y-62764761D02*
X143530952Y-63479047D01*
X142911904Y-63479047D01*
X142769047Y-63907619D02*
X142007142Y-63907619D01*
X141435714Y-63288571D02*
X141292857Y-63336190D01*
X141245238Y-63383809D01*
X141197619Y-63479047D01*
X141197619Y-63621904D01*
X141245238Y-63717142D01*
X141292857Y-63764761D01*
X141388095Y-63812380D01*
X141769047Y-63812380D01*
X141769047Y-62812380D01*
X141435714Y-62812380D01*
X141340476Y-62860000D01*
X141292857Y-62907619D01*
X141245238Y-63002857D01*
X141245238Y-63098095D01*
X141292857Y-63193333D01*
X141340476Y-63240952D01*
X141435714Y-63288571D01*
X141769047Y-63288571D01*
X140626190Y-63812380D02*
X140721428Y-63764761D01*
X140769047Y-63669523D01*
X140769047Y-62812380D01*
X139816666Y-63145714D02*
X139816666Y-63812380D01*
X140245238Y-63145714D02*
X140245238Y-63669523D01*
X140197619Y-63764761D01*
X140102380Y-63812380D01*
X139959523Y-63812380D01*
X139864285Y-63764761D01*
X139816666Y-63717142D01*
X138959523Y-63764761D02*
X139054761Y-63812380D01*
X139245238Y-63812380D01*
X139340476Y-63764761D01*
X139388095Y-63669523D01*
X139388095Y-63288571D01*
X139340476Y-63193333D01*
X139245238Y-63145714D01*
X139054761Y-63145714D01*
X138959523Y-63193333D01*
X138911904Y-63288571D01*
X138911904Y-63383809D01*
X139388095Y-63479047D01*
X138530952Y-63764761D02*
X138388095Y-63812380D01*
X138150000Y-63812380D01*
X138054761Y-63764761D01*
X138007142Y-63717142D01*
X137959523Y-63621904D01*
X137959523Y-63526666D01*
X138007142Y-63431428D01*
X138054761Y-63383809D01*
X138150000Y-63336190D01*
X138340476Y-63288571D01*
X138435714Y-63240952D01*
X138483333Y-63193333D01*
X138530952Y-63098095D01*
X138530952Y-63002857D01*
X138483333Y-62907619D01*
X138435714Y-62860000D01*
X138340476Y-62812380D01*
X138102380Y-62812380D01*
X137959523Y-62860000D01*
X136959523Y-63717142D02*
X137007142Y-63764761D01*
X137150000Y-63812380D01*
X137245238Y-63812380D01*
X137388095Y-63764761D01*
X137483333Y-63669523D01*
X137530952Y-63574285D01*
X137578571Y-63383809D01*
X137578571Y-63240952D01*
X137530952Y-63050476D01*
X137483333Y-62955238D01*
X137388095Y-62860000D01*
X137245238Y-62812380D01*
X137150000Y-62812380D01*
X137007142Y-62860000D01*
X136959523Y-62907619D01*
X136578571Y-63764761D02*
X136435714Y-63812380D01*
X136197619Y-63812380D01*
X136102380Y-63764761D01*
X136054761Y-63717142D01*
X136007142Y-63621904D01*
X136007142Y-63526666D01*
X136054761Y-63431428D01*
X136102380Y-63383809D01*
X136197619Y-63336190D01*
X136388095Y-63288571D01*
X136483333Y-63240952D01*
X136530952Y-63193333D01*
X136578571Y-63098095D01*
X136578571Y-63002857D01*
X136530952Y-62907619D01*
X136483333Y-62860000D01*
X136388095Y-62812380D01*
X136150000Y-62812380D01*
X136007142Y-62860000D01*
X135578571Y-63812380D02*
X135578571Y-62812380D01*
X157819523Y-56623333D02*
X157867142Y-56623333D01*
X157962380Y-56575714D01*
X158010000Y-56480476D01*
X158010000Y-56004285D01*
X158057619Y-55909047D01*
X158152857Y-55861428D01*
X158057619Y-55813809D01*
X158010000Y-55718571D01*
X158010000Y-55242380D01*
X157962380Y-55147142D01*
X157867142Y-55099523D01*
X157819523Y-55099523D01*
X157105238Y-55718571D02*
X157438571Y-55718571D01*
X157438571Y-56242380D02*
X157438571Y-55242380D01*
X156962380Y-55242380D01*
X156152857Y-55575714D02*
X156152857Y-56242380D01*
X156390952Y-55194761D02*
X156629047Y-55909047D01*
X156010000Y-55909047D01*
X155152857Y-56242380D02*
X155629047Y-56242380D01*
X155629047Y-55242380D01*
X154819523Y-56242380D02*
X154819523Y-55575714D01*
X154819523Y-55242380D02*
X154867142Y-55290000D01*
X154819523Y-55337619D01*
X154771904Y-55290000D01*
X154819523Y-55242380D01*
X154819523Y-55337619D01*
X154486190Y-55575714D02*
X154105238Y-55575714D01*
X154343333Y-55242380D02*
X154343333Y-56099523D01*
X154295714Y-56194761D01*
X154200476Y-56242380D01*
X154105238Y-56242380D01*
X153390952Y-56194761D02*
X153486190Y-56242380D01*
X153676666Y-56242380D01*
X153771904Y-56194761D01*
X153819523Y-56099523D01*
X153819523Y-55718571D01*
X153771904Y-55623333D01*
X153676666Y-55575714D01*
X153486190Y-55575714D01*
X153390952Y-55623333D01*
X153343333Y-55718571D01*
X153343333Y-55813809D01*
X153819523Y-55909047D01*
X152914761Y-56147142D02*
X152867142Y-56194761D01*
X152914761Y-56242380D01*
X152962380Y-56194761D01*
X152914761Y-56147142D01*
X152914761Y-56242380D01*
X152581428Y-55242380D02*
X152010000Y-55242380D01*
X152295714Y-56242380D02*
X152295714Y-55242380D01*
X151676666Y-56242380D02*
X151676666Y-55242380D01*
X151676666Y-55623333D02*
X151581428Y-55575714D01*
X151390952Y-55575714D01*
X151295714Y-55623333D01*
X151248095Y-55670952D01*
X151200476Y-55766190D01*
X151200476Y-56051904D01*
X151248095Y-56147142D01*
X151295714Y-56194761D01*
X151390952Y-56242380D01*
X151581428Y-56242380D01*
X151676666Y-56194761D01*
X150819523Y-55956666D02*
X150343333Y-55956666D01*
X150914761Y-56242380D02*
X150581428Y-55242380D01*
X150248095Y-56242380D01*
X149914761Y-56147142D02*
X149867142Y-56194761D01*
X149914761Y-56242380D01*
X149962380Y-56194761D01*
X149914761Y-56147142D01*
X149914761Y-56242380D01*
X149438571Y-56242380D02*
X149438571Y-55242380D01*
X149200476Y-55242380D01*
X149057619Y-55290000D01*
X148962380Y-55385238D01*
X148914761Y-55480476D01*
X148867142Y-55670952D01*
X148867142Y-55813809D01*
X148914761Y-56004285D01*
X148962380Y-56099523D01*
X149057619Y-56194761D01*
X149200476Y-56242380D01*
X149438571Y-56242380D01*
X148105238Y-55718571D02*
X147962380Y-55766190D01*
X147914761Y-55813809D01*
X147867142Y-55909047D01*
X147867142Y-56051904D01*
X147914761Y-56147142D01*
X147962380Y-56194761D01*
X148057619Y-56242380D01*
X148438571Y-56242380D01*
X148438571Y-55242380D01*
X148105238Y-55242380D01*
X148010000Y-55290000D01*
X147962380Y-55337619D01*
X147914761Y-55432857D01*
X147914761Y-55528095D01*
X147962380Y-55623333D01*
X148010000Y-55670952D01*
X148105238Y-55718571D01*
X148438571Y-55718571D01*
X147486190Y-55337619D02*
X147438571Y-55290000D01*
X147343333Y-55242380D01*
X147105238Y-55242380D01*
X147010000Y-55290000D01*
X146962380Y-55337619D01*
X146914761Y-55432857D01*
X146914761Y-55528095D01*
X146962380Y-55670952D01*
X147533809Y-56242380D01*
X146914761Y-56242380D01*
X146010000Y-55242380D02*
X146486190Y-55242380D01*
X146533809Y-55718571D01*
X146486190Y-55670952D01*
X146390952Y-55623333D01*
X146152857Y-55623333D01*
X146057619Y-55670952D01*
X146010000Y-55718571D01*
X145962380Y-55813809D01*
X145962380Y-56051904D01*
X146010000Y-56147142D01*
X146057619Y-56194761D01*
X146152857Y-56242380D01*
X146390952Y-56242380D01*
X146486190Y-56194761D01*
X146533809Y-56147142D01*
X145533809Y-56242380D02*
X145533809Y-55242380D01*
X145200476Y-55956666D01*
X144867142Y-55242380D01*
X144867142Y-56242380D01*
X144390952Y-56147142D02*
X144343333Y-56194761D01*
X144390952Y-56242380D01*
X144438571Y-56194761D01*
X144390952Y-56147142D01*
X144390952Y-56242380D01*
X144057619Y-55242380D02*
X143486190Y-55242380D01*
X143771904Y-56242380D02*
X143771904Y-55242380D01*
X143152857Y-56242380D02*
X143152857Y-55242380D01*
X143152857Y-55718571D02*
X142581428Y-55718571D01*
X142581428Y-56242380D02*
X142581428Y-55242380D01*
X142248095Y-55242380D02*
X141676666Y-55242380D01*
X141962380Y-56242380D02*
X141962380Y-55242380D01*
X141486190Y-55242380D02*
X141152857Y-56242380D01*
X140819523Y-55242380D01*
X139962380Y-56242380D02*
X140533809Y-56242380D01*
X140248095Y-56242380D02*
X140248095Y-55242380D01*
X140343333Y-55385238D01*
X140438571Y-55480476D01*
X140533809Y-55528095D01*
X139533809Y-56147142D02*
X139486190Y-56194761D01*
X139533809Y-56242380D01*
X139581428Y-56194761D01*
X139533809Y-56147142D01*
X139533809Y-56242380D01*
X138533809Y-56242380D02*
X139105238Y-56242380D01*
X138819523Y-56242380D02*
X138819523Y-55242380D01*
X138914761Y-55385238D01*
X139010000Y-55480476D01*
X139105238Y-55528095D01*
X138200476Y-56623333D02*
X138152857Y-56623333D01*
X138057619Y-56575714D01*
X138010000Y-56480476D01*
X138010000Y-56004285D01*
X137962380Y-55909047D01*
X137867142Y-55861428D01*
X137962380Y-55813809D01*
X138010000Y-55718571D01*
X138010000Y-55242380D01*
X138057619Y-55147142D01*
X138152857Y-55099523D01*
X138200476Y-55099523D01*
X119000495Y-87523580D02*
X119000495Y-86523580D01*
X118762400Y-86523580D01*
X118619542Y-86571200D01*
X118524304Y-86666438D01*
X118476685Y-86761676D01*
X118429066Y-86952152D01*
X118429066Y-87095009D01*
X118476685Y-87285485D01*
X118524304Y-87380723D01*
X118619542Y-87475961D01*
X118762400Y-87523580D01*
X119000495Y-87523580D01*
X117476685Y-87523580D02*
X118048114Y-87523580D01*
X117762400Y-87523580D02*
X117762400Y-86523580D01*
X117857638Y-86666438D01*
X117952876Y-86761676D01*
X118048114Y-86809295D01*
X129365333Y-88676171D02*
X129698666Y-88676171D01*
X129698666Y-89199980D02*
X129698666Y-88199980D01*
X129222476Y-88199980D01*
X128317714Y-89199980D02*
X128889142Y-89199980D01*
X128603428Y-89199980D02*
X128603428Y-88199980D01*
X128698666Y-88342838D01*
X128793904Y-88438076D01*
X128889142Y-88485695D01*
X149744294Y-46789696D02*
X149839532Y-46742077D01*
X150030008Y-46742077D01*
X150125246Y-46789696D01*
X150220484Y-46884934D01*
X150268103Y-46980172D01*
X150268103Y-47170648D01*
X150220484Y-47265886D01*
X150125246Y-47361124D01*
X150030008Y-47408743D01*
X149839532Y-47408743D01*
X149744294Y-47361124D01*
X149934770Y-46408743D02*
X150172865Y-46456362D01*
X150410960Y-46599220D01*
X150553818Y-46837315D01*
X150601437Y-47075410D01*
X150553818Y-47313505D01*
X150410960Y-47551600D01*
X150172865Y-47694458D01*
X149934770Y-47742077D01*
X149696675Y-47694458D01*
X149458580Y-47551600D01*
X149315722Y-47313505D01*
X149268103Y-47075410D01*
X149315722Y-46837315D01*
X149458580Y-46599220D01*
X149696675Y-46456362D01*
X149934770Y-46408743D01*
X148220484Y-46551600D02*
X147649056Y-46551600D01*
X147934770Y-47551600D02*
X147934770Y-46551600D01*
X146934770Y-47503981D02*
X147030008Y-47551600D01*
X147220484Y-47551600D01*
X147315722Y-47503981D01*
X147363341Y-47408743D01*
X147363341Y-47027791D01*
X147315722Y-46932553D01*
X147220484Y-46884934D01*
X147030008Y-46884934D01*
X146934770Y-46932553D01*
X146887151Y-47027791D01*
X146887151Y-47123029D01*
X147363341Y-47218267D01*
X146030008Y-47503981D02*
X146125246Y-47551600D01*
X146315722Y-47551600D01*
X146410960Y-47503981D01*
X146458580Y-47456362D01*
X146506199Y-47361124D01*
X146506199Y-47075410D01*
X146458580Y-46980172D01*
X146410960Y-46932553D01*
X146315722Y-46884934D01*
X146125246Y-46884934D01*
X146030008Y-46932553D01*
X145601437Y-47551600D02*
X145601437Y-46551600D01*
X145172865Y-47551600D02*
X145172865Y-47027791D01*
X145220484Y-46932553D01*
X145315722Y-46884934D01*
X145458580Y-46884934D01*
X145553818Y-46932553D01*
X145601437Y-46980172D01*
X143934770Y-47551600D02*
X143934770Y-46551600D01*
X143934770Y-46932553D02*
X143839532Y-46884934D01*
X143649056Y-46884934D01*
X143553818Y-46932553D01*
X143506199Y-46980172D01*
X143458580Y-47075410D01*
X143458580Y-47361124D01*
X143506199Y-47456362D01*
X143553818Y-47503981D01*
X143649056Y-47551600D01*
X143839532Y-47551600D01*
X143934770Y-47503981D01*
X143125246Y-46884934D02*
X142887151Y-47551600D01*
X142649056Y-46884934D02*
X142887151Y-47551600D01*
X142982389Y-47789696D01*
X143030008Y-47837315D01*
X143125246Y-47884934D01*
X141553818Y-47265886D02*
X141077627Y-47265886D01*
X141649056Y-47551600D02*
X141315722Y-46551600D01*
X140982389Y-47551600D01*
X140649056Y-46884934D02*
X140649056Y-47551600D01*
X140649056Y-46980172D02*
X140601437Y-46932553D01*
X140506199Y-46884934D01*
X140363341Y-46884934D01*
X140268103Y-46932553D01*
X140220484Y-47027791D01*
X140220484Y-47551600D01*
X139315722Y-47551600D02*
X139315722Y-46551600D01*
X139315722Y-47503981D02*
X139410960Y-47551600D01*
X139601437Y-47551600D01*
X139696675Y-47503981D01*
X139744294Y-47456362D01*
X139791913Y-47361124D01*
X139791913Y-47075410D01*
X139744294Y-46980172D01*
X139696675Y-46932553D01*
X139601437Y-46884934D01*
X139410960Y-46884934D01*
X139315722Y-46932553D01*
X138839532Y-47551600D02*
X138839532Y-46884934D01*
X138839532Y-47075410D02*
X138791913Y-46980172D01*
X138744294Y-46932553D01*
X138649056Y-46884934D01*
X138553818Y-46884934D01*
X138077627Y-47551600D02*
X138172865Y-47503981D01*
X138220484Y-47456362D01*
X138268103Y-47361124D01*
X138268103Y-47075410D01*
X138220484Y-46980172D01*
X138172865Y-46932553D01*
X138077627Y-46884934D01*
X137934770Y-46884934D01*
X137839532Y-46932553D01*
X137791913Y-46980172D01*
X137744294Y-47075410D01*
X137744294Y-47361124D01*
X137791913Y-47456362D01*
X137839532Y-47503981D01*
X137934770Y-47551600D01*
X138077627Y-47551600D01*
X136887151Y-47551600D02*
X136887151Y-46551600D01*
X136887151Y-47503981D02*
X136982389Y-47551600D01*
X137172865Y-47551600D01*
X137268103Y-47503981D01*
X137315722Y-47456362D01*
X137363341Y-47361124D01*
X137363341Y-47075410D01*
X137315722Y-46980172D01*
X137268103Y-46932553D01*
X137172865Y-46884934D01*
X136982389Y-46884934D01*
X136887151Y-46932553D01*
X135982389Y-47551600D02*
X135982389Y-47027791D01*
X136030008Y-46932553D01*
X136125246Y-46884934D01*
X136315722Y-46884934D01*
X136410960Y-46932553D01*
X135982389Y-47503981D02*
X136077627Y-47551600D01*
X136315722Y-47551600D01*
X136410960Y-47503981D01*
X136458580Y-47408743D01*
X136458580Y-47313505D01*
X136410960Y-47218267D01*
X136315722Y-47170648D01*
X136077627Y-47170648D01*
X135982389Y-47123029D01*
X135458580Y-47503981D02*
X135458580Y-47551600D01*
X135506199Y-47646839D01*
X135553818Y-47694458D01*
X133791913Y-47551600D02*
X134268103Y-47551600D01*
X134268103Y-46551600D01*
X132982389Y-47551600D02*
X133458580Y-47551600D01*
X133458580Y-46551600D01*
X132077627Y-47456362D02*
X132125246Y-47503981D01*
X132268103Y-47551600D01*
X132363341Y-47551600D01*
X132506199Y-47503981D01*
X132601437Y-47408743D01*
X132649056Y-47313505D01*
X132696675Y-47123029D01*
X132696675Y-46980172D01*
X132649056Y-46789696D01*
X132601437Y-46694458D01*
X132506199Y-46599220D01*
X132363341Y-46551600D01*
X132268103Y-46551600D01*
X132125246Y-46599220D01*
X132077627Y-46646839D01*
X131601437Y-47503981D02*
X131601437Y-47551600D01*
X131649056Y-47646839D01*
X131696675Y-47694458D01*
X130458580Y-47265886D02*
X129982389Y-47265886D01*
X130553818Y-47551600D02*
X130220484Y-46551600D01*
X129887151Y-47551600D01*
X129125246Y-46884934D02*
X129125246Y-47551600D01*
X129553818Y-46884934D02*
X129553818Y-47408743D01*
X129506199Y-47503981D01*
X129410960Y-47551600D01*
X129268103Y-47551600D01*
X129172865Y-47503981D01*
X129125246Y-47456362D01*
X128220484Y-46884934D02*
X128220484Y-47694458D01*
X128268103Y-47789696D01*
X128315722Y-47837315D01*
X128410960Y-47884934D01*
X128553818Y-47884934D01*
X128649056Y-47837315D01*
X128220484Y-47503981D02*
X128315722Y-47551600D01*
X128506199Y-47551600D01*
X128601437Y-47503981D01*
X128649056Y-47456362D01*
X128696675Y-47361124D01*
X128696675Y-47075410D01*
X128649056Y-46980172D01*
X128601437Y-46932553D01*
X128506199Y-46884934D01*
X128315722Y-46884934D01*
X128220484Y-46932553D01*
X127315722Y-46884934D02*
X127315722Y-47551600D01*
X127744294Y-46884934D02*
X127744294Y-47408743D01*
X127696675Y-47503981D01*
X127601437Y-47551600D01*
X127458580Y-47551600D01*
X127363341Y-47503981D01*
X127315722Y-47456362D01*
X126887151Y-47503981D02*
X126791913Y-47551600D01*
X126601437Y-47551600D01*
X126506199Y-47503981D01*
X126458580Y-47408743D01*
X126458580Y-47361124D01*
X126506199Y-47265886D01*
X126601437Y-47218267D01*
X126744294Y-47218267D01*
X126839532Y-47170648D01*
X126887151Y-47075410D01*
X126887151Y-47027791D01*
X126839532Y-46932553D01*
X126744294Y-46884934D01*
X126601437Y-46884934D01*
X126506199Y-46932553D01*
X126172865Y-46884934D02*
X125791913Y-46884934D01*
X126030008Y-46551600D02*
X126030008Y-47408743D01*
X125982389Y-47503981D01*
X125887151Y-47551600D01*
X125791913Y-47551600D01*
X124744294Y-46646839D02*
X124696675Y-46599220D01*
X124601437Y-46551600D01*
X124363341Y-46551600D01*
X124268103Y-46599220D01*
X124220484Y-46646839D01*
X124172865Y-46742077D01*
X124172865Y-46837315D01*
X124220484Y-46980172D01*
X124791913Y-47551600D01*
X124172865Y-47551600D01*
X123553818Y-46551600D02*
X123458580Y-46551600D01*
X123363341Y-46599220D01*
X123315722Y-46646839D01*
X123268103Y-46742077D01*
X123220484Y-46932553D01*
X123220484Y-47170648D01*
X123268103Y-47361124D01*
X123315722Y-47456362D01*
X123363341Y-47503981D01*
X123458580Y-47551600D01*
X123553818Y-47551600D01*
X123649056Y-47503981D01*
X123696675Y-47456362D01*
X123744294Y-47361124D01*
X123791913Y-47170648D01*
X123791913Y-46932553D01*
X123744294Y-46742077D01*
X123696675Y-46646839D01*
X123649056Y-46599220D01*
X123553818Y-46551600D01*
X122839532Y-46646839D02*
X122791913Y-46599220D01*
X122696675Y-46551600D01*
X122458580Y-46551600D01*
X122363341Y-46599220D01*
X122315722Y-46646839D01*
X122268103Y-46742077D01*
X122268103Y-46837315D01*
X122315722Y-46980172D01*
X122887151Y-47551600D01*
X122268103Y-47551600D01*
X121887151Y-46646839D02*
X121839532Y-46599220D01*
X121744294Y-46551600D01*
X121506199Y-46551600D01*
X121410960Y-46599220D01*
X121363341Y-46646839D01*
X121315722Y-46742077D01*
X121315722Y-46837315D01*
X121363341Y-46980172D01*
X121934770Y-47551600D01*
X121315722Y-47551600D01*
%TO.C,C2*%
X142699941Y-81947385D02*
X142747560Y-81995004D01*
X142890417Y-82042623D01*
X142985655Y-82042623D01*
X143128513Y-81995004D01*
X143223751Y-81899766D01*
X143271370Y-81804528D01*
X143318989Y-81614052D01*
X143318989Y-81471195D01*
X143271370Y-81280719D01*
X143223751Y-81185481D01*
X143128513Y-81090243D01*
X142985655Y-81042623D01*
X142890417Y-81042623D01*
X142747560Y-81090243D01*
X142699941Y-81137862D01*
X142318989Y-81137862D02*
X142271370Y-81090243D01*
X142176132Y-81042623D01*
X141938036Y-81042623D01*
X141842798Y-81090243D01*
X141795179Y-81137862D01*
X141747560Y-81233100D01*
X141747560Y-81328338D01*
X141795179Y-81471195D01*
X142366608Y-82042623D01*
X141747560Y-82042623D01*
%TO.C,C3*%
X131108746Y-56260002D02*
X131156365Y-56307621D01*
X131299222Y-56355240D01*
X131394460Y-56355240D01*
X131537318Y-56307621D01*
X131632556Y-56212383D01*
X131680175Y-56117145D01*
X131727794Y-55926669D01*
X131727794Y-55783812D01*
X131680175Y-55593336D01*
X131632556Y-55498098D01*
X131537318Y-55402860D01*
X131394460Y-55355240D01*
X131299222Y-55355240D01*
X131156365Y-55402860D01*
X131108746Y-55450479D01*
X130775413Y-55355240D02*
X130156365Y-55355240D01*
X130489699Y-55736193D01*
X130346841Y-55736193D01*
X130251603Y-55783812D01*
X130203984Y-55831431D01*
X130156365Y-55926669D01*
X130156365Y-56164764D01*
X130203984Y-56260002D01*
X130251603Y-56307621D01*
X130346841Y-56355240D01*
X130632556Y-56355240D01*
X130727794Y-56307621D01*
X130775413Y-56260002D01*
%TO.C,C1*%
X146944280Y-80937384D02*
X146991899Y-80985003D01*
X147134756Y-81032622D01*
X147229994Y-81032622D01*
X147372852Y-80985003D01*
X147468090Y-80889765D01*
X147515709Y-80794527D01*
X147563328Y-80604051D01*
X147563328Y-80461194D01*
X147515709Y-80270718D01*
X147468090Y-80175480D01*
X147372852Y-80080242D01*
X147229994Y-80032622D01*
X147134756Y-80032622D01*
X146991899Y-80080242D01*
X146944280Y-80127861D01*
X145991899Y-81032622D02*
X146563328Y-81032622D01*
X146277614Y-81032622D02*
X146277614Y-80032622D01*
X146372852Y-80175480D01*
X146468090Y-80270718D01*
X146563328Y-80318337D01*
%TO.C,R1*%
X144074080Y-72777622D02*
X144407414Y-72301432D01*
X144645509Y-72777622D02*
X144645509Y-71777622D01*
X144264556Y-71777622D01*
X144169318Y-71825242D01*
X144121699Y-71872861D01*
X144074080Y-71968099D01*
X144074080Y-72110956D01*
X144121699Y-72206194D01*
X144169318Y-72253813D01*
X144264556Y-72301432D01*
X144645509Y-72301432D01*
X143121699Y-72777622D02*
X143693128Y-72777622D01*
X143407414Y-72777622D02*
X143407414Y-71777622D01*
X143502652Y-71920480D01*
X143597890Y-72015718D01*
X143693128Y-72063337D01*
%TO.C,R2*%
X141724580Y-76016124D02*
X142057914Y-75539934D01*
X142296009Y-76016124D02*
X142296009Y-75016124D01*
X141915056Y-75016124D01*
X141819818Y-75063744D01*
X141772199Y-75111363D01*
X141724580Y-75206601D01*
X141724580Y-75349458D01*
X141772199Y-75444696D01*
X141819818Y-75492315D01*
X141915056Y-75539934D01*
X142296009Y-75539934D01*
X141343628Y-75111363D02*
X141296009Y-75063744D01*
X141200771Y-75016124D01*
X140962675Y-75016124D01*
X140867437Y-75063744D01*
X140819818Y-75111363D01*
X140772199Y-75206601D01*
X140772199Y-75301839D01*
X140819818Y-75444696D01*
X141391247Y-76016124D01*
X140772199Y-76016124D01*
%TO.C,C4*%
X111207186Y-61594002D02*
X111254805Y-61641621D01*
X111397662Y-61689240D01*
X111492900Y-61689240D01*
X111635758Y-61641621D01*
X111730996Y-61546383D01*
X111778615Y-61451145D01*
X111826234Y-61260669D01*
X111826234Y-61117812D01*
X111778615Y-60927336D01*
X111730996Y-60832098D01*
X111635758Y-60736860D01*
X111492900Y-60689240D01*
X111397662Y-60689240D01*
X111254805Y-60736860D01*
X111207186Y-60784479D01*
X110350043Y-61022574D02*
X110350043Y-61689240D01*
X110588139Y-60641621D02*
X110826234Y-61355907D01*
X110207186Y-61355907D01*
%TO.C,C5*%
X116651066Y-49175942D02*
X116698685Y-49223561D01*
X116841542Y-49271180D01*
X116936780Y-49271180D01*
X117079638Y-49223561D01*
X117174876Y-49128323D01*
X117222495Y-49033085D01*
X117270114Y-48842609D01*
X117270114Y-48699752D01*
X117222495Y-48509276D01*
X117174876Y-48414038D01*
X117079638Y-48318800D01*
X116936780Y-48271180D01*
X116841542Y-48271180D01*
X116698685Y-48318800D01*
X116651066Y-48366419D01*
X115746304Y-48271180D02*
X116222495Y-48271180D01*
X116270114Y-48747371D01*
X116222495Y-48699752D01*
X116127257Y-48652133D01*
X115889161Y-48652133D01*
X115793923Y-48699752D01*
X115746304Y-48747371D01*
X115698685Y-48842609D01*
X115698685Y-49080704D01*
X115746304Y-49175942D01*
X115793923Y-49223561D01*
X115889161Y-49271180D01*
X116127257Y-49271180D01*
X116222495Y-49223561D01*
X116270114Y-49175942D01*
D11*
%TO.C,C2*%
X140284351Y-77950243D02*
X141488479Y-77950243D01*
X140284351Y-80670243D02*
X141488479Y-80670243D01*
%TO.C,C3*%
X135178884Y-54568260D02*
X133974756Y-54568260D01*
X135178884Y-57288260D02*
X133974756Y-57288260D01*
%TO.C,C1*%
X148124914Y-76014178D02*
X148124914Y-77218306D01*
X145404914Y-76014178D02*
X145404914Y-77218306D01*
%TO.C,R1*%
X139867414Y-72325242D02*
X140637414Y-72325242D01*
X140637414Y-70955242D02*
X147177414Y-70955242D01*
X140637414Y-73695242D02*
X140637414Y-70955242D01*
X147947414Y-72325242D02*
X147177414Y-72325242D01*
X147177414Y-73695242D02*
X140637414Y-73695242D01*
X147177414Y-70955242D02*
X147177414Y-73695242D01*
%TO.C,R2*%
X139874414Y-76198744D02*
X143034414Y-76198744D01*
X139874414Y-76198744D02*
G75*
G03*
X139874414Y-76198744I-920000J0D01*
G01*
%TO.C,U1*%
X116516914Y-70126244D02*
X132406914Y-70126244D01*
X116516914Y-80366244D02*
X132406914Y-80366244D01*
X116516914Y-70126244D02*
X116516914Y-80366244D01*
%TO.C,C4*%
X111636564Y-62023160D02*
X110432436Y-62023160D01*
X111636564Y-64743160D02*
X110432436Y-64743160D01*
%TO.C,C5*%
X115800200Y-51076048D02*
X115800200Y-51598552D01*
X117270200Y-51076048D02*
X117270200Y-51598552D01*
%TO.C,F2*%
X128761748Y-89612400D02*
X129284252Y-89612400D01*
X128761748Y-91032400D02*
X129284252Y-91032400D01*
%TO.C,D2*%
X121814800Y-91261200D02*
X116414800Y-91261200D01*
X121814800Y-87961200D02*
X116414800Y-87961200D01*
X121814800Y-87961200D02*
X121814800Y-91261200D01*
%TO.C,U3*%
X127985600Y-71774000D02*
X127985600Y-73034000D01*
X127985600Y-78594000D02*
X127985600Y-77334000D01*
X133995600Y-71774000D02*
X127985600Y-71774000D01*
X131745600Y-78594000D02*
X127985600Y-78594000D01*
%TD*%
M02*
