M48
; DRILL file {KiCad 6.0.5-a6ca702e91~116~ubuntu21.10.1} date Wed 24 Aug 2022 06:01:11 AM MDT
; FORMAT={-:-/ absolute / inch / decimal}
; #@! TF.CreationDate,2022-08-24T06:01:11-06:00
; #@! TF.GenerationSoftware,Kicad,Pcbnew,6.0.5-a6ca702e91~116~ubuntu21.10.1
; #@! TF.FileFunction,Plated,1,2,PTH
FMAT,2
INCH
; #@! TA.AperFunction,Plated,PTH,ViaDrill
T1C0.0157
; #@! TA.AperFunction,Plated,PTH,ComponentDrill
T2C0.0276
; #@! TA.AperFunction,Plated,PTH,ComponentDrill
T3C0.0280
; #@! TA.AperFunction,Plated,PTH,ComponentDrill
T4C0.0315
; #@! TA.AperFunction,Plated,PTH,ComponentDrill
T5C0.0354
; #@! TA.AperFunction,Plated,PTH,ComponentDrill
T6C0.0394
; #@! TA.AperFunction,Plated,PTH,ComponentDrill
T7C0.0433
; #@! TA.AperFunction,Plated,PTH,ComponentDrill
T8C0.1260
%
G90
G05
T1
X4.328Y-3.0473
X4.3745Y-3.0473
X4.377Y-3.1307
X4.3804Y-2.8787
X4.3839Y-3.5185
X4.396Y-3.3959
X4.4025Y-2.7042
X4.4077Y-3.0046
X4.4137Y-3.0909
X4.45Y-2.8625
X4.4707Y-3.0203
X4.488Y-2.9172
X4.6538Y-2.7168
X4.7524Y-3.3897
X4.7768Y-2.4019
X4.8565Y-2.7142
X4.9306Y-2.3908
X5.0031Y-2.1375
X5.0057Y-2.7239
X5.0527Y-3.3681
X5.1542Y-2.6805
X5.19Y-2.137
X5.2066Y-2.4696
X5.2474Y-2.7678
X5.2892Y-2.5292
X5.4435Y-2.3919
X5.4522Y-2.6825
X5.4916Y-3.4185
X5.5507Y-2.4497
X5.5729Y-2.3799
X5.6027Y-2.689
X5.6067Y-2.4886
X5.6141Y-3.4185
X5.654Y-3.237
X5.6629Y-3.1225
X5.6653Y-2.8459
X5.6843Y-2.3813
X5.6897Y-2.1449
X5.7035Y-2.5229
X5.7993Y-2.8462
X5.8002Y-2.4265
X5.8027Y-2.6842
X5.8538Y-3.2441
X5.8678Y-3.0746
X5.9265Y-2.395
X5.9328Y-2.4443
X5.9397Y-2.8462
X6.0133Y-2.3871
X6.0366Y-2.5398
X6.0791Y-2.8034
X6.0919Y-2.1327
X6.226Y-3.494
X6.2362Y-2.5421
X6.2457Y-3.2464
X6.2517Y-2.6798
X6.2886Y-2.4386
X6.3Y-3.0055
T2
X5.4706Y-3.0
X5.6706Y-3.0
T3
X4.9933Y-3.4898
X5.1933Y-3.5348
T4
X4.3749Y-2.3162
X4.4749Y-2.3162
X4.5749Y-2.3162
X4.6749Y-2.3162
X4.7749Y-2.3162
X4.8749Y-2.3162
X4.9749Y-2.3162
X5.0749Y-2.3162
X5.1749Y-2.3162
X5.2749Y-2.3162
X5.4249Y-2.3162
X5.4656Y-2.8475
X5.5249Y-2.3162
X5.6249Y-2.3162
X5.7249Y-2.3162
X5.8249Y-2.3162
X5.8656Y-2.8475
X5.9249Y-2.3162
X6.0249Y-2.3162
X6.1249Y-2.3162
X6.2249Y-2.3162
X6.3249Y-2.3162
T5
X4.3025Y-2.619
X4.3025Y-3.319
X4.4025Y-2.619
X4.4025Y-3.319
X4.4713Y-3.5276
X4.5025Y-2.619
X4.5025Y-3.319
X4.6025Y-2.619
X4.6025Y-3.319
X4.7025Y-2.619
X4.7025Y-3.319
X4.8025Y-2.619
X4.8025Y-3.319
X4.8713Y-3.5276
X4.9025Y-2.619
X4.9025Y-3.319
X5.0025Y-2.619
X5.0025Y-3.319
X5.1025Y-2.619
X5.1025Y-3.319
X5.2025Y-2.619
X5.2025Y-3.319
X5.3025Y-2.619
X5.3025Y-3.319
X5.4025Y-2.619
X5.4025Y-3.319
X5.5025Y-2.619
X5.5025Y-3.319
X5.6025Y-2.619
X5.6025Y-3.319
X5.7025Y-2.619
X5.7025Y-3.319
X5.8025Y-2.619
X5.8025Y-3.319
X5.9025Y-2.619
X5.9025Y-3.319
X6.0025Y-2.619
X6.0025Y-3.319
X6.1025Y-2.619
X6.1025Y-3.319
X6.2025Y-2.619
X6.2025Y-3.319
X6.3025Y-2.619
X6.3025Y-3.319
X6.4025Y-2.619
X6.4025Y-3.319
T6
X4.6933Y-2.0683
X4.7479Y-1.9565
X4.8024Y-2.0683
X4.8569Y-1.9565
X4.9114Y-2.0683
X4.966Y-1.9565
X5.0205Y-2.0683
X5.075Y-1.9565
X5.1296Y-2.0683
X5.1841Y-1.9565
X5.2386Y-2.0683
X5.2931Y-1.9565
X5.3477Y-2.0683
X5.4022Y-1.9565
X5.4567Y-2.0683
X5.5113Y-1.9565
X5.5658Y-2.0683
X5.6203Y-1.9565
X5.6748Y-2.0683
X5.7294Y-1.9565
X5.7839Y-2.0683
X5.8384Y-1.9565
X5.8929Y-2.0683
X5.9475Y-1.9565
X6.002Y-2.0683
T7
X5.3581Y-2.8625
X5.3581Y-2.9625
X5.3581Y-3.0625
T8
X4.4205Y-2.0124
X6.2748Y-2.0124
T0
M30
